<svg width="1920" height="1080" viewBox="0 0 1920 1080" fill="none" xmlns="http://www.w3.org/2000/svg">
<g clip-path="url(#clip0_60_1064)">
<path d="M2132.76 -108.281H-162.422V1233.63H2132.76V-108.281Z" fill="url(#paint0_linear_60_1064)"/>
<path d="M-70.0898 74.446L473.209 157.593L-94.9604 230.535L-70.0898 74.446Z" fill="#52E7F9" fill-opacity="0.545595"/>
<path d="M1220.92 3.05176e-05L777.772 73.8766L1531.6 111.912L1133.51 187.342L2004.83 319.749L2014.52 -137.492L1220.92 3.05176e-05Z" fill="#52E7F9" fill-opacity="0.545595"/>
<path d="M1277.42 189.492C1328.3 189.492 1369.54 148.247 1369.54 97.3685C1369.54 46.4899 1328.3 5.24455 1277.42 5.24455C1226.54 5.24455 1185.29 46.4899 1185.29 97.3685C1185.29 148.247 1226.54 189.492 1277.42 189.492Z" fill="url(#paint1_radial_60_1064)"/>
<path d="M179.213 189.492C214.65 189.492 243.377 175.208 243.377 157.588C243.377 139.968 214.65 125.684 179.213 125.684C143.776 125.684 115.049 139.968 115.049 157.588C115.049 175.208 143.776 189.492 179.213 189.492Z" fill="white"/>
<path d="M251.436 189.492C287.854 189.492 317.376 175.208 317.376 157.588C317.376 139.968 287.854 125.684 251.436 125.684C215.019 125.684 185.497 139.968 185.497 157.588C185.497 175.208 215.019 189.492 251.436 189.492Z" fill="white"/>
<path d="M211.399 168.037C241.299 168.037 265.539 150.89 265.539 129.739C265.539 108.587 241.299 91.4402 211.399 91.4402C181.498 91.4402 157.259 108.587 157.259 129.739C157.259 150.89 181.498 168.037 211.399 168.037Z" fill="white"/>
<path d="M271.617 142.504C282.871 142.504 291.994 133.761 291.994 122.976C291.994 112.191 282.871 103.447 271.617 103.447C260.363 103.447 251.24 112.191 251.24 122.976C251.24 133.761 260.363 142.504 271.617 142.504Z" fill="white"/>
<path d="M522.06 167.817C568.513 167.817 606.171 150.72 606.171 129.629C606.171 108.538 568.513 91.4402 522.06 91.4402C475.606 91.4402 437.948 108.538 437.948 129.629C437.948 150.72 475.606 167.817 522.06 167.817Z" fill="white"/>
<path d="M616.184 167.817C645.348 167.817 668.99 148.182 668.99 123.961C668.99 99.7402 645.348 80.1052 616.184 80.1052C587.02 80.1052 563.377 99.7402 563.377 123.961C563.377 148.182 587.02 167.817 616.184 167.817Z" fill="white"/>
<path d="M584.913 199.921C618.552 199.921 645.821 179.361 645.821 153.998C645.821 128.636 618.552 108.075 584.913 108.075C551.274 108.075 524.005 128.636 524.005 153.998C524.005 179.361 551.274 199.921 584.913 199.921Z" fill="white"/>
<path d="M651.899 191.045C672.287 191.045 688.815 174.458 688.815 153.998C688.815 133.538 672.287 116.952 651.899 116.952C631.511 116.952 614.983 133.538 614.983 153.998C614.983 174.458 631.511 191.045 651.899 191.045Z" fill="white"/>
<path d="M668.99 165.378C691.948 165.378 710.559 146.835 710.559 123.961C710.559 101.087 691.948 82.5445 668.99 82.5445C646.032 82.5445 627.421 101.087 627.421 123.961C627.421 146.835 646.032 165.378 668.99 165.378Z" fill="white"/>
<path d="M863.351 235.76C891.383 235.76 914.108 222.279 914.108 205.65C914.108 189.021 891.383 175.54 863.351 175.54C835.319 175.54 812.594 189.021 812.594 205.65C812.594 222.279 835.319 235.76 863.351 235.76Z" fill="white"/>
<path d="M914.591 274.087C942.891 274.087 965.832 256.495 965.832 234.793C965.832 213.091 942.891 195.499 914.591 195.499C886.292 195.499 863.351 213.091 863.351 234.793C863.351 256.495 886.292 274.087 914.591 274.087Z" fill="white"/>
<path d="M923.776 219.979C945.668 219.979 963.415 207.025 963.415 191.045C963.415 175.065 945.668 162.11 923.776 162.11C901.884 162.11 884.137 175.065 884.137 191.045C884.137 207.025 901.884 219.979 923.776 219.979Z" fill="white"/>
<path d="M990.161 256.1C1015.21 256.1 1035.52 235.791 1035.52 210.739C1035.52 185.687 1015.21 165.378 990.161 165.378C965.108 165.378 944.8 185.687 944.8 210.739C944.8 235.791 965.108 256.1 990.161 256.1Z" fill="white"/>
<path d="M1221.21 189.492C1252.25 189.492 1277.42 177.619 1277.42 162.973C1277.42 148.327 1252.25 136.454 1221.21 136.454C1190.16 136.454 1164.99 148.327 1164.99 162.973C1164.99 177.619 1190.16 189.492 1221.21 189.492Z" fill="white"/>
<path d="M1329.89 196.56C1362.16 196.56 1388.32 174.355 1388.32 146.964C1388.32 119.573 1362.16 97.3685 1329.89 97.3685C1297.62 97.3685 1271.46 119.573 1271.46 146.964C1271.46 174.355 1297.62 196.56 1329.89 196.56Z" fill="white"/>
<path d="M1277.42 203.396C1295 203.396 1309.25 189.262 1309.25 171.825C1309.25 154.389 1295 140.254 1277.42 140.254C1259.84 140.254 1245.59 154.389 1245.59 171.825C1245.59 189.262 1259.84 203.396 1277.42 203.396Z" fill="white"/>
<path d="M1244.41 334.63C1251.27 334.63 1256.84 330.275 1256.84 324.903C1256.84 319.531 1251.27 315.176 1244.41 315.176C1237.55 315.176 1231.98 319.531 1231.98 324.903C1231.98 330.275 1237.55 334.63 1244.41 334.63Z" fill="white"/>
<path d="M1261.31 328.711C1266.92 328.711 1271.46 325.681 1271.46 321.944C1271.46 318.206 1266.92 315.176 1261.31 315.176C1255.7 315.176 1251.16 318.206 1251.16 321.944C1251.16 325.681 1255.7 328.711 1261.31 328.711Z" fill="white"/>
<path d="M1256.84 344.239C1266.18 344.239 1273.76 339.91 1273.76 334.571C1273.76 329.231 1266.18 324.903 1256.84 324.903C1247.49 324.903 1239.92 329.231 1239.92 334.571C1239.92 339.91 1247.49 344.239 1256.84 344.239Z" fill="white"/>
<path d="M1519.12 210.739C1536.05 210.739 1549.78 200.585 1549.78 188.059C1549.78 175.532 1536.05 165.378 1519.12 165.378C1502.19 165.378 1488.46 175.532 1488.46 188.059C1488.46 200.585 1502.19 210.739 1519.12 210.739Z" fill="white"/>
<path d="M1558.73 228.33C1571.53 228.33 1581.9 218.176 1581.9 205.65C1581.9 193.124 1571.53 182.969 1558.73 182.969C1545.93 182.969 1535.55 193.124 1535.55 205.65C1535.55 218.176 1545.93 228.33 1558.73 228.33Z" fill="white"/>
<path d="M1558.73 196.56C1571.53 196.56 1581.9 190.475 1581.9 182.969C1581.9 175.463 1571.53 169.379 1558.73 169.379C1545.93 169.379 1535.55 175.463 1535.55 182.969C1535.55 190.475 1545.93 196.56 1558.73 196.56Z" fill="white"/>
<path d="M1736.11 214.626C1755.6 214.626 1771.4 197.127 1771.4 175.54C1771.4 153.954 1755.6 136.454 1736.11 136.454C1716.62 136.454 1700.82 153.954 1700.82 175.54C1700.82 197.127 1716.62 214.626 1736.11 214.626Z" fill="white"/>
<path d="M1719.38 212.695C1734.11 212.695 1746.05 202.307 1746.05 189.492C1746.05 176.678 1734.11 166.29 1719.38 166.29C1704.65 166.29 1692.71 176.678 1692.71 189.492C1692.71 202.307 1704.65 212.695 1719.38 212.695Z" fill="white"/>
<path d="M1693.46 200.372C1704.4 200.372 1713.28 192.58 1713.28 182.969C1713.28 173.358 1704.4 165.567 1693.46 165.567C1682.51 165.567 1673.64 173.358 1673.64 182.969C1673.64 192.58 1682.51 200.372 1693.46 200.372Z" fill="white"/>
<path d="M1777.16 214.968C1793.31 214.968 1806.41 203.562 1806.41 189.492C1806.41 175.423 1793.31 164.017 1777.16 164.017C1761.01 164.017 1747.92 175.423 1747.92 189.492C1747.92 203.562 1761.01 214.968 1777.16 214.968Z" fill="white"/>
<path d="M1774.07 183.495C1780.88 183.495 1786.4 179.136 1786.4 173.759C1786.4 168.382 1780.88 164.023 1774.07 164.023C1767.27 164.023 1761.75 168.382 1761.75 173.759C1761.75 179.136 1767.27 183.495 1774.07 183.495Z" fill="white"/>
<path d="M478.184 669.997L817.047 349.02L845.317 320.016L872.662 282.367L899.324 227.677L917.782 243.4L964.453 187.343L1049.72 262.542L1152.27 320.016L1244.37 362.352L1515.15 590.72V938.767L478.184 925.232V669.997Z" fill="#C6C6C6"/>
<path d="M1080.6 618.267L1266.22 320.493L1305.98 264.119L1325.12 234.722L1338.79 193.705L1364.77 143.8L1370.24 127.393L1380.49 93.2112L1390.06 104.833L1394.16 121.924L1403.73 136.963L1413.31 126.709L1421.51 121.24L1428.35 121.924L1430.4 130.127L1439.28 146.534L1465.26 171.829L1483.72 216.264L1502.18 250.446L1518.58 312.656L1563.7 467.158L1651.89 609.351L1660.1 1052.34L1042.09 1014.06L1080.6 618.267Z" fill="#B0ABAB"/>
<path d="M618.042 663.988L814.388 422.578L897.822 373.017L902.618 399.82L897.822 432.171L945.785 399.82L956.976 358.628L1008.14 385.807L1067.29 399.82L1101 374.616L1276.72 441.831L1407.82 563.055L1380.64 939.82H621.24L618.042 663.988Z" fill="#ACACAC"/>
<path d="M1490.93 365.672L1570.23 264.495L1600.31 237.15L1608.51 179.725L1619.45 161.951L1634.49 168.787L1649.53 149.645L1696.02 124.351L1716.53 88.1186L1737.04 74.446L1739.77 101.791L1749.34 144.176L1750.71 164.685L1775.32 161.951L1798.56 153.747L1810.87 157.849L1819.07 166.052L1835.48 159.216L1843.68 186.561L1864.19 220.675L1895.64 234.415L1913.41 261.761L1935.29 332.858L1947.59 398.486L1946.23 862.103H1258.5L1272.17 552.987L1340.53 462.748L1367.88 454.544L1410.26 442.239L1444.29 399.872L1490.93 365.672Z" fill="#8C8888"/>
<path d="M741.978 428.297L538.95 236.871L509.946 233.004L500.278 213.668L477.075 180.797L473.208 157.594L446.137 190.465L409.399 178.864L376.528 149.86L341.723 163.395L332.055 188.532L289.516 213.668L287.582 231.071L264.379 236.871L239.243 200.133L231.508 159.528L192.836 225.27L154.164 244.606L127.094 288.484L74.8868 327.75L45.8829 441.833L-27.5938 629.391V1041.25H850.259L840.591 611.989L741.978 428.297Z" fill="#C2C2C2"/>
<path d="M376.529 149.858L341.724 163.394L332.056 188.53L289.517 213.667L287.584 231.069L264.38 236.87L239.244 200.132L231.509 159.526L192.837 225.269L154.166 244.605L127.095 288.483L74.8882 327.749L45.8843 441.831L112.845 345.927L158.064 310.882L197.63 257.191L232.675 281.489L254.156 263.401L308.419 312.013L291.46 353.841L256.416 390.017L372.857 370.798L420.517 307.464L487.035 257.191L549.21 293.925L580.318 275.874L538.951 236.87L509.947 233.003L500.279 213.667L477.076 180.796L473.208 157.593L446.138 190.464L409.4 178.862L376.529 149.858Z" fill="#F2EEEE"/>
<path d="M198.153 664.299L244.56 438.949L302.568 390.014L337.372 343.235L366.376 257.19L385.712 299.73L420.517 307.464L453.388 297.796L493.994 290.062L507.529 324.866L532.666 353.87L606.81 402.915L635.146 495.023L669.951 624.574L762.764 987.107H97.6064L198.153 664.299Z" fill="#D7CBCB"/>
<path d="M964.452 187.342L917.782 243.4L899.323 227.677L872.663 282.367L845.317 320.015L817.048 349.019L814.388 351.539L868.245 345.039L893.026 321.058L933.794 320.258L980.956 302.672L984.153 323.455L1011.33 335.447L1008.93 321.857L1028.12 322.656L1063.29 349.035L1062.49 324.256L1066.49 300.273L1093.67 309.867L1101 291.279L1049.72 262.541L964.452 187.342Z" fill="#E7E0E0"/>
<path d="M214.359 319.459L156.005 365.823L114.438 425.775L97.6067 479.333L62.4785 503.315L103.246 488.126L120.833 447.359L136.021 441.831H124.03L130.425 424.177L152.808 389.804L199.97 366.622V347.437L255.127 323.456L214.359 319.459Z" fill="#7C7C7C"/>
<path d="M1380.49 93.2115L1370.24 127.393L1364.77 143.801L1338.79 193.706L1325.12 234.723L1319.5 243.342L1365.98 213.663L1389.72 181.444L1400.46 206.313L1417.99 232.879L1407.82 253.794L1430.42 235.706L1434.94 210.27L1458.12 222.706L1460.94 247.01L1486.38 254.36L1497.69 281.491L1502.63 252.153L1502.18 250.446L1483.72 216.264L1465.26 171.829L1439.28 146.536L1430.39 130.127L1428.34 121.924L1421.51 121.241L1413.3 126.71L1403.73 136.963L1394.16 121.924L1390.06 104.835L1380.49 93.2115Z" fill="#C6C5C5"/>
<path d="M1737.04 74.4448L1716.53 88.1187L1696.02 124.351L1649.53 149.644L1634.49 168.787L1619.45 161.951L1608.51 179.724L1600.31 237.15L1585.27 250.822L1596.04 281.49L1626.56 256.619L1676.3 219.314L1694.39 252.097L1719.26 256.619V297.316L1671.78 351.539L1676.3 386.625L1689.87 358.628L1718.13 324.449L1762.22 293.925L1775.78 244.183L1854.92 281.49L1859.44 304.099L1935.29 332.857L1913.41 261.759L1895.64 234.416L1864.19 220.675L1843.68 186.56L1835.48 159.216L1819.07 166.052L1810.87 157.849L1798.56 153.748L1775.32 161.951L1750.71 164.685L1749.34 144.175L1739.77 101.791L1737.04 74.4448Z" fill="#A7A2A2"/>
<path d="M313.101 503.315L396.687 339.131L411.333 503.315L484.977 378.712L531.327 533.588L313.101 503.315Z" fill="#09C529"/>
<path d="M659.071 595.554L731.422 452.738L762.764 649.224L799.251 477.064L869.899 697.556L687.381 692.657L659.071 595.554Z" fill="#09A023"/>
<path d="M1010.63 635.331L1088.65 462.367L1110.13 508.91L1160.14 397.238L1196.67 491.76L1229.96 452.738L1297.79 622.149L1010.63 635.331Z" fill="#0CC92D"/>
<path d="M762.764 649.224L843.34 484.977L878.385 546.023L899.864 494.021L941.661 659.071L762.764 649.224Z" fill="#09A023"/>
<path d="M916.446 666.583L976.737 503.315L1012.93 670.376L916.446 666.583Z" fill="#09C529"/>
<path d="M516.63 570.894L606.81 402.915L610.46 574.605L684.34 474.722L669.951 624.574L516.63 570.894Z" fill="#0CC92D"/>
<path d="M158.803 483.912L227.549 335.446L255.127 503.315L158.803 483.912Z" fill="#09A023"/>
<path d="M484.419 469.231L545.171 386.097L549.168 436.359L584.913 402.915L587.319 478.367L638.698 452.738L647.4 524.664L484.419 469.231Z" fill="#20E211"/>
<path d="M223.025 441.831L256.415 390.017L273.564 414.481L305.76 362.915L319.349 452.738L223.025 441.831Z" fill="#3BE211"/>
<path d="M383.299 453.308L422.214 368.51L436.057 411.387L460.039 391.692L465.234 470.031L383.299 453.308Z" fill="#11E225"/>
<path d="M716.215 543.283L761.494 487.612L764.485 603.526L716.215 543.283Z" fill="#11E225"/>
<path d="M871.608 604.945L941.661 484.977L994.834 586.845L1012.93 516.285L1042.09 586.845L871.608 604.945Z" fill="#11E225"/>
<path d="M764.485 603.526L834.575 587.31L852.213 654.148L764.485 603.526Z" fill="#11E225"/>
<path d="M1209.62 572.777L1266.14 464.628L1298.85 517.76L1332.33 493.247L1363.93 556.763L1209.62 572.777Z" fill="#3BE211"/>
<path d="M1312.49 550.545L1357.71 484.977L1407.82 563.055L1312.49 550.545Z" fill="#08B516"/>
<path d="M1525.02 536.414C1525.02 533.023 1499.02 434.671 1499.02 434.671L1483.76 480.455L1469.06 475.368L1465.67 495.717L1440.23 468.274L1422.71 540L1525.02 536.414Z" fill="#32BB10"/>
<path d="M1374.54 532.276L1396.15 468.274L1434.02 554.502L1374.54 532.276Z" fill="#3BE211"/>
<path d="M1560.07 555.384C1571.57 540.523 1638.71 439.655 1638.71 439.655L1643.44 523.883L1673.64 486.723L1685.93 509.078L1709.86 455.642L1726.64 523.883L1572.36 540.523L1560.07 555.384Z" fill="#16CF0D"/>
<path d="M1792 509.232L1825.73 452.738L1863.04 544.961L1792 509.232Z" fill="#11E222"/>
<path d="M1726.64 523.883L1746.31 486.723L1752.53 500.804L1772.88 473.39L1791.29 532.457L1726.64 523.883Z" fill="#48EC1F"/>
<path d="M-128.875 441.831C-128.875 441.831 472.429 360.796 716.215 543.283C960 725.77 1196.05 766.467 1196.05 766.467L1209.62 1236.75L-165.051 1216.4L-128.875 441.831Z" fill="#04DD40"/>
<path d="M-165.051 486.108C-165.051 486.108 426.432 338.934 824.931 662.742C1152.01 928.515 1515.15 938.767 1515.15 938.767L1560.07 1437.97C1560.07 1437.97 -146.963 1358.84 -137.919 1345.27C-128.875 1331.71 -176.355 488.368 -176.355 488.368L-165.051 486.108Z" fill="#05EA31"/>
<path d="M180.504 452.996C155.694 452.534 131.679 452.715 108.631 453.375C231.457 497.128 374.839 573.271 411.333 697.556C478.184 925.232 762.764 987.107 762.764 987.107L808.35 970.437C808.35 970.437 479.144 852.305 453.936 697.556C435.623 585.135 314.295 506.005 209.871 453.837C191.856 452.841 197.821 453.318 180.504 452.996Z" fill="#E8D710"/>
<path d="M2003.22 515.5C2003.22 515.5 1125.61 463.946 762.764 649.224C424.667 821.867 -108.526 791.338 -108.526 791.338L-128.875 1153.09L2014.52 1125.96L2003.22 515.5Z" fill="#23F45D"/>
<path d="M2043.91 572.777C2043.91 572.777 1030.22 523.58 824.931 662.742C619.641 801.904 -146.963 829.115 -146.963 829.115L-176.355 1297.79L2039.39 1207.36L2043.91 572.777Z" fill="#26FF3B"/>
<path d="M1497.65 657.511H1720.69C1720.69 657.511 1678.09 536.152 1611.35 604.647C1611.35 604.647 1562.63 490.664 1497.65 657.511Z" fill="#0AB236"/>
<path d="M1507.65 654.913H1710.69C1710.69 654.913 1670.77 549.371 1610.02 611.722C1610.02 611.722 1566.8 503.032 1507.65 654.913Z" fill="#1ED54E"/>
<path d="M2006.41 687.944C2006.41 687.944 381.598 645.711 942.822 939.82C1328.22 1141.79 942.822 1356.58 942.822 1356.58L1987.39 1327.19L2006.41 687.944Z" fill="#04A0DD"/>
<path d="M2043.91 728.031L1258.49 768.728L2042.41 783.419L2043.91 728.031Z" fill="#26E6FF"/>
<path d="M2044.43 845.601L1200.01 903.815L2086.87 1008.39L2044.43 845.601Z" fill="#26E6FF"/>
<path d="M1025.8 992.276C1090.13 1042.2 1113.77 1091.68 1113.85 1137.36L1675.29 1130.25L1351.09 1033.2L1718.33 1021.21L1025.8 992.276Z" fill="#1AD4FF"/>
<path d="M913.091 759.447C859.518 777.604 826.378 800.034 824.589 827.922L1196.67 811.129L913.091 759.447Z" fill="#18E4F2"/>
<path d="M2043.16 755.725C2043.16 755.725 900.243 674.741 942.822 845.601C984.183 1011.57 1248.5 954.055 1220.92 1137.36C1193.35 1320.67 1987.39 1327.19 1987.39 1327.19L2043.16 755.725Z" fill="#1A89FF" fill-opacity="0.587326"/>
<path d="M332.152 891.937C332.152 891.937 58.1064 924.373 332.152 489.779C332.152 489.779 603.035 893.366 332.152 891.937Z" fill="#03C129"/>
<path d="M332.111 890.281C332.111 890.281 73.9303 920.839 332.111 511.403C332.111 511.403 587.313 891.626 332.111 890.281Z" fill="#01CD2A"/>
<path d="M325.885 976.312V577.092C325.885 567.927 337.014 566.766 337.014 577.092V976.491C337.014 985.498 325.878 985.739 325.885 976.312Z" fill="#CA821E"/>
<path d="M627.87 810.441H804.845L720.053 511.7L627.87 810.441Z" fill="#01710C"/>
<path d="M636.454 805.84H796.261L719.695 536.081L636.454 805.84Z" fill="#00820D"/>
<path d="M714.817 868.65V621.719C714.817 616.05 723.89 615.332 723.89 621.719V868.761C723.89 874.332 714.812 874.481 714.817 868.65Z" fill="#CA821E"/>
<path d="M539.577 971.131C606.418 971.131 660.604 916.945 660.604 850.104C660.604 783.262 606.418 729.077 539.577 729.077C472.735 729.077 418.55 783.262 418.55 850.104C418.55 916.945 472.735 971.131 539.577 971.131Z" fill="#0AAF2B"/>
<path d="M539.577 971.131C603.769 971.131 655.808 919.092 655.808 854.9C655.808 790.707 603.769 738.669 539.577 738.669C475.384 738.669 423.346 790.707 423.346 854.9C423.346 919.092 475.384 971.131 539.577 971.131Z" fill="#03C129"/>
<path d="M535.62 1051.98V828.791C535.62 823.667 544.693 823.018 544.693 828.791V1052.08C544.693 1057.11 535.614 1057.25 535.62 1051.98Z" fill="#CA821E"/>
<path d="M1174.35 596.849C1162.02 593.451 1118.28 573.277 1115.15 522.316C1112.89 485.477 1150.55 472.111 1133.52 389.318C1128.13 363.091 1190.67 316.224 1219.5 343.618C1256.59 378.855 1246.41 389.079 1266.5 400.066C1294.21 415.218 1267.72 478.826 1280.96 502.22C1297.14 530.82 1279.5 583.122 1222.77 596.849C1195 603.57 1174.35 596.849 1174.35 596.849ZM1164.07 599.688C1151.74 596.291 1108 576.116 1104.87 525.155C1102.61 488.316 1140.27 474.95 1123.24 392.158C1117.85 365.93 1180.39 319.063 1209.23 346.458C1246.31 381.694 1236.13 391.918 1256.22 402.905C1283.94 418.057 1257.44 481.665 1270.68 505.059C1286.86 533.659 1269.22 585.961 1212.49 599.688C1184.72 606.409 1164.07 599.688 1164.07 599.688Z" fill="#02971E"/>
<path d="M1175.82 595.611C1164.44 592.475 1124.06 573.847 1121.17 526.796C1119.08 492.782 1153.85 480.441 1138.13 403.999C1133.15 379.784 1190.9 336.511 1217.52 361.804C1251.76 394.338 1242.36 403.778 1260.91 413.923C1286.5 427.912 1262.03 486.641 1274.26 508.241C1289.2 534.647 1272.91 582.937 1220.53 595.611C1194.89 601.817 1175.82 595.611 1175.82 595.611ZM1166.33 598.233C1154.95 595.096 1114.56 576.469 1111.68 529.417C1109.59 495.403 1144.36 483.062 1128.64 406.621C1123.66 382.405 1181.41 339.133 1208.03 364.426C1242.27 396.96 1232.86 406.399 1251.42 416.544C1277.01 430.534 1252.54 489.262 1264.77 510.862C1279.71 537.268 1263.42 585.559 1211.04 598.233C1185.4 604.438 1166.33 598.233 1166.33 598.233Z" fill="#00A519"/>
<path d="M1192.82 645.884V412.614C1192.82 407.259 1201.54 406.58 1201.54 412.614V645.989C1201.54 651.252 1192.82 651.393 1192.82 645.884Z" fill="#CA821E"/>
<path d="M696.835 1037.04L950.997 1035.08C950.997 1035.08 916.554 891.184 871.129 978.434C871.129 978.434 827.869 870.787 777.994 974.71C777.994 974.71 716.528 890.244 696.835 1037.04Z" fill="#07C430"/>
<path d="M705.014 1031.78H941.628C941.628 1031.78 911.335 910.019 870.768 987.936C870.768 987.936 822.742 892.303 778.201 985.11C778.201 985.11 722.6 900.684 705.014 1031.78Z" fill="#0ED445"/>
</g>
<defs>
<linearGradient id="paint0_linear_60_1064" x1="971.408" y1="693.49" x2="985.168" y2="-108.281" gradientUnits="userSpaceOnUse">
<stop stop-color="#1DE1FF"/>
<stop offset="1" stop-color="#25FFF9"/>
</linearGradient>
<radialGradient id="paint1_radial_60_1064" cx="0" cy="0" r="1" gradientUnits="userSpaceOnUse" gradientTransform="translate(1277.42 97.3685) scale(92.1239 92.124)">
<stop offset="0.70614" stop-color="#F5FFBB"/>
<stop offset="1" stop-color="#F5FFBB" stop-opacity="0"/>
</radialGradient>
<clipPath id="clip0_60_1064">
<rect width="1920" height="1080" fill="white"/>
</clipPath>
</defs>
</svg>
