<svg width="1920" height="1080" viewBox="0 0 1920 1080" fill="none" xmlns="http://www.w3.org/2000/svg">
<g clip-path="url(#clip0_60_821)">
<path d="M2132.76 -108.281H-162.422V1233.63H2132.76V-108.281Z" fill="url(#paint0_linear_60_821)"/>
<path d="M-70.0898 74.446L473.209 157.593L-94.9604 230.535L-70.0898 74.446Z" fill="#A9E4EB" fill-opacity="0.545595"/>
<path d="M1220.92 3.05176e-05L777.772 73.8766L1531.6 111.912L1133.51 187.342L2004.83 319.749L2014.52 -137.492L1220.92 3.05176e-05Z" fill="#A7EEF6" fill-opacity="0.545595"/>
<path d="M321.37 125.543C372.248 125.543 413.494 84.2974 413.494 33.4188C413.494 -17.4599 372.248 -58.7052 321.37 -58.7052C270.491 -58.7052 229.246 -17.4599 229.246 33.4188C229.246 84.2974 270.491 125.543 321.37 125.543Z" fill="url(#paint1_radial_60_821)"/>
<path d="M102.34 187.232C137.777 187.232 166.504 172.947 166.504 155.327C166.504 137.707 137.777 123.423 102.34 123.423C66.9034 123.423 38.1763 137.707 38.1763 155.327C38.1763 172.947 66.9034 187.232 102.34 187.232Z" fill="white"/>
<path d="M174.563 187.232C210.98 187.232 240.502 172.947 240.502 155.327C240.502 137.707 210.98 123.423 174.563 123.423C138.146 123.423 108.624 137.707 108.624 155.327C108.624 172.947 138.146 187.232 174.563 187.232Z" fill="white"/>
<path d="M134.526 165.776C164.426 165.776 188.666 148.629 188.666 127.478C188.666 106.326 164.426 89.1792 134.526 89.1792C104.625 89.1792 80.3857 106.326 80.3857 127.478C80.3857 148.629 104.625 165.776 134.526 165.776Z" fill="white"/>
<path d="M194.744 140.243C205.998 140.243 215.122 131.5 215.122 120.715C215.122 109.93 205.998 101.186 194.744 101.186C183.49 101.186 174.367 109.93 174.367 120.715C174.367 131.5 183.49 140.243 194.744 140.243Z" fill="white"/>
<path d="M503.886 238.683C550.339 238.683 587.997 221.585 587.997 200.494C587.997 179.403 550.339 162.306 503.886 162.306C457.432 162.306 419.774 179.403 419.774 200.494C419.774 221.585 457.432 238.683 503.886 238.683Z" fill="white"/>
<path d="M598.01 238.683C627.174 238.683 650.816 219.048 650.816 194.827C650.816 170.606 627.174 150.971 598.01 150.971C568.846 150.971 545.203 170.606 545.203 194.827C545.203 219.048 568.846 238.683 598.01 238.683Z" fill="white"/>
<path d="M566.739 270.787C600.378 270.787 627.648 250.226 627.648 224.864C627.648 199.501 600.378 178.941 566.739 178.941C533.101 178.941 505.831 199.501 505.831 224.864C505.831 250.226 533.101 270.787 566.739 270.787Z" fill="white"/>
<path d="M633.725 261.91C654.113 261.91 670.641 245.324 670.641 224.864C670.641 204.404 654.113 187.818 633.725 187.818C613.337 187.818 596.809 204.404 596.809 224.864C596.809 245.324 613.337 261.91 633.725 261.91Z" fill="white"/>
<path d="M650.816 236.244C673.774 236.244 692.385 217.701 692.385 194.827C692.385 171.953 673.774 153.41 650.816 153.41C627.858 153.41 609.247 171.953 609.247 194.827C609.247 217.701 627.858 236.244 650.816 236.244Z" fill="white"/>
<path d="M1155.02 163.409C1183.05 163.409 1205.77 149.928 1205.77 133.299C1205.77 116.67 1183.05 103.189 1155.02 103.189C1126.98 103.189 1104.26 116.67 1104.26 133.299C1104.26 149.928 1126.98 163.409 1155.02 163.409Z" fill="white"/>
<path d="M1206.26 201.736C1234.55 201.736 1257.5 184.144 1257.5 162.442C1257.5 140.74 1234.55 123.148 1206.26 123.148C1177.96 123.148 1155.02 140.74 1155.02 162.442C1155.02 184.144 1177.96 201.736 1206.26 201.736Z" fill="white"/>
<path d="M1215.44 147.628C1237.33 147.628 1255.08 134.674 1255.08 118.694C1255.08 102.714 1237.33 89.7593 1215.44 89.7593C1193.55 89.7593 1175.8 102.714 1175.8 118.694C1175.8 134.674 1193.55 147.628 1215.44 147.628Z" fill="white"/>
<path d="M1281.82 183.749C1306.88 183.749 1327.19 163.44 1327.19 138.388C1327.19 113.336 1306.88 93.027 1281.82 93.027C1256.77 93.027 1236.46 113.336 1236.46 138.388C1236.46 163.44 1256.77 183.749 1281.82 183.749Z" fill="white"/>
<path d="M818.753 184.971C849.799 184.971 874.967 173.098 874.967 158.451C874.967 143.805 849.799 131.932 818.753 131.932C787.708 131.932 762.54 143.805 762.54 158.451C762.54 173.098 787.708 184.971 818.753 184.971Z" fill="white"/>
<path d="M927.44 192.038C959.71 192.038 985.871 169.833 985.871 142.442C985.871 115.051 959.71 92.8466 927.44 92.8466C895.169 92.8466 869.009 115.051 869.009 142.442C869.009 169.833 895.169 192.038 927.44 192.038Z" fill="white"/>
<path d="M874.967 198.874C892.545 198.874 906.795 184.74 906.795 167.303C906.795 149.867 892.545 135.733 874.967 135.733C857.389 135.733 843.139 149.867 843.139 167.303C843.139 184.74 857.389 198.874 874.967 198.874Z" fill="white"/>
<path d="M1506.68 162.796C1513.55 162.796 1519.11 158.441 1519.11 153.07C1519.11 147.698 1513.55 143.343 1506.68 143.343C1499.82 143.343 1494.25 147.698 1494.25 153.07C1494.25 158.441 1499.82 162.796 1506.68 162.796Z" fill="white"/>
<path d="M1523.58 156.878C1529.19 156.878 1533.73 153.848 1533.73 150.11C1533.73 146.373 1529.19 143.343 1523.58 143.343C1517.97 143.343 1513.43 146.373 1513.43 150.11C1513.43 153.848 1517.97 156.878 1523.58 156.878Z" fill="white"/>
<path d="M1519.11 172.406C1528.45 172.406 1536.03 168.077 1536.03 162.738C1536.03 157.398 1528.45 153.07 1519.11 153.07C1509.77 153.07 1502.19 157.398 1502.19 162.738C1502.19 168.077 1509.77 172.406 1519.11 172.406Z" fill="white"/>
<path d="M1806.26 138.388C1823.19 138.388 1836.92 128.234 1836.92 115.708C1836.92 103.182 1823.19 93.0271 1806.26 93.0271C1789.33 93.0271 1775.6 103.182 1775.6 115.708C1775.6 128.234 1789.33 138.388 1806.26 138.388Z" fill="white"/>
<path d="M1845.87 155.98C1858.67 155.98 1869.05 145.825 1869.05 133.299C1869.05 120.773 1858.67 110.619 1845.87 110.619C1833.07 110.619 1822.7 120.773 1822.7 133.299C1822.7 145.825 1833.07 155.98 1845.87 155.98Z" fill="white"/>
<path d="M1845.87 124.209C1858.67 124.209 1869.05 118.124 1869.05 110.618C1869.05 103.113 1858.67 97.0278 1845.87 97.0278C1833.07 97.0278 1822.7 103.113 1822.7 110.618C1822.7 118.124 1833.07 124.209 1845.87 124.209Z" fill="white"/>
<path d="M1736.11 214.626C1755.6 214.626 1771.4 197.127 1771.4 175.54C1771.4 153.954 1755.6 136.454 1736.11 136.454C1716.62 136.454 1700.82 153.954 1700.82 175.54C1700.82 197.127 1716.62 214.626 1736.11 214.626Z" fill="white"/>
<path d="M1719.38 212.695C1734.11 212.695 1746.05 202.307 1746.05 189.492C1746.05 176.678 1734.11 166.29 1719.38 166.29C1704.65 166.29 1692.71 176.678 1692.71 189.492C1692.71 202.307 1704.65 212.695 1719.38 212.695Z" fill="white"/>
<path d="M1693.46 200.372C1704.4 200.372 1713.28 192.58 1713.28 182.969C1713.28 173.358 1704.4 165.567 1693.46 165.567C1682.51 165.567 1673.64 173.358 1673.64 182.969C1673.64 192.58 1682.51 200.372 1693.46 200.372Z" fill="white"/>
<path d="M1777.16 214.968C1793.31 214.968 1806.41 203.562 1806.41 189.492C1806.41 175.423 1793.31 164.017 1777.16 164.017C1761.01 164.017 1747.92 175.423 1747.92 189.492C1747.92 203.562 1761.01 214.968 1777.16 214.968Z" fill="white"/>
<path d="M1774.07 183.495C1780.88 183.495 1786.4 179.136 1786.4 173.759C1786.4 168.382 1780.88 164.023 1774.07 164.023C1767.27 164.023 1761.75 168.382 1761.75 173.759C1761.75 179.136 1767.27 183.495 1774.07 183.495Z" fill="white"/>
<path d="M478.184 669.997L817.047 349.02L845.317 320.016L872.662 282.367L899.324 227.677L917.782 243.4L964.453 187.343L1049.72 262.542L1152.27 320.016L1244.37 362.352L1515.15 590.72V938.767L478.184 925.232V669.997Z" fill="#C6C6C6"/>
<path d="M1080.6 618.267L1266.22 320.493L1305.98 264.119L1325.12 234.722L1338.79 193.705L1364.77 143.8L1370.24 127.393L1380.49 93.2112L1390.06 104.833L1394.16 121.924L1403.73 136.963L1413.31 126.709L1421.51 121.24L1428.35 121.924L1430.4 130.127L1439.28 146.534L1465.26 171.829L1483.72 216.264L1502.18 250.446L1518.58 312.656L1563.7 467.158L1651.89 609.351L1660.1 1052.34L1042.09 1014.06L1080.6 618.267Z" fill="#B0ABAB"/>
<path d="M618.042 663.988L814.388 422.578L897.822 373.017L902.618 399.82L897.822 432.17L945.785 399.82L956.976 358.628L1008.14 385.807L1067.29 399.82L1101 374.616L1276.72 441.831L1407.82 563.055L1380.64 939.82H621.24L618.042 663.988Z" fill="#ACACAC"/>
<path d="M1490.93 365.672L1570.23 264.495L1600.31 237.15L1608.51 179.725L1619.45 161.951L1634.49 168.787L1649.53 149.645L1696.02 124.351L1716.53 88.1186L1737.04 74.446L1739.77 101.791L1749.34 144.176L1750.71 164.685L1775.32 161.951L1798.56 153.747L1810.87 157.849L1819.07 166.052L1835.48 159.216L1843.68 186.561L1864.19 220.675L1895.64 234.415L1913.41 261.761L1935.29 332.858L1947.59 398.486L1946.23 862.103H1258.5L1272.17 552.987L1340.53 462.748L1367.88 454.544L1410.26 442.239L1444.29 399.872L1490.93 365.672Z" fill="#B8B3B3"/>
<path d="M741.978 428.297L538.95 236.871L509.946 233.004L500.278 213.668L477.075 180.797L473.208 157.594L446.137 190.465L409.399 178.864L376.528 149.86L341.723 163.395L332.055 188.532L289.516 213.668L287.582 231.071L264.379 236.871L239.243 200.133L231.508 159.528L192.836 225.27L154.164 244.606L127.094 288.484L74.8868 327.75L45.8829 441.833L-27.5938 629.392V1041.25H850.259L840.591 611.989L741.978 428.297Z" fill="#C2C2C2"/>
<path d="M376.529 149.858L341.724 163.394L332.056 188.53L289.517 213.667L287.584 231.069L264.38 236.87L239.244 200.132L231.509 159.526L192.837 225.269L154.166 244.605L127.095 288.483L74.8882 327.749L45.8843 441.831L112.845 345.927L158.064 310.882L197.63 257.19L232.675 281.489L254.156 263.401L308.419 312.013L291.46 353.841L256.416 390.017L372.857 370.798L420.517 307.464L487.035 257.19L549.21 293.925L580.318 275.874L538.951 236.87L509.947 233.003L500.279 213.667L477.076 180.796L473.208 157.593L446.138 190.464L409.4 178.862L376.529 149.858Z" fill="white"/>
<path d="M198.153 664.299L244.56 438.948L302.568 390.014L337.372 343.235L366.376 257.19L385.712 299.73L420.517 307.464L453.388 297.796L493.994 290.062L507.529 324.866L532.666 353.87L606.81 402.915L635.146 495.023L669.951 624.574L762.764 987.107H97.6064L198.153 664.299Z" fill="#D7CBCB"/>
<path d="M964.452 187.342L917.782 243.4L899.323 227.677L872.663 282.367L845.317 320.015L817.048 349.019L814.388 351.539L868.245 345.039L893.026 321.058L933.794 320.258L980.956 302.672L984.153 323.455L1011.33 335.447L1008.93 321.857L1028.12 322.656L1063.29 349.035L1062.49 324.256L1066.49 300.273L1093.67 309.867L1101 291.279L1049.72 262.541L964.452 187.342Z" fill="white"/>
<path d="M214.359 319.459L156.005 365.823L114.438 425.775L97.6067 479.333L62.4785 503.315L103.246 488.126L120.833 447.359L136.021 441.831H124.03L130.425 424.177L152.808 389.804L199.97 366.622V347.437L255.127 323.456L214.359 319.459Z" fill="#7C7C7C"/>
<path d="M1380.49 93.2114L1370.24 127.393L1364.77 143.801L1338.79 193.706L1325.12 234.723L1319.5 243.342L1365.98 213.663L1389.72 181.444L1400.46 206.313L1417.99 232.879L1407.82 253.793L1430.42 235.706L1434.94 210.27L1458.12 222.706L1460.94 247.01L1486.38 254.36L1497.69 281.491L1502.63 252.153L1502.18 250.446L1483.72 216.264L1465.26 171.829L1439.28 146.536L1430.39 130.127L1428.34 121.924L1421.51 121.241L1413.3 126.709L1403.73 136.963L1394.16 121.924L1390.06 104.834L1380.49 93.2114Z" fill="white"/>
<path d="M1737.04 74.4448L1716.53 88.1187L1696.02 124.351L1649.53 149.644L1634.49 168.787L1619.45 161.951L1608.51 179.724L1600.31 237.15L1585.27 250.822L1596.04 281.49L1626.56 256.619L1676.3 219.314L1694.39 252.097L1719.26 256.619V297.316L1671.78 351.539L1676.3 386.625L1689.87 358.628L1718.13 324.449L1762.22 293.925L1775.78 244.183L1854.92 281.49L1859.44 304.099L1935.29 332.857L1913.41 261.759L1895.64 234.416L1864.19 220.675L1843.68 186.56L1835.48 159.216L1819.07 166.052L1810.87 157.849L1798.56 153.748L1775.32 161.951L1750.71 164.685L1749.34 144.175L1739.77 101.791L1737.04 74.4448Z" fill="white"/>
<path d="M313.101 503.315L396.687 339.131L411.333 503.315L484.977 378.712L531.327 533.588L313.101 503.315Z" fill="#D6F7DB"/>
<path d="M659.071 595.554L731.422 452.738L762.764 649.224L799.251 477.064L869.899 697.556L687.381 692.657L659.071 595.554Z" fill="#AAF5B7"/>
<path d="M1010.63 635.331L1088.65 462.368L1110.13 508.91L1160.14 397.238L1196.67 491.76L1229.96 452.738L1297.79 622.149L1010.63 635.331Z" fill="#DDFDE3"/>
<path d="M762.764 649.224L843.34 484.977L878.385 546.023L899.864 494.021L941.661 659.071L762.764 649.224Z" fill="#8ED69A"/>
<path d="M916.446 666.583L976.737 503.315L1012.93 670.376L916.446 666.583Z" fill="#8CE69B"/>
<path d="M516.63 570.894L606.81 402.915L610.46 574.605L684.34 474.722L669.951 624.574L516.63 570.894Z" fill="#BEE6C5"/>
<path d="M158.803 483.912L227.549 335.447L255.127 503.315L158.803 483.912Z" fill="#7DE18E"/>
<path d="M484.419 469.231L545.171 386.097L549.168 436.359L584.913 402.915L587.319 478.367L638.698 452.738L647.4 524.664L484.419 469.231Z" fill="#CAFEC6"/>
<path d="M223.025 441.831L256.415 390.017L273.564 414.481L305.76 362.915L319.349 452.738L223.025 441.831Z" fill="#CBE6C4"/>
<path d="M383.299 453.308L422.214 368.51L436.057 411.387L460.039 391.692L465.234 470.031L383.299 453.308Z" fill="#ACF1B2"/>
<path d="M716.215 543.283L761.494 487.612L764.485 603.526L716.215 543.283Z" fill="#C1EAC5"/>
<path d="M871.608 604.945L941.661 484.977L994.834 586.845L1012.93 516.285L1042.09 586.845L871.608 604.945Z" fill="#BBEFC0"/>
<path d="M764.485 603.526L834.575 587.31L852.213 654.148L764.485 603.526Z" fill="#CEFFD2"/>
<path d="M1209.62 572.777L1266.14 464.628L1298.85 517.76L1332.33 493.247L1363.93 556.763L1209.62 572.777Z" fill="#D9FBD1"/>
<path d="M1312.49 550.545L1357.71 484.977L1407.82 563.055L1312.49 550.545Z" fill="#CAF8CE"/>
<path d="M1525.02 536.414C1525.02 533.023 1499.02 434.671 1499.02 434.671L1483.76 480.455L1469.06 475.368L1465.67 495.717L1440.23 468.274L1422.71 540L1525.02 536.414Z" fill="#BFF2B2"/>
<path d="M1374.54 532.276L1396.15 468.274L1434.02 554.502L1374.54 532.276Z" fill="#C6F7BA"/>
<path d="M1560.07 555.384C1571.57 540.523 1638.71 439.655 1638.71 439.655L1643.44 523.883L1673.64 486.723L1685.93 509.078L1709.86 455.642L1726.64 523.883L1572.36 540.523L1560.07 555.384Z" fill="#C7F8C5"/>
<path d="M1792 509.232L1825.73 452.738L1863.04 544.961L1792 509.232Z" fill="#9CE9A2"/>
<path d="M1726.64 523.883L1746.31 486.723L1752.53 500.804L1772.88 473.39L1791.29 532.457L1726.64 523.883Z" fill="#D3FAC9"/>
<path d="M-128.875 441.831C-128.875 441.831 472.429 360.796 716.215 543.283C960 725.77 1196.05 766.467 1196.05 766.467L1209.62 1236.75L-165.051 1216.4L-128.875 441.831Z" fill="#C9FFFD"/>
<path d="M-165.051 486.108C-165.051 486.108 426.432 338.934 824.931 662.742C1152.01 928.515 1515.15 938.767 1515.15 938.767L1560.07 1437.97C1560.07 1437.97 -146.963 1358.84 -137.919 1345.27C-128.875 1331.71 -176.355 488.369 -176.355 488.369L-165.051 486.108Z" fill="#EFFAFF"/>
<path d="M180.504 452.996C155.694 452.534 131.679 452.715 108.631 453.375C231.457 497.128 374.839 573.271 411.333 697.556C478.184 925.231 762.764 987.107 762.764 987.107L808.35 970.437C808.35 970.437 479.144 852.305 453.936 697.556C435.623 585.135 314.295 506.005 209.871 453.837C191.856 452.841 197.821 453.318 180.504 452.996Z" fill="#E0DDB6"/>
<path d="M2003.22 515.5C2003.22 515.5 1125.61 463.946 762.764 649.224C424.667 821.867 -108.526 791.338 -108.526 791.338L-128.875 1153.09L2014.52 1125.96L2003.22 515.5Z" fill="#9AFFFE"/>
<path d="M2043.91 572.777C2043.91 572.777 1030.22 523.58 824.931 662.742C619.641 801.904 -146.963 829.115 -146.963 829.115L-176.355 1297.79L2039.39 1207.36L2043.91 572.777Z" fill="#E8FDFF"/>
<path d="M1497.65 657.511H1720.69C1720.69 657.511 1678.09 536.152 1611.35 604.647C1611.35 604.647 1562.63 490.664 1497.65 657.511Z" fill="white"/>
<path d="M1507.65 654.913H1710.69C1710.69 654.913 1670.77 549.371 1610.02 611.722C1610.02 611.722 1566.8 503.032 1507.65 654.913Z" fill="#DCFFE5"/>
<path d="M2006.41 687.944C2006.41 687.944 381.598 645.711 942.822 939.82C1328.22 1141.79 942.822 1356.58 942.822 1356.58L1987.39 1327.19L2006.41 687.944Z" fill="#96E5F4"/>
<path d="M2043.91 728.031L1258.49 768.728L2042.41 783.419L2043.91 728.031Z" fill="#C5F5FB"/>
<path d="M2044.43 845.601L1200.01 903.815L2086.87 1008.39L2044.43 845.601Z" fill="white"/>
<path d="M1025.8 992.276C1090.13 1042.2 1113.77 1091.68 1113.85 1137.36L1675.29 1130.25L1351.09 1033.2L1718.33 1021.21L1025.8 992.276Z" fill="#90D5E5"/>
<path d="M913.091 759.448C859.518 777.604 826.378 800.034 824.589 827.922L1196.67 811.129L913.091 759.448Z" fill="#CDF6F9"/>
<path d="M2043.16 755.725C2043.16 755.725 900.243 674.741 942.822 845.601C984.183 1011.57 1248.5 954.055 1220.92 1137.36C1193.35 1320.67 1987.39 1327.19 1987.39 1327.19L2043.16 755.725Z" fill="#C8F9FD" fill-opacity="0.587326"/>
<path d="M1063.5 874.407H1220.92C1231.24 874.407 1231.17 891.319 1220.92 891.319H1063.5C1054.79 891.319 1054.07 874.407 1063.5 874.407Z" fill="white"/>
<path d="M1350.93 800.382H1522.76C1558.25 800.382 1557.54 820.238 1525.02 820.244H1679.9C1717.58 820.244 1717.34 841.054 1681.03 841.241C1609.73 841.607 1442.5 841.241 1442.5 841.241C1415.03 841.241 1415.06 820.821 1445.89 820.811H1350.93C1315.9 820.811 1315.9 800.382 1350.93 800.382Z" fill="white"/>
<path d="M1315.77 1008.81H1741.03C1768.92 1008.81 1768.74 1025.72 1741.03 1025.72H1315.77C1292.22 1025.72 1290.28 1008.81 1315.77 1008.81Z" fill="#F7FFFF"/>
<path d="M1734.8 844.366L1810.54 846.627C1803.81 800.324 1745.36 802.835 1734.8 844.366Z" fill="white"/>
<path d="M883.306 705.046H983.227C983.227 705.046 932.867 650.689 883.306 705.046Z" fill="white"/>
<path d="M1042.38 658.682H1151.1C1151.1 658.682 1096.74 604.325 1042.38 658.682Z" fill="white"/>
<path d="M1293.99 653.435H1431.48C1431.48 653.435 1396.15 591.808 1351.49 632.505C1351.49 632.505 1323.54 602.578 1293.99 653.435Z" fill="white"/>
<path d="M64.166 531.434H105.733C105.733 531.434 95.0503 500.924 81.5502 521.072C81.5502 521.072 73.0984 506.257 64.166 531.434Z" fill="white"/>
<path d="M593.933 940.061H685.062C685.062 940.061 636.3 884.105 593.933 940.061Z" fill="white"/>
<path d="M123.903 1016H262.994C262.994 1016 216.63 960.845 186.254 1001.61C186.254 1001.61 155.878 964.042 123.903 1016Z" fill="white"/>
<path d="M198.244 906.488H308.557C308.557 906.488 292.176 860.304 271.279 896.499C271.279 896.499 225.78 858.794 198.244 906.488Z" fill="white"/>
<path d="M1324.93 958.932H1439.1C1438.5 908.346 1348.39 884.852 1324.93 958.932Z" fill="white"/>
<path d="M105.872 691.216H146.64C146.64 691.216 140.585 656.578 132.863 683.724C132.863 683.724 116.048 655.445 105.872 691.216Z" fill="white"/>
<path d="M414.633 550.346H446.608C446.608 550.346 429.499 508.779 414.633 550.346Z" fill="white"/>
<path d="M537.182 660.949H573.153C573.153 660.949 555.024 635.369 537.182 660.949Z" fill="white"/>
<path d="M332.152 891.937C332.152 891.937 58.1064 924.373 332.152 489.779C332.152 489.779 603.035 893.366 332.152 891.937Z" fill="#FDFFFE"/>
<path d="M332.111 890.281C332.111 890.281 73.9303 920.839 332.111 511.403C332.111 511.403 587.313 891.626 332.111 890.281Z" fill="#E3FFE9"/>
<path d="M325.885 976.312V577.092C325.885 567.927 337.014 566.766 337.014 577.092V976.491C337.014 985.498 325.878 985.739 325.885 976.312Z" fill="#CA821E"/>
<path d="M627.87 810.441H804.845L720.053 511.7L627.87 810.441Z" fill="#348B3C"/>
<path d="M636.454 805.84H796.261L719.695 536.081L636.454 805.84Z" fill="#1FA62C"/>
<path d="M714.817 868.65V621.719C714.817 616.05 723.89 615.332 723.89 621.719V868.761C723.89 874.332 714.812 874.481 714.817 868.65Z" fill="#CA821E"/>
<path d="M655.285 727.429C652.643 735.354 650.097 753.186 665.877 748.012C681.32 742.95 685.861 753.408 693.255 750.61C700.65 747.812 711.641 725.83 690.258 728.228C668.875 730.626 656.884 712.24 655.285 727.429Z" fill="#E9FFEB"/>
<path d="M728.428 716.437C728.428 716.437 711.042 740.818 726.23 739.819C741.418 738.82 757.605 738.22 762.201 742.017C766.798 745.814 772.193 743.016 769.995 739.819C767.797 736.621 754.807 720.034 743.416 723.432C732.025 726.829 737.421 708.643 728.428 716.437Z" fill="#F6FFF6"/>
<path d="M666.985 779.185C666.985 779.185 650.593 789.077 667.833 791.338C685.073 793.599 720.683 789.642 740.466 794.447C760.25 799.251 782.294 803.773 779.468 795.577C776.642 787.381 757.706 771.554 739.901 772.12C722.096 772.685 700.899 784.555 686.203 780.881C671.507 777.207 676.029 776.359 666.985 779.185Z" fill="#C4FCC9"/>
<path d="M683.862 664.995C683.862 664.995 655.317 681.387 677.079 684.778C698.841 688.17 686.123 697.779 699.688 695.235C713.254 692.692 729.062 663.524 707.602 662.451C686.922 661.418 683.862 664.995 683.862 664.995Z" fill="#F1FFF2"/>
<path d="M688.509 622.699C688.509 622.699 704.618 639.656 719.88 637.677C735.141 635.699 738.25 639.373 732.88 628.351C727.511 617.329 699.249 611.111 693.596 615.633C687.944 620.155 687.944 619.872 688.509 622.699Z" fill="#E9FFEB"/>
<path d="M746.684 679.42C746.684 679.42 732.27 682.246 737.075 687.899C741.879 693.551 744.14 697.791 750.641 693.834C757.141 689.877 754.032 680.551 746.684 679.42Z" fill="#E9FFEB"/>
<path d="M716.435 561.158C716.435 561.158 707.977 579.095 717.586 577.116C727.195 575.138 733.695 580.508 735.673 571.181C737.652 561.855 739.701 556.585 726.912 557.616C722.538 557.968 721.457 557.383 716.435 561.158Z" fill="#E9FFEB"/>
<path d="M539.577 971.131C606.418 971.131 660.604 916.945 660.604 850.104C660.604 783.262 606.418 729.077 539.577 729.077C472.735 729.077 418.55 783.262 418.55 850.104C418.55 916.945 472.735 971.131 539.577 971.131Z" fill="#FBFFFB"/>
<path d="M539.577 971.131C603.769 971.131 655.808 919.092 655.808 854.9C655.808 790.707 603.769 738.669 539.577 738.669C475.384 738.669 423.346 790.707 423.346 854.9C423.346 919.092 475.384 971.131 539.577 971.131Z" fill="#DAFFE1"/>
<path d="M535.62 1051.98V828.791C535.62 823.667 544.693 823.018 544.693 828.791V1052.08C544.693 1057.11 535.614 1057.25 535.62 1051.98Z" fill="#CA821E"/>
<path d="M1174.35 596.849C1162.02 593.451 1118.28 573.277 1115.15 522.316C1112.89 485.477 1150.55 472.111 1133.52 389.318C1128.13 363.091 1190.67 316.224 1219.5 343.618C1256.59 378.855 1246.41 389.079 1266.5 400.066C1294.21 415.218 1267.72 478.826 1280.96 502.22C1297.14 530.82 1279.5 583.122 1222.77 596.849C1195 603.57 1174.35 596.849 1174.35 596.849ZM1164.07 599.688C1151.74 596.291 1108 576.116 1104.87 525.155C1102.61 488.316 1140.27 474.95 1123.24 392.158C1117.85 365.93 1180.39 319.063 1209.23 346.458C1246.31 381.694 1236.13 391.918 1256.22 402.905C1283.94 418.057 1257.44 481.665 1270.68 505.059C1286.86 533.659 1269.22 585.961 1212.49 599.688C1184.72 606.409 1164.07 599.688 1164.07 599.688Z" fill="#E9FEED"/>
<path d="M1175.82 595.611C1164.44 592.475 1124.06 573.847 1121.17 526.796C1119.08 492.782 1153.85 480.441 1138.13 403.999C1133.15 379.784 1190.9 336.511 1217.52 361.805C1251.76 394.339 1242.36 403.778 1260.91 413.923C1286.5 427.912 1262.03 486.641 1274.26 508.241C1289.2 534.647 1272.91 582.937 1220.53 595.611C1194.89 601.817 1175.82 595.611 1175.82 595.611ZM1166.33 598.233C1154.95 595.096 1114.56 576.469 1111.68 529.417C1109.59 495.403 1144.36 483.063 1128.64 406.621C1123.66 382.405 1181.41 339.133 1208.03 364.426C1242.27 396.96 1232.86 406.399 1251.42 416.544C1277.01 430.534 1252.54 489.262 1264.77 510.863C1279.71 537.269 1263.42 585.559 1211.04 598.233C1185.4 604.438 1166.33 598.233 1166.33 598.233Z" fill="#C3E3C8"/>
<path d="M1192.82 645.884V412.614C1192.82 407.259 1201.54 406.58 1201.54 412.614V645.989C1201.54 651.252 1192.82 651.393 1192.82 645.884Z" fill="#CA821E"/>
<path d="M696.835 1037.04L950.997 1035.08C950.997 1035.08 916.554 891.184 871.129 978.434C871.129 978.434 827.869 870.787 777.994 974.71C777.994 974.71 716.528 890.244 696.835 1037.04Z" fill="white"/>
<path d="M705.014 1031.78H941.628C941.628 1031.78 911.335 910.019 870.768 987.936C870.768 987.936 822.742 892.303 778.201 985.11C778.201 985.11 722.6 900.685 705.014 1031.78Z" fill="#DDFEE6"/>
</g>
<defs>
<linearGradient id="paint0_linear_60_821" x1="971.408" y1="693.49" x2="985.168" y2="-108.281" gradientUnits="userSpaceOnUse">
<stop stop-color="#9CF2FF"/>
<stop offset="1" stop-color="#EFFFFF"/>
</linearGradient>
<radialGradient id="paint1_radial_60_821" cx="0" cy="0" r="1" gradientUnits="userSpaceOnUse" gradientTransform="translate(321.37 33.4188) scale(92.124 92.124)">
<stop offset="0.70614" stop-color="#F5FFBB"/>
<stop offset="1" stop-color="#F5FFBB" stop-opacity="0"/>
</radialGradient>
<clipPath id="clip0_60_821">
<rect width="1920" height="1080" fill="white"/>
</clipPath>
</defs>
</svg>
