<svg width="1920" height="1080" viewBox="0 0 1920 1080" fill="none" xmlns="http://www.w3.org/2000/svg">
<g clip-path="url(#clip0_60_655)">
<path d="M2132.76 -108.281H-162.422V1233.63H2132.76V-108.281Z" fill="url(#paint0_linear_60_655)"/>
<path d="M-70.0898 74.446L473.209 157.593L-94.9604 230.535L-70.0898 74.446Z" fill="#52E7F9" fill-opacity="0.545595"/>
<path d="M1220.92 3.05176e-05L777.772 73.8766L1531.6 111.912L1133.51 187.342L2004.83 319.749L2014.52 -137.492L1220.92 3.05176e-05Z" fill="#52E7F9" fill-opacity="0.545595"/>
<path d="M1652.74 142.012C1703.62 142.012 1744.86 100.767 1744.86 49.8882C1744.86 -0.990417 1703.62 -42.2357 1652.74 -42.2357C1601.86 -42.2357 1560.61 -0.990417 1560.61 49.8882C1560.61 100.767 1601.86 142.012 1652.74 142.012Z" fill="url(#paint1_radial_60_655)"/>
<path d="M179.213 189.493C214.65 189.493 243.377 175.208 243.377 157.588C243.377 139.968 214.65 125.684 179.213 125.684C143.776 125.684 115.049 139.968 115.049 157.588C115.049 175.208 143.776 189.493 179.213 189.493Z" fill="white"/>
<path d="M251.436 189.493C287.854 189.493 317.376 175.208 317.376 157.588C317.376 139.968 287.854 125.684 251.436 125.684C215.019 125.684 185.497 139.968 185.497 157.588C185.497 175.208 215.019 189.493 251.436 189.493Z" fill="white"/>
<path d="M211.399 168.037C241.299 168.037 265.539 150.89 265.539 129.739C265.539 108.587 241.299 91.4402 211.399 91.4402C181.498 91.4402 157.259 108.587 157.259 129.739C157.259 150.89 181.498 168.037 211.399 168.037Z" fill="white"/>
<path d="M271.617 142.504C282.871 142.504 291.994 133.761 291.994 122.976C291.994 112.191 282.871 103.447 271.617 103.447C260.363 103.447 251.24 112.191 251.24 122.976C251.24 133.761 260.363 142.504 271.617 142.504Z" fill="white"/>
<path d="M522.06 167.817C568.513 167.817 606.171 150.72 606.171 129.629C606.171 108.538 568.513 91.4402 522.06 91.4402C475.606 91.4402 437.948 108.538 437.948 129.629C437.948 150.72 475.606 167.817 522.06 167.817Z" fill="white"/>
<path d="M616.184 167.817C645.348 167.817 668.99 148.182 668.99 123.961C668.99 99.7402 645.348 80.1052 616.184 80.1052C587.02 80.1052 563.377 99.7402 563.377 123.961C563.377 148.182 587.02 167.817 616.184 167.817Z" fill="white"/>
<path d="M584.913 199.921C618.552 199.921 645.821 179.361 645.821 153.998C645.821 128.636 618.552 108.075 584.913 108.075C551.274 108.075 524.005 128.636 524.005 153.998C524.005 179.361 551.274 199.921 584.913 199.921Z" fill="white"/>
<path d="M651.899 191.045C672.287 191.045 688.815 174.458 688.815 153.998C688.815 133.538 672.287 116.952 651.899 116.952C631.511 116.952 614.983 133.538 614.983 153.998C614.983 174.458 631.511 191.045 651.899 191.045Z" fill="white"/>
<path d="M668.99 165.378C691.948 165.378 710.559 146.835 710.559 123.961C710.559 101.087 691.948 82.5446 668.99 82.5446C646.032 82.5446 627.421 101.087 627.421 123.961C627.421 146.835 646.032 165.378 668.99 165.378Z" fill="white"/>
<path d="M863.351 235.76C891.383 235.76 914.108 222.279 914.108 205.65C914.108 189.021 891.383 175.54 863.351 175.54C835.319 175.54 812.594 189.021 812.594 205.65C812.594 222.279 835.319 235.76 863.351 235.76Z" fill="white"/>
<path d="M914.591 274.087C942.891 274.087 965.832 256.495 965.832 234.793C965.832 213.091 942.891 195.499 914.591 195.499C886.292 195.499 863.351 213.091 863.351 234.793C863.351 256.495 886.292 274.087 914.591 274.087Z" fill="white"/>
<path d="M923.776 219.979C945.668 219.979 963.415 207.025 963.415 191.045C963.415 175.065 945.668 162.11 923.776 162.11C901.884 162.11 884.137 175.065 884.137 191.045C884.137 207.025 901.884 219.979 923.776 219.979Z" fill="white"/>
<path d="M990.161 256.1C1015.21 256.1 1035.52 235.791 1035.52 210.739C1035.52 185.687 1015.21 165.378 990.161 165.378C965.108 165.378 944.8 185.687 944.8 210.739C944.8 235.791 965.108 256.1 990.161 256.1Z" fill="white"/>
<path d="M1221.21 189.493C1252.25 189.493 1277.42 177.62 1277.42 162.973C1277.42 148.327 1252.25 136.454 1221.21 136.454C1190.16 136.454 1164.99 148.327 1164.99 162.973C1164.99 177.62 1190.16 189.493 1221.21 189.493Z" fill="white"/>
<path d="M1329.89 196.56C1362.16 196.56 1388.32 174.355 1388.32 146.964C1388.32 119.573 1362.16 97.3685 1329.89 97.3685C1297.62 97.3685 1271.46 119.573 1271.46 146.964C1271.46 174.355 1297.62 196.56 1329.89 196.56Z" fill="white"/>
<path d="M1277.42 203.396C1295 203.396 1309.25 189.262 1309.25 171.825C1309.25 154.389 1295 140.255 1277.42 140.255C1259.84 140.255 1245.59 154.389 1245.59 171.825C1245.59 189.262 1259.84 203.396 1277.42 203.396Z" fill="white"/>
<path d="M1244.41 334.63C1251.27 334.63 1256.84 330.275 1256.84 324.903C1256.84 319.531 1251.27 315.176 1244.41 315.176C1237.55 315.176 1231.98 319.531 1231.98 324.903C1231.98 330.275 1237.55 334.63 1244.41 334.63Z" fill="white"/>
<path d="M1261.31 328.711C1266.92 328.711 1271.46 325.681 1271.46 321.944C1271.46 318.206 1266.92 315.176 1261.31 315.176C1255.7 315.176 1251.16 318.206 1251.16 321.944C1251.16 325.681 1255.7 328.711 1261.31 328.711Z" fill="white"/>
<path d="M1256.84 344.239C1266.18 344.239 1273.76 339.91 1273.76 334.571C1273.76 329.231 1266.18 324.903 1256.84 324.903C1247.49 324.903 1239.92 329.231 1239.92 334.571C1239.92 339.91 1247.49 344.239 1256.84 344.239Z" fill="white"/>
<path d="M1519.12 210.739C1536.05 210.739 1549.78 200.585 1549.78 188.059C1549.78 175.532 1536.05 165.378 1519.12 165.378C1502.19 165.378 1488.46 175.532 1488.46 188.059C1488.46 200.585 1502.19 210.739 1519.12 210.739Z" fill="white"/>
<path d="M1558.73 228.331C1571.53 228.331 1581.9 218.176 1581.9 205.65C1581.9 193.124 1571.53 182.969 1558.73 182.969C1545.93 182.969 1535.55 193.124 1535.55 205.65C1535.55 218.176 1545.93 228.331 1558.73 228.331Z" fill="white"/>
<path d="M1558.73 196.56C1571.53 196.56 1581.9 190.475 1581.9 182.97C1581.9 175.464 1571.53 169.379 1558.73 169.379C1545.93 169.379 1535.55 175.464 1535.55 182.97C1535.55 190.475 1545.93 196.56 1558.73 196.56Z" fill="white"/>
<path d="M1736.11 214.626C1755.6 214.626 1771.4 197.127 1771.4 175.54C1771.4 153.954 1755.6 136.454 1736.11 136.454C1716.62 136.454 1700.82 153.954 1700.82 175.54C1700.82 197.127 1716.62 214.626 1736.11 214.626Z" fill="white"/>
<path d="M1719.38 212.695C1734.11 212.695 1746.05 202.307 1746.05 189.492C1746.05 176.678 1734.11 166.29 1719.38 166.29C1704.65 166.29 1692.71 176.678 1692.71 189.492C1692.71 202.307 1704.65 212.695 1719.38 212.695Z" fill="white"/>
<path d="M1693.46 200.372C1704.4 200.372 1713.28 192.58 1713.28 182.969C1713.28 173.358 1704.4 165.567 1693.46 165.567C1682.51 165.567 1673.64 173.358 1673.64 182.969C1673.64 192.58 1682.51 200.372 1693.46 200.372Z" fill="white"/>
<path d="M1777.16 214.968C1793.31 214.968 1806.41 203.562 1806.41 189.493C1806.41 175.423 1793.31 164.017 1777.16 164.017C1761.01 164.017 1747.92 175.423 1747.92 189.493C1747.92 203.562 1761.01 214.968 1777.16 214.968Z" fill="white"/>
<path d="M1774.07 183.495C1780.88 183.495 1786.4 179.136 1786.4 173.759C1786.4 168.382 1780.88 164.023 1774.07 164.023C1767.27 164.023 1761.75 168.382 1761.75 173.759C1761.75 179.136 1767.27 183.495 1774.07 183.495Z" fill="white"/>
<path d="M478.184 669.997L817.047 349.02L845.317 320.016L872.662 282.367L899.324 227.677L917.782 243.4L964.453 187.343L1049.72 262.542L1152.27 320.016L1244.37 362.352L1515.15 590.72V938.767L478.184 925.232V669.997Z" fill="#C6C6C6"/>
<path d="M1080.6 618.267L1266.22 320.493L1305.98 264.119L1325.12 234.722L1338.79 193.705L1364.77 143.8L1370.24 127.393L1380.49 93.2112L1390.06 104.833L1394.16 121.924L1403.73 136.963L1413.31 126.709L1421.51 121.24L1428.35 121.924L1430.4 130.127L1439.28 146.534L1465.26 171.829L1483.72 216.264L1502.18 250.446L1518.58 312.656L1563.7 467.158L1651.89 609.351L1660.1 1052.34L1042.09 1014.06L1080.6 618.267Z" fill="#B0ABAB"/>
<path d="M618.042 663.988L814.388 422.578L897.822 373.017L902.618 399.82L897.822 432.17L945.785 399.82L956.976 358.628L1008.14 385.807L1067.29 399.82L1101 374.616L1276.72 441.831L1407.82 563.055L1380.64 939.82H621.24L618.042 663.988Z" fill="#ACACAC"/>
<path d="M1490.93 365.672L1570.23 264.495L1600.31 237.15L1608.51 179.725L1619.45 161.951L1634.49 168.787L1649.53 149.645L1696.02 124.351L1716.53 88.1186L1737.04 74.446L1739.77 101.791L1749.34 144.176L1750.71 164.685L1775.32 161.951L1798.56 153.747L1810.87 157.849L1819.07 166.052L1835.48 159.216L1843.68 186.561L1864.19 220.675L1895.64 234.415L1913.41 261.761L1935.29 332.858L1947.59 398.486L1946.23 862.103H1258.5L1272.17 552.987L1340.53 462.748L1367.88 454.544L1410.26 442.239L1444.29 399.872L1490.93 365.672Z" fill="#8C8888"/>
<path d="M741.978 428.297L538.95 236.871L509.946 233.004L500.278 213.668L477.075 180.797L473.208 157.594L446.137 190.465L409.399 178.864L376.528 149.86L341.723 163.395L332.055 188.532L289.516 213.668L287.582 231.071L264.379 236.871L239.243 200.133L231.508 159.528L192.836 225.27L154.164 244.606L127.094 288.484L74.8868 327.75L45.8829 441.833L-27.5938 629.392V1041.25H850.259L840.591 611.989L741.978 428.297Z" fill="#C2C2C2"/>
<path d="M376.529 149.858L341.724 163.394L332.056 188.53L289.517 213.667L287.584 231.069L264.38 236.87L239.244 200.132L231.509 159.526L192.837 225.269L154.166 244.605L127.095 288.483L74.8882 327.749L45.8843 441.831L112.845 345.927L158.064 310.882L197.63 257.19L232.675 281.489L254.156 263.401L308.419 312.013L291.46 353.841L256.416 390.017L372.857 370.798L420.517 307.464L487.035 257.19L549.21 293.925L580.318 275.874L538.951 236.87L509.947 233.003L500.279 213.667L477.076 180.796L473.208 157.593L446.138 190.464L409.4 178.862L376.529 149.858Z" fill="#F2EEEE"/>
<path d="M198.153 664.299L244.56 438.948L302.568 390.014L337.372 343.235L366.376 257.19L385.712 299.73L420.517 307.464L453.388 297.796L493.994 290.062L507.529 324.866L532.666 353.87L606.81 402.915L635.146 495.023L669.951 624.574L762.764 987.107H97.6064L198.153 664.299Z" fill="#D7CBCB"/>
<path d="M964.452 187.342L917.782 243.4L899.323 227.677L872.663 282.367L845.317 320.015L817.048 349.019L814.388 351.539L868.245 345.039L893.026 321.058L933.794 320.258L980.956 302.672L984.153 323.455L1011.33 335.447L1008.93 321.857L1028.12 322.656L1063.29 349.035L1062.49 324.256L1066.49 300.273L1093.67 309.867L1101 291.279L1049.72 262.541L964.452 187.342Z" fill="#E7E0E0"/>
<path d="M214.359 319.459L156.005 365.823L114.438 425.775L97.6067 479.333L62.4785 503.315L103.246 488.126L120.833 447.359L136.021 441.831H124.03L130.425 424.177L152.808 389.804L199.97 366.622V347.437L255.127 323.456L214.359 319.459Z" fill="#7C7C7C"/>
<path d="M1380.49 93.2114L1370.24 127.393L1364.77 143.801L1338.79 193.706L1325.12 234.723L1319.5 243.342L1365.98 213.663L1389.72 181.444L1400.46 206.313L1417.99 232.879L1407.82 253.793L1430.42 235.706L1434.94 210.27L1458.12 222.706L1460.94 247.01L1486.38 254.36L1497.69 281.491L1502.63 252.153L1502.18 250.446L1483.72 216.264L1465.26 171.829L1439.28 146.536L1430.39 130.127L1428.34 121.924L1421.51 121.241L1413.3 126.709L1403.73 136.963L1394.16 121.924L1390.06 104.834L1380.49 93.2114Z" fill="#C6C5C5"/>
<path d="M1737.04 74.4448L1716.53 88.1187L1696.02 124.351L1649.53 149.644L1634.49 168.787L1619.45 161.951L1608.51 179.724L1600.31 237.15L1585.27 250.822L1596.04 281.49L1626.56 256.619L1676.3 219.314L1694.39 252.097L1719.26 256.619V297.316L1671.78 351.539L1676.3 386.625L1689.87 358.628L1718.13 324.449L1762.22 293.925L1775.78 244.183L1854.92 281.49L1859.44 304.099L1935.29 332.857L1913.41 261.759L1895.64 234.416L1864.19 220.675L1843.68 186.56L1835.48 159.216L1819.07 166.052L1810.87 157.849L1798.56 153.748L1775.32 161.951L1750.71 164.685L1749.34 144.175L1739.77 101.791L1737.04 74.4448Z" fill="#A7A2A2"/>
<path d="M313.101 503.315L396.687 339.131L411.333 503.315L484.977 378.712L531.327 533.588L313.101 503.315Z" fill="#EEFF31"/>
<path d="M659.071 595.554L731.422 452.738L762.764 649.224L799.251 477.064L869.899 697.556L687.381 692.657L659.071 595.554Z" fill="#EB8A23"/>
<path d="M1010.63 635.331L1088.65 462.368L1110.13 508.91L1160.14 397.238L1196.67 491.76L1229.96 452.738L1297.79 622.149L1010.63 635.331Z" fill="#C4C90C"/>
<path d="M762.764 649.224L843.34 484.977L878.385 546.023L899.864 494.021L941.661 659.071L762.764 649.224Z" fill="#C7C900"/>
<path d="M916.446 666.583L976.737 503.315L1012.93 670.376L916.446 666.583Z" fill="#09C529"/>
<path d="M516.63 570.894L606.81 402.915L610.46 574.605L684.34 474.722L669.951 624.574L516.63 570.894Z" fill="#0CC92D"/>
<path d="M158.803 483.912L227.549 335.447L255.127 503.315L158.803 483.912Z" fill="#01AA1E"/>
<path d="M484.419 469.231L545.171 386.097L549.168 436.359L584.913 402.915L587.319 478.367L638.698 452.738L647.4 524.664L484.419 469.231Z" fill="#C1E422"/>
<path d="M223.025 441.831L256.415 390.017L273.564 414.481L305.76 362.915L319.349 452.738L223.025 441.831Z" fill="#E2AA11"/>
<path d="M383.299 453.308L422.214 368.51L436.057 411.387L460.039 391.692L465.234 470.031L383.299 453.308Z" fill="#A7E71B"/>
<path d="M716.215 543.283L761.494 487.612L764.485 603.526L716.215 543.283Z" fill="#11E225"/>
<path d="M871.608 604.945L941.661 484.977L994.834 586.845L1012.93 516.285L1042.09 586.845L871.608 604.945Z" fill="#4EF95E"/>
<path d="M764.485 603.526L834.575 587.31L852.213 654.148L764.485 603.526Z" fill="#11E225"/>
<path d="M1209.62 572.777L1266.14 464.628L1298.85 517.76L1332.33 493.247L1363.93 556.763L1209.62 572.777Z" fill="#3BE211"/>
<path d="M1312.49 550.545L1357.71 484.977L1407.82 563.055L1312.49 550.545Z" fill="#08B516"/>
<path d="M1525.02 536.414C1525.02 533.023 1499.02 434.671 1499.02 434.671L1483.76 480.455L1469.06 475.368L1465.67 495.717L1440.23 468.274L1422.71 540L1525.02 536.414Z" fill="#87FF69"/>
<path d="M1374.54 532.276L1396.15 468.274L1434.02 554.502L1374.54 532.276Z" fill="#F3A72B"/>
<path d="M1560.07 555.384C1571.57 540.523 1638.71 439.655 1638.71 439.655L1643.44 523.883L1673.64 486.723L1685.93 509.078L1709.86 455.642L1726.64 523.883L1572.36 540.523L1560.07 555.384Z" fill="#CF930D"/>
<path d="M1792 509.232L1825.73 452.738L1863.04 544.961L1792 509.232Z" fill="#CAE52E"/>
<path d="M1726.64 523.883L1746.31 486.723L1752.53 500.804L1772.88 473.39L1791.29 532.457L1726.64 523.883Z" fill="#48EC1F"/>
<path d="M-128.875 441.831C-128.875 441.831 472.429 360.796 716.215 543.283C960 725.77 1196.05 766.467 1196.05 766.467L1209.62 1236.75L-165.051 1216.4L-128.875 441.831Z" fill="#04DD40"/>
<path d="M-165.051 486.108C-165.051 486.108 426.432 338.934 824.931 662.742C1152.01 928.515 1515.15 938.767 1515.15 938.767L1560.07 1437.97C1560.07 1437.97 -146.963 1358.84 -137.919 1345.27C-128.875 1331.71 -176.355 488.369 -176.355 488.369L-165.051 486.108Z" fill="#A0EC18"/>
<path d="M180.504 452.996C155.694 452.534 131.679 452.715 108.631 453.375C231.457 497.128 374.839 573.271 411.333 697.556C478.184 925.231 762.764 987.107 762.764 987.107L808.35 970.437C808.35 970.437 479.144 852.305 453.936 697.556C435.623 585.135 314.295 506.005 209.871 453.837C191.856 452.841 197.821 453.318 180.504 452.996Z" fill="#F2E22D"/>
<path d="M2003.22 515.5C2003.22 515.5 1125.61 463.946 762.764 649.224C424.667 821.867 -108.526 791.338 -108.526 791.338L-128.875 1153.09L2014.52 1125.96L2003.22 515.5Z" fill="#23F45D"/>
<path d="M2043.91 572.777C2043.91 572.777 1030.22 523.58 824.931 662.742C619.641 801.904 -146.963 829.115 -146.963 829.115L-176.355 1297.79L2039.39 1207.36L2043.91 572.777Z" fill="#26FF27"/>
<path d="M2006.41 687.944C2006.41 687.944 381.598 645.711 942.822 939.82C1328.22 1141.79 942.822 1356.58 942.822 1356.58L1987.39 1327.19L2006.41 687.944Z" fill="#22A4D7"/>
<path d="M2043.91 728.031L1258.49 768.728L2042.41 783.419L2043.91 728.031Z" fill="#26E6FF"/>
<path d="M2044.43 845.601L1200.01 903.815L2086.87 1008.39L2044.43 845.601Z" fill="#26E6FF"/>
<path d="M1025.8 992.276C1090.13 1042.2 1113.77 1091.68 1113.85 1137.36L1675.29 1130.25L1351.09 1033.2L1718.33 1021.21L1025.8 992.276Z" fill="#1AD4FF"/>
<path d="M913.091 759.447C859.518 777.604 826.378 800.034 824.589 827.922L1196.67 811.129L913.091 759.447Z" fill="#18E4F2"/>
<path d="M2043.16 755.725C2043.16 755.725 900.243 674.741 942.822 845.601C984.183 1011.57 1248.5 954.055 1220.92 1137.36C1193.35 1320.67 1987.39 1327.19 1987.39 1327.19L2043.16 755.725Z" fill="#65AAF2" fill-opacity="0.587326"/>
<path d="M332.152 891.937C332.152 891.937 58.1064 924.373 332.152 489.779C332.152 489.779 603.035 893.366 332.152 891.937Z" fill="#D74B00"/>
<path d="M332.111 890.281C332.111 890.281 73.9303 920.839 332.111 511.403C332.111 511.403 587.313 891.626 332.111 890.281Z" fill="#F4A620"/>
<path d="M365.952 894.561C365.952 894.561 382.932 894.765 365.977 918.518C365.977 918.518 349.165 892.365 365.952 894.561Z" fill="#C7AA12"/>
<path d="M280.873 914.218C280.873 914.218 264.448 903.623 299.02 892.262C299.02 892.262 295.598 926.519 280.873 914.218Z" fill="#DA9D33"/>
<path d="M253.059 982.122C253.059 982.122 233.514 982.033 256.567 959.224C256.567 959.224 272.087 984.117 253.059 982.122Z" fill="#F4D620"/>
<path d="M325.885 976.312V577.092C325.885 567.927 337.014 566.766 337.014 577.092V976.491C337.014 985.498 325.878 985.739 325.885 976.312Z" fill="#CA821E"/>
<path d="M320.513 1007.99C320.513 1007.99 307.579 993.333 343.936 991.778C343.936 991.778 331.348 1023.82 320.513 1007.99Z" fill="#EFD133"/>
<path d="M380.897 1011.74C380.897 1011.74 369.707 1023.13 368.587 997.045C368.587 997.045 392.983 1001.71 380.897 1011.74Z" fill="#CC8915"/>
<path d="M403.627 998.484C403.627 998.484 384.217 1000.78 403.627 970C403.627 970 422.813 998.586 403.627 998.484Z" fill="#FCAB1D"/>
<path d="M288.568 967.678C288.568 967.678 306.768 960.551 295.763 995.238C295.763 995.238 269.978 972.426 288.568 967.678Z" fill="#F38E29"/>
<path d="M359.422 1038.83C359.422 1038.83 362.098 1058.12 339.349 1039.92C339.349 1039.92 358.448 1019.66 359.422 1038.83Z" fill="#C99539"/>
<path d="M368.43 972.751C368.43 972.751 353.538 985.411 352.658 949.031C352.658 949.031 384.463 962.212 368.43 972.751Z" fill="#DD8C00"/>
<path d="M397.645 945.892C397.645 945.892 408.701 948.591 390.345 964.193C390.345 964.193 387.324 941.7 397.645 945.892Z" fill="#825B16"/>
<path d="M263.125 1013.66C263.125 1013.66 246.135 1000.69 274.824 1000.3C274.824 1000.3 278.946 1027.6 263.125 1013.66Z" fill="#CA8C1E"/>
<path d="M303.397 1043.68C303.397 1043.68 292.437 1050.44 292.818 1027.53C292.818 1027.53 315.11 1038.34 303.397 1043.68Z" fill="#E8B04D"/>
<path d="M627.87 810.441H804.845L720.053 511.7L627.87 810.441Z" fill="#01710C"/>
<path d="M636.454 805.84H796.261L719.695 536.081L636.454 805.84Z" fill="#00820D"/>
<path d="M714.817 868.65V621.719C714.817 616.05 723.89 615.332 723.89 621.719V868.761C723.89 874.332 714.812 874.481 714.817 868.65Z" fill="#CA821E"/>
<path d="M539.577 971.131C606.418 971.131 660.604 916.945 660.604 850.104C660.604 783.262 606.418 729.077 539.577 729.077C472.735 729.077 418.55 783.262 418.55 850.104C418.55 916.945 472.735 971.131 539.577 971.131Z" fill="#95E21B"/>
<path d="M539.577 971.131C603.769 971.131 655.808 919.092 655.808 854.9C655.808 790.707 603.769 738.669 539.577 738.669C475.384 738.669 423.346 790.707 423.346 854.9C423.346 919.092 475.384 971.131 539.577 971.131Z" fill="#A8F324"/>
<path d="M535.62 1051.98V828.791C535.62 823.667 544.693 823.018 544.693 828.791V1052.08C544.693 1057.11 535.614 1057.25 535.62 1051.98Z" fill="#CA821E"/>
<path d="M456.441 1036.79C462.181 1036.79 466.833 1033.56 466.833 1029.59C466.833 1025.62 462.181 1022.4 456.441 1022.4C450.702 1022.4 446.05 1025.62 446.05 1029.59C446.05 1033.56 450.702 1036.79 456.441 1036.79Z" fill="#F89C30"/>
<path d="M494.411 1047.18C499.047 1047.18 502.805 1043.96 502.805 1039.98C502.805 1036.01 499.047 1032.79 494.411 1032.79C489.776 1032.79 486.018 1036.01 486.018 1039.98C486.018 1043.96 489.776 1047.18 494.411 1047.18Z" fill="#F8D430"/>
<path d="M511.998 1024.79C517.075 1024.79 521.191 1021.57 521.191 1017.6C521.191 1013.63 517.075 1010.41 511.998 1010.41C506.921 1010.41 502.805 1013.63 502.805 1017.6C502.805 1021.57 506.921 1024.79 511.998 1024.79Z" fill="#E1F830"/>
<path d="M476.825 1064.76C480.578 1064.76 483.62 1062.26 483.62 1059.17C483.62 1056.08 480.578 1053.57 476.825 1053.57C473.073 1053.57 470.031 1056.08 470.031 1059.17C470.031 1062.26 473.073 1064.76 476.825 1064.76Z" fill="#D9B616"/>
<path d="M572.35 1014.4C576.765 1014.4 580.344 1011.72 580.344 1008.41C580.344 1005.1 576.765 1002.41 572.35 1002.41C567.935 1002.41 564.356 1005.1 564.356 1008.41C564.356 1011.72 567.935 1014.4 572.35 1014.4Z" fill="#F8EB30"/>
<path d="M559.96 1051.97C562.83 1051.97 565.156 1048.04 565.156 1043.18C565.156 1038.32 562.83 1034.39 559.96 1034.39C557.09 1034.39 554.764 1038.32 554.764 1043.18C554.764 1048.04 557.09 1051.97 559.96 1051.97Z" fill="#F8A930"/>
<path d="M592.734 1040.78C595.604 1040.78 597.93 1038.28 597.93 1035.19C597.93 1032.1 595.604 1029.59 592.734 1029.59C589.865 1029.59 587.538 1032.1 587.538 1035.19C587.538 1038.28 589.865 1040.78 592.734 1040.78Z" fill="#F8AB30"/>
<path d="M511.198 1066.36C513.626 1066.36 515.595 1063.14 515.595 1059.17C515.595 1055.19 513.626 1051.97 511.198 1051.97C508.77 1051.97 506.802 1055.19 506.802 1059.17C506.802 1063.14 508.77 1066.36 511.198 1066.36Z" fill="#C7AD33"/>
<path d="M584.341 1067.96C588.314 1067.96 591.535 1065.99 591.535 1063.56C591.535 1061.14 588.314 1059.17 584.341 1059.17C580.367 1059.17 577.146 1061.14 577.146 1063.56C577.146 1065.99 580.367 1067.96 584.341 1067.96Z" fill="#F8D430"/>
<path d="M620.313 1054.37C622.962 1054.37 625.109 1052.4 625.109 1049.97C625.109 1047.55 622.962 1045.58 620.313 1045.58C617.664 1045.58 615.516 1047.55 615.516 1049.97C615.516 1052.4 617.664 1054.37 620.313 1054.37Z" fill="#E6C429"/>
<path d="M538.377 1075.16C541.247 1075.16 543.573 1072.83 543.573 1069.96C543.573 1067.09 541.247 1064.76 538.377 1064.76C535.507 1064.76 533.181 1067.09 533.181 1069.96C533.181 1072.83 535.507 1075.16 538.377 1075.16Z" fill="#DDBE32"/>
<path d="M505.203 957.648C511.825 957.648 517.194 952.279 517.194 945.657C517.194 939.035 511.825 933.667 505.203 933.667C498.581 933.667 493.212 939.035 493.212 945.657C493.212 952.279 498.581 957.648 505.203 957.648Z" fill="#DAB612"/>
<path d="M606.723 1018.4C612.463 1018.4 617.115 1013.75 617.115 1008.01C617.115 1002.27 612.463 997.616 606.723 997.616C600.984 997.616 596.332 1002.27 596.332 1008.01C596.332 1013.75 600.984 1018.4 606.723 1018.4Z" fill="#DBBC2B"/>
<path d="M638.299 1040.78C641.61 1040.78 644.294 1038.1 644.294 1034.79C644.294 1031.48 641.61 1028.79 638.299 1028.79C634.987 1028.79 632.303 1031.48 632.303 1034.79C632.303 1038.1 634.987 1040.78 638.299 1040.78Z" fill="#F89630"/>
<path d="M468.032 923.275C473.551 923.275 478.024 918.801 478.024 913.282C478.024 907.764 473.551 903.29 468.032 903.29C462.514 903.29 458.04 907.764 458.04 913.282C458.04 918.801 462.514 923.275 468.032 923.275Z" fill="#DEBD23"/>
<path d="M487.217 994.419C492.736 994.419 497.209 989.945 497.209 984.427C497.209 978.908 492.736 974.434 487.217 974.434C481.699 974.434 477.225 978.908 477.225 984.427C477.225 989.945 481.699 994.419 487.217 994.419Z" fill="#E6C73E"/>
<path d="M581.543 956.049C584.413 956.049 586.739 953.723 586.739 950.853C586.739 947.983 584.413 945.657 581.543 945.657C578.673 945.657 576.347 947.983 576.347 950.853C576.347 953.723 578.673 956.049 581.543 956.049Z" fill="#F3DC76"/>
<path d="M596.731 984.826C599.159 984.826 601.128 982.858 601.128 980.43C601.128 978.002 599.159 976.033 596.731 976.033C594.303 976.033 592.334 978.002 592.334 980.43C592.334 982.858 594.303 984.826 596.731 984.826Z" fill="#E3BE17"/>
<path d="M1174.35 596.849C1162.02 593.451 1118.28 573.277 1115.15 522.316C1112.89 485.477 1150.55 472.111 1133.52 389.318C1128.13 363.091 1190.67 316.224 1219.5 343.618C1256.59 378.855 1246.41 389.079 1266.5 400.066C1294.21 415.218 1267.72 478.826 1280.96 502.22C1297.14 530.82 1279.5 583.122 1222.77 596.849C1195 603.57 1174.35 596.849 1174.35 596.849ZM1164.07 599.688C1151.74 596.291 1108 576.116 1104.87 525.155C1102.61 488.316 1140.27 474.95 1123.24 392.158C1117.85 365.93 1180.39 319.063 1209.23 346.458C1246.31 381.694 1236.13 391.918 1256.22 402.905C1283.94 418.057 1257.44 481.665 1270.68 505.059C1286.86 533.659 1269.22 585.961 1212.49 599.688C1184.72 606.409 1164.07 599.688 1164.07 599.688Z" fill="#EEAC35"/>
<path d="M1175.82 595.611C1164.44 592.475 1124.06 573.847 1121.17 526.796C1119.08 492.782 1153.85 480.441 1138.13 403.999C1133.15 379.784 1190.9 336.511 1217.52 361.805C1251.76 394.339 1242.36 403.778 1260.91 413.923C1286.5 427.912 1262.03 486.641 1274.26 508.241C1289.2 534.647 1272.91 582.937 1220.53 595.611C1194.89 601.817 1175.82 595.611 1175.82 595.611ZM1166.33 598.233C1154.95 595.096 1114.56 576.469 1111.68 529.417C1109.59 495.403 1144.36 483.063 1128.64 406.621C1123.66 382.405 1181.41 339.133 1208.03 364.426C1242.27 396.96 1232.86 406.399 1251.42 416.544C1277.01 430.534 1252.54 489.262 1264.77 510.863C1279.71 537.269 1263.42 585.559 1211.04 598.233C1185.4 604.438 1166.33 598.233 1166.33 598.233Z" fill="#E9C70F"/>
<path d="M1192.82 645.884V412.614C1192.82 407.259 1201.54 406.58 1201.54 412.614V645.989C1201.54 651.252 1192.82 651.393 1192.82 645.884Z" fill="#CA821E"/>
<path d="M696.835 1037.04L950.997 1035.08C950.997 1035.08 916.554 891.184 871.129 978.434C871.129 978.434 827.869 870.787 777.994 974.71C777.994 974.71 716.528 890.244 696.835 1037.04Z" fill="#07C430"/>
<path d="M705.014 1031.78H941.628C941.628 1031.78 911.335 910.019 870.768 987.936C870.768 987.936 822.742 892.303 778.201 985.11C778.201 985.11 722.6 900.684 705.014 1031.78Z" fill="#2FF14C"/>
<path d="M1164.1 661.346C1164.1 661.346 1161.88 668.102 1165.13 667.606C1168.87 667.037 1169.87 670.152 1174.01 666.753C1178.45 663.108 1172.86 659.781 1171.36 657.078C1169.42 653.575 1167.56 658.359 1167.56 658.359L1164.1 661.346Z" fill="#D09D42"/>
<path d="M1191.66 683.69C1191.66 683.69 1195.79 693.059 1199.22 688.523C1203.16 683.316 1207.51 685.121 1209.08 676.644C1210.76 667.556 1200.66 671.259 1196.12 670.48C1190.25 669.469 1192.82 676.465 1192.82 676.465L1191.66 683.69Z" fill="#D24D08"/>
<path d="M1229.16 665.794C1229.16 665.794 1219.38 668.8 1223.48 672.739C1228.19 677.26 1225.89 681.364 1234.12 683.917C1242.95 686.654 1240.46 676.186 1241.76 671.774C1243.45 666.057 1236.2 667.794 1236.2 667.794L1229.16 665.794Z" fill="#D2C508"/>
<path d="M1149.28 641.009C1149.28 641.009 1147.33 647.558 1152.25 645.832C1157.9 643.85 1160.12 646.056 1165.77 641.542C1171.83 636.703 1162.47 636.17 1159.56 634.511C1155.8 632.361 1153.97 637.115 1153.97 637.115L1149.28 641.009Z" fill="#CA8C1E"/>
<path d="M1162.35 695.745C1162.35 695.745 1162.85 690.273 1158.98 692.905C1154.53 695.926 1152.25 694.86 1148.24 699.794C1143.94 705.083 1151.99 702.958 1154.75 703.427C1158.33 704.035 1159.05 699.951 1159.05 699.951L1162.35 695.745Z" fill="#D24308"/>
<path d="M1257.26 670.647C1257.26 670.647 1253.62 678.155 1258.96 679.731C1265.1 681.54 1266.74 686.392 1273.54 684.693C1280.82 682.871 1271.64 674.578 1269.18 669.933C1265.99 663.913 1262.94 669.029 1262.94 669.029L1257.26 670.647Z" fill="#E8AE47"/>
<path d="M1235.79 624.422C1235.79 624.422 1232.25 616.459 1229.07 621.161C1225.43 626.558 1221.55 625.577 1219.97 633.609C1218.28 642.22 1227.45 637.244 1231.51 637.254C1236.78 637.265 1234.6 631.24 1234.6 631.24L1235.79 624.422Z" fill="#ECC01E"/>
<path d="M1133.02 622.84C1133.02 622.84 1130.55 632.33 1134.18 631.634C1138.35 630.834 1139.46 635.21 1144.08 630.434C1149.02 625.315 1142.79 620.642 1141.12 616.845C1138.95 611.925 1136.88 618.644 1136.88 618.644L1133.02 622.84Z" fill="#D2C008"/>
<path d="M1107.66 654.826C1107.66 654.826 1108.56 662.45 1111.27 660.704C1114.39 658.7 1116.62 661.439 1118.89 656.443C1121.32 651.087 1114.87 649.897 1112.37 647.762C1109.12 644.995 1109.49 650.505 1109.49 650.505L1107.66 654.826Z" fill="#E0B32A"/>
<path d="M1269.82 646.983C1269.82 646.983 1277.18 650.482 1277.01 646.369C1276.82 641.648 1280.45 640.741 1277.11 635.211C1273.52 629.283 1269.1 635.892 1265.86 637.467C1261.67 639.508 1266.85 642.348 1266.85 642.348L1269.82 646.983Z" fill="#F0AE38"/>
<path d="M1238.35 650.128C1238.35 650.128 1232.71 658.379 1237.32 658.983C1242.62 659.677 1242.76 664.272 1249.71 661.302C1257.15 658.118 1250.85 651.442 1249.87 647.207C1248.59 641.719 1244.21 647.448 1244.21 647.448L1238.35 650.128Z" fill="#D28A08"/>
<path d="M1126.97 680.412C1126.97 680.412 1121.14 686.29 1125 687.499C1129.43 688.886 1128.98 692.668 1135.27 691.313C1142.02 689.86 1137.47 683.422 1137.16 679.805C1136.75 675.118 1132.3 679.125 1132.3 679.125L1126.97 680.412Z" fill="#E0BE21"/>
<path d="M1173.02 605.88C1173.02 605.88 1176.16 613.501 1177.97 611.516C1180.06 609.237 1182.84 611.819 1183.26 606.591C1183.71 600.985 1177.75 600.313 1174.91 598.364C1171.25 595.838 1173.27 601.368 1173.27 601.368L1173.02 605.88Z" fill="#CF880C"/>
<path d="M1218.64 583.06C1218.64 583.06 1221.3 590.813 1223.91 588.079C1226.91 584.942 1229.97 587.102 1231.38 581.084C1232.88 574.634 1225.51 575.493 1222.28 574.061C1218.09 572.205 1219.71 577.898 1219.71 577.898L1218.64 583.06Z" fill="#ECE311"/>
<path d="M1497.65 657.511H1720.69C1720.69 657.511 1678.09 536.152 1611.35 604.647C1611.35 604.647 1562.63 490.664 1497.65 657.511Z" fill="#0AB236"/>
<path d="M1507.65 654.913H1710.69C1710.69 654.913 1670.77 549.371 1610.02 611.722C1610.02 611.722 1566.8 503.032 1507.65 654.913Z" fill="#4AF376"/>
<path d="M983.888 667.583L971.329 673.03C971.329 673.03 974.509 679.53 976.163 682.109C977.818 684.688 980.021 686.493 980.321 689.673C980.622 692.853 979.086 702.63 977.721 705.198C976.55 707.411 975.25 709.259 976.314 710.774C977.378 712.289 983.373 712.386 984.275 710.849C984.963 709.689 985.156 706.015 985.307 704.65C985.457 703.286 986.209 697.924 986.822 693.68C987.208 690.984 988.111 689.222 988.261 687.406C988.412 685.59 985.521 683.183 984.479 681.357C982.073 677.113 983.888 667.583 983.888 667.583Z" fill="#8A5B51"/>
<path d="M996.899 655.561L1000.91 658.204C1000.91 658.204 1006.58 658.354 1007.87 652.982C1008.87 648.803 1007.87 644.462 1005.98 645.719C1005.53 646.02 1003.79 651.693 1003.79 651.693L996.899 655.561Z" fill="#FFEAC3"/>
<path d="M941.084 627.347L937.904 627.648C937.904 627.648 936.421 628.303 935.282 628.604C934.111 628.915 932.306 629.119 932.005 630.033C931.705 630.935 931.769 635.845 932.833 637.328C933.585 638.392 934.047 640.121 938.13 640.046C942.212 639.971 947.885 639.821 947.885 639.821L946.145 628.937L941.084 627.347Z" fill="#FFEAC3"/>
<path d="M958.855 619.407C958.855 619.407 956.362 616.001 951.624 616.506C948.315 616.861 945.167 619.332 945.167 619.332C945.167 619.332 941.911 613.358 939.043 611.091C936.174 608.824 929.964 606.256 928.911 607.685C927.847 609.125 932.317 615.023 934.509 617.892C936.701 620.761 940.482 624.854 940.482 624.854C940.482 624.854 939.344 626.82 937.689 627.69C939.43 627.916 941.643 628.496 943.308 630.881C945.07 633.406 946.284 637.285 945.726 639.853C945.231 642.12 942.373 645.655 942.749 652.982C943.125 660.32 944.716 664.779 946.08 667.046C947.445 669.313 950.764 673.471 950.764 673.471C950.764 673.471 951.065 681.787 950.99 686.181C950.915 690.565 950.088 698.504 949.325 702.362C948.573 706.219 947.659 708.034 946.757 709.173C945.854 710.312 944.211 712.751 947.026 713.406C949.142 713.901 952.258 713.578 952.988 713.353C954.514 712.88 954.095 710.377 954.02 709.012C953.945 707.648 955.76 696.732 956.212 692.122C956.652 687.696 957.522 682.184 957.823 679.616C958.178 676.64 958.586 675.254 959.134 675.33C959.886 675.426 960.015 676.468 959.94 678.961C959.865 681.475 959.231 688.985 958.93 693.294C958.629 697.602 957.447 708.088 957.211 708.926C956.985 709.753 954.761 712.01 954.998 713.793C955.202 715.33 957.039 715.985 959.381 715.985C961.723 715.985 963.356 715.351 963.518 714.073C963.722 712.407 963.389 711.225 963.314 709.41C963.238 707.594 964.828 695.12 965.033 692.649C965.204 690.522 966.945 681.131 967.246 679.917C967.547 678.703 967.686 677.306 967.955 676.662C968.159 676.157 973.681 676.963 978.366 674.696C983.05 672.429 986.005 669.399 986.005 669.399C986.005 669.399 989.336 673.858 991.001 675.899C992.666 677.94 998.565 685.805 998.79 688.609C999.016 691.403 999.317 701.47 999.317 704.263C999.317 707.057 999.242 709.184 999.016 709.786C998.79 710.387 996.147 713.944 996.899 715.233C997.651 716.522 999.747 716.844 1002.14 716.597C1004.62 716.34 1005.73 715.287 1006.13 713.729C1006.84 710.957 1005.72 699.536 1005.88 693.713C1006.03 687.889 1006.89 685.902 1006.29 684.387C1005.69 682.872 1002.73 679.316 1001.83 674.782C1000.93 670.248 1001.76 666.842 1001.76 662.834C1001.76 658.827 1001.53 656.409 1001.53 656.409C1001.53 656.409 1004.56 655.26 1005.81 653.003C1007.05 650.736 1007.5 645.665 1006.38 645.515C1005.24 645.364 1003.63 648.426 1002.97 649.146C1001.86 650.36 999.639 650.887 999.639 650.887C999.639 650.887 997.146 644.161 989.808 642.797C982.47 641.432 973.585 645.15 968.933 646.052C964.248 646.955 961.369 647.567 960.617 646.202C959.865 644.838 960.842 642.12 962.432 639.477C964.023 636.834 964.828 635.093 965.054 633.277C965.28 631.462 965.301 629.571 965.301 629.571C965.301 629.571 970.748 628.582 974.079 624.886C977.41 621.18 980.354 613.39 981.342 611.424C982.33 609.458 983.158 609.082 982.706 608.018C982.255 606.955 976.131 606.654 972.349 607.717C968.911 608.684 964.033 611.8 962.067 614.293C960.069 616.764 958.855 619.407 958.855 619.407Z" fill="#D17856"/>
<path d="M963.217 624.424C961.691 622.963 961.906 620.438 964.377 617.419C966.848 614.4 969.857 612.531 972.596 611.467C974.81 610.607 977.872 609.769 978.548 610.403C978.86 610.704 976.969 614.529 974.702 618.193C972.618 621.566 970.028 624.113 968.009 624.876C966.225 625.542 964.377 625.531 963.217 624.424Z" fill="#FFEAC3"/>
<path d="M932.199 610.64C931.844 611.295 933.907 613.734 936.776 617.451C938.957 620.277 940.418 622.361 941.514 622.544C942.191 622.662 942.889 622.007 942.653 620.954C942.234 619.138 940.665 616.946 938.57 614.798C936.142 612.327 932.553 609.984 932.199 610.64Z" fill="#FFEAC3"/>
<path d="M954.482 627.271C954.364 629.044 953.676 630.172 952.022 630.301C950.689 630.409 949.561 628.808 949.561 627.196C949.561 625.585 950.689 624.446 952.022 624.446C953.354 624.446 954.6 625.66 954.482 627.271Z" fill="#0A070B"/>
<path d="M933.252 636.275C933.252 636.275 936.239 634.384 936.239 632.837C936.239 631.623 935.078 630.634 933.896 629.925C933.241 629.539 932.274 629.281 931.812 629.882C931.361 630.484 930.716 632.074 931.135 634.685C931.554 637.296 932.908 637.79 932.908 637.79C932.908 637.79 932.156 639.154 936.84 639.036C941.525 638.918 941.6 637.747 941.492 637.07C941.374 636.393 938.538 636.425 937.034 636.651C934.81 636.995 933.252 636.275 933.252 636.275Z" fill="#2C2A32"/>
<path d="M955.75 618.354C955.75 618.354 958.167 612.531 958.704 610.296C959.113 608.566 959.156 605.461 959.199 603.602C959.209 602.904 958.747 602.313 958.78 601.185C958.823 599.906 959.521 598.628 961.197 598.574C962.755 598.531 963.657 599.638 963.733 600.884C963.808 602.173 963.206 602.85 963.163 603.602C963.045 605.611 962.819 609.576 962.819 609.576C962.819 609.576 965.881 606.707 966.225 605.837C966.569 604.967 966.601 600.583 966.601 599.713V597.629C966.601 597.629 965.709 596.361 965.731 595.244C965.742 594.352 966.408 593.009 967.89 592.977C969.491 592.934 970.168 593.986 970.276 595.093C970.372 596.2 969.824 597.21 969.824 597.21L969.674 601.862C969.674 601.862 971.372 599.627 972.059 598.682C972.736 597.736 973.499 596.221 973.499 596.221C973.499 596.221 973.112 594.964 973.273 593.729C973.424 592.611 974.176 591.386 975.734 591.343C977.249 591.311 978.076 592.482 978.076 593.729C978.076 595.62 976.937 596.909 976.937 596.909C976.937 596.909 974.143 602.388 971.984 605.225C970.415 607.288 969.341 608.813 968.653 609.232C967.976 609.651 963.657 612.069 961.691 614.98C960.434 616.839 958.855 619.407 958.855 619.407C958.855 619.407 958.113 620.492 956.738 619.976C955.642 619.557 955.75 618.354 955.75 618.354Z" fill="#BD9178"/>
<path d="M929.663 595.287C929.663 595.287 931.823 600.766 933.327 603.753C934.831 606.74 937.066 609.802 937.066 609.802C937.066 609.802 940.149 612.112 941.149 613.315C942.964 615.507 945.049 619.557 945.049 619.557L947.531 617.817L945.317 614.003C945.317 614.003 945.274 610.103 945.274 608.598C945.274 607.352 945.317 605.16 945.317 605.16C945.317 605.16 946.059 604.011 946.112 602.85C946.177 601.54 945.478 600.207 943.921 600.132C942.449 600.057 941.611 601.335 941.503 602.474C941.385 603.613 941.997 604.634 941.997 604.634L941.847 610.801C941.847 610.801 941.02 609.254 940.708 608.835C940.397 608.416 939.666 606.686 939.494 606.374C939.15 605.73 939.838 600.325 939.838 599.455C939.838 598.585 940.063 596.049 940.063 596.049C940.063 596.049 940.794 594.943 940.783 593.707C940.773 592.601 940.117 591.376 938.774 591.279C937.259 591.161 936.464 592.246 936.282 593.245C936.056 594.47 936.582 595.512 936.582 595.512C936.582 595.512 936.346 601.024 935.981 600.916C935.562 600.798 933.026 594.191 933.026 594.191C933.026 594.191 933.606 592.815 933.177 591.086C932.779 589.485 931.479 588.475 929.62 589.001C927.751 589.538 927.385 591.494 927.998 593.009C928.546 594.384 929.663 595.287 929.663 595.287Z" fill="#BD9178"/>
</g>
<defs>
<linearGradient id="paint0_linear_60_655" x1="971.408" y1="693.49" x2="985.168" y2="-108.281" gradientUnits="userSpaceOnUse">
<stop stop-color="#1DE1FF"/>
<stop offset="1" stop-color="#25FFF9"/>
</linearGradient>
<radialGradient id="paint1_radial_60_655" cx="0" cy="0" r="1" gradientUnits="userSpaceOnUse" gradientTransform="translate(1652.74 49.8882) scale(92.1239 92.124)">
<stop offset="0.70614" stop-color="#F5FFBB"/>
<stop offset="1" stop-color="#F5FFBB" stop-opacity="0"/>
</radialGradient>
<clipPath id="clip0_60_655">
<rect width="1920" height="1080" fill="white"/>
</clipPath>
</defs>
</svg>
