<svg width="1920" height="1080" viewBox="0 0 1920 1080" fill="none" xmlns="http://www.w3.org/2000/svg">
<g clip-path="url(#clip0_58_308)">
<path d="M2132.76 -108.281H-162.422V1233.63H2132.76V-108.281Z" fill="url(#paint0_linear_58_308)"/>
<path d="M-70.0898 74.446L473.209 157.593L-94.9604 230.535L-70.0898 74.446Z" fill="#52E7F9" fill-opacity="0.545595"/>
<path d="M1220.92 3.05176e-05L777.772 73.8766L1531.6 111.912L1133.51 187.342L2004.83 319.749L2014.52 -137.492L1220.92 3.05176e-05Z" fill="#52E7F9" fill-opacity="0.545595"/>
<path d="M1277.42 189.492C1328.3 189.492 1369.54 148.247 1369.54 97.3685C1369.54 46.4898 1328.3 5.24451 1277.42 5.24451C1226.54 5.24451 1185.29 46.4898 1185.29 97.3685C1185.29 148.247 1226.54 189.492 1277.42 189.492Z" fill="url(#paint1_radial_58_308)"/>
<path d="M179.213 189.493C214.65 189.493 243.377 175.208 243.377 157.588C243.377 139.968 214.65 125.684 179.213 125.684C143.776 125.684 115.049 139.968 115.049 157.588C115.049 175.208 143.776 189.493 179.213 189.493Z" fill="white"/>
<path d="M251.436 189.493C287.853 189.493 317.375 175.208 317.375 157.588C317.375 139.968 287.853 125.684 251.436 125.684C215.019 125.684 185.497 139.968 185.497 157.588C185.497 175.208 215.019 189.493 251.436 189.493Z" fill="white"/>
<path d="M211.399 168.037C241.299 168.037 265.539 150.89 265.539 129.739C265.539 108.587 241.299 91.4402 211.399 91.4402C181.498 91.4402 157.259 108.587 157.259 129.739C157.259 150.89 181.498 168.037 211.399 168.037Z" fill="white"/>
<path d="M271.617 142.504C282.871 142.504 291.995 133.761 291.995 122.976C291.995 112.191 282.871 103.447 271.617 103.447C260.363 103.447 251.24 112.191 251.24 122.976C251.24 133.761 260.363 142.504 271.617 142.504Z" fill="white"/>
<path d="M522.06 167.817C568.513 167.817 606.171 150.72 606.171 129.629C606.171 108.538 568.513 91.4402 522.06 91.4402C475.606 91.4402 437.948 108.538 437.948 129.629C437.948 150.72 475.606 167.817 522.06 167.817Z" fill="white"/>
<path d="M616.184 167.817C645.348 167.817 668.99 148.182 668.99 123.961C668.99 99.7402 645.348 80.1052 616.184 80.1052C587.02 80.1052 563.377 99.7402 563.377 123.961C563.377 148.182 587.02 167.817 616.184 167.817Z" fill="white"/>
<path d="M584.913 199.921C618.552 199.921 645.821 179.361 645.821 153.998C645.821 128.636 618.552 108.075 584.913 108.075C551.274 108.075 524.005 128.636 524.005 153.998C524.005 179.361 551.274 199.921 584.913 199.921Z" fill="white"/>
<path d="M651.899 191.045C672.287 191.045 688.815 174.458 688.815 153.998C688.815 133.538 672.287 116.952 651.899 116.952C631.511 116.952 614.983 133.538 614.983 153.998C614.983 174.458 631.511 191.045 651.899 191.045Z" fill="white"/>
<path d="M668.99 165.378C691.948 165.378 710.559 146.835 710.559 123.961C710.559 101.087 691.948 82.5446 668.99 82.5446C646.032 82.5446 627.42 101.087 627.42 123.961C627.42 146.835 646.032 165.378 668.99 165.378Z" fill="white"/>
<path d="M863.351 235.76C891.383 235.76 914.108 222.279 914.108 205.65C914.108 189.021 891.383 175.54 863.351 175.54C835.319 175.54 812.594 189.021 812.594 205.65C812.594 222.279 835.319 235.76 863.351 235.76Z" fill="white"/>
<path d="M914.591 274.087C942.891 274.087 965.832 256.495 965.832 234.793C965.832 213.091 942.891 195.499 914.591 195.499C886.292 195.499 863.351 213.091 863.351 234.793C863.351 256.495 886.292 274.087 914.591 274.087Z" fill="white"/>
<path d="M923.776 219.979C945.668 219.979 963.415 207.025 963.415 191.045C963.415 175.065 945.668 162.11 923.776 162.11C901.884 162.11 884.137 175.065 884.137 191.045C884.137 207.025 901.884 219.979 923.776 219.979Z" fill="white"/>
<path d="M990.16 256.1C1015.21 256.1 1035.52 235.791 1035.52 210.739C1035.52 185.687 1015.21 165.378 990.16 165.378C965.108 165.378 944.799 185.687 944.799 210.739C944.799 235.791 965.108 256.1 990.16 256.1Z" fill="white"/>
<path d="M1221.21 189.493C1252.25 189.493 1277.42 177.62 1277.42 162.973C1277.42 148.327 1252.25 136.454 1221.21 136.454C1190.16 136.454 1164.99 148.327 1164.99 162.973C1164.99 177.62 1190.16 189.493 1221.21 189.493Z" fill="white"/>
<path d="M1329.89 196.56C1362.16 196.56 1388.32 174.355 1388.32 146.964C1388.32 119.573 1362.16 97.3685 1329.89 97.3685C1297.62 97.3685 1271.46 119.573 1271.46 146.964C1271.46 174.355 1297.62 196.56 1329.89 196.56Z" fill="white"/>
<path d="M1277.42 203.396C1295 203.396 1309.25 189.262 1309.25 171.825C1309.25 154.389 1295 140.255 1277.42 140.255C1259.84 140.255 1245.59 154.389 1245.59 171.825C1245.59 189.262 1259.84 203.396 1277.42 203.396Z" fill="white"/>
<path d="M1244.41 334.63C1251.27 334.63 1256.84 330.275 1256.84 324.903C1256.84 319.531 1251.27 315.176 1244.41 315.176C1237.55 315.176 1231.98 319.531 1231.98 324.903C1231.98 330.275 1237.55 334.63 1244.41 334.63Z" fill="white"/>
<path d="M1261.31 328.711C1266.92 328.711 1271.46 325.681 1271.46 321.944C1271.46 318.206 1266.92 315.176 1261.31 315.176C1255.7 315.176 1251.16 318.206 1251.16 321.944C1251.16 325.681 1255.7 328.711 1261.31 328.711Z" fill="white"/>
<path d="M1256.84 344.239C1266.18 344.239 1273.76 339.91 1273.76 334.571C1273.76 329.231 1266.18 324.903 1256.84 324.903C1247.49 324.903 1239.92 329.231 1239.92 334.571C1239.92 339.91 1247.49 344.239 1256.84 344.239Z" fill="white"/>
<path d="M1519.12 210.739C1536.05 210.739 1549.78 200.585 1549.78 188.059C1549.78 175.532 1536.05 165.378 1519.12 165.378C1502.19 165.378 1488.46 175.532 1488.46 188.059C1488.46 200.585 1502.19 210.739 1519.12 210.739Z" fill="white"/>
<path d="M1558.73 228.331C1571.53 228.331 1581.9 218.176 1581.9 205.65C1581.9 193.124 1571.53 182.969 1558.73 182.969C1545.93 182.969 1535.55 193.124 1535.55 205.65C1535.55 218.176 1545.93 228.331 1558.73 228.331Z" fill="white"/>
<path d="M1558.73 196.56C1571.53 196.56 1581.9 190.475 1581.9 182.97C1581.9 175.464 1571.53 169.379 1558.73 169.379C1545.93 169.379 1535.55 175.464 1535.55 182.97C1535.55 190.475 1545.93 196.56 1558.73 196.56Z" fill="white"/>
<path d="M1736.11 214.626C1755.6 214.626 1771.4 197.127 1771.4 175.54C1771.4 153.954 1755.6 136.454 1736.11 136.454C1716.62 136.454 1700.82 153.954 1700.82 175.54C1700.82 197.127 1716.62 214.626 1736.11 214.626Z" fill="white"/>
<path d="M1719.38 212.695C1734.11 212.695 1746.05 202.307 1746.05 189.492C1746.05 176.678 1734.11 166.29 1719.38 166.29C1704.65 166.29 1692.71 176.678 1692.71 189.492C1692.71 202.307 1704.65 212.695 1719.38 212.695Z" fill="white"/>
<path d="M1693.46 200.372C1704.4 200.372 1713.28 192.58 1713.28 182.969C1713.28 173.358 1704.4 165.567 1693.46 165.567C1682.51 165.567 1673.64 173.358 1673.64 182.969C1673.64 192.58 1682.51 200.372 1693.46 200.372Z" fill="white"/>
<path d="M1777.16 214.968C1793.31 214.968 1806.41 203.562 1806.41 189.493C1806.41 175.423 1793.31 164.017 1777.16 164.017C1761.01 164.017 1747.92 175.423 1747.92 189.493C1747.92 203.562 1761.01 214.968 1777.16 214.968Z" fill="white"/>
<path d="M1774.07 183.495C1780.88 183.495 1786.4 179.136 1786.4 173.759C1786.4 168.382 1780.88 164.023 1774.07 164.023C1767.27 164.023 1761.75 168.382 1761.75 173.759C1761.75 179.136 1767.27 183.495 1774.07 183.495Z" fill="white"/>
<path d="M478.184 669.997L817.047 349.02L845.317 320.016L872.662 282.367L899.324 227.677L917.782 243.4L964.453 187.343L1049.72 262.542L1152.27 320.016L1244.37 362.352L1515.15 590.72V938.767L478.184 925.232V669.997Z" fill="#C6C6C6"/>
<path d="M1080.6 618.267L1266.22 320.493L1305.98 264.119L1325.12 234.722L1338.79 193.705L1364.77 143.8L1370.24 127.393L1380.49 93.2112L1390.06 104.833L1394.16 121.924L1403.73 136.963L1413.31 126.709L1421.51 121.24L1428.35 121.924L1430.4 130.127L1439.28 146.534L1465.26 171.829L1483.72 216.264L1502.18 250.446L1518.58 312.656L1563.7 467.158L1651.89 609.351L1660.1 1052.34L1042.09 1014.06L1080.6 618.267Z" fill="#B0ABAB"/>
<path d="M618.042 663.988L814.388 422.578L897.822 373.017L902.618 399.82L897.822 432.17L945.785 399.82L956.976 358.628L1008.14 385.807L1067.29 399.82L1101 374.616L1276.72 441.831L1407.82 563.055L1380.64 939.82H621.24L618.042 663.988Z" fill="#ACACAC"/>
<path d="M1490.93 365.672L1570.23 264.495L1600.31 237.15L1608.51 179.725L1619.45 161.951L1634.49 168.787L1649.53 149.645L1696.02 124.351L1716.53 88.1186L1737.04 74.446L1739.77 101.791L1749.34 144.176L1750.71 164.685L1775.32 161.951L1798.56 153.747L1810.87 157.849L1819.07 166.052L1835.48 159.216L1843.68 186.561L1864.19 220.675L1895.64 234.415L1913.41 261.761L1935.29 332.858L1947.59 398.486L1946.23 862.103H1258.5L1272.17 552.987L1340.53 462.748L1367.88 454.544L1410.26 442.239L1444.29 399.872L1490.93 365.672Z" fill="#8C8888"/>
<path d="M741.978 428.297L538.95 236.871L509.946 233.004L500.278 213.668L477.075 180.797L473.208 157.594L446.137 190.465L409.399 178.864L376.528 149.86L341.723 163.395L332.055 188.532L289.516 213.668L287.582 231.071L264.379 236.871L239.243 200.133L231.508 159.528L192.836 225.27L154.164 244.606L127.094 288.484L74.8868 327.75L45.8829 441.833L-27.5938 629.392V1041.25H850.259L840.591 611.989L741.978 428.297Z" fill="#C2C2C2"/>
<path d="M376.529 149.858L341.724 163.394L332.056 188.53L289.517 213.667L287.584 231.069L264.38 236.87L239.244 200.132L231.509 159.526L192.837 225.269L154.166 244.605L127.095 288.483L74.8882 327.749L45.8843 441.831L112.845 345.927L158.064 310.882L197.63 257.19L232.675 281.489L254.156 263.401L308.419 312.013L291.46 353.841L256.416 390.017L372.857 370.798L420.517 307.464L487.035 257.19L549.21 293.925L580.318 275.874L538.951 236.87L509.947 233.003L500.279 213.667L477.076 180.796L473.208 157.593L446.138 190.464L409.4 178.862L376.529 149.858Z" fill="#F2EEEE"/>
<path d="M198.153 664.299L244.56 438.948L302.568 390.014L337.372 343.235L366.376 257.19L385.712 299.73L420.517 307.464L453.388 297.796L493.994 290.062L507.529 324.866L532.666 353.87L606.81 402.915L635.146 495.023L669.951 624.574L762.764 987.107H97.6064L198.153 664.299Z" fill="#D7CBCB"/>
<path d="M964.452 187.342L917.782 243.4L899.323 227.677L872.663 282.367L845.317 320.015L817.048 349.019L814.388 351.539L868.245 345.039L893.026 321.058L933.794 320.258L980.956 302.672L984.153 323.455L1011.33 335.447L1008.93 321.857L1028.12 322.656L1063.29 349.035L1062.49 324.256L1066.49 300.273L1093.67 309.867L1101 291.279L1049.72 262.541L964.452 187.342Z" fill="#E7E0E0"/>
<path d="M214.359 319.459L156.005 365.823L114.438 425.775L97.6067 479.333L62.4785 503.315L103.246 488.126L120.833 447.359L136.021 441.831H124.03L130.425 424.177L152.808 389.804L199.97 366.622V347.437L255.127 323.456L214.359 319.459Z" fill="#7C7C7C"/>
<path d="M1380.49 93.2114L1370.24 127.393L1364.77 143.801L1338.79 193.706L1325.12 234.723L1319.5 243.342L1365.98 213.663L1389.72 181.444L1400.46 206.313L1417.99 232.879L1407.82 253.793L1430.42 235.706L1434.94 210.27L1458.12 222.706L1460.94 247.01L1486.38 254.36L1497.69 281.491L1502.63 252.153L1502.18 250.446L1483.72 216.264L1465.26 171.829L1439.28 146.536L1430.39 130.127L1428.34 121.924L1421.51 121.241L1413.3 126.709L1403.73 136.963L1394.16 121.924L1390.06 104.834L1380.49 93.2114Z" fill="#C6C5C5"/>
<path d="M1737.04 74.4448L1716.53 88.1187L1696.02 124.351L1649.53 149.644L1634.49 168.787L1619.45 161.951L1608.51 179.724L1600.31 237.15L1585.27 250.822L1596.04 281.49L1626.56 256.619L1676.3 219.314L1694.39 252.097L1719.26 256.619V297.316L1671.78 351.539L1676.3 386.625L1689.87 358.628L1718.13 324.449L1762.22 293.925L1775.78 244.183L1854.92 281.49L1859.44 304.099L1935.29 332.857L1913.41 261.759L1895.64 234.416L1864.19 220.675L1843.68 186.56L1835.48 159.216L1819.07 166.052L1810.87 157.849L1798.56 153.748L1775.32 161.951L1750.71 164.685L1749.34 144.175L1739.77 101.791L1737.04 74.4448Z" fill="#A7A2A2"/>
<path d="M313.101 503.315L396.687 339.131L411.333 503.315L484.977 378.712L531.327 533.588L313.101 503.315Z" fill="#09C529"/>
<path d="M659.071 595.554L731.422 452.738L762.764 649.224L799.251 477.064L869.899 697.556L687.381 692.657L659.071 595.554Z" fill="#09A023"/>
<path d="M1010.63 635.331L1088.65 462.368L1110.13 508.91L1160.14 397.238L1196.67 491.76L1229.96 452.738L1297.79 622.149L1010.63 635.331Z" fill="#0CC92D"/>
<path d="M762.764 649.224L843.34 484.977L878.385 546.023L899.864 494.021L941.661 659.071L762.764 649.224Z" fill="#09A023"/>
<path d="M916.445 666.583L976.737 503.315L1012.93 670.376L916.445 666.583Z" fill="#09C529"/>
<path d="M516.63 570.894L606.81 402.915L610.46 574.605L684.34 474.722L669.951 624.574L516.63 570.894Z" fill="#0CC92D"/>
<path d="M158.803 483.912L227.549 335.447L255.127 503.315L158.803 483.912Z" fill="#09A023"/>
<path d="M484.419 469.231L545.172 386.097L549.169 436.359L584.913 402.915L587.319 478.367L638.698 452.738L647.4 524.664L484.419 469.231Z" fill="#20E211"/>
<path d="M223.024 441.831L256.415 390.017L273.564 414.481L305.759 362.915L319.349 452.738L223.024 441.831Z" fill="#3BE211"/>
<path d="M383.299 453.308L422.214 368.51L436.057 411.387L460.039 391.692L465.234 470.031L383.299 453.308Z" fill="#11E225"/>
<path d="M716.215 543.283L761.494 487.612L764.485 603.526L716.215 543.283Z" fill="#11E225"/>
<path d="M871.608 604.945L941.661 484.977L994.834 586.845L1012.93 516.285L1042.09 586.845L871.608 604.945Z" fill="#11E225"/>
<path d="M764.485 603.526L834.575 587.31L852.213 654.148L764.485 603.526Z" fill="#E26011"/>
<path d="M1209.62 572.777L1266.14 464.628L1298.85 517.76L1332.33 493.247L1363.93 556.763L1209.62 572.777Z" fill="#3BE211"/>
<path d="M1312.49 550.545L1357.71 484.977L1407.82 563.055L1312.49 550.545Z" fill="#08B516"/>
<path d="M1525.02 536.414C1525.02 533.023 1499.02 434.671 1499.02 434.671L1483.76 480.455L1469.06 475.368L1465.67 495.717L1440.23 468.274L1422.71 540L1525.02 536.414Z" fill="#32BB10"/>
<path d="M1374.54 532.276L1396.15 468.274L1434.02 554.502L1374.54 532.276Z" fill="#E25611"/>
<path d="M1560.07 555.384C1571.57 540.523 1638.71 439.655 1638.71 439.655L1643.44 523.883L1673.64 486.723L1685.93 509.078L1709.86 455.642L1726.64 523.883L1572.36 540.523L1560.07 555.384Z" fill="#16CF0D"/>
<path d="M1792 509.232L1825.73 452.738L1863.04 544.961L1792 509.232Z" fill="#11E222"/>
<path d="M1726.64 523.883L1746.31 486.723L1752.53 500.804L1772.88 473.39L1791.29 532.457L1726.64 523.883Z" fill="#48EC1F"/>
<path d="M-128.875 441.831C-128.875 441.831 472.43 360.796 716.215 543.283C960 725.77 1196.05 766.467 1196.05 766.467L1209.62 1236.75L-165.05 1216.4L-128.875 441.831Z" fill="#14E030"/>
<path d="M-165.051 486.108C-165.051 486.108 426.432 338.934 824.931 662.742C1152.01 928.515 1515.15 938.767 1515.15 938.767L1560.07 1437.97C1560.07 1437.97 -146.963 1358.84 -137.919 1345.27C-128.875 1331.71 -176.355 488.369 -176.355 488.369L-165.051 486.108Z" fill="#18F029"/>
<path d="M180.504 452.996C155.694 452.534 131.679 452.715 108.631 453.375C231.457 497.128 374.839 573.271 411.333 697.556C478.184 925.231 762.764 987.107 762.764 987.107L808.35 970.437C808.35 970.437 479.144 852.305 453.936 697.556C435.623 585.135 314.295 506.005 209.871 453.837C191.856 452.841 197.821 453.318 180.504 452.996Z" fill="#E8D710"/>
<path d="M2003.22 515.5C2003.22 515.5 1125.61 463.946 762.764 649.224C424.667 821.867 -108.526 791.338 -108.526 791.338L-128.875 1153.09L2014.52 1125.96L2003.22 515.5Z" fill="#31FA69"/>
<path d="M2036.83 572.577C2036.83 572.577 1023.14 523.38 817.848 662.542C612.558 801.704 -154.045 828.915 -154.045 828.915L-183.438 1297.59L2032.31 1207.16L2036.83 572.577Z" fill="#3EFF26"/>
<path d="M93.6025 1031.04H91.5391V1047.22H93.6025V1031.04Z" fill="#1ED43D"/>
<path d="M92.6997 1034.58C96.3677 1034.58 99.3413 1032.39 99.3413 1029.68C99.3413 1026.98 96.3677 1024.78 92.6997 1024.78C89.0316 1024.78 86.0581 1026.98 86.0581 1029.68C86.0581 1032.39 89.0316 1034.58 92.6997 1034.58Z" fill="#DEF605"/>
<path d="M175.681 968.513H172.212V995.717H175.681V968.513Z" fill="#1ED43D"/>
<path d="M174.164 974.474C180.329 974.474 185.327 970.786 185.327 966.237C185.327 961.688 180.329 958 174.164 958C167.998 958 163 961.688 163 966.237C163 970.786 167.998 974.474 174.164 974.474Z" fill="#F6D605"/>
<path d="M251.71 1031.29H248.181V1058.97H251.71V1031.29Z" fill="#1ED43D"/>
<path d="M250.166 1037.36C256.439 1037.36 261.524 1033.61 261.524 1028.98C261.524 1024.35 256.439 1020.6 250.166 1020.6C243.894 1020.6 238.809 1024.35 238.809 1028.98C238.809 1033.61 243.894 1037.36 250.166 1037.36Z" fill="#F6EA05"/>
<path d="M69.5154 927.103H65.9868V954.78H69.5154V927.103Z" fill="#1ED43D"/>
<path d="M67.9717 933.168C74.2443 933.168 79.3292 929.416 79.3292 924.788C79.3292 920.159 74.2443 916.407 67.9717 916.407C61.6992 916.407 56.6143 920.159 56.6143 924.788C56.6143 929.416 61.6992 933.168 67.9717 933.168Z" fill="#DEF605"/>
<path d="M159.323 895.046H155.679V923.627H159.323V895.046Z" fill="#1ED43D"/>
<path d="M157.729 901.309C164.206 901.309 169.458 897.434 169.458 892.654C169.458 887.875 164.206 884 157.729 884C151.251 884 146 887.875 146 892.654C146 897.434 151.251 901.309 157.729 901.309Z" fill="#DEF605"/>
<path d="M92.7171 851.202H88.6919V882.775H92.7171V851.202Z" fill="#1ED43D"/>
<path d="M90.9562 858.12C98.1117 858.12 103.912 853.84 103.912 848.56C103.912 843.28 98.1117 839 90.9562 839C83.8007 839 78 843.28 78 848.56C78 853.84 83.8007 858.12 90.9562 858.12Z" fill="#DEF605"/>
<path d="M241.809 909.449H238.032V939.074H241.809V909.449Z" fill="#1ED43D"/>
<path d="M240.157 915.94C246.871 915.94 252.314 911.924 252.314 906.97C252.314 902.016 246.871 898 240.157 898C233.443 898 228 902.016 228 906.97C228 911.924 233.443 915.94 240.157 915.94Z" fill="#DEF605"/>
<path d="M336.907 1007.56H334.745V1024.52H336.907V1007.56Z" fill="#1ED43D"/>
<path d="M335.961 1011.27C339.805 1011.27 342.922 1008.97 342.922 1006.14C342.922 1003.3 339.805 1001 335.961 1001C332.117 1001 329 1003.3 329 1006.14C329 1008.97 332.117 1011.27 335.961 1011.27Z" fill="#F6D905"/>
<path d="M384.809 950.449H381.032V980.074H384.809V950.449Z" fill="#1ED43D"/>
<path d="M383.157 956.94C389.871 956.94 395.314 952.924 395.314 947.97C395.314 943.016 389.871 939 383.157 939C376.443 939 371 943.016 371 947.97C371 952.924 376.443 956.94 383.157 956.94Z" fill="#F6CB05"/>
<path d="M269.809 978.449H266.032V1008.07H269.809V978.449Z" fill="#1ED43D"/>
<path d="M268.157 984.94C274.871 984.94 280.314 980.924 280.314 975.97C280.314 971.016 274.871 967 268.157 967C261.443 967 256 971.016 256 975.97C256 980.924 261.443 984.94 268.157 984.94Z" fill="#A5F605"/>
<path d="M195.323 1019.05H191.679V1047.63H195.323V1019.05Z" fill="#1ED43D"/>
<path d="M193.729 1025.31C200.206 1025.31 205.458 1021.43 205.458 1016.65C205.458 1011.87 200.206 1008 193.729 1008C187.251 1008 182 1011.87 182 1016.65C182 1021.43 187.251 1025.31 193.729 1025.31Z" fill="#F6C205"/>
<path d="M119.471 966.852H116.88V987.169H119.471V966.852Z" fill="#1ED43D"/>
<path d="M118.337 971.304C122.942 971.304 126.675 968.549 126.675 965.152C126.675 961.754 122.942 959 118.337 959C113.733 959 110 961.754 110 965.152C110 968.549 113.733 971.304 118.337 971.304Z" fill="#DEF605"/>
<path d="M40.3231 1006.05H36.6792V1034.63H40.3231V1006.05Z" fill="#1ED43D"/>
<path d="M38.7288 1012.31C45.2064 1012.31 50.4575 1008.43 50.4575 1003.65C50.4575 998.875 45.2064 995 38.7288 995C32.2511 995 27 998.875 27 1003.65C27 1008.43 32.2511 1012.31 38.7288 1012.31Z" fill="#DEF605"/>
<path d="M35.9011 913.696H32.3726V941.373H35.9011V913.696Z" fill="#1ED43D"/>
<path d="M34.3575 919.761C40.63 919.761 45.715 916.009 45.715 911.38C45.715 906.752 40.63 903 34.3575 903C28.0849 903 23 906.752 23 911.38C23 916.009 28.0849 919.761 34.3575 919.761Z" fill="#DEF605"/>
<path d="M377.114 1035.29H373.586V1062.96H377.114V1035.29Z" fill="#1ED43D"/>
<path d="M375.571 1041.35C381.843 1041.35 386.928 1037.6 386.928 1032.97C386.928 1028.34 381.843 1024.59 375.571 1024.59C369.298 1024.59 364.213 1028.34 364.213 1032.97C364.213 1037.6 369.298 1041.35 375.571 1041.35Z" fill="#F6E005"/>
<path d="M432.368 968.337H428.715V996.988H432.368V968.337Z" fill="#1ED43D"/>
<path d="M430.77 974.615C437.263 974.615 442.527 970.731 442.527 965.94C442.527 961.149 437.263 957.265 430.77 957.265C424.277 957.265 419.013 961.149 419.013 965.94C419.013 970.731 424.277 974.615 430.77 974.615Z" fill="#BFF605"/>
<path d="M131.498 855.8H127.535V886.886H131.498V855.8Z" fill="#1ED43D"/>
<path d="M129.764 862.612C136.809 862.612 142.521 858.398 142.521 853.199C142.521 848.001 136.809 843.787 129.764 843.787C122.719 843.787 117.008 848.001 117.008 853.199C117.008 858.398 122.719 862.612 129.764 862.612Z" fill="#DEF605"/>
<path d="M198.717 898.202H194.692V929.775H198.717V898.202Z" fill="#1ED43D"/>
<path d="M196.956 905.12C204.112 905.12 209.912 900.84 209.912 895.56C209.912 890.28 204.112 886 196.956 886C189.801 886 184 890.28 184 895.56C184 900.84 189.801 905.12 196.956 905.12Z" fill="#F6D805"/>
<path d="M122.355 905.072H118.703V933.723H122.355V905.072Z" fill="#1ED43D"/>
<path d="M120.757 911.35C127.25 911.35 132.514 907.466 132.514 902.675C132.514 897.884 127.25 894 120.757 894C114.264 894 109 897.884 109 902.675C109 907.466 114.264 911.35 120.757 911.35Z" fill="#F6E405"/>
<path d="M296.681 895.689H292.284V925.969H296.681V895.689Z" fill="#1ED43D"/>
<path d="M294.757 902.324C302.575 902.324 308.913 898.219 308.913 893.156C308.913 888.092 302.575 883.987 294.757 883.987C286.94 883.987 280.602 888.092 280.602 893.156C280.602 898.219 286.94 902.324 294.757 902.324Z" fill="#DEF605"/>
<path d="M362.901 893.696H359.373V921.373H362.901V893.696Z" fill="#1ED43D"/>
<path d="M361.357 899.761C367.63 899.761 372.715 896.009 372.715 891.38C372.715 886.752 367.63 883 361.357 883C355.085 883 350 886.752 350 891.38C350 896.009 355.085 899.761 361.357 899.761Z" fill="#DEF605"/>
<path d="M406.717 885.484H402.692V920.377H406.717V885.484Z" fill="#1ED43D"/>
<path d="M404.956 893.13C412.112 893.13 417.912 888.4 417.912 882.565C417.912 876.73 412.112 872 404.956 872C397.801 872 392 876.73 392 882.565C392 888.4 397.801 893.13 404.956 893.13Z" fill="#DEF605"/>
<path d="M497.191 977.202H493.625V1005.18H497.191V977.202Z" fill="#1ED43D"/>
<path d="M495.631 983.332C501.97 983.332 507.11 979.54 507.11 974.862C507.11 970.184 501.97 966.392 495.631 966.392C489.291 966.392 484.151 970.184 484.151 974.862C484.151 979.54 489.291 983.332 495.631 983.332Z" fill="#DEF605"/>
<path d="M453.533 1059.71H449.011V1095.18H453.533V1059.71Z" fill="#1ED43D"/>
<path d="M451.555 1067.48C459.593 1067.48 466.11 1062.67 466.11 1056.74C466.11 1050.81 459.593 1046 451.555 1046C443.516 1046 437 1050.81 437 1056.74C437 1062.67 443.516 1067.48 451.555 1067.48Z" fill="#DEF605"/>
<path d="M295.865 1069.23H291.964V1099.83H295.865V1069.23Z" fill="#1ED43D"/>
<path d="M294.159 1075.93C301.093 1075.93 306.715 1071.78 306.715 1066.67C306.715 1061.55 301.093 1057.4 294.159 1057.4C287.224 1057.4 281.602 1061.55 281.602 1066.67C281.602 1071.78 287.224 1075.93 294.159 1075.93Z" fill="#F6DB05"/>
<path d="M554.717 1065.48H550.692V1100.38H554.717V1065.48Z" fill="#1ED43D"/>
<path d="M552.956 1073.13C560.112 1073.13 565.912 1068.4 565.912 1062.57C565.912 1056.73 560.112 1052 552.956 1052C545.801 1052 540 1056.73 540 1062.57C540 1068.4 545.801 1073.13 552.956 1073.13Z" fill="#DEF605"/>
<path d="M579.809 998.593H576.032V1031.18H579.809V998.593Z" fill="#1ED43D"/>
<path d="M578.157 1005.73C584.871 1005.73 590.314 1001.32 590.314 995.867C590.314 990.418 584.871 986 578.157 986C571.443 986 566 990.418 566 995.867C566 1001.32 571.443 1005.73 578.157 1005.73Z" fill="#DEF605"/>
<path d="M39.4591 857.293H35.9927V884.483H39.4591V857.293Z" fill="#1ED43D"/>
<path d="M37.9428 863.251C44.105 863.251 49.1004 859.565 49.1004 855.018C49.1004 850.471 44.105 846.785 37.9428 846.785C31.7806 846.785 26.7852 850.471 26.7852 855.018C26.7852 859.565 31.7806 863.251 37.9428 863.251Z" fill="#DEF605"/>
<path d="M928.814 632.225H925.785V655.986H928.814V632.225Z" fill="#1ED43D"/>
<path d="M927.489 637.432C932.874 637.432 937.239 634.211 937.239 630.237C937.239 626.264 932.874 623.043 927.489 623.043C922.104 623.043 917.738 626.264 917.738 630.237C917.738 634.211 922.104 637.432 927.489 637.432Z" fill="#05F6F1"/>
<path d="M973.446 640.618H968.924V676.087H973.446V640.618Z" fill="#1ED43D"/>
<path d="M971.468 648.39C979.507 648.39 986.023 643.582 986.023 637.651C986.023 631.719 979.507 626.911 971.468 626.911C963.43 626.911 956.913 631.719 956.913 637.651C956.913 643.582 963.43 648.39 971.468 648.39Z" fill="#05B1F6"/>
<path d="M981.492 693.629H977.409V725.655H981.492V693.629Z" fill="#1ED43D"/>
<path d="M979.705 700.647C986.963 700.647 992.847 696.305 992.847 690.95C992.847 685.594 986.963 681.253 979.705 681.253C972.447 681.253 966.563 685.594 966.563 690.95C966.563 696.305 972.447 700.647 979.705 700.647Z" fill="#05DCF6"/>
<path d="M1022.18 626.043H1018.36V656.002H1022.18V626.043Z" fill="#1ED43D"/>
<path d="M1020.51 632.607C1027.3 632.607 1032.8 628.546 1032.8 623.536C1032.8 618.526 1027.3 614.465 1020.51 614.465C1013.72 614.465 1008.22 618.526 1008.22 623.536C1008.22 628.546 1013.72 632.607 1020.51 632.607Z" fill="#23E3DE"/>
<path d="M1084.02 662.791H1081.01V686.436H1084.02V662.791Z" fill="#1ED43D"/>
<path d="M1082.7 667.972C1088.06 667.972 1092.41 664.766 1092.41 660.812C1092.41 656.858 1088.06 653.652 1082.7 653.652C1077.34 653.652 1073 656.858 1073 660.812C1073 664.766 1077.34 667.972 1082.7 667.972Z" fill="#05E5F6"/>
<path d="M1000.45 662.139H997.066V688.654H1000.45V662.139Z" fill="#1ED43D"/>
<path d="M998.968 667.949C1004.98 667.949 1009.85 664.354 1009.85 659.92C1009.85 655.486 1004.98 651.891 998.968 651.891C992.958 651.891 988.087 655.486 988.087 659.92C988.087 664.354 992.958 667.949 998.968 667.949Z" fill="#059EF6"/>
<path d="M961.921 674.405H958.102V704.364H961.921V674.405Z" fill="#1ED43D"/>
<path d="M960.25 680.97C967.04 680.97 972.544 676.909 972.544 671.899C972.544 666.889 967.04 662.827 960.25 662.827C953.46 662.827 947.956 666.889 947.956 671.899C947.956 676.909 953.46 680.97 960.25 680.97Z" fill="#059EF6"/>
<path d="M895.449 665.464H891.366V697.489H895.449V665.464Z" fill="#1ED43D"/>
<path d="M893.663 672.481C900.921 672.481 906.805 668.14 906.805 662.784C906.805 657.429 900.921 653.087 893.663 653.087C886.405 653.087 880.521 657.429 880.521 662.784C880.521 668.14 886.405 672.481 893.663 672.481Z" fill="#059FF6"/>
<path d="M934.945 696.052H931.916V719.813H934.945V696.052Z" fill="#1ED43D"/>
<path d="M933.62 701.259C939.005 701.259 943.37 698.037 943.37 694.064C943.37 690.091 939.005 686.87 933.62 686.87C928.235 686.87 923.87 690.091 923.87 694.064C923.87 698.037 928.235 701.259 933.62 701.259Z" fill="#22CFF4"/>
<path d="M1041.71 668.098H1037.18V703.567H1041.71V668.098Z" fill="#1ED43D"/>
<path d="M1039.73 675.87C1047.77 675.87 1054.28 671.062 1054.28 665.131C1054.28 659.199 1047.77 654.391 1039.73 654.391C1031.69 654.391 1025.17 659.199 1025.17 665.131C1025.17 671.062 1031.69 675.87 1039.73 675.87Z" fill="#05F6CF"/>
<path d="M1065.69 608.545H1061.7V639.882H1065.69V608.545Z" fill="#1ED43D"/>
<path d="M1063.95 615.412C1071.05 615.412 1076.81 611.163 1076.81 605.923C1076.81 600.683 1071.05 596.435 1063.95 596.435C1056.84 596.435 1051.09 600.683 1051.09 605.923C1051.09 611.163 1056.84 615.412 1063.95 615.412Z" fill="#05EBF6"/>
<path d="M843.323 674.046H839.679V702.627H843.323V674.046Z" fill="#1ED43D"/>
<path d="M841.729 680.309C848.206 680.309 853.458 676.434 853.458 671.654C853.458 666.875 848.206 663 841.729 663C835.251 663 830 666.875 830 671.654C830 676.434 835.251 680.309 841.729 680.309Z" fill="#05BCF6"/>
<path d="M887.49 701.793H882.968V737.262H887.49V701.793Z" fill="#1ED43D"/>
<path d="M885.512 709.565C893.55 709.565 900.067 704.757 900.067 698.826C900.067 692.894 893.55 688.086 885.512 688.086C877.474 688.086 870.957 692.894 870.957 698.826C870.957 704.757 877.474 709.565 885.512 709.565Z" fill="#05E4F6"/>
<path d="M-47.4802 510.413C-47.4802 510.413 127.179 530.196 145.832 616.113C164.485 702.03 -80.2642 767.598 -80.2642 767.598L-47.4802 510.413Z" fill="url(#paint2_linear_58_308)"/>
<path d="M549.169 536.379C549.169 536.379 398.087 498.009 424.467 557.162C450.846 616.316 509.999 640.297 525.987 663.479C541.974 686.661 625.908 713.839 636.3 673.871C646.692 633.902 662.679 596.331 632.303 569.952C601.927 543.573 549.169 536.379 549.169 536.379Z" fill="#ACF605"/>
<path d="M1497.65 657.511H1720.7C1720.7 657.511 1678.09 536.152 1611.35 604.647C1611.35 604.647 1562.63 490.664 1497.65 657.511Z" fill="#0AB236"/>
<path d="M1507.65 654.913H1710.69C1710.69 654.913 1670.77 549.371 1610.02 611.722C1610.02 611.722 1566.8 503.032 1507.65 654.913Z" fill="#1ED54E"/>
<path d="M1557.41 599.357C1558.63 599.357 1559.61 598.372 1559.61 597.158C1559.61 595.944 1558.63 594.96 1557.41 594.96C1556.2 594.96 1555.21 595.944 1555.21 597.158C1555.21 598.372 1556.2 599.357 1557.41 599.357Z" fill="#177FFE"/>
<path d="M1542.02 619.541C1543.24 619.541 1544.22 618.556 1544.22 617.342C1544.22 616.128 1543.24 615.144 1542.02 615.144C1540.81 615.144 1539.83 616.128 1539.83 617.342C1539.83 618.556 1540.81 619.541 1542.02 619.541Z" fill="#1745FE"/>
<path d="M1577.1 613.545C1577.92 613.545 1578.6 612.874 1578.6 612.047C1578.6 611.219 1577.92 610.548 1577.1 610.548C1576.27 610.548 1575.6 611.219 1575.6 612.047C1575.6 612.874 1576.27 613.545 1577.1 613.545Z" fill="#1768FE"/>
<path d="M1558.71 635.928C1560.2 635.928 1561.41 634.72 1561.41 633.23C1561.41 631.74 1560.2 630.532 1558.71 630.532C1557.22 630.532 1556.01 631.74 1556.01 633.23C1556.01 634.72 1557.22 635.928 1558.71 635.928Z" fill="#175BFE"/>
<path d="M1581.38 628.788C1582.82 628.788 1583.98 627.625 1583.98 626.19C1583.98 624.755 1582.82 623.592 1581.38 623.592C1579.95 623.592 1578.78 624.755 1578.78 626.19C1578.78 627.625 1579.95 628.788 1581.38 628.788Z" fill="#1745FE"/>
<path d="M1526.64 647.319C1527.85 647.319 1528.83 646.335 1528.83 645.121C1528.83 643.906 1527.85 642.922 1526.64 642.922C1525.42 642.922 1524.44 643.906 1524.44 645.121C1524.44 646.335 1525.42 647.319 1526.64 647.319Z" fill="#176BFE"/>
<path d="M1578.1 646.519C1579.14 646.519 1579.99 645.67 1579.99 644.621C1579.99 643.572 1579.14 642.722 1578.1 642.722C1577.05 642.722 1576.2 643.572 1576.2 644.621C1576.2 645.67 1577.05 646.519 1578.1 646.519Z" fill="#1768FE"/>
<path d="M1582.99 582.37C1584.32 582.37 1585.39 581.296 1585.39 579.972C1585.39 578.647 1584.32 577.574 1582.99 577.574C1581.67 577.574 1580.59 578.647 1580.59 579.972C1580.59 581.296 1581.67 582.37 1582.99 582.37Z" fill="#175CFE"/>
<path d="M1594.98 610.511C1596.2 610.511 1597.18 609.527 1597.18 608.313C1597.18 607.099 1596.2 606.115 1594.98 606.115C1593.77 606.115 1592.79 607.099 1592.79 608.313C1592.79 609.527 1593.77 610.511 1594.98 610.511Z" fill="#1745FE"/>
<path d="M1603.68 647.319C1605.17 647.319 1606.37 646.111 1606.37 644.621C1606.37 643.131 1605.17 641.923 1603.68 641.923C1602.19 641.923 1600.98 643.131 1600.98 644.621C1600.98 646.111 1602.19 647.319 1603.68 647.319Z" fill="#1640E8"/>
<path d="M1633.65 646.12C1634.81 646.12 1635.75 645.18 1635.75 644.021C1635.75 642.863 1634.81 641.923 1633.65 641.923C1632.49 641.923 1631.55 642.863 1631.55 644.021C1631.55 645.18 1632.49 646.12 1633.65 646.12Z" fill="#1745FE"/>
<path d="M1617.57 640.924C1618.56 640.924 1619.36 640.119 1619.36 639.125C1619.36 638.132 1618.56 637.327 1617.57 637.327C1616.57 637.327 1615.77 638.132 1615.77 639.125C1615.77 640.119 1616.57 640.924 1617.57 640.924Z" fill="#1745FE"/>
<path d="M1629.16 606.751C1630.37 606.751 1631.35 605.767 1631.35 604.552C1631.35 603.338 1630.37 602.354 1629.16 602.354C1627.94 602.354 1626.96 603.338 1626.96 604.552C1626.96 605.767 1627.94 606.751 1629.16 606.751Z" fill="#1745FE"/>
<path d="M1643.64 595.36C1644.91 595.36 1645.94 594.331 1645.94 593.061C1645.94 591.792 1644.91 590.763 1643.64 590.763C1642.38 590.763 1641.35 591.792 1641.35 593.061C1641.35 594.331 1642.38 595.36 1643.64 595.36Z" fill="#3492FA"/>
<path d="M1620.87 624.971C1621.98 624.971 1622.87 624.076 1622.87 622.972C1622.87 621.869 1621.98 620.974 1620.87 620.974C1619.77 620.974 1618.87 621.869 1618.87 622.972C1618.87 624.076 1619.77 624.971 1620.87 624.971Z" fill="#1745FE"/>
<path d="M1648.74 642.722C1649.95 642.722 1650.94 641.738 1650.94 640.524C1650.94 639.31 1649.95 638.326 1648.74 638.326C1647.53 638.326 1646.54 639.31 1646.54 640.524C1646.54 641.738 1647.53 642.722 1648.74 642.722Z" fill="#175EFE"/>
<path d="M1655.98 630.952C1657.09 630.952 1657.98 630.057 1657.98 628.953C1657.98 627.85 1657.09 626.955 1655.98 626.955C1654.88 626.955 1653.98 627.85 1653.98 628.953C1653.98 630.057 1654.88 630.952 1655.98 630.952Z" fill="#286BF0"/>
<path d="M1662.43 607.15C1663.48 607.15 1664.33 606.3 1664.33 605.252C1664.33 604.203 1663.48 603.353 1662.43 603.353C1661.38 603.353 1660.53 604.203 1660.53 605.252C1660.53 606.3 1661.38 607.15 1662.43 607.15Z" fill="#175FFE"/>
<path d="M1642.42 621.265C1643.58 621.265 1644.52 620.325 1644.52 619.166C1644.52 618.008 1643.58 617.068 1642.42 617.068C1641.26 617.068 1640.32 618.008 1640.32 619.166C1640.32 620.325 1641.26 621.265 1642.42 621.265Z" fill="#1745FE"/>
<path d="M1598.16 625.847C1599.27 625.847 1600.16 624.952 1600.16 623.849C1600.16 622.745 1599.27 621.85 1598.16 621.85C1597.06 621.85 1596.17 622.745 1596.17 623.849C1596.17 624.952 1597.06 625.847 1598.16 625.847Z" fill="#215AE9"/>
<path d="M1679.22 629.932C1680.6 629.932 1681.71 628.814 1681.71 627.434C1681.71 626.055 1680.6 624.936 1679.22 624.936C1677.84 624.936 1676.72 626.055 1676.72 627.434C1676.72 628.814 1677.84 629.932 1679.22 629.932Z" fill="#1751FE"/>
<path d="M1667.93 648.518C1669.25 648.518 1670.32 647.444 1670.32 646.12C1670.32 644.795 1669.25 643.722 1667.93 643.722C1666.6 643.722 1665.53 644.795 1665.53 646.12C1665.53 647.444 1666.6 648.518 1667.93 648.518Z" fill="#177EFE"/>
<path d="M1689.65 644.375C1691.13 644.375 1692.33 643.173 1692.33 641.69C1692.33 640.207 1691.13 639.005 1689.65 639.005C1688.16 639.005 1686.96 640.207 1686.96 641.69C1686.96 643.173 1688.16 644.375 1689.65 644.375Z" fill="#177FFE"/>
<path d="M2006.41 687.944C2006.41 687.944 381.598 645.711 942.822 939.82C1328.22 1141.79 942.822 1356.58 942.822 1356.58L1987.39 1327.19L2006.41 687.944Z" fill="#04A0DD"/>
<path d="M2043.91 728.031L1258.5 768.728L2042.41 783.419L2043.91 728.031Z" fill="#26E6FF"/>
<path d="M2044.43 845.601L1200.01 903.815L2086.87 1008.39L2044.43 845.601Z" fill="#26E6FF"/>
<path d="M1025.8 992.276C1090.13 1042.2 1113.77 1091.68 1113.85 1137.36L1675.29 1130.25L1351.1 1033.2L1718.33 1021.21L1025.8 992.276Z" fill="#1AD4FF"/>
<path d="M913.091 759.447C859.518 777.604 826.378 800.034 824.589 827.922L1196.67 811.129L913.091 759.447Z" fill="#18E4F2"/>
<path d="M2043.16 755.725C2043.16 755.725 900.243 674.741 942.822 845.601C984.183 1011.57 1248.5 954.055 1220.92 1137.36C1193.35 1320.67 1987.39 1327.19 1987.39 1327.19L2043.16 755.725Z" fill="#1A89FF" fill-opacity="0.587326"/>
<g opacity="0.364706">
<path d="M1473.58 823.627C1475.46 814.538 1467.34 806.548 1458.28 808.581C1457.47 808.763 1456.84 809.395 1456.65 810.205C1455.49 815.393 1457.62 820.678 1462.01 823.627C1457.65 826.551 1455.48 831.818 1456.65 837.048C1456.84 837.858 1457.47 838.491 1458.28 838.673C1467.34 840.705 1475.46 832.715 1473.58 823.627Z" fill="#58A4B3"/>
<path d="M1473.58 823.623H1462.01C1462.01 823.625 1462.01 823.626 1462.01 823.627C1457.65 826.551 1455.48 831.818 1456.65 837.048C1456.84 837.858 1457.47 838.491 1458.28 838.673C1467.34 840.705 1475.46 832.715 1473.58 823.627C1473.58 823.626 1473.58 823.624 1473.58 823.623Z" fill="#277EA4"/>
<path d="M1469.37 824.522C1469.11 823.954 1469.11 823.3 1469.37 822.731C1477.24 805.605 1497.59 801.019 1511.95 809.762C1516.92 812.788 1520.87 817.273 1523.38 822.731C1523.64 823.3 1523.64 823.954 1523.38 824.522C1512.78 847.609 1479.95 847.547 1469.37 824.522Z" fill="#6CCFE2"/>
<path d="M1469.17 823.623C1469.17 823.93 1469.24 824.237 1469.37 824.522C1479.95 847.547 1512.78 847.609 1523.38 824.522C1523.51 824.237 1523.58 823.93 1523.58 823.623H1469.17Z" fill="#2C9DD0"/>
<path d="M1486.91 840.309C1488.86 840.949 1490.88 841.389 1492.94 841.622C1503.48 834.305 1510.52 822.797 1511.93 809.75C1510.61 808.948 1509.23 808.254 1507.81 807.671C1506.82 822.026 1498.43 833.996 1486.91 840.309Z" fill="#58A4B3"/>
<path d="M1503.3 823.623C1499.56 830.741 1493.79 836.536 1486.91 840.309C1488.86 840.949 1490.88 841.39 1492.94 841.622C1499.53 837.046 1504.76 830.83 1508.09 823.623H1503.3V823.623Z" fill="#277EA4"/>
<path d="M1514.95 823.846C1516.52 823.846 1517.79 822.575 1517.79 821.008C1517.79 819.44 1516.52 818.169 1514.95 818.169C1513.38 818.169 1512.11 819.44 1512.11 821.008C1512.11 822.575 1513.38 823.846 1514.95 823.846Z" fill="#4C6370"/>
</g>
<g opacity="0.286765">
<path d="M1847.37 858.061C1846.17 852.643 1851.34 847.881 1857.12 849.093C1857.63 849.201 1858.04 849.578 1858.15 850.061C1858.89 853.153 1857.54 856.303 1854.74 858.061C1857.51 859.804 1858.9 862.943 1858.15 866.06C1858.04 866.543 1857.63 866.92 1857.12 867.029C1851.34 868.24 1846.17 863.477 1847.37 858.061Z" fill="#58A4B3"/>
<path d="M1847.37 858.059H1854.74C1854.74 858.059 1854.74 858.06 1854.74 858.061C1857.51 859.804 1858.9 862.943 1858.15 866.06C1858.04 866.543 1857.63 866.92 1857.12 867.029C1851.34 868.24 1846.17 863.477 1847.37 858.06C1847.37 858.06 1847.37 858.059 1847.37 858.059Z" fill="#277EA4"/>
<path d="M1850.05 858.594C1850.22 858.255 1850.22 857.866 1850.05 857.527C1845.04 847.319 1832.07 844.585 1822.93 849.797C1819.76 851.6 1817.25 854.273 1815.65 857.527C1815.48 857.866 1815.48 858.256 1815.65 858.594C1822.4 872.355 1843.31 872.318 1850.05 858.594Z" fill="#6CCFE2"/>
<path d="M1850.18 858.059C1850.18 858.241 1850.13 858.424 1850.05 858.594C1843.31 872.318 1822.4 872.355 1815.65 858.594C1815.56 858.424 1815.52 858.241 1815.52 858.059H1850.18Z" fill="#2C9DD0"/>
<path d="M1838.88 868.004C1837.64 868.385 1836.35 868.648 1835.04 868.787C1828.32 864.425 1823.84 857.566 1822.94 849.79C1823.78 849.311 1824.66 848.898 1825.57 848.55C1826.19 857.107 1831.54 864.241 1838.88 868.004Z" fill="#58A4B3"/>
<path d="M1828.44 858.059C1830.82 862.301 1834.49 865.755 1838.88 868.004C1837.64 868.385 1836.35 868.648 1835.04 868.787C1830.84 866.059 1827.51 862.354 1825.39 858.058H1828.44V858.059Z" fill="#277EA4"/>
<path d="M1821.02 858.191C1820.02 858.191 1819.21 857.434 1819.21 856.499C1819.21 855.565 1820.02 854.808 1821.02 854.808C1822.02 854.808 1822.83 855.565 1822.83 856.499C1822.83 857.434 1822.02 858.191 1821.02 858.191Z" fill="#4C6370"/>
</g>
<g opacity="0.194118">
<path d="M1348.34 984.929C1346.98 978.866 1352.85 973.536 1359.41 974.892C1360 975.013 1360.46 975.435 1360.59 975.975C1361.43 979.436 1359.89 982.962 1356.71 984.929C1359.87 986.88 1361.44 990.394 1360.59 993.883C1360.46 994.423 1360 994.845 1359.41 994.966C1352.85 996.322 1346.98 990.992 1348.34 984.929Z" fill="#58A4B3"/>
<path d="M1348.34 984.927H1356.71C1356.71 984.928 1356.71 984.928 1356.71 984.929C1359.87 986.88 1361.44 990.394 1360.59 993.883C1360.46 994.423 1360 994.845 1359.41 994.966C1352.85 996.322 1346.98 990.992 1348.34 984.929C1348.34 984.928 1348.34 984.927 1348.34 984.927Z" fill="#277EA4"/>
<path d="M1351.39 985.527C1351.57 985.147 1351.57 984.711 1351.39 984.332C1345.69 972.906 1330.95 969.847 1320.56 975.68C1316.96 977.699 1314.1 980.69 1312.29 984.332C1312.1 984.711 1312.1 985.147 1312.29 985.527C1319.96 1000.93 1343.73 1000.89 1351.39 985.527Z" fill="#6CCFE2"/>
<path d="M1351.53 984.927C1351.53 985.132 1351.48 985.336 1351.39 985.526C1343.73 1000.89 1319.96 1000.93 1312.29 985.526C1312.19 985.336 1312.15 985.131 1312.15 984.927H1351.53Z" fill="#2C9DD0"/>
<path d="M1338.69 996.058C1337.28 996.485 1335.82 996.779 1334.33 996.934C1326.69 992.053 1321.6 984.375 1320.58 975.672C1321.53 975.137 1322.53 974.674 1323.56 974.284C1324.27 983.861 1330.35 991.847 1338.69 996.058Z" fill="#58A4B3"/>
<path d="M1326.82 984.927C1329.53 989.675 1333.7 993.541 1338.69 996.058C1337.28 996.485 1335.82 996.779 1334.33 996.934C1329.55 993.881 1325.77 989.734 1323.36 984.927H1326.82V984.927Z" fill="#277EA4"/>
<path d="M1318.39 985.075C1317.26 985.075 1316.34 984.228 1316.34 983.182C1316.34 982.136 1317.26 981.288 1318.39 981.288C1319.53 981.288 1320.45 982.136 1320.45 983.182C1320.45 984.228 1319.53 985.075 1318.39 985.075Z" fill="#4C6370"/>
</g>
<path d="M1146.11 846.16H1153.7C1155.11 846.16 1156.26 845.076 1156.26 843.74V836.116C1156.26 834.779 1155.11 833.696 1153.7 833.696H1138.04C1136.63 833.696 1135.48 834.779 1135.48 836.116C1135.48 841.654 1140.25 846.16 1146.11 846.16Z" fill="#FFC843"/>
<path d="M1153.7 851.46H1174.34C1175.76 851.46 1176.9 850.376 1176.9 849.04V832.947C1176.9 826.233 1171.12 820.771 1164.02 820.771C1156.92 820.771 1151.14 826.233 1151.14 832.947V849.04C1151.14 850.377 1152.28 851.46 1153.7 851.46Z" fill="#6CCFE2"/>
<path d="M1183.43 879.56C1201.24 879.56 1215.72 865.869 1215.72 849.04C1215.72 847.703 1214.58 846.62 1213.16 846.62H1153.7C1152.28 846.62 1151.14 847.703 1151.14 849.04C1151.14 865.869 1165.62 879.56 1183.43 879.56Z" fill="#6CCFE2"/>
<path d="M1183.43 869.506C1190.64 869.506 1197.36 866.119 1201.4 860.446C1202.55 858.841 1201.33 856.673 1199.28 856.673H1167.58C1165.53 856.673 1164.31 858.839 1165.46 860.446C1169.5 866.119 1176.22 869.506 1183.43 869.506Z" fill="#FFC843"/>
<path d="M1153.7 846.619H1183.43V879.56C1165.62 879.56 1151.14 865.868 1151.14 849.04C1151.14 847.703 1152.28 846.619 1153.7 846.619Z" fill="#58A4B3"/>
<path d="M1167.58 856.673H1183.43V869.506C1176.22 869.506 1169.5 866.119 1165.46 860.446C1164.31 858.839 1165.53 856.673 1167.58 856.673Z" fill="#F3B73F"/>
<path d="M1161.63 835.42C1159.76 835.42 1158.24 833.986 1158.24 832.218C1158.24 830.45 1159.76 829.016 1161.63 829.016C1163.5 829.016 1165.02 830.45 1165.02 832.218C1165.02 833.986 1163.5 835.42 1161.63 835.42Z" fill="#4A5052"/>
<g opacity="0.35">
<path d="M1645.78 995.221C1647.66 986.133 1639.55 978.143 1630.48 980.176C1629.67 980.357 1629.04 980.99 1628.86 981.8C1627.69 986.987 1629.82 992.273 1634.22 995.221C1629.86 998.146 1627.69 1003.41 1628.86 1008.64C1629.04 1009.45 1629.67 1010.09 1630.48 1010.27C1639.55 1012.3 1647.66 1004.31 1645.78 995.221Z" fill="#58A4B3"/>
<path d="M1645.78 995.218H1634.21C1634.22 995.219 1634.22 995.22 1634.22 995.222C1629.86 998.146 1627.69 1003.41 1628.86 1008.64C1629.04 1009.45 1629.67 1010.09 1630.48 1010.27C1639.55 1012.3 1647.66 1004.31 1645.78 995.221C1645.78 995.22 1645.78 995.219 1645.78 995.218Z" fill="#277EA4"/>
<path d="M1641.57 996.117C1641.31 995.548 1641.31 994.894 1641.57 994.326C1649.44 977.199 1669.8 972.614 1684.16 981.357C1689.13 984.383 1693.08 988.868 1695.58 994.326C1695.85 994.895 1695.85 995.549 1695.58 996.117C1684.98 1019.2 1652.15 1019.14 1641.57 996.117Z" fill="#6CCFE2"/>
<path d="M1641.38 995.218C1641.38 995.525 1641.44 995.832 1641.58 996.117C1652.15 1019.14 1684.98 1019.2 1695.59 996.117C1695.72 995.832 1695.78 995.525 1695.78 995.218H1641.38Z" fill="#2C9DD0"/>
<path d="M1659.12 1011.9C1661.06 1012.54 1663.08 1012.98 1665.14 1013.22C1675.69 1005.9 1682.72 994.392 1684.14 981.345C1682.82 980.543 1681.44 979.849 1680.01 979.265C1679.03 993.621 1670.63 1005.59 1659.12 1011.9Z" fill="#58A4B3"/>
<path d="M1675.51 995.218C1671.77 1002.34 1666 1008.13 1659.12 1011.9C1661.06 1012.54 1663.08 1012.98 1665.14 1013.22C1671.74 1008.64 1676.96 1002.42 1680.29 995.218H1675.51V995.218Z" fill="#277EA4"/>
<path d="M1687.15 995.441C1688.72 995.441 1689.99 994.17 1689.99 992.602C1689.99 991.035 1688.72 989.764 1687.15 989.764C1685.59 989.764 1684.32 991.035 1684.32 992.602C1684.32 994.17 1685.59 995.441 1687.15 995.441Z" fill="#4C6370"/>
</g>
<path d="M332.152 891.937C332.152 891.937 58.1064 924.373 332.152 489.779C332.152 489.779 603.035 893.366 332.152 891.937Z" fill="#03C129"/>
<path d="M332.111 890.281C332.111 890.281 73.9303 920.839 332.111 511.403C332.111 511.403 587.313 891.626 332.111 890.281Z" fill="#01CD2A"/>
<path d="M325.885 976.312V577.092C325.885 567.927 337.014 566.766 337.014 577.092V976.491C337.014 985.498 325.878 985.739 325.885 976.312Z" fill="#CA821E"/>
<path d="M627.87 810.441H804.845L720.053 511.7L627.87 810.441Z" fill="#01710C"/>
<path d="M636.455 805.84H796.261L719.695 536.081L636.455 805.84Z" fill="#00820D"/>
<path d="M714.817 868.65V621.719C714.817 616.05 723.89 615.332 723.89 621.719V868.761C723.89 874.332 714.812 874.481 714.817 868.65Z" fill="#CA821E"/>
<path d="M539.577 971.131C606.418 971.131 660.604 916.945 660.604 850.104C660.604 783.262 606.418 729.077 539.577 729.077C472.735 729.077 418.55 783.262 418.55 850.104C418.55 916.945 472.735 971.131 539.577 971.131Z" fill="#0AAF2B"/>
<path d="M539.577 971.131C603.77 971.131 655.808 919.092 655.808 854.9C655.808 790.707 603.77 738.669 539.577 738.669C475.385 738.669 423.346 790.707 423.346 854.9C423.346 919.092 475.385 971.131 539.577 971.131Z" fill="#03C129"/>
<path d="M535.62 1051.98V828.791C535.62 823.667 544.693 823.018 544.693 828.791V1052.08C544.693 1057.11 535.614 1057.25 535.62 1051.98Z" fill="#CA821E"/>
<path d="M480.738 923.604C488.074 923.604 494.021 917.657 494.021 910.321C494.021 902.985 488.074 897.038 480.738 897.038C473.402 897.038 467.455 902.985 467.455 910.321C467.455 917.657 473.402 923.604 480.738 923.604Z" fill="#E3100C"/>
<path d="M448.802 871.602C455.67 871.602 461.237 866.035 461.237 859.167C461.237 852.299 455.67 846.732 448.802 846.732C441.934 846.732 436.367 852.299 436.367 859.167C436.367 866.035 441.934 871.602 448.802 871.602Z" fill="#EC1511"/>
<path d="M510.695 874.428C517.719 874.428 523.413 868.734 523.413 861.71C523.413 854.686 517.719 848.992 510.695 848.992C503.672 848.992 497.978 854.686 497.978 861.71C497.978 868.734 503.672 874.428 510.695 874.428Z" fill="#E83A0E"/>
<path d="M481.303 796.425C488.951 796.425 495.151 790.225 495.151 782.577C495.151 774.928 488.951 768.728 481.303 768.728C473.655 768.728 467.455 774.928 467.455 782.577C467.455 790.225 473.655 796.425 481.303 796.425Z" fill="#EC2A11"/>
<path d="M572.872 947.91C579.896 947.91 585.59 942.216 585.59 935.192C585.59 928.168 579.896 922.474 572.872 922.474C565.848 922.474 560.154 928.168 560.154 935.192C560.154 942.216 565.848 947.91 572.872 947.91Z" fill="#EC1511"/>
<path d="M555.35 908.908C562.062 908.908 567.503 903.467 567.503 896.755C567.503 890.044 562.062 884.603 555.35 884.603C548.638 884.603 543.197 890.044 543.197 896.755C543.197 903.467 548.638 908.908 555.35 908.908Z" fill="#E6221E"/>
<path d="M617.244 873.298C625.048 873.298 631.375 866.971 631.375 859.167C631.375 851.362 625.048 845.036 617.244 845.036C609.439 845.036 603.113 851.362 603.113 859.167C603.113 866.971 609.439 873.298 617.244 873.298Z" fill="#EC2D11"/>
<path d="M621.201 925.3C628.693 925.3 634.766 919.226 634.766 911.734C634.766 904.242 628.693 898.169 621.201 898.169C613.708 898.169 607.635 904.242 607.635 911.734C607.635 919.226 613.708 925.3 621.201 925.3Z" fill="#E52622"/>
<path d="M548.284 861.993C555.464 861.993 561.285 856.172 561.285 848.992C561.285 841.812 555.464 835.992 548.284 835.992C541.104 835.992 535.284 841.812 535.284 848.992C535.284 856.172 541.104 861.993 548.284 861.993Z" fill="#EC1511"/>
<path d="M558.741 794.164C565.141 794.164 570.329 788.976 570.329 782.577C570.329 776.177 565.141 770.989 558.741 770.989C552.342 770.989 547.154 776.177 547.154 782.577C547.154 788.976 552.342 794.164 558.741 794.164Z" fill="#EC3511"/>
<path d="M602.547 829.209C609.727 829.209 615.548 823.388 615.548 816.208C615.548 809.028 609.727 803.208 602.547 803.208C595.367 803.208 589.547 809.028 589.547 816.208C589.547 823.388 595.367 829.209 602.547 829.209Z" fill="#EC1511"/>
<path d="M516.348 817.904C523.372 817.904 529.066 812.21 529.066 805.186C529.066 798.162 523.372 792.468 516.348 792.468C509.324 792.468 503.63 798.162 503.63 805.186C503.63 812.21 509.324 817.904 516.348 817.904Z" fill="#EC1126"/>
<path d="M516.631 947.91C523.498 947.91 529.066 942.342 529.066 935.474C529.066 928.607 523.498 923.039 516.631 923.039C509.763 923.039 504.195 928.607 504.195 935.474C504.195 942.342 509.763 947.91 516.631 947.91Z" fill="#EC1511"/>
<path d="M505.043 1054.74C510.506 1054.74 514.935 1050.31 514.935 1044.85C514.935 1039.39 510.506 1034.96 505.043 1034.96C499.58 1034.96 495.151 1039.39 495.151 1044.85C495.151 1050.31 499.58 1054.74 505.043 1054.74Z" fill="#F60A05"/>
<path d="M602.265 1065.48C607.416 1065.48 611.591 1061.3 611.591 1056.15C611.591 1051 607.416 1046.83 602.265 1046.83C597.114 1046.83 592.938 1051 592.938 1056.15C592.938 1061.3 597.114 1065.48 602.265 1065.48Z" fill="#EC1511"/>
<path d="M1174.35 596.849C1162.02 593.451 1118.28 573.277 1115.15 522.316C1112.89 485.477 1150.55 472.111 1133.52 389.318C1128.13 363.091 1190.67 316.224 1219.5 343.618C1256.59 378.855 1246.41 389.079 1266.5 400.066C1294.21 415.218 1267.72 478.826 1280.96 502.22C1297.14 530.82 1279.5 583.122 1222.77 596.849C1195 603.57 1174.35 596.849 1174.35 596.849ZM1164.07 599.688C1151.74 596.291 1108 576.116 1104.87 525.155C1102.61 488.316 1140.27 474.95 1123.25 392.158C1117.85 365.93 1180.39 319.063 1209.23 346.458C1246.31 381.694 1236.13 391.918 1256.22 402.905C1283.94 418.057 1257.44 481.665 1270.68 505.059C1286.86 533.659 1269.22 585.961 1212.49 599.688C1184.72 606.409 1164.07 599.688 1164.07 599.688Z" fill="#02971E"/>
<path d="M1175.82 595.611C1164.44 592.475 1124.06 573.847 1121.17 526.796C1119.08 492.782 1153.85 480.441 1138.13 403.999C1133.15 379.784 1190.9 336.511 1217.52 361.805C1251.76 394.339 1242.36 403.778 1260.91 413.923C1286.5 427.912 1262.03 486.641 1274.26 508.241C1289.2 534.647 1272.91 582.937 1220.53 595.611C1194.89 601.817 1175.82 595.611 1175.82 595.611ZM1166.33 598.233C1154.95 595.096 1114.56 576.469 1111.68 529.417C1109.59 495.403 1144.36 483.063 1128.64 406.621C1123.66 382.405 1181.41 339.133 1208.03 364.426C1242.27 396.96 1232.86 406.399 1251.42 416.544C1277.01 430.534 1252.54 489.262 1264.77 510.863C1279.71 537.269 1263.42 585.559 1211.04 598.233C1185.4 604.438 1166.33 598.233 1166.33 598.233Z" fill="#00A519"/>
<path d="M1192.82 645.884V412.614C1192.82 407.259 1201.54 406.58 1201.54 412.614V645.989C1201.54 651.252 1192.82 651.393 1192.82 645.884Z" fill="#CA821E"/>
<path d="M696.835 1037.04L950.997 1035.08C950.997 1035.08 916.554 891.184 871.128 978.434C871.128 978.434 827.869 870.787 777.993 974.71C777.993 974.71 716.527 890.244 696.835 1037.04Z" fill="#07C430"/>
<path d="M705.014 1031.78H941.628C941.628 1031.78 911.335 910.019 870.768 987.936C870.768 987.936 822.742 892.303 778.201 985.11C778.201 985.11 722.6 900.684 705.014 1031.78Z" fill="#0ED445"/>
<path d="M747.013 1001.61C749.22 1001.61 751.01 999.824 751.01 997.616C751.01 995.409 749.22 993.619 747.013 993.619C744.806 993.619 743.016 995.409 743.016 997.616C743.016 999.824 744.806 1001.61 747.013 1001.61Z" fill="#1E70F4"/>
<path d="M801.97 985.226C803.846 985.226 805.367 983.705 805.367 981.829C805.367 979.952 803.846 978.431 801.97 978.431C800.093 978.431 798.572 979.952 798.572 981.829C798.572 983.705 800.093 985.226 801.97 985.226Z" fill="#0553F6"/>
<path d="M778.188 1019.2C779.954 1019.2 781.386 1017.77 781.386 1016C781.386 1014.24 779.954 1012.8 778.188 1012.8C776.422 1012.8 774.991 1014.24 774.991 1016C774.991 1017.77 776.422 1019.2 778.188 1019.2Z" fill="#0553F6"/>
<path d="M850.531 977.232C852.297 977.232 853.729 975.801 853.729 974.035C853.729 972.269 852.297 970.837 850.531 970.837C848.766 970.837 847.334 972.269 847.334 974.035C847.334 975.801 848.766 977.232 850.531 977.232Z" fill="#2265F0"/>
<path d="M828.948 1010.01C830.714 1010.01 832.146 1008.58 832.146 1006.81C832.146 1005.04 830.714 1003.61 828.948 1003.61C827.183 1003.61 825.751 1005.04 825.751 1006.81C825.751 1008.58 827.183 1010.01 828.948 1010.01Z" fill="#0561F6"/>
<path d="M873.114 1003.21C874.99 1003.21 876.511 1001.69 876.511 999.815C876.511 997.938 874.99 996.417 873.114 996.417C871.237 996.417 869.716 997.938 869.716 999.815C869.716 1001.69 871.237 1003.21 873.114 1003.21Z" fill="#2566EC"/>
<path d="M906.688 982.428C908.343 982.428 909.685 981.086 909.685 979.43C909.685 977.775 908.343 976.433 906.688 976.433C905.032 976.433 903.69 977.775 903.69 979.43C903.69 981.086 905.032 982.428 906.688 982.428Z" fill="#296CF7"/>
<path d="M904.689 1020C906.124 1020 907.287 1018.84 907.287 1017.4C907.287 1015.97 906.124 1014.8 904.689 1014.8C903.254 1014.8 902.091 1015.97 902.091 1017.4C902.091 1018.84 903.254 1020 904.689 1020Z" fill="#2F6FF3"/>
<path d="M846.935 1021.6C848.48 1021.6 849.732 1020.34 849.732 1018.8C849.732 1017.25 848.48 1016 846.935 1016C845.389 1016 844.137 1017.25 844.137 1018.8C844.137 1020.34 845.389 1021.6 846.935 1021.6Z" fill="#0525F6"/>
<path d="M733.823 1022.8C735.589 1022.8 737.021 1021.36 737.021 1019.6C737.021 1017.83 735.589 1016.4 733.823 1016.4C732.058 1016.4 730.626 1017.83 730.626 1019.6C730.626 1021.36 732.058 1022.8 733.823 1022.8Z" fill="#1D63F3"/>
<path d="M726.429 981.629C728.085 981.629 729.427 980.287 729.427 978.631C729.427 976.976 728.085 975.633 726.429 975.633C724.774 975.633 723.432 976.976 723.432 978.631C723.432 980.287 724.774 981.629 726.429 981.629Z" fill="#0553F6"/>
<path d="M756.206 977.632C757.751 977.632 759.003 976.379 759.003 974.834C759.003 973.289 757.751 972.036 756.206 972.036C754.66 972.036 753.408 973.289 753.408 974.834C753.408 976.379 754.66 977.632 756.206 977.632Z" fill="#195CE8"/>
<path d="M819.956 951.253C821.611 951.253 822.953 949.911 822.953 948.255C822.953 946.599 821.611 945.257 819.956 945.257C818.3 945.257 816.958 946.599 816.958 948.255C816.958 949.911 818.3 951.253 819.956 951.253Z" fill="#1A38EE"/>
<path d="M927.671 1007.61C929.216 1007.61 930.469 1006.36 930.469 1004.81C930.469 1003.27 929.216 1002.01 927.671 1002.01C926.126 1002.01 924.873 1003.27 924.873 1004.81C924.873 1006.36 926.126 1007.61 927.671 1007.61Z" fill="#0553F6"/>
<path d="M1163.27 569.763C1167.95 569.763 1171.75 565.967 1171.75 561.285C1171.75 556.602 1167.95 552.806 1163.27 552.806C1158.58 552.806 1154.79 556.602 1154.79 561.285C1154.79 565.967 1158.58 569.763 1163.27 569.763Z" fill="#F60A05"/>
<path d="M1165.81 520.022C1170.34 520.022 1174.01 516.353 1174.01 511.826C1174.01 507.3 1170.34 503.63 1165.81 503.63C1161.28 503.63 1157.61 507.3 1157.61 511.826C1157.61 516.353 1161.28 520.022 1165.81 520.022Z" fill="#F60A05"/>
<path d="M1213.29 542.632C1218.13 542.632 1222.05 538.709 1222.05 533.87C1222.05 529.032 1218.13 525.109 1213.29 525.109C1208.45 525.109 1204.53 529.032 1204.53 533.87C1204.53 538.709 1208.45 542.632 1213.29 542.632Z" fill="#F60A05"/>
<path d="M1219.23 577.677C1223.6 577.677 1227.14 574.134 1227.14 569.763C1227.14 565.393 1223.6 561.85 1219.23 561.85C1214.85 561.85 1211.31 565.393 1211.31 569.763C1211.31 574.134 1214.85 577.677 1219.23 577.677Z" fill="#F60A05"/>
<path d="M1159.88 646.636C1165.18 646.636 1169.48 642.334 1169.48 637.027C1169.48 631.72 1165.18 627.418 1159.88 627.418C1154.57 627.418 1150.27 631.72 1150.27 637.027C1150.27 642.334 1154.57 646.636 1159.88 646.636Z" fill="#F60A05"/>
<path d="M1188.14 676.029C1191.26 676.029 1193.79 673.498 1193.79 670.376C1193.79 667.254 1191.26 664.724 1188.14 664.724C1185.02 664.724 1182.48 667.254 1182.48 670.376C1182.48 673.498 1185.02 676.029 1188.14 676.029Z" fill="#F60A05"/>
<path d="M1222.9 648.332C1226.49 648.332 1229.4 645.422 1229.4 641.832C1229.4 638.242 1226.49 635.331 1222.9 635.331C1219.31 635.331 1216.4 638.242 1216.4 641.832C1216.4 645.422 1219.31 648.332 1222.9 648.332Z" fill="#F60A05"/>
<path d="M1232.79 482.151C1237.47 482.151 1241.27 478.355 1241.27 473.672C1241.27 468.99 1237.47 465.194 1232.79 465.194C1228.11 465.194 1224.31 468.99 1224.31 473.672C1224.31 478.355 1228.11 482.151 1232.79 482.151Z" fill="#F60A05"/>
<path d="M1159.03 445.975C1161.37 445.975 1163.27 444.077 1163.27 441.736C1163.27 439.395 1161.37 437.497 1159.03 437.497C1156.69 437.497 1154.79 439.395 1154.79 441.736C1154.79 444.077 1156.69 445.975 1159.03 445.975Z" fill="#F60A05"/>
<path d="M1172.03 398.495C1176.24 398.495 1179.66 395.079 1179.66 390.864C1179.66 386.65 1176.24 383.234 1172.03 383.234C1167.81 383.234 1164.4 386.65 1164.4 390.864C1164.4 395.079 1167.81 398.495 1172.03 398.495Z" fill="#F60A05"/>
<path d="M1240.99 431.279C1245.2 431.279 1248.62 427.863 1248.62 423.648C1248.62 419.434 1245.2 416.018 1240.99 416.018C1236.77 416.018 1233.36 419.434 1233.36 423.648C1233.36 427.863 1236.77 431.279 1240.99 431.279Z" fill="#F60A05"/>
<path d="M1257.1 536.979C1261.15 536.979 1264.44 533.689 1264.44 529.631C1264.44 525.573 1261.15 522.283 1257.1 522.283C1253.04 522.283 1249.75 525.573 1249.75 529.631C1249.75 533.689 1253.04 536.979 1257.1 536.979Z" fill="#F60A05"/>
<path d="M1131.61 533.588C1136.3 533.588 1140.09 529.792 1140.09 525.109C1140.09 520.427 1136.3 516.631 1131.61 516.631C1126.93 516.631 1123.13 520.427 1123.13 525.109C1123.13 529.792 1126.93 533.588 1131.61 533.588Z" fill="#F60A05"/>
<path d="M1185.31 481.586C1190.62 481.586 1194.92 477.284 1194.92 471.977C1194.92 466.67 1190.62 462.367 1185.31 462.367C1180 462.367 1175.7 466.67 1175.7 471.977C1175.7 477.284 1180 481.586 1185.31 481.586Z" fill="#F60A05"/>
<path d="M1136.7 482.716C1141.38 482.716 1145.18 478.92 1145.18 474.237C1145.18 469.555 1141.38 465.759 1136.7 465.759C1132.02 465.759 1128.22 469.555 1128.22 474.237C1128.22 478.92 1132.02 482.716 1136.7 482.716Z" fill="#F60A05"/>
<path d="M1213.29 362.885C1216.26 362.885 1218.66 360.481 1218.66 357.515C1218.66 354.55 1216.26 352.145 1213.29 352.145C1210.32 352.145 1207.92 354.55 1207.92 357.515C1207.92 360.481 1210.32 362.885 1213.29 362.885Z" fill="#F60A05"/>
<path d="M1208.49 419.409C1212.86 419.409 1216.4 415.866 1216.4 411.496C1216.4 407.125 1212.86 403.582 1208.49 403.582C1204.12 403.582 1200.57 407.125 1200.57 411.496C1200.57 415.866 1204.12 419.409 1208.49 419.409Z" fill="#F60A05"/>
<path d="M1183.62 586.721C1185.8 586.721 1187.57 584.949 1187.57 582.764C1187.57 580.579 1185.8 578.807 1183.62 578.807C1181.43 578.807 1179.66 580.579 1179.66 582.764C1179.66 584.949 1181.43 586.721 1183.62 586.721Z" fill="#F60A05"/>
</g>
<defs>
<linearGradient id="paint0_linear_58_308" x1="971.408" y1="693.49" x2="985.168" y2="-108.281" gradientUnits="userSpaceOnUse">
<stop stop-color="#1DE1FF"/>
<stop offset="1" stop-color="#25FFF9"/>
</linearGradient>
<radialGradient id="paint1_radial_58_308" cx="0" cy="0" r="1" gradientUnits="userSpaceOnUse" gradientTransform="translate(1277.42 97.3685) scale(92.1239 92.124)">
<stop offset="0.70614" stop-color="#F5FFBB"/>
<stop offset="1" stop-color="#F5FFBB" stop-opacity="0"/>
</radialGradient>
<linearGradient id="paint2_linear_58_308" x1="-80.2642" y1="639.005" x2="146.847" y2="639.005" gradientUnits="userSpaceOnUse">
<stop stop-color="#F6C105"/>
<stop offset="1" stop-color="#F3D872"/>
</linearGradient>
<clipPath id="clip0_58_308">
<rect width="1920" height="1080" fill="white"/>
</clipPath>
</defs>
</svg>
