<?xml version="1.0" encoding="UTF-8" standalone="no"?>
<!-- Created with Inkscape (http://www.inkscape.org/) -->

<svg
   width="1920"
   height="1080"
   viewBox="0 0 508 285.74999"
   version="1.1"
   id="svg1"
   inkscape:version="1.3 (0e150ed6c4, 2023-07-21)"
   sodipodi:docname="hills4.svg"
   inkscape:export-filename="seasons\res\summer\mountains3.svg"
   inkscape:export-xdpi="96"
   inkscape:export-ydpi="96"
   xmlns:inkscape="http://www.inkscape.org/namespaces/inkscape"
   xmlns:sodipodi="http://sodipodi.sourceforge.net/DTD/sodipodi-0.dtd"
   xmlns="http://www.w3.org/2000/svg"
   xmlns:svg="http://www.w3.org/2000/svg">
  <sodipodi:namedview
     id="namedview1"
     pagecolor="#ffffff"
     bordercolor="#666666"
     borderopacity="1.0"
     inkscape:showpageshadow="2"
     inkscape:pageopacity="0.0"
     inkscape:pagecheckerboard="0"
     inkscape:deskcolor="#d1d1d1"
     inkscape:document-units="mm"
     inkscape:zoom="0.44228898"
     inkscape:cx="926.99574"
     inkscape:cy="394.53843"
     inkscape:window-width="1920"
     inkscape:window-height="1017"
     inkscape:window-x="1912"
     inkscape:window-y="-8"
     inkscape:window-maximized="1"
     inkscape:current-layer="svg1" />
  <defs
     id="defs1" />
  <g
     inkscape:groupmode="layer"
     id="layer10"
     inkscape:label="BackgroundTrees"
     style="display:inline">
    <path
       style="fill:#09c529;fill-opacity:1;stroke:none;stroke-width:0.264583px;stroke-linecap:butt;stroke-linejoin:miter;stroke-opacity:1"
       d="m 82.841321,133.16864 22.115449,-43.440252 3.87501,43.440252 19.48506,-32.96785 12.26338,40.97764 z"
       id="path96" />
    <path
       style="fill:#09a023;fill-opacity:1;stroke:none;stroke-width:0.264583px;stroke-linecap:butt;stroke-linejoin:miter;stroke-opacity:1"
       d="m 174.3793,157.57353 19.14283,-37.78673 8.29247,51.9871 9.65394,-45.55081 18.69231,58.3387 -48.29121,-1.2963 z"
       id="path97" />
    <path
       style="fill:#0cc92d;fill-opacity:1;stroke:none;stroke-width:0.264583px;stroke-linecap:butt;stroke-linejoin:miter;stroke-opacity:1"
       d="m 267.39572,168.09805 20.64417,-45.76335 5.68303,12.31438 13.23071,-29.54649 9.66517,25.00889 8.80946,-10.32468 17.9464,44.82335 z"
       id="path98" />
    <path
       style="fill:#09a023;fill-opacity:1;stroke:none;stroke-width:0.264583px;stroke-linecap:butt;stroke-linejoin:miter;stroke-opacity:1"
       d="m 201.8146,171.7739 21.31911,-43.45706 9.27231,16.15177 5.68303,-13.75892 11.05892,43.66961 z"
       id="path99" />
    <path
       style="fill:#09c529;fill-opacity:1;stroke:none;stroke-width:0.264583px;stroke-linecap:butt;stroke-linejoin:miter;stroke-opacity:1"
       d="m 242.47626,176.3668 15.95206,-43.19816 9.57652,44.20172 z"
       id="path100" />
    <path
       style="fill:#0cc92d;fill-opacity:1;stroke:none;stroke-width:0.264583px;stroke-linecap:butt;stroke-linejoin:miter;stroke-opacity:1"
       d="m 136.69183,151.04896 23.8601,-44.44429 0.96577,45.42637 19.54728,-26.42739 -3.80705,39.64815 z"
       id="path101" />
    <path
       style="fill:#09a023;fill-opacity:1;stroke:none;stroke-width:0.264583px;stroke-linecap:butt;stroke-linejoin:miter;stroke-opacity:1"
       d="m 42.016587,128.03516 18.18904,-39.281621 7.296767,44.415101 z"
       id="path102" />
    <path
       style="fill:#20e211;fill-opacity:1;stroke:none;stroke-width:0.264583px;stroke-linecap:butt;stroke-linejoin:miter;stroke-opacity:1"
       d="m 128.16929,124.15078 16.07404,-21.99605 1.0575,13.29868 9.45736,-8.84874 0.63674,19.96317 13.59396,-6.78104 2.30245,19.03054 z"
       id="path105" />
    <path
       style="fill:#3be211;fill-opacity:1;stroke:none;stroke-width:0.264583px;stroke-linecap:butt;stroke-linejoin:miter;stroke-opacity:1"
       d="m 59.008634,116.90115 8.834638,-13.70924 4.537192,6.47293 8.518471,-13.64362 3.595508,23.76558 z"
       id="path106" />
    <path
       style="fill:#11e225;fill-opacity:1;stroke:none;stroke-width:0.264583px;stroke-linecap:butt;stroke-linejoin:miter;stroke-opacity:1"
       d="m 101.41448,119.93767 10.29629,-22.435948 3.66274,11.344358 6.34502,-5.21084 1.37475,20.72704 z"
       id="path107" />
    <path
       style="fill:#11e225;fill-opacity:1;stroke:none;stroke-width:0.264583px;stroke-linecap:butt;stroke-linejoin:miter;stroke-opacity:1"
       d="m 189.49851,143.74366 11.98006,-14.72969 0.7915,30.66889 z"
       id="path108" />
    <path
       style="fill:#11e225;fill-opacity:1;stroke:none;stroke-width:0.264583px;stroke-linecap:butt;stroke-linejoin:miter;stroke-opacity:1"
       d="m 230.61299,160.05847 18.53498,-31.74163 14.06861,26.95266 4.78826,-18.66918 7.71599,18.66918 z"
       id="path109" />
    <path
       style="fill:#11e225;fill-opacity:1;stroke:none;stroke-width:0.264583px;stroke-linecap:butt;stroke-linejoin:miter;stroke-opacity:1"
       d="m 202.27007,159.68286 18.54462,-4.29042 4.66659,17.68416 z"
       id="path110" />
    <path
       style="fill:#3be211;fill-opacity:1;stroke:none;stroke-width:0.264583px;stroke-linecap:butt;stroke-linejoin:miter;stroke-opacity:1"
       d="m 320.04434,151.54731 14.95533,-28.61439 8.65568,14.05765 8.85632,-6.48576 8.36076,16.80531 z"
       id="path111" />
    <path
       style="fill:#08b516;fill-opacity:1;stroke:none;stroke-width:0.264583px;stroke-linecap:butt;stroke-linejoin:miter;stroke-opacity:1"
       d="m 347.26305,145.66504 11.96428,-17.3482 13.25877,20.65804 z"
       id="path112" />
    <path
       style="fill:#32bb10;fill-opacity:1;stroke:none;stroke-width:0.264583px;stroke-linecap:butt;stroke-linejoin:miter;stroke-opacity:1"
       d="m 403.49513,141.9262 c 0,-0.89732 -6.87945,-26.91962 -6.87945,-26.91962 l -4.03794,12.11383 -3.8884,-1.34598 -0.89731,5.38392 -6.72991,-7.26076 -4.63614,18.97741 z"
       id="path113" />
    <path
       style="fill:#3be211;fill-opacity:1;stroke:none;stroke-width:0.264583px;stroke-linecap:butt;stroke-linejoin:miter;stroke-opacity:1"
       d="m 363.67937,140.83143 5.71759,-16.93384 10.02009,22.81432 z"
       id="path114" />
    <path
       style="fill:#16cf0d;fill-opacity:1;stroke:none;stroke-width:0.264583px;stroke-linecap:butt;stroke-linejoin:miter;stroke-opacity:1"
       d="m 412.76746,146.94545 c 3.04249,-3.93212 20.80852,-30.62019 20.80852,-30.62019 l 1.2513,22.28533 7.98965,-9.83176 3.25186,5.91483 6.33074,-14.13838 4.4415,18.05531 -40.81957,4.40274 z"
       id="path115" />
    <path
       style="fill:#11e222;fill-opacity:1;stroke:none;stroke-width:0.264583px;stroke-linecap:butt;stroke-linejoin:miter;stroke-opacity:1"
       d="m 474.13277,134.73421 8.92479,-14.94741 9.87052,24.40085 z"
       id="path116" />
    <path
       style="fill:#48ec1f;fill-opacity:1;stroke:none;stroke-width:0.264583px;stroke-linecap:butt;stroke-linejoin:miter;stroke-opacity:1"
       d="m 456.84103,138.61059 v 0 l 5.20428,-9.83176 1.6451,3.7255 5.3839,-7.25334 4.87196,15.62834 z"
       id="path117" />
  </g>
  <g
     inkscape:groupmode="layer"
     id="layer3"
     inkscape:label="Grass"
     style="display:inline">
    <path
       style="display:inline;fill:#04dd40;fill-opacity:1;stroke:none;stroke-width:0.264583px;stroke-linecap:butt;stroke-linejoin:miter;stroke-opacity:1"
       d="m -34.343423,153.9904 c 0,0 159.095203,-21.44043 223.596693,26.84251 64.50149,48.28294 126.95654,59.05078 126.95654,59.05078 l 3.58928,124.42846 -363.713931,-5.38392 z"
       id="path88"
       transform="translate(0.24524095,-37.089249)" />
    <path
       style="fill:#05ea31;fill-opacity:1;stroke:none;stroke-width:0.264583px;stroke-linecap:butt;stroke-linejoin:miter;stroke-opacity:1"
       d="m -43.6696,128.61595 c 0,0 156.49638,-38.939791 261.9326,46.73455 86.53918,70.31918 182.61993,73.03156 182.61993,73.03156 l 11.88453,132.08186 c 0,0 -451.651351,-20.93748 -449.258497,-24.52677 2.392855,-3.58928 -10.169633,-226.72299 -10.169633,-226.72299 z"
       id="path90"
       sodipodi:nodetypes="csccscc" />
    <path
       id="path90-5"
       style="fill:#e8d710;fill-opacity:1;stroke:none;stroke-width:0.264583px;stroke-linecap:butt;stroke-linejoin:miter;stroke-opacity:1"
       d="m 47.7585,119.85515 c -6.564541,-0.12229 -12.91838,-0.0744 -19.01641,0.10025 32.49753,11.57647 70.434086,31.72245 80.08969,64.60639 17.68779,60.23905 92.98294,76.61031 92.98294,76.61031 l 12.06129,-4.41058 c 0,0 -87.10242,-31.25591 -93.77205,-72.19973 -4.84535,-29.74478 -36.946621,-50.68122 -64.575424,-64.48406 -4.766474,-0.26344 -3.188383,-0.13723 -7.770036,-0.22258 z"
       sodipodi:nodetypes="scsccscs" />
    <path
       style="display:inline;fill:#23f45d;fill-opacity:1;stroke:none;stroke-width:0.264583px;stroke-linecap:butt;stroke-linejoin:miter;stroke-opacity:1"
       d="m 529.77211,173.48197 c 0,0 -232.20098,-13.64027 -328.20275,35.38118 -89.45483,45.67838 -230.528859,37.6009 -230.528859,37.6009 l -5.383924,95.7142 567.106593,-7.17857 z"
       id="path87"
       sodipodi:nodetypes="cscccc"
       transform="translate(0.24524095,-37.089249)" />
    <path
       style="fill:#26ff3b;fill-opacity:1;stroke:none;stroke-width:0.264583px;stroke-linecap:butt;stroke-linejoin:miter;stroke-opacity:1"
       d="m 540.78518,151.54731 c 0,0 -268.2058,-13.0168 -322.52218,23.80319 -54.31639,36.81999 -257.146891,44.01956 -257.146891,44.01956 l -7.776779,124.0046 586.24943,-23.92855 z"
       id="path91" />
    <g
       id="g138"
       transform="translate(-66.40221,5.9821249)">
      <path
         style="fill:#0ab236;fill-opacity:1;stroke:none;stroke-width:0.290655px;stroke-linecap:butt;stroke-linejoin:miter;stroke-opacity:1"
         d="m 462.65421,167.98426 h 59.01483 c 0,0 -11.27294,-32.10949 -28.93088,-13.98683 0,0 -12.89066,-30.15812 -30.08395,13.98683 z"
         id="path85-0"
         sodipodi:nodetypes="cccc" />
      <path
         style="fill:#1ed54e;fill-opacity:1;stroke:none;stroke-width:0.264583px;stroke-linecap:butt;stroke-linejoin:miter;stroke-opacity:1"
         d="m 465.30106,167.29688 h 53.72113 c 0,0 -10.56221,-27.92466 -26.63622,-11.42762 0,0 -11.43389,-28.75748 -27.08491,11.42762 z"
         id="path85"
         sodipodi:nodetypes="cccc" />
    </g>
  </g>
</svg>
