<?xml version="1.0" encoding="UTF-8" standalone="no"?>
<!-- Created with Inkscape (http://www.inkscape.org/) -->

<svg
   width="1920"
   height="1080"
   viewBox="0 0 508 285.74999"
   version="1.1"
   id="svg1"
   inkscape:version="1.3 (0e150ed6c4, 2023-07-21)"
   sodipodi:docname="drawing.svg"
   inkscape:export-filename="seasons\res\summer\hills4.svg"
   inkscape:export-xdpi="96"
   inkscape:export-ydpi="96"
   xmlns:inkscape="http://www.inkscape.org/namespaces/inkscape"
   xmlns:sodipodi="http://sodipodi.sourceforge.net/DTD/sodipodi-0.dtd"
   xmlns:xlink="http://www.w3.org/1999/xlink"
   xmlns="http://www.w3.org/2000/svg"
   xmlns:svg="http://www.w3.org/2000/svg">
  <sodipodi:namedview
     id="namedview1"
     pagecolor="#ffffff"
     bordercolor="#666666"
     borderopacity="1.0"
     inkscape:showpageshadow="2"
     inkscape:pageopacity="0.0"
     inkscape:pagecheckerboard="0"
     inkscape:deskcolor="#d1d1d1"
     inkscape:document-units="mm"
     inkscape:zoom="0.44228898"
     inkscape:cx="925.86526"
     inkscape:cy="394.53843"
     inkscape:window-width="1920"
     inkscape:window-height="1017"
     inkscape:window-x="1912"
     inkscape:window-y="-8"
     inkscape:window-maximized="1"
     inkscape:current-layer="layer3" />
  <defs
     id="defs1">
    <linearGradient
       id="linearGradient13"
       inkscape:collect="always">
      <stop
         style="stop-color:#f5ffbb;stop-opacity:1;"
         offset="0.70614034"
         id="stop13" />
      <stop
         style="stop-color:#f5ffbb;stop-opacity:0;"
         offset="1"
         id="stop14" />
    </linearGradient>
    <linearGradient
       id="linearGradient7"
       inkscape:collect="always">
      <stop
         style="stop-color:#1de1ff;stop-opacity:1;"
         offset="0"
         id="stop7" />
      <stop
         style="stop-color:#25fff9;stop-opacity:1;"
         offset="1"
         id="stop8" />
    </linearGradient>
    <linearGradient
       inkscape:collect="always"
       xlink:href="#linearGradient7"
       id="linearGradient8"
       x1="257.01828"
       y1="183.48576"
       x2="260.65884"
       y2="-28.649452"
       gradientUnits="userSpaceOnUse" />
    <radialGradient
       inkscape:collect="always"
       xlink:href="#linearGradient13"
       id="radialGradient14"
       cx="371.93127"
       cy="29.161049"
       fx="371.93127"
       fy="29.161049"
       r="20.975492"
       gradientUnits="userSpaceOnUse"
       gradientTransform="matrix(1.1620448,0,0,1.1620448,-94.217157,-8.1243644)" />
  </defs>
  <g
     inkscape:groupmode="layer"
     id="layer5"
     inkscape:label="Background"
     style="display:none">
    <rect
       style="display:inline;fill:url(#linearGradient8);stroke:none;stroke-width:0.141111;stroke-linejoin:round"
       id="rect7"
       width="607.26605"
       height="355.04855"
       x="-42.974178"
       y="-28.649452" />
    <path
       style="fill:#52e7f9;fill-opacity:0.545595;stroke:none;stroke-width:0.264583px;stroke-linecap:butt;stroke-linejoin:miter;stroke-opacity:1"
       d="M -18.544625,19.697176 125.20308,41.696436 -25.124975,60.995628 Z"
       id="path103" />
    <path
       style="fill:#52e7f9;fill-opacity:0.545595;stroke:none;stroke-width:0.264583px;stroke-linecap:butt;stroke-linejoin:miter;stroke-opacity:1"
       d="M 323.0354,0 205.78551,19.546516 405.23493,29.610068 299.90769,49.567449 530.44322,84.600192 533.00841,-36.378083 Z"
       id="path104" />
    <g
       inkscape:groupmode="layer"
       id="layer6"
       inkscape:label="Clouds"
       style="display:inline">
      <g
         id="g44">
        <ellipse
           style="fill:#ffffff;fill-opacity:1;stroke:none;stroke-width:0.148574;stroke-linejoin:round"
           id="path14"
           cx="47.416695"
           cy="41.695187"
           rx="16.976658"
           ry="8.4413567" />
        <ellipse
           style="fill:#ffffff;fill-opacity:1;stroke:none;stroke-width:0.141322;stroke-linejoin:round"
           id="path15"
           cx="66.52578"
           cy="41.695187"
           rx="17.446394"
           ry="8.4413567" />
        <ellipse
           style="fill:#ffffff;fill-opacity:1;stroke:none;stroke-width:0.204329;stroke-linejoin:round"
           id="path16"
           cx="55.932457"
           cy="34.326656"
           rx="14.324512"
           ry="10.133109" />
        <ellipse
           style="fill:#ffffff;fill-opacity:1;stroke:none;stroke-width:0.247852;stroke-linejoin:round"
           id="path17"
           cx="71.865227"
           cy="32.537342"
           rx="5.3915324"
           ry="5.1668825" />
      </g>
      <g
         id="g45">
        <ellipse
           style="fill:#ffffff;fill-opacity:1;stroke:none;stroke-width:0.141111;stroke-linejoin:round"
           id="path18"
           cx="138.12817"
           cy="34.297596"
           rx="22.254486"
           ry="10.10405" />
        <ellipse
           style="fill:#ffffff;fill-opacity:1;stroke:none;stroke-width:0.130635;stroke-linejoin:round"
           id="path19"
           cx="163.03178"
           cy="32.798069"
           rx="13.971651"
           ry="11.603577" />
        <ellipse
           style="fill:#ffffff;fill-opacity:1;stroke:none;stroke-width:0.141111;stroke-linejoin:round"
           id="path20"
           cx="154.75819"
           cy="40.745354"
           rx="16.11532"
           ry="12.150436" />
        <ellipse
           style="fill:#ffffff;fill-opacity:1;stroke:none;stroke-width:0.141111;stroke-linejoin:round"
           id="path29"
           cx="172.48151"
           cy="40.745354"
           rx="9.7673578"
           ry="9.8018713" />
        <ellipse
           style="fill:#ffffff;fill-opacity:1;stroke:none;stroke-width:0.141111;stroke-linejoin:round"
           id="path30"
           cx="177.00343"
           cy="32.798069"
           rx="10.998507"
           ry="10.958177" />
      </g>
      <g
         id="g46">
        <ellipse
           style="fill:#ffffff;fill-opacity:1;stroke:none;stroke-width:0.208706;stroke-linejoin:round"
           id="path21"
           cx="228.42822"
           cy="54.41153"
           rx="13.429431"
           ry="7.9665527" />
        <ellipse
           style="fill:#ffffff;fill-opacity:1;stroke:none;stroke-width:0.170041;stroke-linejoin:round"
           id="path22"
           cx="241.98555"
           cy="62.122284"
           rx="13.55733"
           ry="10.396642" />
        <ellipse
           style="fill:#ffffff;fill-opacity:1;stroke:none;stroke-width:0.141111;stroke-linejoin:round"
           id="path23"
           cx="244.41563"
           cy="50.547226"
           rx="10.487745"
           ry="7.6555624" />
        <circle
           style="fill:#ffffff;fill-opacity:1;stroke:none;stroke-width:0.141111;stroke-linejoin:round"
           id="path24"
           cx="261.97989"
           cy="55.758026"
           r="12.001781" />
      </g>
      <g
         id="g47">
        <ellipse
           style="fill:#ffffff;fill-opacity:1;stroke:none;stroke-width:0.141111;stroke-linejoin:round"
           id="path42"
           cx="323.1105"
           cy="43.120033"
           rx="14.873103"
           ry="7.0165067" />
        <ellipse
           style="fill:#ffffff;fill-opacity:1;stroke:none;stroke-width:0.141111;stroke-linejoin:round"
           id="path43"
           cx="351.86707"
           cy="38.884285"
           rx="15.459835"
           ry="13.122208" />
        <ellipse
           style="fill:#ffffff;fill-opacity:1;stroke:none;stroke-width:0.0878918;stroke-linejoin:round"
           id="path44"
           cx="337.98361"
           cy="45.462124"
           rx="8.4212055"
           ry="8.353138" />
      </g>
      <g
         id="g48">
        <ellipse
           style="fill:#ffffff;fill-opacity:1;stroke:none;stroke-width:0.157741;stroke-linejoin:round"
           id="path39"
           cx="329.24991"
           cy="85.963875"
           rx="3.2883656"
           ry="2.5735037" />
        <ellipse
           style="fill:#ffffff;fill-opacity:1;stroke:none;stroke-width:0.141111;stroke-linejoin:round"
           id="path40"
           cx="333.72134"
           cy="85.180962"
           rx="2.6858861"
           ry="1.7905914" />
        <ellipse
           style="fill:#ffffff;fill-opacity:1;stroke:none;stroke-width:0.141111;stroke-linejoin:round"
           id="path41"
           cx="332.53827"
           cy="88.521858"
           rx="4.4764805"
           ry="2.5579863" />
      </g>
      <g
         id="g49">
        <ellipse
           style="fill:#ffffff;fill-opacity:1;stroke:none;stroke-width:0.156713;stroke-linejoin:round"
           id="path31"
           cx="401.93332"
           cy="49.757137"
           rx="8.1119719"
           ry="6.0008907" />
        <ellipse
           style="fill:#ffffff;fill-opacity:1;stroke:none;stroke-width:0.141111;stroke-linejoin:round"
           id="path32"
           cx="412.4137"
           cy="54.41153"
           rx="6.1318321"
           ry="6.0008907" />
        <ellipse
           style="fill:#ffffff;fill-opacity:1;stroke:none;stroke-width:0.199561;stroke-linejoin:round"
           id="path33"
           cx="412.4137"
           cy="48.410641"
           rx="6.1318188"
           ry="3.5958531" />
      </g>
      <g
         id="g50">
        <ellipse
           style="fill:#ffffff;fill-opacity:1;stroke:none;stroke-width:0.141111;stroke-linejoin:round"
           id="path34"
           cx="459.34546"
           cy="46.444977"
           rx="9.3366518"
           ry="10.341449" />
        <ellipse
           style="fill:#ffffff;fill-opacity:1;stroke:none;stroke-width:0.0874711;stroke-linejoin:round"
           id="path35"
           cx="454.91855"
           cy="50.136539"
           rx="7.0560732"
           ry="6.1389027" />
        <ellipse
           style="fill:#ffffff;fill-opacity:1;stroke:none;stroke-width:0.141111;stroke-linejoin:round"
           id="path36"
           cx="448.06082"
           cy="48.410637"
           rx="5.243876"
           ry="4.6043768" />
        <ellipse
           style="fill:#ffffff;fill-opacity:1;stroke:none;stroke-width:0.24392;stroke-linejoin:round"
           id="path37"
           cx="470.20721"
           cy="50.136539"
           rx="7.7379074"
           ry="6.7404032" />
        <ellipse
           style="fill:#ffffff;fill-opacity:1;stroke:none;stroke-width:0.141111;stroke-linejoin:round"
           id="path38"
           cx="469.39056"
           cy="45.973652"
           rx="3.2614305"
           ry="2.5759444" />
      </g>
    </g>
  </g>
  <circle
     style="display:none;fill:url(#radialGradient14);stroke:none;stroke-width:0.163977;stroke-linejoin:round"
     id="path12"
     cx="337.98361"
     cy="25.762079"
     r="24.374462" />
  <g
     inkscape:groupmode="layer"
     id="layer7-1"
     inkscape:label="Mountains"
     style="display:none"
     transform="translate(0.24524095,-37.08925)">
    <path
       style="fill:#c6c6c6;fill-opacity:1;stroke:none;stroke-width:0.264583px;stroke-linecap:butt;stroke-linejoin:miter;stroke-opacity:1"
       d="m 126.27435,214.35929 89.65744,-84.92516 7.47989,-7.67397 7.23508,-9.9613 7.0542,-14.47016 4.88368,4.16017 12.34836,-14.83191 22.56089,19.89647 27.13156,15.20673 24.36934,11.2013 71.6429,60.42234 v 92.08751 l -274.36334,-3.58116 z"
       id="path8-30" />
    <path
       style="fill:#b0abab;fill-opacity:1;stroke:none;stroke-width:0.264583px;stroke-linecap:butt;stroke-linejoin:miter;stroke-opacity:1"
       d="m 285.66283,200.67247 49.11333,-78.78599 10.51796,-14.91587 5.06457,-7.777715 3.61752,-10.85262 6.87334,-13.204015 1.44701,-4.34104 2.71314,-9.04385 2.5323,3.07491 1.08524,4.52192 2.53228,3.97929 2.5323,-2.71315 2.17051,-1.44702 1.80877,0.18088 0.54263,2.17052 2.35141,4.341045 6.87332,6.69245 4.88368,11.757 4.88367,9.043855 4.34105,16.4598 11.93789,40.8786 23.33313,37.622 2.17051,117.20829 -163.51279,-10.12912 z"
       id="path9-1" />
    <path
       style="fill:#acacac;fill-opacity:1;stroke:none;stroke-width:0.264583px;stroke-linecap:butt;stroke-linejoin:miter;stroke-opacity:1"
       d="m 163.27837,212.76948 51.9498,-63.87314 22.07537,-13.11303 1.269,7.09169 -1.269,8.55935 12.69003,-8.55935 2.96101,-10.8987 13.53603,7.19102 15.65103,3.70768 8.91807,-6.66869 46.49507,17.78409 34.68608,32.07373 -7.19103,99.68587 H 164.12437 Z"
       id="path6-6" />
    <path
       style="fill:#8c8888;fill-opacity:1;stroke:none;stroke-width:0.264583px;stroke-linecap:butt;stroke-linejoin:miter;stroke-opacity:1"
       d="m 394.22976,133.84001 20.98172,-26.76978 7.9586,-7.235086 2.17052,-15.19366 2.89405,-4.702805 3.97928,1.808775 3.97931,-5.064565 12.29962,-6.69244 5.42629,-9.58648 5.42631,-3.617543 0.72353,7.235083 2.53227,11.21437 0.36174,5.426315 6.51158,-0.723515 6.14982,-2.17052 3.25578,1.08526 2.17053,2.170525 4.34105,-1.808775 2.17051,7.235085 5.42631,9.02604 8.32035,3.63534 4.70279,7.235086 5.78807,18.8112 3.25578,17.36419 -0.36174,122.66514 H 332.7316 l 3.61754,-81.78694 18.08768,-23.87577 7.23509,-2.17052 11.21436,-3.25579 9.00261,-11.20965 z"
       id="path10-67" />
    <path
       style="fill:#c2c2c2;fill-opacity:1;stroke:none;stroke-width:0.264583px;stroke-linecap:butt;stroke-linejoin:miter;stroke-opacity:1"
       d="m 196.06969,150.40961 -53.71772,-50.64814 -7.67396,-1.02319 -2.55799,-5.11598 -6.13916,-8.69715 -1.0232,-6.13917 -7.16236,8.69716 -9.72035,-3.06959 -8.697162,-7.67396 -9.20875,3.58118 -2.55798,6.65077 -11.255146,6.65076 -0.511598,4.60438 -6.139167,1.53479 -6.650765,-9.72035 -2.04639,-10.74354 -10.231946,17.39431 -10.231948,5.11597 -7.162363,11.60944 -13.813129,10.38925 -7.673959,30.18424 -19.4406989,49.62495 V 312.58597 H 224.71914 l -2.55798,-113.57462 z"
       id="path11-4"
       inkscape:label="path11" />
    <path
       id="path11-3-1"
       style="fill:#f2eeee;fill-opacity:1;stroke:none;stroke-width:0.264583px;stroke-linecap:butt;stroke-linejoin:miter;stroke-opacity:1"
       inkscape:label="path11"
       d="m 99.378003,76.739298 -9.20874,3.581177 -2.557983,6.650757 -11.255127,6.650758 -0.511597,4.60437 -6.13916,1.53479 -6.650757,-9.720338 -2.046387,-10.743531 -10.231932,17.394289 -10.23194,5.11597 -7.16235,11.60963 -13.81311,10.38903 -7.67395,30.1842 17.71675,-25.37468 11.96413,-9.2723 10.46861,-14.20585 9.272301,6.42906 5.683374,-4.78575 14.357263,12.86175 -4.487065,11.06702 -9.272302,9.57151 30.808455,-5.08496 12.610084,-16.75712 17.59944,-13.30151 16.45068,9.7193 8.2305,-4.77593 -10.94507,-10.31979 -7.67395,-1.0232 -2.55798,-5.11596 -6.13916,-8.697145 -1.02319,-6.13916 -7.16236,8.697143 -9.72033,-3.06958 z" />
    <path
       style="fill:#d7cbcb;fill-opacity:1;stroke:none;stroke-width:0.264583px;stroke-linecap:butt;stroke-linejoin:miter;stroke-opacity:1"
       d="m 52.182928,212.85168 12.278336,-59.62397 15.347921,-12.94724 9.208752,-12.37683 7.67396,-22.76608 5.115973,11.25514 9.20876,2.04639 8.69715,-2.55799 10.74355,-2.04639 3.58118,9.20875 6.65076,7.67396 19.61742,12.9765 7.49724,24.37011 9.20876,34.27702 24.55667,95.92019 H 25.579867 Z"
       id="path13-1" />
    <path
       id="path8-3-9"
       style="fill:#e7e0e0;fill-opacity:1;stroke:none;stroke-width:0.264583px;stroke-linecap:butt;stroke-linejoin:miter;stroke-opacity:1"
       d="m 254.93272,86.656698 -12.34808,14.832172 -4.88394,-4.159955 -7.05384,14.469915 -7.23521,9.96115 -7.47965,7.67395 -0.70383,0.66663 14.24977,-1.7198 6.55671,-6.34483 10.78642,-0.21187 12.47831,-4.65295 0.84594,5.49889 7.19129,3.17293 -0.63458,-3.59564 5.07617,0.21136 9.30589,6.97941 -0.21135,-6.55618 1.0573,-6.34535 7.19129,2.53834 1.93838,-4.91804 -13.56609,-7.60367 z" />
    <path
       style="fill:#7c7c7c;fill-opacity:1;stroke:none;stroke-width:0.264583px;stroke-linecap:butt;stroke-linejoin:miter;stroke-opacity:1"
       d="m 56.470629,121.61278 -15.439536,12.26703 -10.998025,15.86253 -4.453201,14.17053 -9.29433,6.34502 10.786523,-4.01851 4.653013,-10.78652 4.018508,-1.46246 h -3.172508 l 1.692005,-4.67106 5.922013,-9.09452 12.47853,-6.13351 v -5.07601 l 14.593533,-6.34502 z"
       id="path5-0" />
    <path
       id="path9-2-7"
       style="fill:#c6c5c5;fill-opacity:1;stroke:none;stroke-width:0.264583px;stroke-linecap:butt;stroke-linejoin:miter;stroke-opacity:1"
       d="m 365.00951,61.751453 -2.71301,9.043892 -1.44746,4.341337 -6.87296,13.203845 -3.61787,10.852568 -1.48518,2.280475 12.29847,-7.852745 6.28127,-8.524544 2.84117,6.57996 4.63641,7.029028 -2.68976,5.533511 5.98,-4.785753 1.19631,-6.729822 6.13141,3.290239 0.74776,6.430616 6.72982,1.94458 2.99155,7.17837 1.30741,-7.76231 -0.11937,-0.45166 -4.88342,-9.043885 -4.88394,-11.756905 -6.87349,-6.692098 -2.35127,-4.341337 -0.54261,-2.17041 -1.80867,-0.180868 -2.17041,1.44694 -2.53215,2.713013 -2.53266,-3.979085 -1.0852,-4.521688 z" />
    <path
       id="path10-6-4"
       style="fill:#a7a2a2;fill-opacity:1;stroke:none;stroke-width:0.264583px;stroke-linecap:butt;stroke-linejoin:miter;stroke-opacity:1"
       d="m 459.34557,56.78611 -5.42655,3.617867 -5.42602,9.586495 -12.30003,6.692098 -3.97908,5.064807 -3.97909,-1.808675 -2.89439,4.702555 -2.17041,15.193905 -3.97909,3.617348 2.84892,8.11423 8.076,-6.58047 13.16043,-9.8702 4.78576,8.67389 6.58047,1.19631 v 10.76781 l -12.56254,14.34642 1.19631,9.28315 3.58945,-7.4073 7.47758,-9.04338 11.66492,-8.07599 3.58944,-13.16095 20.93774,9.87071 1.19631,5.98207 20.06803,7.60884 -5.78828,-18.81126 -4.70255,-7.234698 -8.32043,-3.635437 -5.42602,-9.026323 -2.17093,-7.2347 -4.34082,1.808675 -2.17041,-2.17041 -3.25613,-1.085205 -6.1495,2.17041 -6.51174,0.72347 -0.36174,-5.426542 -2.53214,-11.214303 z" />
  </g>
  <g
     inkscape:groupmode="layer"
     id="layer10"
     inkscape:label="BackgroundTrees"
     style="display:none">
    <path
       style="fill:#09c529;fill-opacity:1;stroke:none;stroke-width:0.264583px;stroke-linecap:butt;stroke-linejoin:miter;stroke-opacity:1"
       d="m 82.841321,133.16864 22.115449,-43.440252 3.87501,43.440252 19.48506,-32.96785 12.26338,40.97764 z"
       id="path96" />
    <path
       style="fill:#09a023;fill-opacity:1;stroke:none;stroke-width:0.264583px;stroke-linecap:butt;stroke-linejoin:miter;stroke-opacity:1"
       d="m 174.3793,157.57353 19.14283,-37.78673 8.29247,51.9871 9.65394,-45.55081 18.69231,58.3387 -48.29121,-1.2963 z"
       id="path97" />
    <path
       style="fill:#0cc92d;fill-opacity:1;stroke:none;stroke-width:0.264583px;stroke-linecap:butt;stroke-linejoin:miter;stroke-opacity:1"
       d="m 267.39572,168.09805 20.64417,-45.76335 5.68303,12.31438 13.23071,-29.54649 9.66517,25.00889 8.80946,-10.32468 17.9464,44.82335 z"
       id="path98" />
    <path
       style="fill:#09a023;fill-opacity:1;stroke:none;stroke-width:0.264583px;stroke-linecap:butt;stroke-linejoin:miter;stroke-opacity:1"
       d="m 201.8146,171.7739 21.31911,-43.45706 9.27231,16.15177 5.68303,-13.75892 11.05892,43.66961 z"
       id="path99" />
    <path
       style="fill:#09c529;fill-opacity:1;stroke:none;stroke-width:0.264583px;stroke-linecap:butt;stroke-linejoin:miter;stroke-opacity:1"
       d="m 242.47626,176.3668 15.95206,-43.19816 9.57652,44.20172 z"
       id="path100" />
    <path
       style="fill:#0cc92d;fill-opacity:1;stroke:none;stroke-width:0.264583px;stroke-linecap:butt;stroke-linejoin:miter;stroke-opacity:1"
       d="m 136.69183,151.04896 23.8601,-44.44429 0.96577,45.42637 19.54728,-26.42739 -3.80705,39.64815 z"
       id="path101" />
    <path
       style="fill:#09a023;fill-opacity:1;stroke:none;stroke-width:0.264583px;stroke-linecap:butt;stroke-linejoin:miter;stroke-opacity:1"
       d="m 42.016587,128.03516 18.18904,-39.281621 7.296767,44.415101 z"
       id="path102" />
    <path
       style="fill:#20e211;fill-opacity:1;stroke:none;stroke-width:0.264583px;stroke-linecap:butt;stroke-linejoin:miter;stroke-opacity:1"
       d="m 128.16929,124.15078 16.07404,-21.99605 1.0575,13.29868 9.45736,-8.84874 0.63674,19.96317 13.59396,-6.78104 2.30245,19.03054 z"
       id="path105" />
    <path
       style="fill:#3be211;fill-opacity:1;stroke:none;stroke-width:0.264583px;stroke-linecap:butt;stroke-linejoin:miter;stroke-opacity:1"
       d="m 59.008634,116.90115 8.834638,-13.70924 4.537192,6.47293 8.518471,-13.64362 3.595508,23.76558 z"
       id="path106" />
    <path
       style="fill:#11e225;fill-opacity:1;stroke:none;stroke-width:0.264583px;stroke-linecap:butt;stroke-linejoin:miter;stroke-opacity:1"
       d="m 101.41448,119.93767 10.29629,-22.435948 3.66274,11.344358 6.34502,-5.21084 1.37475,20.72704 z"
       id="path107" />
    <path
       style="fill:#11e225;fill-opacity:1;stroke:none;stroke-width:0.264583px;stroke-linecap:butt;stroke-linejoin:miter;stroke-opacity:1"
       d="m 189.49851,143.74366 11.98006,-14.72969 0.7915,30.66889 z"
       id="path108" />
    <path
       style="fill:#11e225;fill-opacity:1;stroke:none;stroke-width:0.264583px;stroke-linecap:butt;stroke-linejoin:miter;stroke-opacity:1"
       d="m 230.61299,160.05847 18.53498,-31.74163 14.06861,26.95266 4.78826,-18.66918 7.71599,18.66918 z"
       id="path109" />
    <path
       style="fill:#11e225;fill-opacity:1;stroke:none;stroke-width:0.264583px;stroke-linecap:butt;stroke-linejoin:miter;stroke-opacity:1"
       d="m 202.27007,159.68286 18.54462,-4.29042 4.66659,17.68416 z"
       id="path110" />
    <path
       style="fill:#3be211;fill-opacity:1;stroke:none;stroke-width:0.264583px;stroke-linecap:butt;stroke-linejoin:miter;stroke-opacity:1"
       d="m 320.04434,151.54731 14.95533,-28.61439 8.65568,14.05765 8.85632,-6.48576 8.36076,16.80531 z"
       id="path111" />
    <path
       style="fill:#08b516;fill-opacity:1;stroke:none;stroke-width:0.264583px;stroke-linecap:butt;stroke-linejoin:miter;stroke-opacity:1"
       d="m 347.26305,145.66504 11.96428,-17.3482 13.25877,20.65804 z"
       id="path112" />
    <path
       style="fill:#32bb10;fill-opacity:1;stroke:none;stroke-width:0.264583px;stroke-linecap:butt;stroke-linejoin:miter;stroke-opacity:1"
       d="m 403.49513,141.9262 c 0,-0.89732 -6.87945,-26.91962 -6.87945,-26.91962 l -4.03794,12.11383 -3.8884,-1.34598 -0.89731,5.38392 -6.72991,-7.26076 -4.63614,18.97741 z"
       id="path113" />
    <path
       style="fill:#3be211;fill-opacity:1;stroke:none;stroke-width:0.264583px;stroke-linecap:butt;stroke-linejoin:miter;stroke-opacity:1"
       d="m 363.67937,140.83143 5.71759,-16.93384 10.02009,22.81432 z"
       id="path114" />
    <path
       style="fill:#16cf0d;fill-opacity:1;stroke:none;stroke-width:0.264583px;stroke-linecap:butt;stroke-linejoin:miter;stroke-opacity:1"
       d="m 412.76746,146.94545 c 3.04249,-3.93212 20.80852,-30.62019 20.80852,-30.62019 l 1.2513,22.28533 7.98965,-9.83176 3.25186,5.91483 6.33074,-14.13838 4.4415,18.05531 -40.81957,4.40274 z"
       id="path115" />
    <path
       style="fill:#11e222;fill-opacity:1;stroke:none;stroke-width:0.264583px;stroke-linecap:butt;stroke-linejoin:miter;stroke-opacity:1"
       d="m 474.13277,134.73421 8.92479,-14.94741 9.87052,24.40085 z"
       id="path116" />
    <path
       style="fill:#48ec1f;fill-opacity:1;stroke:none;stroke-width:0.264583px;stroke-linecap:butt;stroke-linejoin:miter;stroke-opacity:1"
       d="m 456.84103,138.61059 v 0 l 5.20428,-9.83176 1.6451,3.7255 5.3839,-7.25334 4.87196,15.62834 z"
       id="path117" />
  </g>
  <g
     inkscape:groupmode="layer"
     id="layer3"
     inkscape:label="Grass"
     style="display:none">
    <path
       style="display:inline;fill:#04dd40;fill-opacity:1;stroke:none;stroke-width:0.264583px;stroke-linecap:butt;stroke-linejoin:miter;stroke-opacity:1"
       d="m -34.343423,153.9904 c 0,0 159.095203,-21.44043 223.596693,26.84251 64.50149,48.28294 126.95654,59.05078 126.95654,59.05078 l 3.58928,124.42846 -363.713931,-5.38392 z"
       id="path88"
       transform="translate(0.24524095,-37.089249)" />
    <path
       style="fill:#05ea31;fill-opacity:1;stroke:none;stroke-width:0.264583px;stroke-linecap:butt;stroke-linejoin:miter;stroke-opacity:1"
       d="m -43.6696,128.61595 c 0,0 156.49638,-38.939791 261.9326,46.73455 86.53918,70.31918 182.61993,73.03156 182.61993,73.03156 l 11.88453,132.08186 c 0,0 -451.651351,-20.93748 -449.258497,-24.52677 2.392855,-3.58928 -10.169633,-226.72299 -10.169633,-226.72299 z"
       id="path90"
       sodipodi:nodetypes="csccscc" />
    <path
       id="path90-5"
       style="fill:#e8d710;fill-opacity:1;stroke:none;stroke-width:0.264583px;stroke-linecap:butt;stroke-linejoin:miter;stroke-opacity:1"
       d="m 47.7585,119.85515 c -6.564541,-0.12229 -12.91838,-0.0744 -19.01641,0.10025 32.49753,11.57647 70.434086,31.72245 80.08969,64.60639 17.68779,60.23905 92.98294,76.61031 92.98294,76.61031 l 12.06129,-4.41058 c 0,0 -87.10242,-31.25591 -93.77205,-72.19973 -4.84535,-29.74478 -36.946621,-50.68122 -64.575424,-64.48406 -4.766474,-0.26344 -3.188383,-0.13723 -7.770036,-0.22258 z"
       sodipodi:nodetypes="scsccscs" />
    <path
       style="display:inline;fill:#23f45d;fill-opacity:1;stroke:none;stroke-width:0.264583px;stroke-linecap:butt;stroke-linejoin:miter;stroke-opacity:1"
       d="m 529.77211,173.48197 c 0,0 -232.20098,-13.64027 -328.20275,35.38118 -89.45483,45.67838 -230.528859,37.6009 -230.528859,37.6009 l -5.383924,95.7142 567.106593,-7.17857 z"
       id="path87"
       sodipodi:nodetypes="cscccc"
       transform="translate(0.24524095,-37.089249)" />
    <path
       style="fill:#26ff3b;fill-opacity:1;stroke:none;stroke-width:0.264583px;stroke-linecap:butt;stroke-linejoin:miter;stroke-opacity:1"
       d="m 540.78518,151.54731 c 0,0 -268.2058,-13.0168 -322.52218,23.80319 -54.31639,36.81999 -257.146891,44.01956 -257.146891,44.01956 l -7.776779,124.0046 586.24943,-23.92855 z"
       id="path91" />
    <g
       id="g138"
       transform="translate(-66.40221,5.9821249)">
      <path
         style="fill:#0ab236;fill-opacity:1;stroke:none;stroke-width:0.290655px;stroke-linecap:butt;stroke-linejoin:miter;stroke-opacity:1"
         d="m 462.65421,167.98426 h 59.01483 c 0,0 -11.27294,-32.10949 -28.93088,-13.98683 0,0 -12.89066,-30.15812 -30.08395,13.98683 z"
         id="path85-0"
         sodipodi:nodetypes="cccc" />
      <path
         style="fill:#1ed54e;fill-opacity:1;stroke:none;stroke-width:0.264583px;stroke-linecap:butt;stroke-linejoin:miter;stroke-opacity:1"
         d="m 465.30106,167.29688 h 53.72113 c 0,0 -10.56221,-27.92466 -26.63622,-11.42762 0,0 -11.43389,-28.75748 -27.08491,11.42762 z"
         id="path85"
         sodipodi:nodetypes="cccc" />
    </g>
  </g>
  <g
     inkscape:groupmode="layer"
     id="layer9"
     inkscape:label="Lake"
     style="display:inline">
    <path
       style="fill:#04a0dd;fill-opacity:1;stroke:none;stroke-width:0.264583px;stroke-linecap:butt;stroke-linejoin:miter;stroke-opacity:1"
       d="m 530.86227,182.01857 c 0,0 -429.89777,-11.17432 -281.40716,66.64218 101.96957,53.43715 0,110.26746 0,110.26746 l 276.37473,-7.77676 z"
       id="path89"
       sodipodi:nodetypes="csccc" />
    <path
       style="fill:#26e6ff;fill-opacity:1;stroke:none;stroke-width:0.264583px;stroke-linecap:butt;stroke-linejoin:miter;stroke-opacity:1"
       d="m 540.78518,192.62481 -207.80836,10.76785 207.41122,3.88689 z"
       id="path92" />
    <path
       style="fill:#26e6ff;fill-opacity:1;stroke:none;stroke-width:0.264583px;stroke-linecap:butt;stroke-linejoin:miter;stroke-opacity:1"
       d="m 540.9213,223.73192 -223.418,15.40253 234.64795,27.66887 z"
       id="path93" />
    <path
       id="path89-1"
       style="fill:#1ad4ff;fill-opacity:1;stroke:none;stroke-width:0.264583px;stroke-linecap:butt;stroke-linejoin:miter;stroke-opacity:1"
       d="m 271.40963,262.53967 c 17.02115,13.20989 23.27597,26.29997 23.29677,38.38732 l 148.54649,-1.8805 -85.77565,-25.67854 97.16513,-3.17242 z" />
    <path
       id="path89-5"
       style="fill:#18e4f2;fill-opacity:1;stroke:none;stroke-width:0.264583px;stroke-linecap:butt;stroke-linejoin:miter;stroke-opacity:1"
       d="m 241.58876,200.93713 c -14.17463,4.80389 -22.94283,10.73842 -23.41614,18.11724 l 98.44619,-4.44314 z" />
    <path
       style="fill:#1a89ff;fill-opacity:0.587326;stroke:none;stroke-width:0.264583px;stroke-linecap:butt;stroke-linejoin:miter;stroke-opacity:1"
       d="m 540.58661,199.95218 c 0,0 -302.3973,-21.4269 -291.1315,23.77974 10.94324,43.91226 80.87623,28.6951 73.5803,77.19507 -7.29594,48.49998 202.79443,50.22446 202.79443,50.22446 z"
       id="path95"
       sodipodi:nodetypes="csscc" />
  </g>
  <g
     inkscape:groupmode="layer"
     id="layer1"
     inkscape:label="Trees"
     style="display:none">
    <g
       id="g2"
       inkscape:label="Tree"
       transform="matrix(1.4673974,0,0,1.4673974,-22.615337,-115.14804)">
      <path
         style="fill:#03c129;fill-opacity:1;stroke:none;stroke-width:0.280841px;stroke-linecap:butt;stroke-linejoin:miter;stroke-opacity:1"
         d="m 75.301508,239.29428 c 0,0 -49.412598,5.84843 0,-72.51242 0,0 48.842382,72.76992 0,72.51242 z"
         id="path1-8"
         sodipodi:nodetypes="ccc" />
      <path
         style="fill:#01cd2a;fill-opacity:1;stroke:none;stroke-width:0.264583px;stroke-linecap:butt;stroke-linejoin:miter;stroke-opacity:1"
         d="m 75.294172,238.99554 c 0,0 -46.552082,5.50986 0,-68.31465 0,0 46.014878,68.55725 0,68.31465 z"
         id="path1"
         sodipodi:nodetypes="ccc" />
      <path
         style="fill:#ca821e;fill-opacity:1;stroke:none;stroke-width:0.264583px;stroke-linecap:butt;stroke-linejoin:miter;stroke-opacity:1"
         d="m 74.171486,254.50765 v -71.98248 c 0,-1.65244 2.006616,-1.86185 2.006616,0 v 72.01475 c 0,1.62402 -2.007871,1.66755 -2.006616,-0.0323 z"
         id="path2"
         sodipodi:nodetypes="ccsccc" />
    </g>
    <g
       id="g4"
       inkscape:label="TreeTriangle"
       transform="translate(-49.598724,28.650105)">
      <path
         style="fill:#01710c;fill-opacity:1;stroke:none;stroke-width:0.690262px;stroke-linecap:butt;stroke-linejoin:miter;stroke-opacity:1"
         d="m 215.72267,185.77902 h 46.82464 l -22.43446,-79.04193 z"
         id="path4-0"
         sodipodi:nodetypes="cccc" />
      <path
         style="fill:#00820d;fill-opacity:1;stroke:none;stroke-width:0.623298px;stroke-linecap:butt;stroke-linejoin:miter;stroke-opacity:1"
         d="m 217.99394,184.56179 h 42.2821 l -20.25806,-71.37393 z"
         id="path4"
         sodipodi:nodetypes="cccc" />
      <path
         style="fill:#ca821e;fill-opacity:1;stroke:none;stroke-width:0.275699px;stroke-linecap:butt;stroke-linejoin:miter;stroke-opacity:1"
         d="m 238.72744,201.18018 v -65.3339 c 0,-1.49981 2.4005,-1.6899 2.4005,0 v 65.36319 c 0,1.47402 -2.402,1.51353 -2.4005,-0.0293 z"
         id="path2-2-0-5-1"
         sodipodi:nodetypes="ccsccc" />
    </g>
    <g
       id="g3"
       inkscape:label="TreeCircle"
       transform="translate(-56.047461,3.4680332)">
      <circle
         style="fill:#0aaf2b;fill-opacity:1;stroke-width:0.275934;stroke-linejoin:round"
         id="path3-2"
         cx="198.81046"
         cy="221.45523"
         r="32.021767" />
      <circle
         style="fill:#03c129;stroke-width:0.264999;stroke-linejoin:round"
         id="path3"
         cx="198.81046"
         cy="222.72423"
         r="30.752766" />
      <path
         style="fill:#ca821e;fill-opacity:1;stroke:none;stroke-width:0.262109px;stroke-linecap:butt;stroke-linejoin:miter;stroke-opacity:1"
         d="m 197.76359,274.86777 v -59.0516 c 0,-1.35559 2.4005,-1.5274 2.4005,0 v 59.07808 c 0,1.33228 -2.402,1.36799 -2.4005,-0.0265 z"
         id="path2-2-0-5"
         sodipodi:nodetypes="ccsccc" />
    </g>
    <g
       id="g5"
       inkscape:label="TreeShape1"
       transform="matrix(0.72115031,0,0,0.78471015,102.86216,38.019794)">
      <path
         style="fill:#02971e;fill-opacity:1;stroke:none;stroke-width:0.246312px;stroke-linecap:butt;stroke-linejoin:miter;stroke-opacity:1"
         d="m 288.22072,152.79069 c -4.52311,-1.14544 -20.57143,-7.94786 -21.71952,-25.13042 -0.82997,-12.42119 12.98908,-16.9279 6.74192,-44.843225 -1.97903,-8.843143 20.96758,-24.645499 31.54555,-15.408868 13.60625,11.88089 9.86953,15.328043 17.24273,19.032724 10.16766,5.108748 0.44655,26.555589 5.30341,34.443579 5.93748,9.64306 -0.53528,27.27791 -21.34748,31.90621 -10.19033,2.26615 -17.76661,0 -17.76661,0 z m -3.77124,0.95729 c -4.52313,-1.14543 -20.57145,-7.94785 -21.71954,-25.13041 -0.82996,-12.42119 12.9891,-16.92789 6.74192,-44.843222 -1.97901,-8.843144 20.96759,-24.645501 31.54556,-15.40887 13.60624,11.88089 9.86952,15.328044 17.24272,19.032723 10.16767,5.108747 0.44655,26.555579 5.30342,34.443579 5.93749,9.64305 -0.53527,27.27793 -21.34749,31.9062 -10.19032,2.26616 -17.76659,0 -17.76659,0 z"
         id="path5-3"
         sodipodi:nodetypes="cssssssc" />
      <path
         style="fill:#00a519;fill-opacity:1;stroke:none;stroke-width:0.22742px;stroke-linecap:butt;stroke-linejoin:miter;stroke-opacity:1"
         d="m 288.76264,152.37347 c -4.17618,-1.05757 -18.99355,-7.33822 -20.05359,-23.20283 -0.7663,-11.46846 11.99279,-15.62949 6.22479,-41.40362 -1.82722,-8.164847 19.35932,-22.755116 29.12594,-14.226963 12.56259,10.969591 9.11248,14.152338 15.92015,17.572858 9.38777,4.716893 0.41229,24.518675 4.89662,31.801655 5.48206,8.9034 -0.49421,25.18562 -19.71007,29.4589 -9.40869,2.09233 -16.40384,0 -16.40384,0 z m -3.48199,0.88387 c -4.17618,-1.05757 -18.99355,-7.33822 -20.05359,-23.20283 -0.7663,-11.46845 11.9928,-15.62948 6.2248,-41.403616 -1.82723,-8.164847 19.35932,-22.755117 29.12593,-14.226963 12.56259,10.969591 9.11249,14.152338 15.92015,17.572858 9.38778,4.716893 0.41229,24.518681 4.89662,31.801661 5.48206,8.9034 -0.4942,25.18562 -19.71007,29.45889 -9.40869,2.09233 -16.40384,0 -16.40384,0 z"
         id="path5"
         sodipodi:nodetypes="cssssssc" />
      <path
         style="display:inline;fill:#ca821e;fill-opacity:1;stroke:none;stroke-width:0.349111px;stroke-linecap:butt;stroke-linejoin:miter;stroke-opacity:1"
         d="M 294.99924,169.32421 V 90.671539 c 0,-1.805552 3.1973,-2.034391 3.1973,0 v 78.687941 c 0,1.7745 -3.1993,1.82206 -3.1973,-0.0353 z"
         id="path2-2-0-5-14"
         sodipodi:nodetypes="ccsccc" />
    </g>
    <g
       id="g6"
       transform="translate(179.34387,-1.1124685)">
      <path
         style="fill:#07c430;fill-opacity:1;stroke:none;stroke-width:0.296273px;stroke-linecap:butt;stroke-linejoin:miter;stroke-opacity:1"
         d="m 5.0270889,275.49672 67.2470901,-0.51955 c 0,0 -9.113041,-38.07224 -21.13198,-14.98747 0,0 -11.445814,-28.48163 -24.641943,-0.98528 0,0 -16.262859,-22.3482 -21.4731671,16.4923 z"
         id="path6-7"
         sodipodi:nodetypes="ccccc" />
      <path
         style="fill:#0ed445;fill-opacity:1;stroke:none;stroke-width:0.264583px;stroke-linecap:butt;stroke-linejoin:miter;stroke-opacity:1"
         d="M 7.1910164,274.10463 H 69.795159 c 0,0 -8.015007,-32.21625 -18.74839,-11.60065 0,0 -12.706881,-25.30307 -24.491541,-0.74776 0,0 -14.711201,-22.33767 -19.3642116,12.34841 z"
         id="path6"
         sodipodi:nodetypes="ccccc" />
    </g>
  </g>
</svg>
