<?xml version="1.0" encoding="UTF-8" standalone="no"?>
<!-- Created with Inkscape (http://www.inkscape.org/) -->

<svg
   width="1920"
   height="1080"
   viewBox="0 0 508 285.74999"
   version="1.1"
   id="svg1"
   inkscape:version="1.3 (0e150ed6c4, 2023-07-21)"
   sodipodi:docname="mountains3.svg"
   inkscape:export-filename="seasons\res\summer\sun.svg"
   inkscape:export-xdpi="96"
   inkscape:export-ydpi="96"
   xmlns:inkscape="http://www.inkscape.org/namespaces/inkscape"
   xmlns:sodipodi="http://sodipodi.sourceforge.net/DTD/sodipodi-0.dtd"
   xmlns="http://www.w3.org/2000/svg"
   xmlns:svg="http://www.w3.org/2000/svg">
  <sodipodi:namedview
     id="namedview1"
     pagecolor="#ffffff"
     bordercolor="#666666"
     borderopacity="1.0"
     inkscape:showpageshadow="2"
     inkscape:pageopacity="0.0"
     inkscape:pagecheckerboard="0"
     inkscape:deskcolor="#d1d1d1"
     inkscape:document-units="mm"
     inkscape:zoom="0.44228898"
     inkscape:cx="926.99574"
     inkscape:cy="394.53843"
     inkscape:window-width="1920"
     inkscape:window-height="1017"
     inkscape:window-x="1912"
     inkscape:window-y="-8"
     inkscape:window-maximized="1"
     inkscape:current-layer="svg1" />
  <defs
     id="defs1" />
  <g
     inkscape:groupmode="layer"
     id="layer7-1"
     inkscape:label="Mountains"
     style="display:inline"
     transform="translate(0.24524095,-37.08925)">
    <path
       style="fill:#c6c6c6;fill-opacity:1;stroke:none;stroke-width:0.264583px;stroke-linecap:butt;stroke-linejoin:miter;stroke-opacity:1"
       d="m 126.27435,214.35929 89.65744,-84.92516 7.47989,-7.67397 7.23508,-9.9613 7.0542,-14.47016 4.88368,4.16017 12.34836,-14.83191 22.56089,19.89647 27.13156,15.20673 24.36934,11.2013 71.6429,60.42234 v 92.08751 l -274.36334,-3.58116 z"
       id="path8-30" />
    <path
       style="fill:#b0abab;fill-opacity:1;stroke:none;stroke-width:0.264583px;stroke-linecap:butt;stroke-linejoin:miter;stroke-opacity:1"
       d="m 285.66283,200.67247 49.11333,-78.78599 10.51796,-14.91587 5.06457,-7.777715 3.61752,-10.85262 6.87334,-13.204015 1.44701,-4.34104 2.71314,-9.04385 2.5323,3.07491 1.08524,4.52192 2.53228,3.97929 2.5323,-2.71315 2.17051,-1.44702 1.80877,0.18088 0.54263,2.17052 2.35141,4.341045 6.87332,6.69245 4.88368,11.757 4.88367,9.043855 4.34105,16.4598 11.93789,40.8786 23.33313,37.622 2.17051,117.20829 -163.51279,-10.12912 z"
       id="path9-1" />
    <path
       style="fill:#acacac;fill-opacity:1;stroke:none;stroke-width:0.264583px;stroke-linecap:butt;stroke-linejoin:miter;stroke-opacity:1"
       d="m 163.27837,212.76948 51.9498,-63.87314 22.07537,-13.11303 1.269,7.09169 -1.269,8.55935 12.69003,-8.55935 2.96101,-10.8987 13.53603,7.19102 15.65103,3.70768 8.91807,-6.66869 46.49507,17.78409 34.68608,32.07373 -7.19103,99.68587 H 164.12437 Z"
       id="path6-6" />
    <path
       style="fill:#8c8888;fill-opacity:1;stroke:none;stroke-width:0.264583px;stroke-linecap:butt;stroke-linejoin:miter;stroke-opacity:1"
       d="m 394.22976,133.84001 20.98172,-26.76978 7.9586,-7.235086 2.17052,-15.19366 2.89405,-4.702805 3.97928,1.808775 3.97931,-5.064565 12.29962,-6.69244 5.42629,-9.58648 5.42631,-3.617543 0.72353,7.235083 2.53227,11.21437 0.36174,5.426315 6.51158,-0.723515 6.14982,-2.17052 3.25578,1.08526 2.17053,2.170525 4.34105,-1.808775 2.17051,7.235085 5.42631,9.02604 8.32035,3.63534 4.70279,7.235086 5.78807,18.8112 3.25578,17.36419 -0.36174,122.66514 H 332.7316 l 3.61754,-81.78694 18.08768,-23.87577 7.23509,-2.17052 11.21436,-3.25579 9.00261,-11.20965 z"
       id="path10-67" />
    <path
       style="fill:#c2c2c2;fill-opacity:1;stroke:none;stroke-width:0.264583px;stroke-linecap:butt;stroke-linejoin:miter;stroke-opacity:1"
       d="m 196.06969,150.40961 -53.71772,-50.64814 -7.67396,-1.02319 -2.55799,-5.11598 -6.13916,-8.69715 -1.0232,-6.13917 -7.16236,8.69716 -9.72035,-3.06959 -8.697162,-7.67396 -9.20875,3.58118 -2.55798,6.65077 -11.255146,6.65076 -0.511598,4.60438 -6.139167,1.53479 -6.650765,-9.72035 -2.04639,-10.74354 -10.231946,17.39431 -10.231948,5.11597 -7.162363,11.60944 -13.813129,10.38925 -7.673959,30.18424 -19.4406989,49.62495 V 312.58597 H 224.71914 l -2.55798,-113.57462 z"
       id="path11-4"
       inkscape:label="path11" />
    <path
       id="path11-3-1"
       style="fill:#f2eeee;fill-opacity:1;stroke:none;stroke-width:0.264583px;stroke-linecap:butt;stroke-linejoin:miter;stroke-opacity:1"
       inkscape:label="path11"
       d="m 99.378003,76.739298 -9.20874,3.581177 -2.557983,6.650757 -11.255127,6.650758 -0.511597,4.60437 -6.13916,1.53479 -6.650757,-9.720338 -2.046387,-10.743531 -10.231932,17.394289 -10.23194,5.11597 -7.16235,11.60963 -13.81311,10.38903 -7.67395,30.1842 17.71675,-25.37468 11.96413,-9.2723 10.46861,-14.20585 9.272301,6.42906 5.683374,-4.78575 14.357263,12.86175 -4.487065,11.06702 -9.272302,9.57151 30.808455,-5.08496 12.610084,-16.75712 17.59944,-13.30151 16.45068,9.7193 8.2305,-4.77593 -10.94507,-10.31979 -7.67395,-1.0232 -2.55798,-5.11596 -6.13916,-8.697145 -1.02319,-6.13916 -7.16236,8.697143 -9.72033,-3.06958 z" />
    <path
       style="fill:#d7cbcb;fill-opacity:1;stroke:none;stroke-width:0.264583px;stroke-linecap:butt;stroke-linejoin:miter;stroke-opacity:1"
       d="m 52.182928,212.85168 12.278336,-59.62397 15.347921,-12.94724 9.208752,-12.37683 7.67396,-22.76608 5.115973,11.25514 9.20876,2.04639 8.69715,-2.55799 10.74355,-2.04639 3.58118,9.20875 6.65076,7.67396 19.61742,12.9765 7.49724,24.37011 9.20876,34.27702 24.55667,95.92019 H 25.579867 Z"
       id="path13-1" />
    <path
       id="path8-3-9"
       style="fill:#e7e0e0;fill-opacity:1;stroke:none;stroke-width:0.264583px;stroke-linecap:butt;stroke-linejoin:miter;stroke-opacity:1"
       d="m 254.93272,86.656698 -12.34808,14.832172 -4.88394,-4.159955 -7.05384,14.469915 -7.23521,9.96115 -7.47965,7.67395 -0.70383,0.66663 14.24977,-1.7198 6.55671,-6.34483 10.78642,-0.21187 12.47831,-4.65295 0.84594,5.49889 7.19129,3.17293 -0.63458,-3.59564 5.07617,0.21136 9.30589,6.97941 -0.21135,-6.55618 1.0573,-6.34535 7.19129,2.53834 1.93838,-4.91804 -13.56609,-7.60367 z" />
    <path
       style="fill:#7c7c7c;fill-opacity:1;stroke:none;stroke-width:0.264583px;stroke-linecap:butt;stroke-linejoin:miter;stroke-opacity:1"
       d="m 56.470629,121.61278 -15.439536,12.26703 -10.998025,15.86253 -4.453201,14.17053 -9.29433,6.34502 10.786523,-4.01851 4.653013,-10.78652 4.018508,-1.46246 h -3.172508 l 1.692005,-4.67106 5.922013,-9.09452 12.47853,-6.13351 v -5.07601 l 14.593533,-6.34502 z"
       id="path5-0" />
    <path
       id="path9-2-7"
       style="fill:#c6c5c5;fill-opacity:1;stroke:none;stroke-width:0.264583px;stroke-linecap:butt;stroke-linejoin:miter;stroke-opacity:1"
       d="m 365.00951,61.751453 -2.71301,9.043892 -1.44746,4.341337 -6.87296,13.203845 -3.61787,10.852568 -1.48518,2.280475 12.29847,-7.852745 6.28127,-8.524544 2.84117,6.57996 4.63641,7.029028 -2.68976,5.533511 5.98,-4.785753 1.19631,-6.729822 6.13141,3.290239 0.74776,6.430616 6.72982,1.94458 2.99155,7.17837 1.30741,-7.76231 -0.11937,-0.45166 -4.88342,-9.043885 -4.88394,-11.756905 -6.87349,-6.692098 -2.35127,-4.341337 -0.54261,-2.17041 -1.80867,-0.180868 -2.17041,1.44694 -2.53215,2.713013 -2.53266,-3.979085 -1.0852,-4.521688 z" />
    <path
       id="path10-6-4"
       style="fill:#a7a2a2;fill-opacity:1;stroke:none;stroke-width:0.264583px;stroke-linecap:butt;stroke-linejoin:miter;stroke-opacity:1"
       d="m 459.34557,56.78611 -5.42655,3.617867 -5.42602,9.586495 -12.30003,6.692098 -3.97908,5.064807 -3.97909,-1.808675 -2.89439,4.702555 -2.17041,15.193905 -3.97909,3.617348 2.84892,8.11423 8.076,-6.58047 13.16043,-9.8702 4.78576,8.67389 6.58047,1.19631 v 10.76781 l -12.56254,14.34642 1.19631,9.28315 3.58945,-7.4073 7.47758,-9.04338 11.66492,-8.07599 3.58944,-13.16095 20.93774,9.87071 1.19631,5.98207 20.06803,7.60884 -5.78828,-18.81126 -4.70255,-7.234698 -8.32043,-3.635437 -5.42602,-9.026323 -2.17093,-7.2347 -4.34082,1.808675 -2.17041,-2.17041 -3.25613,-1.085205 -6.1495,2.17041 -6.51174,0.72347 -0.36174,-5.426542 -2.53214,-11.214303 z" />
  </g>
</svg>
