<?xml version="1.0" encoding="UTF-8" standalone="no"?>
<!-- Created with Inkscape (http://www.inkscape.org/) -->

<svg
   width="1920"
   height="1080"
   viewBox="0 0 508 285.74999"
   version="1.1"
   id="svg1"
   inkscape:version="1.3 (0e150ed6c4, 2023-07-21)"
   sodipodi:docname="lake5.svg"
   inkscape:export-filename="seasons\res\winter\hills4.svg"
   inkscape:export-xdpi="96"
   inkscape:export-ydpi="96"
   xmlns:inkscape="http://www.inkscape.org/namespaces/inkscape"
   xmlns:sodipodi="http://sodipodi.sourceforge.net/DTD/sodipodi-0.dtd"
   xmlns="http://www.w3.org/2000/svg"
   xmlns:svg="http://www.w3.org/2000/svg">
  <sodipodi:namedview
     id="namedview1"
     pagecolor="#ffffff"
     bordercolor="#666666"
     borderopacity="1.0"
     inkscape:showpageshadow="2"
     inkscape:pageopacity="0.0"
     inkscape:pagecheckerboard="0"
     inkscape:deskcolor="#d1d1d1"
     inkscape:document-units="mm"
     inkscape:zoom="0.44228898"
     inkscape:cx="978.99794"
     inkscape:cy="668.11522"
     inkscape:window-width="1920"
     inkscape:window-height="1017"
     inkscape:window-x="1912"
     inkscape:window-y="-8"
     inkscape:window-maximized="1"
     inkscape:current-layer="svg1" />
  <defs
     id="defs1" />
  <g
     inkscape:groupmode="layer"
     id="layer9"
     inkscape:label="Lake"
     style="display:inline">
    <path
       style="fill:#96e5f4;fill-opacity:1;stroke:none;stroke-width:0.264583px;stroke-linecap:butt;stroke-linejoin:miter;stroke-opacity:1"
       d="m 530.86227,182.01857 c 0,0 -429.89777,-11.17432 -281.40716,66.64218 101.96957,53.43715 0,110.26746 0,110.26746 l 276.37473,-7.77676 z"
       id="path89"
       sodipodi:nodetypes="csccc" />
    <path
       style="fill:#c5f5fb;fill-opacity:1;stroke:none;stroke-width:0.264583px;stroke-linecap:butt;stroke-linejoin:miter;stroke-opacity:1"
       d="m 540.78518,192.62481 -207.80836,10.76785 207.41122,3.88689 z"
       id="path92" />
    <path
       style="fill:#ffffff;fill-opacity:1;stroke:none;stroke-width:0.264583px;stroke-linecap:butt;stroke-linejoin:miter;stroke-opacity:1"
       d="m 540.9213,223.73192 -223.418,15.40253 234.64795,27.66887 z"
       id="path93" />
    <path
       id="path89-1"
       style="fill:#90d5e5;fill-opacity:1;stroke:none;stroke-width:0.264583px;stroke-linecap:butt;stroke-linejoin:miter;stroke-opacity:1"
       d="m 271.40963,262.53967 c 17.02115,13.20989 23.27597,26.29997 23.29677,38.38732 l 148.54649,-1.8805 -85.77565,-25.67854 97.16513,-3.17242 z" />
    <path
       id="path89-5"
       style="fill:#cdf6f9;fill-opacity:1;stroke:none;stroke-width:0.264583px;stroke-linecap:butt;stroke-linejoin:miter;stroke-opacity:1"
       d="m 241.58876,200.93713 c -14.17463,4.80389 -22.94283,10.73842 -23.41614,18.11724 l 98.44619,-4.44314 z" />
    <path
       style="fill:#c8f9fd;fill-opacity:0.587326;stroke:none;stroke-width:0.264583px;stroke-linecap:butt;stroke-linejoin:miter;stroke-opacity:1"
       d="m 540.58661,199.95218 c 0,0 -302.3973,-21.4269 -291.1315,23.77974 10.94324,43.91226 80.87623,28.6951 73.5803,77.19507 -7.29594,48.49998 202.79443,50.22446 202.79443,50.22446 z"
       id="path95"
       sodipodi:nodetypes="csscc" />
    <path
       style="fill:#ffffff;fill-opacity:1;stroke:none;stroke-width:0.124873px;stroke-linecap:butt;stroke-linejoin:miter;stroke-opacity:1"
       d="m 281.38574,231.35366 h 41.64892 c 2.73102,0 2.71349,4.47453 0,4.47453 h -41.64892 c -2.30628,0 -2.49628,-4.47453 0,-4.47453 z"
       id="path8-3"
       sodipodi:nodetypes="scscs" />
    <path
       style="fill:#ffffff;fill-opacity:1;stroke:none;stroke-width:0.18746px;stroke-linecap:butt;stroke-linejoin:miter;stroke-opacity:1"
       d="m 357.43268,211.76765 h 45.46426 c 9.39044,0 9.20267,5.25361 0.59819,5.25516 h 40.97767 c 9.97157,0 9.90732,5.50606 0.29908,5.55546 -18.86409,0.097 -63.11154,0 -63.11154,0 -7.26717,0 -7.2586,-5.4027 0.89734,-5.40531 h -25.12499 c -9.26772,0 -9.26847,-5.40531 -10e-6,-5.40531 z"
       id="path7"
       sodipodi:nodetypes="scccscccs" />
    <path
       style="fill:#f7ffff;fill-opacity:1;stroke:none;stroke-width:0.205248px;stroke-linecap:butt;stroke-linejoin:miter;stroke-opacity:1"
       d="m 348.12978,266.91361 h 112.51827 c 7.37811,0 7.33075,4.47453 0,4.47453 H 348.12978 c -6.23062,0 -6.74391,-4.47453 0,-4.47453 z"
       id="path8"
       sodipodi:nodetypes="scscs" />
  </g>
</svg>
