<?xml version="1.0" encoding="UTF-8" standalone="no"?>
<!-- Created with Inkscape (http://www.inkscape.org/) -->

<svg
   width="1920"
   height="1080"
   viewBox="0 0 508 285.74999"
   version="1.1"
   id="svg1"
   inkscape:version="1.3 (0e150ed6c4, 2023-07-21)"
   sodipodi:docname="vegetation6.svg"
   inkscape:export-filename="seasons\res\winter\lake5.svg"
   inkscape:export-xdpi="96"
   inkscape:export-ydpi="96"
   xmlns:inkscape="http://www.inkscape.org/namespaces/inkscape"
   xmlns:sodipodi="http://sodipodi.sourceforge.net/DTD/sodipodi-0.dtd"
   xmlns="http://www.w3.org/2000/svg"
   xmlns:svg="http://www.w3.org/2000/svg">
  <sodipodi:namedview
     id="namedview1"
     pagecolor="#ffffff"
     bordercolor="#666666"
     borderopacity="1.0"
     inkscape:showpageshadow="2"
     inkscape:pageopacity="0.0"
     inkscape:pagecheckerboard="0"
     inkscape:deskcolor="#d1d1d1"
     inkscape:document-units="mm"
     inkscape:zoom="0.44228898"
     inkscape:cx="978.99794"
     inkscape:cy="668.11522"
     inkscape:window-width="1920"
     inkscape:window-height="1017"
     inkscape:window-x="1912"
     inkscape:window-y="-8"
     inkscape:window-maximized="1"
     inkscape:current-layer="svg1" />
  <defs
     id="defs1" />
  <g
     inkscape:groupmode="layer"
     id="layer2"
     inkscape:label="Snow"
     style="display:inline">
    <path
       d="m 458.99963,223.40518 20.04015,0.59821 c -1.7819,-12.25091 -17.24627,-11.58658 -20.04015,-0.59821 z"
       style="fill:#ffffff;fill-opacity:1;stroke:none;stroke-width:0.264583px;stroke-linecap:butt;stroke-linejoin:miter;stroke-opacity:1"
       id="path1-6"
       sodipodi:nodetypes="ccc" />
    <path
       style="fill:#ffffff;fill-opacity:1;stroke:none;stroke-width:0.264583px;stroke-linecap:butt;stroke-linejoin:miter;stroke-opacity:1"
       d="m 233.70803,186.54343 h 26.43757 c 0,0 -13.32453,-14.38204 -26.43757,0 z"
       id="path28" />
    <path
       style="fill:#ffffff;fill-opacity:1;stroke:none;stroke-width:0.264583px;stroke-linecap:butt;stroke-linejoin:miter;stroke-opacity:1"
       d="m 275.79664,174.2764 h 28.76407 c 0,0 -14.38204,-14.38203 -28.76407,0 z"
       id="path45" />
    <path
       style="fill:#ffffff;fill-opacity:1;stroke:none;stroke-width:0.264583px;stroke-linecap:butt;stroke-linejoin:miter;stroke-opacity:1"
       d="m 342.36828,172.88791 h 36.37807 c 0,0 -9.34938,-16.30547 -21.1641,-5.53762 0,0 -7.39671,-7.91805 -15.21397,5.53762 z"
       id="path46"
       sodipodi:nodetypes="cccc" />
    <path
       style="fill:#ffffff;fill-opacity:1;stroke:none;stroke-width:0.102361px;stroke-linecap:butt;stroke-linejoin:miter;stroke-opacity:1"
       d="m 16.977266,140.60861 h 10.998012 c 0,0 -2.826554,-8.07239 -6.398443,-2.74152 0,0 -2.236213,-3.92001 -4.599569,2.74152 z"
       id="path46-8"
       sodipodi:nodetypes="cccc" />
    <path
       style="fill:#ffffff;fill-opacity:1;stroke:none;stroke-width:0.264583px;stroke-linecap:butt;stroke-linejoin:miter;stroke-opacity:1"
       d="m 157.14486,248.72457 h 24.11105 c 0,0 -12.90152,-14.80504 -24.11105,0 z"
       id="path47" />
    <path
       style="fill:#ffffff;fill-opacity:1;stroke:none;stroke-width:0.264583px;stroke-linecap:butt;stroke-linejoin:miter;stroke-opacity:1"
       d="m 32.782576,268.81711 h 36.801083 c 0,0 -12.267028,-14.59353 -20.304045,-3.80701 0,0 -8.037018,-9.94053 -16.497038,3.80701 z"
       id="path48" />
    <path
       style="fill:#ffffff;fill-opacity:1;stroke:none;stroke-width:0.264583px;stroke-linecap:butt;stroke-linejoin:miter;stroke-opacity:1"
       d="m 52.452121,239.84155 h 29.187066 c 0,0 -4.334301,-12.21946 -9.863344,-2.64288 0,0 -12.038107,-9.97618 -19.323722,2.64288 z"
       id="path49" />
    <path
       style="fill:#ffffff;fill-opacity:1;stroke:none;stroke-width:0.264583px;stroke-linecap:butt;stroke-linejoin:miter;stroke-opacity:1"
       d="m 350.55324,253.71739 h 30.20978 c -0.16015,-13.38424 -24.00147,-19.60034 -30.20978,0 z"
       id="path50"
       sodipodi:nodetypes="ccc" />
    <path
       style="fill:#ffffff;fill-opacity:1;stroke:none;stroke-width:0.139296px;stroke-linecap:butt;stroke-linejoin:miter;stroke-opacity:1"
       d="m 28.01186,182.88419 h 10.786524 c 0,0 -1.601806,-9.16459 -3.645148,-1.98216 0,0 -4.448866,-7.48213 -7.141376,1.98216 z"
       id="path49-3" />
    <path
       style="fill:#ffffff;fill-opacity:1;stroke:none;stroke-width:0.13508px;stroke-linecap:butt;stroke-linejoin:miter;stroke-opacity:1"
       d="m 109.70506,145.61237 h 8.46001 c 0,0 -4.52685,-10.99803 -8.46001,0 z"
       id="path47-6" />
    <path
       style="fill:#ffffff;fill-opacity:1;stroke:none;stroke-width:0.108902px;stroke-linecap:butt;stroke-linejoin:miter;stroke-opacity:1"
       d="m 142.12934,174.87604 h 9.51753 c 0,0 -4.79683,-6.76803 -9.51753,0 z"
       id="path28-1" />
  </g>
  <g
     inkscape:groupmode="layer"
     id="layer1"
     inkscape:label="Trees"
     style="display:inline">
    <g
       id="g2"
       inkscape:label="Tree"
       transform="matrix(1.4673974,0,0,1.4673974,-22.615337,-115.14804)">
      <path
         style="fill:#fdfffe;fill-opacity:1;stroke:none;stroke-width:0.280841px;stroke-linecap:butt;stroke-linejoin:miter;stroke-opacity:1"
         d="m 75.301508,239.29428 c 0,0 -49.412598,5.84843 0,-72.51242 0,0 48.842382,72.76992 0,72.51242 z"
         id="path1-8"
         sodipodi:nodetypes="ccc" />
      <path
         style="fill:#e3ffe9;fill-opacity:1;stroke:none;stroke-width:0.264583px;stroke-linecap:butt;stroke-linejoin:miter;stroke-opacity:1"
         d="m 75.294172,238.99554 c 0,0 -46.552082,5.50986 0,-68.31465 0,0 46.014878,68.55725 0,68.31465 z"
         id="path1"
         sodipodi:nodetypes="ccc" />
      <path
         style="fill:#ca821e;fill-opacity:1;stroke:none;stroke-width:0.264583px;stroke-linecap:butt;stroke-linejoin:miter;stroke-opacity:1"
         d="m 74.171486,254.50765 v -71.98248 c 0,-1.65244 2.006616,-1.86185 2.006616,0 v 72.01475 c 0,1.62402 -2.007871,1.66755 -2.006616,-0.0323 z"
         id="path2"
         sodipodi:nodetypes="ccsccc" />
    </g>
    <g
       id="g4"
       inkscape:label="TreeTriangle"
       transform="translate(-49.598724,28.650105)">
      <path
         style="fill:#348b3c;fill-opacity:1;stroke:none;stroke-width:0.690262px;stroke-linecap:butt;stroke-linejoin:miter;stroke-opacity:1"
         d="m 215.72267,185.77902 h 46.82464 l -22.43446,-79.04193 z"
         id="path4-0"
         sodipodi:nodetypes="cccc" />
      <path
         style="fill:#1fa62c;fill-opacity:1;stroke:none;stroke-width:0.623298px;stroke-linecap:butt;stroke-linejoin:miter;stroke-opacity:1"
         d="m 217.99394,184.56179 h 42.2821 l -20.25806,-71.37393 z"
         id="path4"
         sodipodi:nodetypes="cccc" />
      <path
         style="fill:#ca821e;fill-opacity:1;stroke:none;stroke-width:0.275699px;stroke-linecap:butt;stroke-linejoin:miter;stroke-opacity:1"
         d="m 238.72744,201.18018 v -65.3339 c 0,-1.49981 2.4005,-1.6899 2.4005,0 v 65.36319 c 0,1.47402 -2.402,1.51353 -2.4005,-0.0293 z"
         id="path2-2-0-5-1"
         sodipodi:nodetypes="ccsccc" />
      <g
         id="Snow"
         inkscape:label="Snow">
        <path
           style="fill:#e9ffeb;fill-opacity:1;stroke:none;stroke-width:0.264583px;stroke-linecap:butt;stroke-linejoin:miter;stroke-opacity:1"
           d="m 173.37752,192.46544 c -0.69902,2.09707 -1.37276,6.8149 2.80238,5.44614 4.08586,-1.33949 5.28751,1.42763 7.24389,0.68738 1.95638,-0.74025 4.86451,-6.55652 -0.79312,-5.92201 -5.65764,0.6345 -8.83015,-4.23001 -9.25315,-0.21151 z"
           id="path9"
           sodipodi:nodetypes="csssc"
           transform="translate(49.598724,-28.650105)" />
        <path
           style="fill:#f6fff6;fill-opacity:1;stroke:none;stroke-width:0.264583px;stroke-linecap:butt;stroke-linejoin:miter;stroke-opacity:1"
           d="m 192.72982,189.55731 c 0,0 -4.60014,6.45076 -0.58163,6.18639 4.01851,-0.26438 8.3014,-0.42301 9.51752,0.58162 1.21613,1.00463 2.64376,0.26438 2.06213,-0.58162 -0.58162,-0.84601 -4.01851,-5.23464 -7.03239,-4.33577 -3.01388,0.89888 -1.58625,-3.91275 -3.96563,-1.85062 z"
           id="path10"
           transform="translate(49.598724,-28.650105)" />
        <path
           style="fill:#c4fcc9;fill-opacity:1;stroke:none;stroke-width:0.264583px;stroke-linecap:butt;stroke-linejoin:miter;stroke-opacity:1"
           d="m 176.47304,206.1594 c 0,0 -4.33705,2.61718 0.22433,3.2154 4.56138,0.59821 13.98325,-0.44866 19.21762,0.82254 5.23437,1.27121 11.06695,2.46763 10.31919,0.29911 -0.74777,-2.16853 -5.75781,-6.35602 -10.46874,-6.20647 -4.71094,0.14955 -10.31919,3.29018 -14.20758,2.31808 -3.88839,-0.9721 -2.69196,-1.19643 -5.08482,-0.44866 z"
           id="path11"
           transform="translate(49.598724,-28.650105)" />
        <path
           style="fill:#f1fff2;fill-opacity:1;stroke:none;stroke-width:0.264583px;stroke-linecap:butt;stroke-linejoin:miter;stroke-opacity:1"
           d="m 180.9384,175.9465 c 0,0 -7.55245,4.33705 -1.79465,5.23437 5.75781,0.89732 2.39286,3.43973 5.98214,2.76674 3.58928,-0.67299 7.77166,-8.39033 2.09375,-8.6741 -5.47153,-0.27345 -6.28124,0.67299 -6.28124,0.67299 z"
           id="path13"
           sodipodi:nodetypes="csssc"
           transform="translate(49.598724,-28.650105)" />
        <path
           style="fill:#e9ffeb;fill-opacity:1;stroke:none;stroke-width:0.264583px;stroke-linecap:butt;stroke-linejoin:miter;stroke-opacity:1"
           d="m 182.16799,164.75564 c 0,0 4.26227,4.4866 8.30021,3.96317 4.03795,-0.52344 4.86049,0.44866 3.43973,-2.46763 -1.42075,-2.9163 -8.89843,-4.56138 -10.39396,-3.36496 -1.49553,1.19643 -1.49553,1.12165 -1.34598,1.86942 z"
           id="path25"
           transform="translate(49.598724,-28.650105)" />
        <path
           style="fill:#e9ffeb;fill-opacity:1;stroke:none;stroke-width:0.264583px;stroke-linecap:butt;stroke-linejoin:miter;stroke-opacity:1"
           d="m 197.56008,179.76322 c 0,0 -3.81362,0.74777 -2.54241,2.2433 1.2712,1.49553 1.86942,2.61719 3.58928,1.57031 1.71987,-1.04687 0.89732,-3.5145 -1.04687,-3.81361 z"
           id="path26"
           transform="translate(49.598724,-28.650105)" />
        <path
           style="fill:#e9ffeb;fill-opacity:1;stroke:none;stroke-width:0.264583px;stroke-linecap:butt;stroke-linejoin:miter;stroke-opacity:1"
           d="m 189.55676,148.47311 c 0,0 -2.23798,4.74567 0.30442,4.22223 2.54241,-0.52344 4.26228,0.89732 4.78571,-1.57031 0.52344,-2.46763 1.06568,-3.86205 -2.31808,-3.58928 -1.15741,0.0933 -1.44343,-0.0616 -2.77205,0.93736 z"
           id="path27"
           sodipodi:nodetypes="csssc"
           transform="translate(49.598724,-28.650105)" />
      </g>
    </g>
    <g
       id="g3"
       inkscape:label="TreeCircle"
       transform="translate(-56.047461,3.4680332)">
      <circle
         style="fill:#fbfffb;fill-opacity:1;stroke-width:0.275934;stroke-linejoin:round"
         id="path3-2"
         cx="198.81046"
         cy="221.45523"
         r="32.021767" />
      <circle
         style="fill:#daffe1;fill-opacity:1;stroke-width:0.264999;stroke-linejoin:round"
         id="path3"
         cx="198.81046"
         cy="222.72423"
         r="30.752766" />
      <path
         style="fill:#ca821e;fill-opacity:1;stroke:none;stroke-width:0.262109px;stroke-linecap:butt;stroke-linejoin:miter;stroke-opacity:1"
         d="m 197.76359,274.86777 v -59.0516 c 0,-1.35559 2.4005,-1.5274 2.4005,0 v 59.07808 c 0,1.33228 -2.402,1.36799 -2.4005,-0.0265 z"
         id="path2-2-0-5"
         sodipodi:nodetypes="ccsccc" />
    </g>
    <g
       id="g5"
       inkscape:label="TreeShape1"
       transform="matrix(0.72115031,0,0,0.78471015,102.86216,38.019794)">
      <path
         style="fill:#e9feed;fill-opacity:1;stroke:none;stroke-width:0.246312px;stroke-linecap:butt;stroke-linejoin:miter;stroke-opacity:1"
         d="m 288.22072,152.79069 c -4.52311,-1.14544 -20.57143,-7.94786 -21.71952,-25.13042 -0.82997,-12.42119 12.98908,-16.9279 6.74192,-44.843225 -1.97903,-8.843143 20.96758,-24.645499 31.54555,-15.408868 13.60625,11.88089 9.86953,15.328043 17.24273,19.032724 10.16766,5.108748 0.44655,26.555589 5.30341,34.443579 5.93748,9.64306 -0.53528,27.27791 -21.34748,31.90621 -10.19033,2.26615 -17.76661,0 -17.76661,0 z m -3.77124,0.95729 c -4.52313,-1.14543 -20.57145,-7.94785 -21.71954,-25.13041 -0.82996,-12.42119 12.9891,-16.92789 6.74192,-44.843222 -1.97901,-8.843144 20.96759,-24.645501 31.54556,-15.40887 13.60624,11.88089 9.86952,15.328044 17.24272,19.032723 10.16767,5.108747 0.44655,26.555579 5.30342,34.443579 5.93749,9.64305 -0.53527,27.27793 -21.34749,31.9062 -10.19032,2.26616 -17.76659,0 -17.76659,0 z"
         id="path5-3"
         sodipodi:nodetypes="cssssssc" />
      <path
         style="fill:#c3e3c8;fill-opacity:1;stroke:none;stroke-width:0.22742px;stroke-linecap:butt;stroke-linejoin:miter;stroke-opacity:1"
         d="m 288.76264,152.37347 c -4.17618,-1.05757 -18.99355,-7.33822 -20.05359,-23.20283 -0.7663,-11.46846 11.99279,-15.62949 6.22479,-41.40362 -1.82722,-8.164847 19.35932,-22.755116 29.12594,-14.226963 12.56259,10.969591 9.11248,14.152338 15.92015,17.572858 9.38777,4.716893 0.41229,24.518675 4.89662,31.801655 5.48206,8.9034 -0.49421,25.18562 -19.71007,29.4589 -9.40869,2.09233 -16.40384,0 -16.40384,0 z m -3.48199,0.88387 c -4.17618,-1.05757 -18.99355,-7.33822 -20.05359,-23.20283 -0.7663,-11.46845 11.9928,-15.62948 6.2248,-41.403616 -1.82723,-8.164847 19.35932,-22.755117 29.12593,-14.226963 12.56259,10.969591 9.11249,14.152338 15.92015,17.572858 9.38778,4.716893 0.41229,24.518681 4.89662,31.801661 5.48206,8.9034 -0.4942,25.18562 -19.71007,29.45889 -9.40869,2.09233 -16.40384,0 -16.40384,0 z"
         id="path5"
         sodipodi:nodetypes="cssssssc" />
      <path
         style="display:inline;fill:#ca821e;fill-opacity:1;stroke:none;stroke-width:0.349111px;stroke-linecap:butt;stroke-linejoin:miter;stroke-opacity:1"
         d="M 294.99924,169.32421 V 90.671539 c 0,-1.805552 3.1973,-2.034391 3.1973,0 v 78.687941 c 0,1.7745 -3.1993,1.82206 -3.1973,-0.0353 z"
         id="path2-2-0-5-14"
         sodipodi:nodetypes="ccsccc" />
    </g>
    <g
       id="Bush"
       transform="translate(179.34387,-1.1124685)"
       inkscape:label="Bush">
      <path
         style="fill:#ffffff;fill-opacity:1;stroke:none;stroke-width:0.296273px;stroke-linecap:butt;stroke-linejoin:miter;stroke-opacity:1"
         d="m 5.0270889,275.49672 67.2470901,-0.51955 c 0,0 -9.113041,-38.07224 -21.13198,-14.98747 0,0 -11.445814,-28.48163 -24.641943,-0.98528 0,0 -16.262859,-22.3482 -21.4731671,16.4923 z"
         id="path6-7"
         sodipodi:nodetypes="ccccc" />
      <path
         style="fill:#ddfee6;fill-opacity:1;stroke:none;stroke-width:0.264583px;stroke-linecap:butt;stroke-linejoin:miter;stroke-opacity:1"
         d="M 7.1910164,274.10463 H 69.795159 c 0,0 -8.015007,-32.21625 -18.74839,-11.60065 0,0 -12.706881,-25.30307 -24.491541,-0.74776 0,0 -14.711201,-22.33767 -19.3642116,12.34841 z"
         id="path6"
         sodipodi:nodetypes="ccccc" />
    </g>
  </g>
</svg>
