<?xml version="1.0" encoding="UTF-8" standalone="no"?>
<!-- Created with Inkscape (http://www.inkscape.org/) -->

<svg
   width="1920"
   height="1080"
   viewBox="0 0 508 285.74999"
   version="1.1"
   id="svg1"
   inkscape:version="1.3 (0e150ed6c4, 2023-07-21)"
   sodipodi:docname="autumn.svg"
   xml:space="preserve"
   inkscape:export-filename="seasons\res\autumn\sun.svg"
   inkscape:export-xdpi="96"
   inkscape:export-ydpi="96"
   xmlns:inkscape="http://www.inkscape.org/namespaces/inkscape"
   xmlns:sodipodi="http://sodipodi.sourceforge.net/DTD/sodipodi-0.dtd"
   xmlns:xlink="http://www.w3.org/1999/xlink"
   xmlns="http://www.w3.org/2000/svg"
   xmlns:svg="http://www.w3.org/2000/svg"><sodipodi:namedview
     id="namedview1"
     pagecolor="#ffffff"
     bordercolor="#666666"
     borderopacity="1.0"
     inkscape:showpageshadow="2"
     inkscape:pageopacity="0.0"
     inkscape:pagecheckerboard="0"
     inkscape:deskcolor="#d1d1d1"
     inkscape:document-units="mm"
     inkscape:zoom="0.62549108"
     inkscape:cx="849.73234"
     inkscape:cy="517.19363"
     inkscape:window-width="1920"
     inkscape:window-height="1017"
     inkscape:window-x="1912"
     inkscape:window-y="-8"
     inkscape:window-maximized="1"
     inkscape:current-layer="layer1" /><defs
     id="defs1"><linearGradient
       id="linearGradient13"
       inkscape:collect="always"><stop
         style="stop-color:#f5ffbb;stop-opacity:1;"
         offset="0.70614034"
         id="stop13" /><stop
         style="stop-color:#f5ffbb;stop-opacity:0;"
         offset="1"
         id="stop14" /></linearGradient><linearGradient
       id="linearGradient7"
       inkscape:collect="always"><stop
         style="stop-color:#1de1ff;stop-opacity:1;"
         offset="0"
         id="stop7" /><stop
         style="stop-color:#25fff9;stop-opacity:1;"
         offset="1"
         id="stop8" /></linearGradient><linearGradient
       inkscape:collect="always"
       xlink:href="#linearGradient7"
       id="linearGradient8"
       x1="257.01828"
       y1="183.48576"
       x2="260.65884"
       y2="-28.649452"
       gradientUnits="userSpaceOnUse" /><radialGradient
       inkscape:collect="always"
       xlink:href="#linearGradient13"
       id="radialGradient14"
       cx="371.93127"
       cy="29.161049"
       fx="371.93127"
       fy="29.161049"
       r="20.975492"
       gradientUnits="userSpaceOnUse"
       gradientTransform="matrix(1.1620448,0,0,1.1620448,5.0863195,-20.686852)" /></defs><g
     inkscape:groupmode="layer"
     id="layer5"
     inkscape:label="Background"
     style="display:none"><rect
       style="display:inline;fill:url(#linearGradient8);stroke:none;stroke-width:0.141111;stroke-linejoin:round"
       id="rect7"
       width="607.26605"
       height="355.04855"
       x="-42.974178"
       y="-28.649452" /><path
       style="fill:#52e7f9;fill-opacity:0.545595;stroke:none;stroke-width:0.264583px;stroke-linecap:butt;stroke-linejoin:miter;stroke-opacity:1"
       d="M -18.544625,19.697176 125.20308,41.696436 -25.124975,60.995628 Z"
       id="path103" /><path
       style="fill:#52e7f9;fill-opacity:0.545595;stroke:none;stroke-width:0.264583px;stroke-linecap:butt;stroke-linejoin:miter;stroke-opacity:1"
       d="M 323.0354,0 205.78551,19.546516 405.23493,29.610068 299.90769,49.567449 530.44322,84.600192 533.00841,-36.378083 Z"
       id="path104" /><g
       inkscape:groupmode="layer"
       id="layer6"
       inkscape:label="Clouds"
       style="display:inline"><g
         id="g44"><ellipse
           style="fill:#ffffff;fill-opacity:1;stroke:none;stroke-width:0.148574;stroke-linejoin:round"
           id="path14"
           cx="47.416695"
           cy="41.695187"
           rx="16.976658"
           ry="8.4413567" /><ellipse
           style="fill:#ffffff;fill-opacity:1;stroke:none;stroke-width:0.141322;stroke-linejoin:round"
           id="path15"
           cx="66.52578"
           cy="41.695187"
           rx="17.446394"
           ry="8.4413567" /><ellipse
           style="fill:#ffffff;fill-opacity:1;stroke:none;stroke-width:0.204329;stroke-linejoin:round"
           id="path16"
           cx="55.932457"
           cy="34.326656"
           rx="14.324512"
           ry="10.133109" /><ellipse
           style="fill:#ffffff;fill-opacity:1;stroke:none;stroke-width:0.247852;stroke-linejoin:round"
           id="path17"
           cx="71.865227"
           cy="32.537342"
           rx="5.3915324"
           ry="5.1668825" /></g><g
         id="g45"><ellipse
           style="fill:#ffffff;fill-opacity:1;stroke:none;stroke-width:0.141111;stroke-linejoin:round"
           id="path18"
           cx="138.12817"
           cy="34.297596"
           rx="22.254486"
           ry="10.10405" /><ellipse
           style="fill:#ffffff;fill-opacity:1;stroke:none;stroke-width:0.130635;stroke-linejoin:round"
           id="path19"
           cx="163.03178"
           cy="32.798069"
           rx="13.971651"
           ry="11.603577" /><ellipse
           style="fill:#ffffff;fill-opacity:1;stroke:none;stroke-width:0.141111;stroke-linejoin:round"
           id="path20"
           cx="154.75819"
           cy="40.745354"
           rx="16.11532"
           ry="12.150436" /><ellipse
           style="fill:#ffffff;fill-opacity:1;stroke:none;stroke-width:0.141111;stroke-linejoin:round"
           id="path29"
           cx="172.48151"
           cy="40.745354"
           rx="9.7673578"
           ry="9.8018713" /><ellipse
           style="fill:#ffffff;fill-opacity:1;stroke:none;stroke-width:0.141111;stroke-linejoin:round"
           id="path30"
           cx="177.00343"
           cy="32.798069"
           rx="10.998507"
           ry="10.958177" /></g><g
         id="g46"><ellipse
           style="fill:#ffffff;fill-opacity:1;stroke:none;stroke-width:0.208706;stroke-linejoin:round"
           id="path21"
           cx="228.42822"
           cy="54.41153"
           rx="13.429431"
           ry="7.9665527" /><ellipse
           style="fill:#ffffff;fill-opacity:1;stroke:none;stroke-width:0.170041;stroke-linejoin:round"
           id="path22"
           cx="241.98555"
           cy="62.122284"
           rx="13.55733"
           ry="10.396642" /><ellipse
           style="fill:#ffffff;fill-opacity:1;stroke:none;stroke-width:0.141111;stroke-linejoin:round"
           id="path23"
           cx="244.41563"
           cy="50.547226"
           rx="10.487745"
           ry="7.6555624" /><circle
           style="fill:#ffffff;fill-opacity:1;stroke:none;stroke-width:0.141111;stroke-linejoin:round"
           id="path24"
           cx="261.97989"
           cy="55.758026"
           r="12.001781" /></g><g
         id="g47"><ellipse
           style="fill:#ffffff;fill-opacity:1;stroke:none;stroke-width:0.141111;stroke-linejoin:round"
           id="path42"
           cx="323.1105"
           cy="43.120033"
           rx="14.873103"
           ry="7.0165067" /><ellipse
           style="fill:#ffffff;fill-opacity:1;stroke:none;stroke-width:0.141111;stroke-linejoin:round"
           id="path43"
           cx="351.86707"
           cy="38.884285"
           rx="15.459835"
           ry="13.122208" /><ellipse
           style="fill:#ffffff;fill-opacity:1;stroke:none;stroke-width:0.0878918;stroke-linejoin:round"
           id="path44"
           cx="337.98361"
           cy="45.462124"
           rx="8.4212055"
           ry="8.353138" /></g><g
         id="g48"><ellipse
           style="fill:#ffffff;fill-opacity:1;stroke:none;stroke-width:0.157741;stroke-linejoin:round"
           id="path39"
           cx="329.24991"
           cy="85.963875"
           rx="3.2883656"
           ry="2.5735037" /><ellipse
           style="fill:#ffffff;fill-opacity:1;stroke:none;stroke-width:0.141111;stroke-linejoin:round"
           id="path40"
           cx="333.72134"
           cy="85.180962"
           rx="2.6858861"
           ry="1.7905914" /><ellipse
           style="fill:#ffffff;fill-opacity:1;stroke:none;stroke-width:0.141111;stroke-linejoin:round"
           id="path41"
           cx="332.53827"
           cy="88.521858"
           rx="4.4764805"
           ry="2.5579863" /></g><g
         id="g49"><ellipse
           style="fill:#ffffff;fill-opacity:1;stroke:none;stroke-width:0.156713;stroke-linejoin:round"
           id="path31"
           cx="401.93332"
           cy="49.757137"
           rx="8.1119719"
           ry="6.0008907" /><ellipse
           style="fill:#ffffff;fill-opacity:1;stroke:none;stroke-width:0.141111;stroke-linejoin:round"
           id="path32"
           cx="412.4137"
           cy="54.41153"
           rx="6.1318321"
           ry="6.0008907" /><ellipse
           style="fill:#ffffff;fill-opacity:1;stroke:none;stroke-width:0.199561;stroke-linejoin:round"
           id="path33"
           cx="412.4137"
           cy="48.410641"
           rx="6.1318188"
           ry="3.5958531" /></g><g
         id="g50"><ellipse
           style="fill:#ffffff;fill-opacity:1;stroke:none;stroke-width:0.141111;stroke-linejoin:round"
           id="path34"
           cx="459.34546"
           cy="46.444977"
           rx="9.3366518"
           ry="10.341449" /><ellipse
           style="fill:#ffffff;fill-opacity:1;stroke:none;stroke-width:0.0874711;stroke-linejoin:round"
           id="path35"
           cx="454.91855"
           cy="50.136539"
           rx="7.0560732"
           ry="6.1389027" /><ellipse
           style="fill:#ffffff;fill-opacity:1;stroke:none;stroke-width:0.141111;stroke-linejoin:round"
           id="path36"
           cx="448.06082"
           cy="48.410637"
           rx="5.243876"
           ry="4.6043768" /><ellipse
           style="fill:#ffffff;fill-opacity:1;stroke:none;stroke-width:0.24392;stroke-linejoin:round"
           id="path37"
           cx="470.20721"
           cy="50.136539"
           rx="7.7379074"
           ry="6.7404032" /><ellipse
           style="fill:#ffffff;fill-opacity:1;stroke:none;stroke-width:0.141111;stroke-linejoin:round"
           id="path38"
           cx="469.39056"
           cy="45.973652"
           rx="3.2614305"
           ry="2.5759444" /></g></g></g><circle
     style="display:none;fill:url(#radialGradient14);stroke:none;stroke-width:0.163977;stroke-linejoin:round"
     id="path12"
     cx="437.28708"
     cy="13.199592"
     r="24.374462" /><g
     inkscape:groupmode="layer"
     id="layer7-1"
     inkscape:label="Mountains"
     style="display:inline"
     transform="translate(0.24524095,-37.08925)"><path
       style="fill:#c6c6c6;fill-opacity:1;stroke:none;stroke-width:0.264583px;stroke-linecap:butt;stroke-linejoin:miter;stroke-opacity:1"
       d="m 126.27435,214.35929 89.65744,-84.92516 7.47989,-7.67397 7.23508,-9.9613 7.0542,-14.47016 4.88368,4.16017 12.34836,-14.83191 22.56089,19.89647 27.13156,15.20673 24.36934,11.2013 71.6429,60.42234 v 92.08751 l -274.36334,-3.58116 z"
       id="path8-30" /><path
       style="fill:#b0abab;fill-opacity:1;stroke:none;stroke-width:0.264583px;stroke-linecap:butt;stroke-linejoin:miter;stroke-opacity:1"
       d="m 285.66283,200.67247 49.11333,-78.78599 10.51796,-14.91587 5.06457,-7.777715 3.61752,-10.85262 6.87334,-13.204015 1.44701,-4.34104 2.71314,-9.04385 2.5323,3.07491 1.08524,4.52192 2.53228,3.97929 2.5323,-2.71315 2.17051,-1.44702 1.80877,0.18088 0.54263,2.17052 2.35141,4.341045 6.87332,6.69245 4.88368,11.757 4.88367,9.043855 4.34105,16.4598 11.93789,40.8786 23.33313,37.622 2.17051,117.20829 -163.51279,-10.12912 z"
       id="path9-1" /><path
       style="fill:#acacac;fill-opacity:1;stroke:none;stroke-width:0.264583px;stroke-linecap:butt;stroke-linejoin:miter;stroke-opacity:1"
       d="m 163.27837,212.76948 51.9498,-63.87314 22.07537,-13.11303 1.269,7.09169 -1.269,8.55935 12.69003,-8.55935 2.96101,-10.8987 13.53603,7.19102 15.65103,3.70768 8.91807,-6.66869 46.49507,17.78409 34.68608,32.07373 -7.19103,99.68587 H 164.12437 Z m 147.1706,2.19168"
       id="path6-6" /><path
       style="fill:#8c8888;fill-opacity:1;stroke:none;stroke-width:0.264583px;stroke-linecap:butt;stroke-linejoin:miter;stroke-opacity:1"
       d="m 394.22976,133.84001 20.98172,-26.76978 7.9586,-7.235086 2.17052,-15.19366 2.89405,-4.702805 3.97928,1.808775 3.97931,-5.064565 12.29962,-6.69244 5.42629,-9.58648 5.42631,-3.617543 0.72353,7.235083 2.53227,11.21437 0.36174,5.426315 6.51158,-0.723515 6.14982,-2.17052 3.25578,1.08526 2.17053,2.170525 4.34105,-1.808775 2.17051,7.235085 5.42631,9.02604 8.32035,3.63534 4.70279,7.235086 5.78807,18.8112 3.25578,17.36419 -0.36174,122.66514 H 332.7316 l 3.61754,-81.78694 18.08768,-23.87577 7.23509,-2.17052 11.21436,-3.25579 9.00261,-11.20965 z"
       id="path10-67" /><path
       style="fill:#c2c2c2;fill-opacity:1;stroke:none;stroke-width:0.264583px;stroke-linecap:butt;stroke-linejoin:miter;stroke-opacity:1"
       d="m 196.06969,150.40961 -53.71772,-50.64814 -7.67396,-1.02319 -2.55799,-5.11598 -6.13916,-8.69715 -1.0232,-6.13917 -7.16236,8.69716 -9.72035,-3.06959 -8.697162,-7.67396 -9.20875,3.58118 -2.55798,6.65077 -11.255146,6.65076 -0.511598,4.60438 -6.139167,1.53479 -6.650765,-9.72035 -2.04639,-10.74354 -10.231946,17.39431 -10.231948,5.11597 -7.162363,11.60944 -13.813129,10.38925 -7.673959,30.18424 -19.4406989,49.62495 V 312.58597 H 224.71914 l -2.55798,-113.57462 z"
       id="path11-4"
       inkscape:label="path11" /><path
       id="path11-3-1"
       style="fill:#f2eeee;fill-opacity:1;stroke:none;stroke-width:0.264583px;stroke-linecap:butt;stroke-linejoin:miter;stroke-opacity:1"
       inkscape:label="path11"
       d="m 99.378003,76.739298 -9.20874,3.581177 -2.557983,6.650757 -11.255127,6.650758 -0.511597,4.60437 -6.13916,1.53479 -6.650757,-9.720338 -2.046387,-10.743531 -10.231932,17.394289 -10.23194,5.11597 -7.16235,11.60963 -13.81311,10.38903 -7.67395,30.1842 17.71675,-25.37468 11.96413,-9.2723 10.46861,-14.20585 9.272301,6.42906 5.683374,-4.78575 14.357263,12.86175 -4.487065,11.06702 -9.272302,9.57151 30.808455,-5.08496 12.610084,-16.75712 17.59944,-13.30151 16.45068,9.7193 8.2305,-4.77593 -10.94507,-10.31979 -7.67395,-1.0232 -2.55798,-5.11596 -6.13916,-8.697145 -1.02319,-6.13916 -7.16236,8.697143 -9.72033,-3.06958 z" /><path
       style="fill:#d7cbcb;fill-opacity:1;stroke:none;stroke-width:0.264583px;stroke-linecap:butt;stroke-linejoin:miter;stroke-opacity:1"
       d="m 52.182928,212.85168 12.278336,-59.62397 15.347921,-12.94724 9.208752,-12.37683 7.67396,-22.76608 5.115973,11.25514 9.20876,2.04639 8.69715,-2.55799 10.74355,-2.04639 3.58118,9.20875 6.65076,7.67396 19.61742,12.9765 7.49724,24.37011 9.20876,34.27702 24.55667,95.92019 H 25.579867 Z"
       id="path13-1" /><path
       id="path8-3-9"
       style="fill:#e7e0e0;fill-opacity:1;stroke:none;stroke-width:0.264583px;stroke-linecap:butt;stroke-linejoin:miter;stroke-opacity:1"
       d="m 254.93272,86.656698 -12.34808,14.832172 -4.88394,-4.159955 -7.05384,14.469915 -7.23521,9.96115 -7.47965,7.67395 -0.70383,0.66663 14.24977,-1.7198 6.55671,-6.34483 10.78642,-0.21187 12.47831,-4.65295 0.84594,5.49889 7.19129,3.17293 -0.63458,-3.59564 5.07617,0.21136 9.30589,6.97941 -0.21135,-6.55618 1.0573,-6.34535 7.19129,2.53834 1.93838,-4.91804 -13.56609,-7.60367 z" /><path
       style="fill:#7c7c7c;fill-opacity:1;stroke:none;stroke-width:0.264583px;stroke-linecap:butt;stroke-linejoin:miter;stroke-opacity:1"
       d="m 56.470629,121.61278 -15.439536,12.26703 -10.998025,15.86253 -4.453201,14.17053 -9.29433,6.34502 10.786523,-4.01851 4.653013,-10.78652 4.018508,-1.46246 h -3.172508 l 1.692005,-4.67106 5.922013,-9.09452 12.47853,-6.13351 v -5.07601 l 14.593533,-6.34502 z"
       id="path5-0" /><path
       id="path9-2-7"
       style="fill:#c6c5c5;fill-opacity:1;stroke:none;stroke-width:0.264583px;stroke-linecap:butt;stroke-linejoin:miter;stroke-opacity:1"
       d="m 365.00951,61.751453 -2.71301,9.043892 -1.44746,4.341337 -6.87296,13.203845 -3.61787,10.852568 -1.48518,2.280475 12.29847,-7.852745 6.28127,-8.524544 2.84117,6.57996 4.63641,7.029028 -2.68976,5.533511 5.98,-4.785753 1.19631,-6.729822 6.13141,3.290239 0.74776,6.430616 6.72982,1.94458 2.99155,7.17837 1.30741,-7.76231 -0.11937,-0.45166 -4.88342,-9.043885 -4.88394,-11.756905 -6.87349,-6.692098 -2.35127,-4.341337 -0.54261,-2.17041 -1.80867,-0.180868 -2.17041,1.44694 -2.53215,2.713013 -2.53266,-3.979085 -1.0852,-4.521688 z" /><path
       id="path10-6-4"
       style="fill:#a7a2a2;fill-opacity:1;stroke:none;stroke-width:0.264583px;stroke-linecap:butt;stroke-linejoin:miter;stroke-opacity:1"
       d="m 459.34557,56.78611 -5.42655,3.617867 -5.42602,9.586495 -12.30003,6.692098 -3.97908,5.064807 -3.97909,-1.808675 -2.89439,4.702555 -2.17041,15.193905 -3.97909,3.617348 2.84892,8.11423 8.076,-6.58047 13.16043,-9.8702 4.78576,8.67389 6.58047,1.19631 v 10.76781 l -12.56254,14.34642 1.19631,9.28315 3.58945,-7.4073 7.47758,-9.04338 11.66492,-8.07599 3.58944,-13.16095 20.93774,9.87071 1.19631,5.98207 20.06803,7.60884 -5.78828,-18.81126 -4.70255,-7.234698 -8.32043,-3.635437 -5.42602,-9.026323 -2.17093,-7.2347 -4.34082,1.808675 -2.17041,-2.17041 -3.25613,-1.085205 -6.1495,2.17041 -6.51174,0.72347 -0.36174,-5.426542 -2.53214,-11.214303 z" /></g><g
     inkscape:groupmode="layer"
     id="layer10"
     inkscape:label="BackgroundTrees"
     style="display:none"><path
       style="fill:#eeff31;fill-opacity:1;stroke:none;stroke-width:0.264583px;stroke-linecap:butt;stroke-linejoin:miter;stroke-opacity:1"
       d="m 82.841321,133.16864 22.115449,-43.440252 3.87501,43.440252 19.48506,-32.96785 12.26338,40.97764 z"
       id="path96" /><path
       style="fill:#eb8a23;fill-opacity:1;stroke:none;stroke-width:0.264583px;stroke-linecap:butt;stroke-linejoin:miter;stroke-opacity:1"
       d="m 174.3793,157.57353 19.14283,-37.78673 8.29247,51.9871 9.65394,-45.55081 18.69231,58.3387 -48.29121,-1.2963 z"
       id="path97" /><path
       style="fill:#c4c90c;fill-opacity:1;stroke:none;stroke-width:0.264583px;stroke-linecap:butt;stroke-linejoin:miter;stroke-opacity:1"
       d="m 267.39572,168.09805 20.64417,-45.76335 5.68303,12.31438 13.23071,-29.54649 9.66517,25.00889 8.80946,-10.32468 17.9464,44.82335 z"
       id="path98" /><path
       style="fill:#c7c900;fill-opacity:1;stroke:none;stroke-width:0.264583px;stroke-linecap:butt;stroke-linejoin:miter;stroke-opacity:1"
       d="m 201.8146,171.7739 21.31911,-43.45706 9.27231,16.15177 5.68303,-13.75892 11.05892,43.66961 z"
       id="path99" /><path
       style="fill:#09c529;fill-opacity:1;stroke:none;stroke-width:0.264583px;stroke-linecap:butt;stroke-linejoin:miter;stroke-opacity:1"
       d="m 242.47626,176.3668 15.95206,-43.19816 9.57652,44.20172 z"
       id="path100" /><path
       style="fill:#0cc92d;fill-opacity:1;stroke:none;stroke-width:0.264583px;stroke-linecap:butt;stroke-linejoin:miter;stroke-opacity:1"
       d="m 136.69183,151.04896 23.8601,-44.44429 0.96577,45.42637 19.54728,-26.42739 -3.80705,39.64815 z"
       id="path101" /><path
       style="fill:#01aa1e;fill-opacity:1;stroke:none;stroke-width:0.264583px;stroke-linecap:butt;stroke-linejoin:miter;stroke-opacity:1"
       d="m 42.016587,128.03516 18.18904,-39.281621 7.296767,44.415101 z"
       id="path102" /><path
       style="fill:#c1e422;fill-opacity:1;stroke:none;stroke-width:0.264583px;stroke-linecap:butt;stroke-linejoin:miter;stroke-opacity:1"
       d="m 128.16929,124.15078 16.07404,-21.99605 1.0575,13.29868 9.45736,-8.84874 0.63674,19.96317 13.59396,-6.78104 2.30245,19.03054 z"
       id="path105" /><path
       style="fill:#e2aa11;fill-opacity:1;stroke:none;stroke-width:0.264583px;stroke-linecap:butt;stroke-linejoin:miter;stroke-opacity:1"
       d="m 59.008634,116.90115 8.834638,-13.70924 4.537192,6.47293 8.518471,-13.64362 3.595508,23.76558 z"
       id="path106" /><path
       style="fill:#a7e71b;fill-opacity:1;stroke:none;stroke-width:0.264583px;stroke-linecap:butt;stroke-linejoin:miter;stroke-opacity:1"
       d="m 101.41448,119.93767 10.29629,-22.435948 3.66274,11.344358 6.34502,-5.21084 1.37475,20.72704 z"
       id="path107" /><path
       style="fill:#11e225;fill-opacity:1;stroke:none;stroke-width:0.264583px;stroke-linecap:butt;stroke-linejoin:miter;stroke-opacity:1"
       d="m 189.49851,143.74366 11.98006,-14.72969 0.7915,30.66889 z"
       id="path108" /><path
       style="fill:#4ef95e;fill-opacity:1;stroke:none;stroke-width:0.264583px;stroke-linecap:butt;stroke-linejoin:miter;stroke-opacity:1"
       d="m 230.61299,160.05847 18.53498,-31.74163 14.06861,26.95266 4.78826,-18.66918 7.71599,18.66918 z"
       id="path109" /><path
       style="fill:#11e225;fill-opacity:1;stroke:none;stroke-width:0.264583px;stroke-linecap:butt;stroke-linejoin:miter;stroke-opacity:1"
       d="m 202.27007,159.68286 18.54462,-4.29042 4.66659,17.68416 z"
       id="path110" /><path
       style="fill:#3be211;fill-opacity:1;stroke:none;stroke-width:0.264583px;stroke-linecap:butt;stroke-linejoin:miter;stroke-opacity:1"
       d="m 320.04434,151.54731 14.95533,-28.61439 8.65568,14.05765 8.85632,-6.48576 8.36076,16.80531 z"
       id="path111" /><path
       style="fill:#08b516;fill-opacity:1;stroke:none;stroke-width:0.264583px;stroke-linecap:butt;stroke-linejoin:miter;stroke-opacity:1"
       d="m 347.26305,145.66504 11.96428,-17.3482 13.25877,20.65804 z"
       id="path112" /><path
       style="fill:#87ff69;fill-opacity:1;stroke:none;stroke-width:0.264583px;stroke-linecap:butt;stroke-linejoin:miter;stroke-opacity:1"
       d="m 403.49513,141.9262 c 0,-0.89732 -6.87945,-26.91962 -6.87945,-26.91962 l -4.03794,12.11383 -3.8884,-1.34598 -0.89731,5.38392 -6.72991,-7.26076 -4.63614,18.97741 z"
       id="path113" /><path
       style="fill:#f3a72b;fill-opacity:1;stroke:none;stroke-width:0.264583px;stroke-linecap:butt;stroke-linejoin:miter;stroke-opacity:1"
       d="m 363.67937,140.83143 5.71759,-16.93384 10.02009,22.81432 z"
       id="path114" /><path
       style="fill:#cf930d;fill-opacity:1;stroke:none;stroke-width:0.264583px;stroke-linecap:butt;stroke-linejoin:miter;stroke-opacity:1"
       d="m 412.76746,146.94545 c 3.04249,-3.93212 20.80852,-30.62019 20.80852,-30.62019 l 1.2513,22.28533 7.98965,-9.83176 3.25186,5.91483 6.33074,-14.13838 4.4415,18.05531 -40.81957,4.40274 z"
       id="path115" /><path
       style="fill:#cae52e;fill-opacity:1;stroke:none;stroke-width:0.264583px;stroke-linecap:butt;stroke-linejoin:miter;stroke-opacity:1"
       d="m 474.13277,134.73421 8.92479,-14.94741 9.87052,24.40085 z"
       id="path116" /><path
       style="fill:#48ec1f;fill-opacity:1;stroke:none;stroke-width:0.264583px;stroke-linecap:butt;stroke-linejoin:miter;stroke-opacity:1"
       d="m 456.84103,138.61059 v 0 l 5.20428,-9.83176 1.6451,3.7255 5.3839,-7.25334 4.87196,15.62834 z"
       id="path117" /></g><g
     inkscape:groupmode="layer"
     id="layer3"
     inkscape:label="Grass"
     style="display:none"><path
       style="display:inline;fill:#04dd40;fill-opacity:1;stroke:none;stroke-width:0.264583px;stroke-linecap:butt;stroke-linejoin:miter;stroke-opacity:1"
       d="m -34.343423,153.9904 c 0,0 159.095203,-21.44043 223.596693,26.84251 64.50149,48.28294 126.95654,59.05078 126.95654,59.05078 l 3.58928,124.42846 -363.713931,-5.38392 z"
       id="path88"
       transform="translate(0.24524095,-37.089249)" /><path
       style="fill:#a0ec18;fill-opacity:1;stroke:none;stroke-width:0.264583px;stroke-linecap:butt;stroke-linejoin:miter;stroke-opacity:1"
       d="m -43.6696,128.61595 c 0,0 156.49638,-38.939791 261.9326,46.73455 86.53918,70.31918 182.61993,73.03156 182.61993,73.03156 l 11.88453,132.08186 c 0,0 -451.651351,-20.93748 -449.258497,-24.52677 2.392855,-3.58928 -10.169633,-226.72299 -10.169633,-226.72299 z"
       id="path90"
       sodipodi:nodetypes="csccscc" /><path
       id="path90-5"
       style="fill:#f2e22d;fill-opacity:1;stroke:none;stroke-width:0.264583px;stroke-linecap:butt;stroke-linejoin:miter;stroke-opacity:1"
       d="m 47.7585,119.85515 c -6.564541,-0.12229 -12.91838,-0.0744 -19.01641,0.10025 32.49753,11.57647 70.434086,31.72245 80.08969,64.60639 17.68779,60.23905 92.98294,76.61031 92.98294,76.61031 l 12.06129,-4.41058 c 0,0 -87.10242,-31.25591 -93.77205,-72.19973 -4.84535,-29.74478 -36.946621,-50.68122 -64.575424,-64.48406 -4.766474,-0.26344 -3.188383,-0.13723 -7.770036,-0.22258 z"
       sodipodi:nodetypes="scsccscs" /><path
       style="display:inline;fill:#23f45d;fill-opacity:1;stroke:none;stroke-width:0.264583px;stroke-linecap:butt;stroke-linejoin:miter;stroke-opacity:1"
       d="m 529.77211,173.48197 c 0,0 -232.20098,-13.64027 -328.20275,35.38118 -89.45483,45.67838 -230.528859,37.6009 -230.528859,37.6009 l -5.383924,95.7142 567.106593,-7.17857 z"
       id="path87"
       sodipodi:nodetypes="cscccc"
       transform="translate(0.24524095,-37.089249)" /><path
       style="fill:#26ff27;fill-opacity:1;stroke:none;stroke-width:0.264583px;stroke-linecap:butt;stroke-linejoin:miter;stroke-opacity:1"
       d="m 540.78518,151.54731 c 0,0 -268.2058,-13.0168 -322.52218,23.80319 -54.31639,36.81999 -257.146891,44.01956 -257.146891,44.01956 l -7.776779,124.0046 586.24943,-23.92855 z m -224.6977,25.16135"
       id="path91" /></g><g
     inkscape:groupmode="layer"
     id="layer9"
     inkscape:label="Lake"
     style="display:none"><path
       style="fill:#22a4d7;fill-opacity:1;stroke:none;stroke-width:0.264583px;stroke-linecap:butt;stroke-linejoin:miter;stroke-opacity:1"
       d="m 530.86227,182.01857 c 0,0 -429.89777,-11.17432 -281.40716,66.64218 101.96957,53.43715 0,110.26746 0,110.26746 l 276.37473,-7.77676 z"
       id="path89"
       sodipodi:nodetypes="csccc" /><path
       style="fill:#26e6ff;fill-opacity:1;stroke:none;stroke-width:0.264583px;stroke-linecap:butt;stroke-linejoin:miter;stroke-opacity:1"
       d="m 540.78518,192.62481 -207.80836,10.76785 207.41122,3.88689 z"
       id="path92" /><path
       style="fill:#26e6ff;fill-opacity:1;stroke:none;stroke-width:0.264583px;stroke-linecap:butt;stroke-linejoin:miter;stroke-opacity:1"
       d="m 540.9213,223.73192 -223.418,15.40253 234.64795,27.66887 z"
       id="path93" /><path
       id="path89-1"
       style="fill:#1ad4ff;fill-opacity:1;stroke:none;stroke-width:0.264583px;stroke-linecap:butt;stroke-linejoin:miter;stroke-opacity:1"
       d="m 271.40963,262.53967 c 17.02115,13.20989 23.27597,26.29997 23.29677,38.38732 l 148.54649,-1.8805 -85.77565,-25.67854 97.16513,-3.17242 z" /><path
       id="path89-5"
       style="fill:#18e4f2;fill-opacity:1;stroke:none;stroke-width:0.264583px;stroke-linecap:butt;stroke-linejoin:miter;stroke-opacity:1"
       d="m 241.58876,200.93713 c -14.17463,4.80389 -22.94283,10.73842 -23.41614,18.11724 l 98.44619,-4.44314 z" /><path
       style="fill:#65aaf2;fill-opacity:0.587326;stroke:none;stroke-width:0.264583px;stroke-linecap:butt;stroke-linejoin:miter;stroke-opacity:1"
       d="m 540.58661,199.95218 c 0,0 -302.3973,-21.4269 -291.1315,23.77974 10.94324,43.91226 80.87623,28.6951 73.5803,77.19507 -7.29594,48.49998 202.79443,50.22446 202.79443,50.22446 z"
       id="path95"
       sodipodi:nodetypes="csscc" /></g><g
     inkscape:groupmode="layer"
     id="layer1"
     inkscape:label="Trees"
     style="display:none"><g
       id="g2"
       inkscape:label="Tree"
       transform="matrix(1.4673974,0,0,1.4673974,-22.615337,-115.14804)"><path
         style="fill:#d74b00;fill-opacity:1;stroke:none;stroke-width:0.280841px;stroke-linecap:butt;stroke-linejoin:miter;stroke-opacity:1"
         d="m 75.301508,239.29428 c 0,0 -49.412598,5.84843 0,-72.51242 0,0 48.842382,72.76992 0,72.51242 z"
         id="path1-8"
         sodipodi:nodetypes="ccc" /><path
         style="fill:#f4a620;fill-opacity:1;stroke:none;stroke-width:0.264583px;stroke-linecap:butt;stroke-linejoin:miter;stroke-opacity:1"
         d="m 75.294172,238.99554 c 0,0 -46.552082,5.50986 0,-68.31465 0,0 46.014878,68.55725 0,68.31465 z"
         id="path1"
         sodipodi:nodetypes="ccc" /><path
         style="fill:#c7aa12;fill-opacity:1;stroke:none;stroke-width:0.0170622px;stroke-linecap:butt;stroke-linejoin:miter;stroke-opacity:1"
         d="m 81.395843,239.76738 c 0,0 3.061741,0.0367 0.0045,4.31954 0,0 -3.031311,-4.7155 -0.0045,-4.31954 z"
         id="path1-2-24-4"
         sodipodi:nodetypes="ccc" /><path
         style="fill:#da9d33;fill-opacity:1;stroke:none;stroke-width:0.0198916px;stroke-linecap:butt;stroke-linejoin:miter;stroke-opacity:1"
         d="m 66.055506,243.31163 c 0,0 -2.961607,-1.91032 3.271947,-3.95884 0,0 -0.616998,6.1768 -3.271947,3.95884 z"
         id="path1-2-9-9"
         sodipodi:nodetypes="ccc" /><path
         style="fill:#f4d620;fill-opacity:1;stroke:none;stroke-width:0.0179031px;stroke-linecap:butt;stroke-linejoin:miter;stroke-opacity:1"
         d="m 61.040409,255.55533 c 0,0 -3.524204,-0.0161 0.632456,-4.12878 0,0 2.79841,4.48853 -0.632456,4.12878 z"
         id="path1-2"
         sodipodi:nodetypes="ccc" /><path
         style="fill:#ca821e;fill-opacity:1;stroke:none;stroke-width:0.264583px;stroke-linecap:butt;stroke-linejoin:miter;stroke-opacity:1"
         d="m 74.171486,254.50765 v -71.98248 c 0,-1.65244 2.006616,-1.86185 2.006616,0 v 72.01475 c 0,1.62402 -2.007871,1.66755 -2.006616,-0.0323 z"
         id="path2"
         sodipodi:nodetypes="ccsccc" /><path
         style="fill:#efd133;fill-opacity:1;stroke:none;stroke-width:0.0291889px;stroke-linecap:butt;stroke-linejoin:miter;stroke-opacity:1"
         d="m 84.802516,266.69656 c 0,0 -3.422329,-3.87711 6.197225,-4.28871 0,0 -3.330476,8.47823 -6.197225,4.28871 z"
         id="path1-2-24"
         sodipodi:nodetypes="ccc"
         transform="matrix(0.68147866,0,0,0.68147866,15.411869,78.470931)" /><path
         style="fill:#cc8915;fill-opacity:1;stroke:none;stroke-width:0.0216677px;stroke-linecap:butt;stroke-linejoin:miter;stroke-opacity:1"
         d="m 100.77902,267.68979 c 0,0 -2.960777,3.01372 -3.257027,-3.88833 0,0 6.454857,1.23321 3.257027,3.88833 z"
         id="path1-2-3"
         sodipodi:nodetypes="ccc"
         transform="matrix(0.68147866,0,0,0.68147866,15.411869,78.470931)" /><path
         style="fill:#fcab1d;fill-opacity:1;stroke:none;stroke-width:0.0291889px;stroke-linecap:butt;stroke-linejoin:miter;stroke-opacity:1"
         d="m 106.79292,264.18231 c 0,0 -5.13564,0.60786 0,-7.53649 0,0 5.07638,7.56326 0,7.53649 z"
         id="path1-2-98"
         sodipodi:nodetypes="ccc"
         transform="matrix(0.68147866,0,0,0.68147866,15.411869,78.470931)" /><path
         style="fill:#f38e29;fill-opacity:1;stroke:none;stroke-width:0.0291889px;stroke-linecap:butt;stroke-linejoin:miter;stroke-opacity:1"
         d="m 76.350235,256.03133 c 0,0 4.815547,-1.88543 1.90374,7.29208 0,0 -6.822251,-6.03567 -1.90374,-7.29208 z"
         id="path1-2-47"
         sodipodi:nodetypes="ccc"
         transform="matrix(0.68147866,0,0,0.68147866,15.411869,78.470931)" /><path
         style="fill:#c99539;fill-opacity:1;stroke:none;stroke-width:0.024521px;stroke-linecap:butt;stroke-linejoin:miter;stroke-opacity:1"
         d="m 95.096914,274.85594 c 0,0 0.70812,5.10465 -5.310851,0.28975 0,0 5.053165,-5.35961 5.310851,-0.28975 z"
         id="path1-2-44"
         sodipodi:nodetypes="ccc"
         transform="matrix(0.68147866,0,0,0.68147866,15.411869,78.470931)" /><path
         style="fill:#dd8c00;fill-opacity:1;stroke:none;stroke-width:0.0291889px;stroke-linecap:butt;stroke-linejoin:miter;stroke-opacity:1"
         d="m 97.480323,257.37361 c 0,0 -3.94002,3.34971 -4.172842,-6.27584 0,0 8.414899,3.48742 4.172842,6.27584 z"
         id="path1-2-9"
         sodipodi:nodetypes="ccc"
         transform="matrix(0.68147866,0,0,0.68147866,15.411869,78.470931)" /><path
         style="fill:#825b16;fill-opacity:1;stroke:none;stroke-width:0.0184979px;stroke-linecap:butt;stroke-linejoin:miter;stroke-opacity:1"
         d="m 105.21017,250.26718 c 0,0 2.92535,0.71417 -1.93143,4.84216 0,0 -0.79933,-5.95133 1.93143,-4.84216 z"
         id="path1-2-4"
         sodipodi:nodetypes="ccc"
         transform="matrix(0.68147866,0,0,0.68147866,15.411869,78.470931)" /><path
         style="fill:#ca8c1e;fill-opacity:1;stroke:none;stroke-width:0.0241601px;stroke-linecap:butt;stroke-linejoin:miter;stroke-opacity:1"
         d="m 69.618557,268.19869 c 0,0 -4.495434,-3.43244 3.095396,-3.53519 0,0 1.090391,7.22242 -3.095396,3.53519 z"
         id="path1-2-1"
         sodipodi:nodetypes="ccc"
         inkscape:transform-center-x="0.074776714"
         inkscape:transform-center-y="0.44866029"
         transform="matrix(0.68147866,0,0,0.68147866,15.411869,78.470931)" /><path
         style="fill:#e8b04d;fill-opacity:1;stroke:none;stroke-width:0.0195709px;stroke-linecap:butt;stroke-linejoin:miter;stroke-opacity:1"
         d="m 80.273635,276.13971 c 0,0 -2.899606,1.79004 -2.798896,-4.27295 0,0 5.898121,2.8594 2.798896,4.27295 z"
         id="path1-2-2"
         sodipodi:nodetypes="ccc"
         transform="matrix(0.68147866,0,0,0.68147866,15.411869,78.470931)" /></g><g
       id="g4"
       inkscape:label="TreeTriangle"
       transform="translate(-49.598724,28.650105)"><path
         style="fill:#01710c;fill-opacity:1;stroke:none;stroke-width:0.690262px;stroke-linecap:butt;stroke-linejoin:miter;stroke-opacity:1"
         d="m 215.72267,185.77902 h 46.82464 l -22.43446,-79.04193 z"
         id="path4-0"
         sodipodi:nodetypes="cccc" /><path
         style="fill:#00820d;fill-opacity:1;stroke:none;stroke-width:0.623298px;stroke-linecap:butt;stroke-linejoin:miter;stroke-opacity:1"
         d="m 217.99394,184.56179 h 42.2821 l -20.25806,-71.37393 z"
         id="path4"
         sodipodi:nodetypes="cccc" /><path
         style="fill:#ca821e;fill-opacity:1;stroke:none;stroke-width:0.275699px;stroke-linecap:butt;stroke-linejoin:miter;stroke-opacity:1"
         d="m 238.72744,201.18018 v -65.3339 c 0,-1.49981 2.4005,-1.6899 2.4005,0 v 65.36319 c 0,1.47402 -2.402,1.51353 -2.4005,-0.0293 z"
         id="path2-2-0-5-1"
         sodipodi:nodetypes="ccsccc" /></g><g
       id="g3"
       inkscape:label="TreeCircle"
       transform="translate(-56.047461,3.4680332)"><circle
         style="fill:#95e21b;fill-opacity:1;stroke-width:0.275934;stroke-linejoin:round"
         id="path3-2"
         cx="198.81046"
         cy="221.45523"
         r="32.021767" /><circle
         style="fill:#a8f324;fill-opacity:1;stroke-width:0.264999;stroke-linejoin:round"
         id="path3"
         cx="198.81046"
         cy="222.72423"
         r="30.752766" /><path
         style="fill:#ca821e;fill-opacity:1;stroke:none;stroke-width:0.262109px;stroke-linecap:butt;stroke-linejoin:miter;stroke-opacity:1"
         d="m 197.76359,274.86777 v -59.0516 c 0,-1.35559 2.4005,-1.5274 2.4005,0 v 59.07808 c 0,1.33228 -2.402,1.36799 -2.4005,-0.0265 z"
         id="path2-2-0-5"
         sodipodi:nodetypes="ccsccc" /><ellipse
         style="fill:#f89c30;fill-opacity:1;stroke-width:0.264999;stroke-linejoin:round"
         id="path7"
         cx="120.76678"
         cy="272.41263"
         rx="2.7495065"
         ry="1.9035044"
         transform="translate(56.047461,-3.4680332)" /><ellipse
         style="fill:#f8d430;fill-opacity:1;stroke-width:0.264999;stroke-linejoin:round"
         id="path8"
         cx="130.81305"
         cy="275.16214"
         rx="2.2207551"
         ry="1.9035044"
         transform="translate(56.047461,-3.4680332)" /><ellipse
         style="fill:#e1f830;fill-opacity:1;stroke-width:0.264999;stroke-linejoin:round"
         id="path9"
         cx="135.46606"
         cy="269.24014"
         rx="2.4322555"
         ry="1.9035044"
         transform="translate(56.047461,-3.4680332)" /><ellipse
         style="fill:#d9b616;fill-opacity:1;stroke-width:0.264999;stroke-linejoin:round"
         id="path10"
         cx="126.16004"
         cy="280.23816"
         rx="1.7977542"
         ry="1.4805034"
         transform="translate(56.047461,-3.4680332)" /><ellipse
         style="fill:#f8eb30;fill-opacity:1;stroke-width:0.264999;stroke-linejoin:round"
         id="path11"
         cx="151.43434"
         cy="266.80786"
         rx="2.1150048"
         ry="1.5862536"
         transform="translate(56.047461,-3.4680332)" /><ellipse
         style="fill:#f8a930;fill-opacity:1;stroke-width:0.264999;stroke-linejoin:round"
         id="path13"
         cx="148.15608"
         cy="276.00812"
         rx="1.3747532"
         ry="2.3265052"
         transform="translate(56.047461,-3.4680332)" /><ellipse
         style="fill:#f8ab30;fill-opacity:1;stroke-width:0.264999;stroke-linejoin:round"
         id="path25"
         cx="156.82761"
         cy="273.89313"
         rx="1.3747532"
         ry="1.4805034"
         transform="translate(56.047461,-3.4680332)" /><ellipse
         style="fill:#c7ad33;fill-opacity:1;stroke-width:0.264999;stroke-linejoin:round"
         id="path26"
         cx="135.25456"
         cy="280.23816"
         rx="1.1632526"
         ry="1.9035044"
         transform="translate(56.047461,-3.4680332)" /><ellipse
         style="fill:#f8d430;fill-opacity:1;stroke-width:0.264999;stroke-linejoin:round"
         id="path27"
         cx="154.60686"
         cy="281.4014"
         rx="1.9035044"
         ry="1.1632526"
         transform="translate(56.047461,-3.4680332)" /><ellipse
         style="fill:#e6c429;fill-opacity:1;stroke-width:0.264999;stroke-linejoin:round"
         id="path28"
         cx="164.12437"
         cy="277.80588"
         rx="1.2690029"
         ry="1.1632526"
         transform="translate(56.047461,-3.4680332)" /><circle
         style="fill:#ddbe32;fill-opacity:1;stroke-width:0.264999;stroke-linejoin:round"
         id="path45"
         cx="142.44559"
         cy="283.09341"
         r="1.3747532"
         transform="translate(56.047461,-3.4680332)" /><circle
         style="fill:#dab612;fill-opacity:1;stroke-width:0.264999;stroke-linejoin:round"
         id="path46"
         cx="133.6683"
         cy="250.20508"
         r="3.1725073"
         transform="translate(56.047461,-3.4680332)" /><circle
         style="fill:#dbbc2b;fill-opacity:1;stroke-width:0.264999;stroke-linejoin:round"
         id="path47"
         cx="160.52887"
         cy="266.70212"
         r="2.7495065"
         transform="translate(56.047461,-3.4680332)" /><circle
         style="fill:#f89630;fill-opacity:1;stroke-width:0.264999;stroke-linejoin:round"
         id="path48"
         cx="168.88313"
         cy="273.78738"
         r="1.5862536"
         transform="translate(56.047461,-3.4680332)" /><circle
         style="fill:#debd23;fill-opacity:1;stroke-width:0.264999;stroke-linejoin:round"
         id="path49"
         cx="123.83353"
         cy="241.6393"
         r="2.6437562"
         transform="translate(56.047461,-3.4680332)" /><circle
         style="fill:#e6c73e;fill-opacity:1;stroke-width:0.264999;stroke-linejoin:round"
         id="path50"
         cx="128.90955"
         cy="260.46286"
         r="2.6437562"
         transform="translate(56.047461,-3.4680332)" /><circle
         style="fill:#f3dc76;fill-opacity:1;stroke-width:0.264999;stroke-linejoin:round"
         id="path51"
         cx="153.86661"
         cy="251.57983"
         r="1.3747532"
         transform="translate(56.047461,-3.4680332)" /><circle
         style="fill:#e3be17;fill-opacity:1;stroke-width:0.264999;stroke-linejoin:round"
         id="path52"
         cx="157.88512"
         cy="259.40536"
         r="1.1632526"
         transform="translate(56.047461,-3.4680332)" /></g><g
       id="g5"
       inkscape:label="TreeShape1"
       transform="matrix(0.72115031,0,0,0.78471015,102.86216,38.019794)"><path
         style="fill:#eeac35;fill-opacity:1;stroke:none;stroke-width:0.246312px;stroke-linecap:butt;stroke-linejoin:miter;stroke-opacity:1"
         d="m 288.22072,152.79069 c -4.52311,-1.14544 -20.57143,-7.94786 -21.71952,-25.13042 -0.82997,-12.42119 12.98908,-16.9279 6.74192,-44.843225 -1.97903,-8.843143 20.96758,-24.645499 31.54555,-15.408868 13.60625,11.88089 9.86953,15.328043 17.24273,19.032724 10.16766,5.108748 0.44655,26.555589 5.30341,34.443579 5.93748,9.64306 -0.53528,27.27791 -21.34748,31.90621 -10.19033,2.26615 -17.76661,0 -17.76661,0 z m -3.77124,0.95729 c -4.52313,-1.14543 -20.57145,-7.94785 -21.71954,-25.13041 -0.82996,-12.42119 12.9891,-16.92789 6.74192,-44.843222 -1.97901,-8.843144 20.96759,-24.645501 31.54556,-15.40887 13.60624,11.88089 9.86952,15.328044 17.24272,19.032723 10.16767,5.108747 0.44655,26.555579 5.30342,34.443579 5.93749,9.64305 -0.53527,27.27793 -21.34749,31.9062 -10.19032,2.26616 -17.76659,0 -17.76659,0 z"
         id="path5-3"
         sodipodi:nodetypes="cssssssc" /><path
         style="fill:#e9c70f;fill-opacity:1;stroke:none;stroke-width:0.22742px;stroke-linecap:butt;stroke-linejoin:miter;stroke-opacity:1"
         d="m 288.76264,152.37347 c -4.17618,-1.05757 -18.99355,-7.33822 -20.05359,-23.20283 -0.7663,-11.46846 11.99279,-15.62949 6.22479,-41.40362 -1.82722,-8.164847 19.35932,-22.755116 29.12594,-14.226963 12.56259,10.969591 9.11248,14.152338 15.92015,17.572858 9.38777,4.716893 0.41229,24.518675 4.89662,31.801655 5.48206,8.9034 -0.49421,25.18562 -19.71007,29.4589 -9.40869,2.09233 -16.40384,0 -16.40384,0 z m -3.48199,0.88387 c -4.17618,-1.05757 -18.99355,-7.33822 -20.05359,-23.20283 -0.7663,-11.46845 11.9928,-15.62948 6.2248,-41.403616 -1.82723,-8.164847 19.35932,-22.755117 29.12593,-14.226963 12.56259,10.969591 9.11249,14.152338 15.92015,17.572858 9.38778,4.716893 0.41229,24.518681 4.89662,31.801661 5.48206,8.9034 -0.4942,25.18562 -19.71007,29.45889 -9.40869,2.09233 -16.40384,0 -16.40384,0 z"
         id="path5"
         sodipodi:nodetypes="cssssssc" /><path
         style="display:inline;fill:#ca821e;fill-opacity:1;stroke:none;stroke-width:0.349111px;stroke-linecap:butt;stroke-linejoin:miter;stroke-opacity:1"
         d="M 294.99924,169.32421 V 90.671539 c 0,-1.805552 3.1973,-2.034391 3.1973,0 v 78.687941 c 0,1.7745 -3.1993,1.82206 -3.1973,-0.0353 z"
         id="path2-2-0-5-14"
         sodipodi:nodetypes="ccsccc" /></g><g
       id="g6"
       transform="translate(179.34387,-1.1124685)"><path
         style="fill:#07c430;fill-opacity:1;stroke:none;stroke-width:0.296273px;stroke-linecap:butt;stroke-linejoin:miter;stroke-opacity:1"
         d="m 5.0270889,275.49672 67.2470901,-0.51955 c 0,0 -9.113041,-38.07224 -21.13198,-14.98747 0,0 -11.445814,-28.48163 -24.641943,-0.98528 0,0 -16.262859,-22.3482 -21.4731671,16.4923 z"
         id="path6-7"
         sodipodi:nodetypes="ccccc" /><path
         style="fill:#2ff14c;fill-opacity:1;stroke:none;stroke-width:0.264583px;stroke-linecap:butt;stroke-linejoin:miter;stroke-opacity:1"
         d="M 7.1910164,274.10463 H 69.795159 c 0,0 -8.015007,-32.21625 -18.74839,-11.60065 0,0 -12.706881,-25.30307 -24.491541,-0.74776 0,0 -14.711201,-22.33767 -19.3642116,12.34841 z"
         id="path6"
         sodipodi:nodetypes="ccccc" /></g><path
       style="fill:#d09d42;fill-opacity:1;stroke:none;stroke-width:0.169572px;stroke-linecap:butt;stroke-linejoin:miter;stroke-opacity:1"
       d="m 308.00054,174.98119 c 0,0 -0.58716,1.78745 0.27457,1.65629 0.9891,-0.15054 1.25332,0.67365 2.34905,-0.22585 1.17467,-0.9643 -0.30508,-1.84451 -0.70168,-2.55973 -0.51395,-0.92682 -1.00675,0.33879 -1.00675,0.33879 z"
       id="path53"
       sodipodi:nodetypes="cssscc" /><path
       style="fill:#d24d08;fill-opacity:1;stroke:none;stroke-width:0.264583px;stroke-linecap:butt;stroke-linejoin:miter;stroke-opacity:1"
       d="m 315.29329,180.89304 c 0,0 1.09328,2.47875 2.00111,1.27854 1.04201,-1.3776 2.19178,-0.90011 2.60744,-3.14293 0.44563,-2.40441 -2.22766,-1.42469 -3.42735,-1.63093 -1.55464,-0.26726 -0.87354,1.58369 -0.87354,1.58369 z"
       id="path53-8"
       sodipodi:nodetypes="cssscc" /><path
       style="fill:#d2c508;fill-opacity:1;stroke:none;stroke-width:0.264583px;stroke-linecap:butt;stroke-linejoin:miter;stroke-opacity:1"
       d="m 325.21605,176.15789 c 0,0 -2.58972,0.79552 -1.50406,1.83765 1.24612,1.19613 0.63728,2.28209 2.816,2.95751 2.33569,0.72409 1.67574,-2.04552 2.02103,-3.21282 0.44745,-1.51264 -1.47052,-1.05296 -1.47052,-1.05296 z"
       id="path53-3"
       sodipodi:nodetypes="cssscc"
       inkscape:transform-center-x="0.44866029"
       inkscape:transform-center-y="0.37388357" /><path
       style="fill:#ca8c1e;fill-opacity:1;stroke:none;stroke-width:0.199237px;stroke-linecap:butt;stroke-linejoin:miter;stroke-opacity:1"
       d="m 304.0802,169.60036 c 0,0 -0.51638,1.73276 0.78557,1.27594 1.49437,-0.52434 2.0823,0.0592 3.57779,-1.13505 1.60325,-1.28029 -0.87376,-1.42121 -1.64229,-1.86021 -0.99593,-0.56888 -1.48054,0.68903 -1.48054,0.68903 z"
       id="path53-1"
       sodipodi:nodetypes="cssscc" /><path
       style="fill:#d24308;fill-opacity:1;stroke:none;stroke-width:0.165394px;stroke-linecap:butt;stroke-linejoin:miter;stroke-opacity:1"
       d="m 307.53814,184.08245 c 0,0 0.13385,-1.44772 -0.8921,-0.75139 -1.17756,0.79926 -1.77986,0.51732 -2.8405,1.82269 -1.13705,1.39942 0.99261,0.83729 1.72295,0.96133 0.9464,0.16075 1.13682,-0.91985 1.13682,-0.91985 z"
       id="path53-17"
       sodipodi:nodetypes="cssscc" /><path
       style="fill:#e8ae47;fill-opacity:1;stroke:none;stroke-width:0.251235px;stroke-linecap:butt;stroke-linejoin:miter;stroke-opacity:1"
       d="m 332.64962,177.44202 c 0,0 -0.96387,1.98658 0.45072,2.40354 1.62365,0.47858 2.05739,1.7623 3.85608,1.31266 1.92829,-0.48201 -0.50079,-2.67618 -1.15184,-3.90519 -0.84367,-1.59263 -1.65263,-0.23899 -1.65263,-0.23899 z"
       id="path53-9"
       sodipodi:nodetypes="cssscc" /><path
       style="fill:#ecc01e;fill-opacity:1;stroke:none;stroke-width:0.240167px;stroke-linecap:butt;stroke-linejoin:miter;stroke-opacity:1"
       d="m 326.96879,165.21161 c 0,0 -0.93642,-2.10676 -1.77675,-0.86271 -0.96451,1.4279 -1.99032,1.16841 -2.40767,3.29355 -0.44745,2.27825 1.97786,0.96168 3.05383,0.96421 1.39431,0.003 0.81683,-1.59098 0.81683,-1.59098 z"
       id="path53-95"
       sodipodi:nodetypes="cssscc" /><path
       style="fill:#d2c008;fill-opacity:1;stroke:none;stroke-width:0.212173px;stroke-linecap:butt;stroke-linejoin:miter;stroke-opacity:1"
       d="m 299.77905,164.79318 c 0,0 -0.65444,2.51074 0.30602,2.32651 1.10241,-0.21146 1.39691,0.94623 2.61816,-0.31725 1.30925,-1.3545 -0.34002,-2.59088 -0.78206,-3.59551 -0.57283,-1.30186 -1.12209,0.47588 -1.12209,0.47588 z"
       id="path53-6"
       sodipodi:nodetypes="cssscc" /><path
       style="fill:#e0b32a;fill-opacity:1;stroke:none;stroke-width:0.174992px;stroke-linecap:butt;stroke-linejoin:miter;stroke-opacity:1"
       d="m 293.06918,173.25613 c 0,0 0.23706,2.01702 0.95535,1.55504 0.82446,-0.53027 1.41453,0.19459 2.01438,-1.12735 0.64309,-1.41719 -1.06329,-1.73201 -1.72569,-2.29686 -0.85838,-0.73197 -0.75979,0.72573 -0.75979,0.72573 z"
       id="path53-2"
       sodipodi:nodetypes="cssscc" /><path
       style="fill:#f0ae38;fill-opacity:1;stroke:none;stroke-width:0.202133px;stroke-linecap:butt;stroke-linejoin:miter;stroke-opacity:1"
       d="m 335.97207,171.181 c 0,0 1.94901,0.92567 1.90395,-0.16256 -0.0518,-1.24905 0.91097,-1.48896 0.0259,-2.95212 -0.94879,-1.5686 -2.12022,0.18015 -2.97565,0.59686 -1.10852,0.54001 0.26226,1.29147 0.26226,1.29147 z"
       id="path53-91"
       sodipodi:nodetypes="cssscc" /><path
       style="fill:#d28a08;fill-opacity:1;stroke:none;stroke-width:0.238847px;stroke-linecap:butt;stroke-linejoin:miter;stroke-opacity:1"
       d="m 327.64643,172.01307 c 0,0 -1.49184,2.18311 -0.27126,2.34296 1.40097,0.18346 1.43918,1.39922 3.27604,0.61345 1.96922,-0.84238 0.30304,-2.60893 0.0428,-3.72936 -0.33721,-1.45191 -1.49811,0.0637 -1.49811,0.0637 z"
       id="path53-25"
       sodipodi:nodetypes="cssscc" /><path
       style="fill:#e0be21;fill-opacity:1;stroke:none;stroke-width:0.202249px;stroke-linecap:butt;stroke-linejoin:miter;stroke-opacity:1"
       d="m 298.17862,180.02566 c 0,0 -1.54323,1.5553 -0.52212,1.87508 1.17201,0.36704 1.0537,1.36772 2.71775,1.00919 1.78394,-0.38435 0.58223,-2.08778 0.49935,-3.04484 -0.1074,-1.24022 -1.28554,-0.17983 -1.28554,-0.17983 z"
       id="path53-4"
       sodipodi:nodetypes="cssscc" /><path
       style="fill:#cf880c;fill-opacity:1;stroke:none;stroke-width:0.166081px;stroke-linecap:butt;stroke-linejoin:miter;stroke-opacity:1"
       d="m 310.36225,160.30579 c 0,0 0.82962,2.01633 1.30966,1.49111 0.551,-0.60284 1.287,0.0803 1.39827,-1.30313 0.11929,-1.48313 -1.45803,-1.66087 -2.20728,-2.17663 -0.97093,-0.66835 -0.43442,0.79483 -0.43442,0.79483 z"
       id="path53-45"
       sodipodi:nodetypes="cssscc" /><path
       style="fill:#ece311;fill-opacity:1;stroke:none;stroke-width:0.194581px;stroke-linecap:butt;stroke-linejoin:miter;stroke-opacity:1"
       d="m 322.43157,154.26788 c 0,0 0.70354,2.05126 1.39478,1.32803 0.79341,-0.83012 1.60326,-0.25854 1.97538,-1.85064 0.39893,-1.70679 -1.55266,-1.47943 -2.40726,-1.8584 -1.10744,-0.49106 -0.67922,1.01525 -0.67922,1.01525 z"
       id="path53-10"
       sodipodi:nodetypes="cssscc" /><g
       id="g138"
       transform="translate(-66.40221,5.9821249)"><path
         style="fill:#0ab236;fill-opacity:1;stroke:none;stroke-width:0.290655px;stroke-linecap:butt;stroke-linejoin:miter;stroke-opacity:1"
         d="m 462.65421,167.98426 h 59.01483 c 0,0 -11.27294,-32.10949 -28.93088,-13.98683 0,0 -12.89066,-30.15812 -30.08395,13.98683 z"
         id="path85-0"
         sodipodi:nodetypes="cccc" /><path
         style="fill:#4af376;fill-opacity:1;stroke:none;stroke-width:0.264583px;stroke-linecap:butt;stroke-linejoin:miter;stroke-opacity:1"
         d="m 465.30106,167.29688 h 53.72113 c 0,0 -10.56221,-27.92466 -26.63622,-11.42762 0,0 -11.43389,-28.75748 -27.08491,11.42762 z"
         id="path85"
         sodipodi:nodetypes="cccc" /></g><g
       id="g1"
       transform="matrix(0.28426921,0,0,0.28426921,239.28737,154.43845)"><path
         d="M 73.99,78.07 62.3,83.14 c 0,0 2.96,6.05 4.5,8.45 1.54,2.4 3.59,4.08 3.87,7.04 0.28,2.96 -1.15,12.06 -2.42,14.45 -1.09,2.06 -2.3,3.78 -1.31,5.19 0.99,1.41 6.57,1.5 7.41,0.07 0.64,-1.08 0.82,-4.5 0.96,-5.77 0.14,-1.27 0.84,-6.26 1.41,-10.21 0.36,-2.51 1.2,-4.15 1.34,-5.84 C 78.2,94.83 75.51,92.59 74.54,90.89 72.3,86.94 73.99,78.07 73.99,78.07 Z"
         fill="#8a5b51"
         id="path1-6" /><path
         d="m 86.1,66.88 3.73,2.46 c 0,0 5.28,0.14 6.48,-4.86 0.93,-3.89 0,-7.93 -1.76,-6.76 -0.42,0.28 -2.04,5.56 -2.04,5.56 z"
         fill="#ffeac3"
         id="path2-1" /><path
         d="m 34.15,40.62 -2.96,0.28 c 0,0 -1.38,0.61 -2.44,0.89 -1.09,0.29 -2.77,0.48 -3.05,1.33 -0.28,0.84 -0.22,5.41 0.77,6.79 0.7,0.99 1.13,2.6 4.93,2.53 3.8,-0.07 9.08,-0.21 9.08,-0.21 L 38.86,42.1 Z"
         fill="#ffeac3"
         id="path3-8" /><path
         d="m 50.69,33.23 c 0,0 -2.32,-3.17 -6.73,-2.7 -3.08,0.33 -6.01,2.63 -6.01,2.63 0,0 -3.03,-5.56 -5.7,-7.67 -2.67,-2.11 -8.45,-4.5 -9.43,-3.17 -0.99,1.34 3.17,6.83 5.21,9.5 2.04,2.67 5.56,6.48 5.56,6.48 0,0 -1.06,1.83 -2.6,2.64 1.62,0.21 3.68,0.75 5.23,2.97 1.64,2.35 2.77,5.96 2.25,8.35 -0.46,2.11 -3.12,5.4 -2.77,12.22 0.35,6.83 1.83,10.98 3.1,13.09 1.27,2.11 4.36,5.98 4.36,5.98 0,0 0.28,7.74 0.21,11.83 -0.07,4.08 -0.84,11.47 -1.55,15.06 -0.7,3.59 -1.55,5.28 -2.39,6.34 -0.84,1.06 -2.37,3.33 0.25,3.94 1.97,0.46 4.87,0.16 5.55,-0.05 1.42,-0.44 1.03,-2.77 0.96,-4.04 -0.07,-1.27 1.62,-11.43 2.04,-15.72 0.41,-4.12 1.22,-9.25 1.5,-11.64 0.33,-2.77 0.71,-4.06 1.22,-3.99 0.7,0.09 0.82,1.06 0.75,3.38 -0.07,2.34 -0.66,9.33 -0.94,13.34 -0.28,4.01 -1.38,13.77 -1.6,14.55 -0.21,0.77 -2.28,2.87 -2.06,4.53 0.19,1.43 1.9,2.04 4.08,2.04 2.18,0 3.7,-0.59 3.85,-1.78 0.19,-1.55 -0.12,-2.65 -0.19,-4.34 -0.07,-1.69 1.41,-13.3 1.6,-15.6 0.16,-1.98 1.78,-10.72 2.06,-11.85 0.28,-1.13 0.41,-2.43 0.66,-3.03 0.19,-0.47 5.33,0.28 9.69,-1.83 4.36,-2.11 7.11,-4.93 7.11,-4.93 0,0 3.1,4.15 4.65,6.05 1.55,1.9 7.04,9.22 7.25,11.83 0.21,2.6 0.49,11.97 0.49,14.57 0,2.6 -0.07,4.58 -0.28,5.14 -0.21,0.56 -2.67,3.87 -1.97,5.07 0.7,1.2 2.65,1.5 4.88,1.27 2.31,-0.24 3.34,-1.22 3.71,-2.67 0.66,-2.58 -0.38,-13.21 -0.23,-18.63 0.14,-5.42 0.94,-7.27 0.38,-8.68 -0.56,-1.41 -3.31,-4.72 -4.15,-8.94 -0.84,-4.22 -0.07,-7.39 -0.07,-11.12 0,-3.73 -0.21,-5.98 -0.21,-5.98 0,0 2.82,-1.07 3.98,-3.17 1.16,-2.11 1.58,-6.83 0.53,-6.97 -1.06,-0.14 -2.56,2.71 -3.17,3.38 -1.03,1.13 -3.1,1.62 -3.1,1.62 0,0 -2.32,-6.26 -9.15,-7.53 -6.83,-1.27 -15.1,2.19 -19.43,3.03 -4.36,0.84 -7.04,1.41 -7.74,0.14 -0.7,-1.27 0.21,-3.8 1.69,-6.26 1.48,-2.46 2.23,-4.08 2.44,-5.77 0.21,-1.69 0.23,-3.45 0.23,-3.45 0,0 5.07,-0.92 8.17,-4.36 3.1,-3.45 5.84,-10.7 6.76,-12.53 0.92,-1.83 1.69,-2.18 1.27,-3.17 -0.42,-0.99 -6.12,-1.27 -9.64,-0.28 -3.2,0.9 -7.74,3.8 -9.57,6.12 -1.86,2.3 -2.99,4.76 -2.99,4.76 z"
         fill="#d17856"
         id="path4-6" /><path
         d="m 54.75,37.9 c -1.42,-1.36 -1.22,-3.71 1.08,-6.52 2.3,-2.81 5.1,-4.55 7.65,-5.54 2.06,-0.8 4.91,-1.58 5.54,-0.99 0.29,0.28 -1.47,3.84 -3.58,7.25 -1.94,3.14 -4.35,5.51 -6.23,6.22 -1.66,0.62 -3.38,0.61 -4.46,-0.42 z"
         fill="#ffeac3"
         id="path5-4" /><path
         d="m 25.88,25.07 c -0.33,0.61 1.59,2.88 4.26,6.34 2.03,2.63 3.39,4.57 4.41,4.74 0.63,0.11 1.28,-0.5 1.06,-1.48 -0.39,-1.69 -1.85,-3.73 -3.8,-5.73 -2.26,-2.3 -5.6,-4.48 -5.93,-3.87 z"
         fill="#ffeac3"
         id="path6-1" /><path
         d="m 46.62,40.55 c -0.11,1.65 -0.75,2.7 -2.29,2.82 -1.24,0.1 -2.29,-1.39 -2.29,-2.89 0,-1.5 1.05,-2.56 2.29,-2.56 1.24,0 2.4,1.13 2.29,2.63 z"
         fill="#0a070b"
         id="path7-3" /><path
         d="m 26.86,48.93 c 0,0 2.78,-1.76 2.78,-3.2 0,-1.13 -1.08,-2.05 -2.18,-2.71 -0.61,-0.36 -1.51,-0.6 -1.94,-0.04 -0.42,0.56 -1.02,2.04 -0.63,4.47 0.39,2.43 1.65,2.89 1.65,2.89 0,0 -0.7,1.27 3.66,1.16 4.36,-0.11 4.43,-1.2 4.33,-1.83 -0.11,-0.63 -2.75,-0.6 -4.15,-0.39 -2.07,0.32 -3.52,-0.35 -3.52,-0.35 z"
         fill="#2c2a32"
         id="path8-6" /><path
         d="m 47.8,32.25 c 0,0 2.25,-5.42 2.75,-7.5 0.38,-1.61 0.42,-4.5 0.46,-6.23 0.01,-0.65 -0.42,-1.2 -0.39,-2.25 0.04,-1.19 0.69,-2.38 2.25,-2.43 1.45,-0.04 2.29,0.99 2.36,2.15 0.07,1.2 -0.49,1.83 -0.53,2.53 -0.11,1.87 -0.32,5.56 -0.32,5.56 0,0 2.85,-2.67 3.17,-3.48 0.32,-0.81 0.35,-4.89 0.35,-5.7 v -1.94 c 0,0 -0.83,-1.18 -0.81,-2.22 0.01,-0.83 0.63,-2.08 2.01,-2.11 1.49,-0.04 2.12,0.94 2.22,1.97 0.09,1.03 -0.42,1.97 -0.42,1.97 l -0.14,4.33 c 0,0 1.58,-2.08 2.22,-2.96 0.63,-0.88 1.34,-2.29 1.34,-2.29 0,0 -0.36,-1.17 -0.21,-2.32 0.14,-1.04 0.84,-2.18 2.29,-2.22 1.41,-0.03 2.18,1.06 2.18,2.22 0,1.76 -1.06,2.96 -1.06,2.96 0,0 -2.6,5.1 -4.61,7.74 -1.46,1.92 -2.46,3.34 -3.1,3.73 -0.63,0.39 -4.65,2.64 -6.48,5.35 -1.17,1.73 -2.64,4.12 -2.64,4.12 0,0 -0.69,1.01 -1.97,0.53 C 47.7,33.37 47.8,32.25 47.8,32.25 Z"
         fill="#bd9178"
         id="path9-0" /><path
         d="m 23.52,10.78 c 0,0 2.01,5.1 3.41,7.88 1.4,2.78 3.48,5.63 3.48,5.63 0,0 2.87,2.15 3.8,3.27 1.69,2.04 3.63,5.81 3.63,5.81 l 2.31,-1.62 -2.06,-3.55 c 0,0 -0.04,-3.63 -0.04,-5.03 0,-1.16 0.04,-3.2 0.04,-3.2 0,0 0.69,-1.07 0.74,-2.15 0.06,-1.22 -0.59,-2.46 -2.04,-2.53 -1.37,-0.07 -2.15,1.12 -2.25,2.18 -0.11,1.06 0.46,2.01 0.46,2.01 l -0.14,5.74 c 0,0 -0.77,-1.44 -1.06,-1.83 -0.29,-0.39 -0.97,-2 -1.13,-2.29 -0.32,-0.6 0.32,-5.63 0.32,-6.44 0,-0.81 0.21,-3.17 0.21,-3.17 0,0 0.68,-1.03 0.67,-2.18 C 33.86,8.28 33.25,7.14 32,7.05 c -1.41,-0.11 -2.15,0.9 -2.32,1.83 -0.21,1.14 0.28,2.11 0.28,2.11 0,0 -0.22,5.13 -0.56,5.03 -0.39,-0.11 -2.75,-6.26 -2.75,-6.26 0,0 0.54,-1.28 0.14,-2.89 -0.37,-1.49 -1.58,-2.43 -3.31,-1.94 -1.74,0.5 -2.08,2.32 -1.51,3.73 0.51,1.28 1.55,2.12 1.55,2.12 z"
         fill="#bd9178"
         id="path10-7" /></g></g></svg>
