<?xml version="1.0" encoding="UTF-8" standalone="no"?>
<!-- Created with Inkscape (http://www.inkscape.org/) -->

<svg
   width="1920"
   height="1080"
   viewBox="0 0 508 285.74999"
   version="1.1"
   id="svg1"
   inkscape:version="1.3 (0e150ed6c4, 2023-07-21)"
   sodipodi:docname="vegetation6.svg"
   xml:space="preserve"
   inkscape:export-filename="seasons\res\autumn\lake5.svg"
   inkscape:export-xdpi="96"
   inkscape:export-ydpi="96"
   xmlns:inkscape="http://www.inkscape.org/namespaces/inkscape"
   xmlns:sodipodi="http://sodipodi.sourceforge.net/DTD/sodipodi-0.dtd"
   xmlns="http://www.w3.org/2000/svg"
   xmlns:svg="http://www.w3.org/2000/svg"><sodipodi:namedview
     id="namedview1"
     pagecolor="#ffffff"
     bordercolor="#666666"
     borderopacity="1.0"
     inkscape:showpageshadow="2"
     inkscape:pageopacity="0.0"
     inkscape:pagecheckerboard="0"
     inkscape:deskcolor="#d1d1d1"
     inkscape:document-units="mm"
     inkscape:zoom="0.62549108"
     inkscape:cx="848.93297"
     inkscape:cy="517.19363"
     inkscape:window-width="1920"
     inkscape:window-height="1017"
     inkscape:window-x="1912"
     inkscape:window-y="-8"
     inkscape:window-maximized="1"
     inkscape:current-layer="svg1" /><defs
     id="defs1" /><g
     inkscape:groupmode="layer"
     id="layer1"
     inkscape:label="Trees"
     style="display:inline"><g
       id="g2"
       inkscape:label="Tree"
       transform="matrix(1.4673974,0,0,1.4673974,-22.615337,-115.14804)"><path
         style="fill:#d74b00;fill-opacity:1;stroke:none;stroke-width:0.280841px;stroke-linecap:butt;stroke-linejoin:miter;stroke-opacity:1"
         d="m 75.301508,239.29428 c 0,0 -49.412598,5.84843 0,-72.51242 0,0 48.842382,72.76992 0,72.51242 z"
         id="path1-8"
         sodipodi:nodetypes="ccc" /><path
         style="fill:#f4a620;fill-opacity:1;stroke:none;stroke-width:0.264583px;stroke-linecap:butt;stroke-linejoin:miter;stroke-opacity:1"
         d="m 75.294172,238.99554 c 0,0 -46.552082,5.50986 0,-68.31465 0,0 46.014878,68.55725 0,68.31465 z"
         id="path1"
         sodipodi:nodetypes="ccc" /><path
         style="fill:#c7aa12;fill-opacity:1;stroke:none;stroke-width:0.0170622px;stroke-linecap:butt;stroke-linejoin:miter;stroke-opacity:1"
         d="m 81.395843,239.76738 c 0,0 3.061741,0.0367 0.0045,4.31954 0,0 -3.031311,-4.7155 -0.0045,-4.31954 z"
         id="path1-2-24-4"
         sodipodi:nodetypes="ccc" /><path
         style="fill:#da9d33;fill-opacity:1;stroke:none;stroke-width:0.0198916px;stroke-linecap:butt;stroke-linejoin:miter;stroke-opacity:1"
         d="m 66.055506,243.31163 c 0,0 -2.961607,-1.91032 3.271947,-3.95884 0,0 -0.616998,6.1768 -3.271947,3.95884 z"
         id="path1-2-9-9"
         sodipodi:nodetypes="ccc" /><path
         style="fill:#f4d620;fill-opacity:1;stroke:none;stroke-width:0.0179031px;stroke-linecap:butt;stroke-linejoin:miter;stroke-opacity:1"
         d="m 61.040409,255.55533 c 0,0 -3.524204,-0.0161 0.632456,-4.12878 0,0 2.79841,4.48853 -0.632456,4.12878 z"
         id="path1-2"
         sodipodi:nodetypes="ccc" /><path
         style="fill:#ca821e;fill-opacity:1;stroke:none;stroke-width:0.264583px;stroke-linecap:butt;stroke-linejoin:miter;stroke-opacity:1"
         d="m 74.171486,254.50765 v -71.98248 c 0,-1.65244 2.006616,-1.86185 2.006616,0 v 72.01475 c 0,1.62402 -2.007871,1.66755 -2.006616,-0.0323 z"
         id="path2"
         sodipodi:nodetypes="ccsccc" /><path
         style="fill:#efd133;fill-opacity:1;stroke:none;stroke-width:0.0291889px;stroke-linecap:butt;stroke-linejoin:miter;stroke-opacity:1"
         d="m 84.802516,266.69656 c 0,0 -3.422329,-3.87711 6.197225,-4.28871 0,0 -3.330476,8.47823 -6.197225,4.28871 z"
         id="path1-2-24"
         sodipodi:nodetypes="ccc"
         transform="matrix(0.68147866,0,0,0.68147866,15.411869,78.470931)" /><path
         style="fill:#cc8915;fill-opacity:1;stroke:none;stroke-width:0.0216677px;stroke-linecap:butt;stroke-linejoin:miter;stroke-opacity:1"
         d="m 100.77902,267.68979 c 0,0 -2.960777,3.01372 -3.257027,-3.88833 0,0 6.454857,1.23321 3.257027,3.88833 z"
         id="path1-2-3"
         sodipodi:nodetypes="ccc"
         transform="matrix(0.68147866,0,0,0.68147866,15.411869,78.470931)" /><path
         style="fill:#fcab1d;fill-opacity:1;stroke:none;stroke-width:0.0291889px;stroke-linecap:butt;stroke-linejoin:miter;stroke-opacity:1"
         d="m 106.79292,264.18231 c 0,0 -5.13564,0.60786 0,-7.53649 0,0 5.07638,7.56326 0,7.53649 z"
         id="path1-2-98"
         sodipodi:nodetypes="ccc"
         transform="matrix(0.68147866,0,0,0.68147866,15.411869,78.470931)" /><path
         style="fill:#f38e29;fill-opacity:1;stroke:none;stroke-width:0.0291889px;stroke-linecap:butt;stroke-linejoin:miter;stroke-opacity:1"
         d="m 76.350235,256.03133 c 0,0 4.815547,-1.88543 1.90374,7.29208 0,0 -6.822251,-6.03567 -1.90374,-7.29208 z"
         id="path1-2-47"
         sodipodi:nodetypes="ccc"
         transform="matrix(0.68147866,0,0,0.68147866,15.411869,78.470931)" /><path
         style="fill:#c99539;fill-opacity:1;stroke:none;stroke-width:0.024521px;stroke-linecap:butt;stroke-linejoin:miter;stroke-opacity:1"
         d="m 95.096914,274.85594 c 0,0 0.70812,5.10465 -5.310851,0.28975 0,0 5.053165,-5.35961 5.310851,-0.28975 z"
         id="path1-2-44"
         sodipodi:nodetypes="ccc"
         transform="matrix(0.68147866,0,0,0.68147866,15.411869,78.470931)" /><path
         style="fill:#dd8c00;fill-opacity:1;stroke:none;stroke-width:0.0291889px;stroke-linecap:butt;stroke-linejoin:miter;stroke-opacity:1"
         d="m 97.480323,257.37361 c 0,0 -3.94002,3.34971 -4.172842,-6.27584 0,0 8.414899,3.48742 4.172842,6.27584 z"
         id="path1-2-9"
         sodipodi:nodetypes="ccc"
         transform="matrix(0.68147866,0,0,0.68147866,15.411869,78.470931)" /><path
         style="fill:#825b16;fill-opacity:1;stroke:none;stroke-width:0.0184979px;stroke-linecap:butt;stroke-linejoin:miter;stroke-opacity:1"
         d="m 105.21017,250.26718 c 0,0 2.92535,0.71417 -1.93143,4.84216 0,0 -0.79933,-5.95133 1.93143,-4.84216 z"
         id="path1-2-4"
         sodipodi:nodetypes="ccc"
         transform="matrix(0.68147866,0,0,0.68147866,15.411869,78.470931)" /><path
         style="fill:#ca8c1e;fill-opacity:1;stroke:none;stroke-width:0.0241601px;stroke-linecap:butt;stroke-linejoin:miter;stroke-opacity:1"
         d="m 69.618557,268.19869 c 0,0 -4.495434,-3.43244 3.095396,-3.53519 0,0 1.090391,7.22242 -3.095396,3.53519 z"
         id="path1-2-1"
         sodipodi:nodetypes="ccc"
         inkscape:transform-center-x="0.074776714"
         inkscape:transform-center-y="0.44866029"
         transform="matrix(0.68147866,0,0,0.68147866,15.411869,78.470931)" /><path
         style="fill:#e8b04d;fill-opacity:1;stroke:none;stroke-width:0.0195709px;stroke-linecap:butt;stroke-linejoin:miter;stroke-opacity:1"
         d="m 80.273635,276.13971 c 0,0 -2.899606,1.79004 -2.798896,-4.27295 0,0 5.898121,2.8594 2.798896,4.27295 z"
         id="path1-2-2"
         sodipodi:nodetypes="ccc"
         transform="matrix(0.68147866,0,0,0.68147866,15.411869,78.470931)" /></g><g
       id="g4"
       inkscape:label="TreeTriangle"
       transform="translate(-49.598724,28.650105)"><path
         style="fill:#01710c;fill-opacity:1;stroke:none;stroke-width:0.690262px;stroke-linecap:butt;stroke-linejoin:miter;stroke-opacity:1"
         d="m 215.72267,185.77902 h 46.82464 l -22.43446,-79.04193 z"
         id="path4-0"
         sodipodi:nodetypes="cccc" /><path
         style="fill:#00820d;fill-opacity:1;stroke:none;stroke-width:0.623298px;stroke-linecap:butt;stroke-linejoin:miter;stroke-opacity:1"
         d="m 217.99394,184.56179 h 42.2821 l -20.25806,-71.37393 z"
         id="path4"
         sodipodi:nodetypes="cccc" /><path
         style="fill:#ca821e;fill-opacity:1;stroke:none;stroke-width:0.275699px;stroke-linecap:butt;stroke-linejoin:miter;stroke-opacity:1"
         d="m 238.72744,201.18018 v -65.3339 c 0,-1.49981 2.4005,-1.6899 2.4005,0 v 65.36319 c 0,1.47402 -2.402,1.51353 -2.4005,-0.0293 z"
         id="path2-2-0-5-1"
         sodipodi:nodetypes="ccsccc" /></g><g
       id="g3"
       inkscape:label="TreeCircle"
       transform="translate(-56.047461,3.4680332)"><circle
         style="fill:#95e21b;fill-opacity:1;stroke-width:0.275934;stroke-linejoin:round"
         id="path3-2"
         cx="198.81046"
         cy="221.45523"
         r="32.021767" /><circle
         style="fill:#a8f324;fill-opacity:1;stroke-width:0.264999;stroke-linejoin:round"
         id="path3"
         cx="198.81046"
         cy="222.72423"
         r="30.752766" /><path
         style="fill:#ca821e;fill-opacity:1;stroke:none;stroke-width:0.262109px;stroke-linecap:butt;stroke-linejoin:miter;stroke-opacity:1"
         d="m 197.76359,274.86777 v -59.0516 c 0,-1.35559 2.4005,-1.5274 2.4005,0 v 59.07808 c 0,1.33228 -2.402,1.36799 -2.4005,-0.0265 z"
         id="path2-2-0-5"
         sodipodi:nodetypes="ccsccc" /><ellipse
         style="fill:#f89c30;fill-opacity:1;stroke-width:0.264999;stroke-linejoin:round"
         id="path7"
         cx="120.76678"
         cy="272.41263"
         rx="2.7495065"
         ry="1.9035044"
         transform="translate(56.047461,-3.4680332)" /><ellipse
         style="fill:#f8d430;fill-opacity:1;stroke-width:0.264999;stroke-linejoin:round"
         id="path8"
         cx="130.81305"
         cy="275.16214"
         rx="2.2207551"
         ry="1.9035044"
         transform="translate(56.047461,-3.4680332)" /><ellipse
         style="fill:#e1f830;fill-opacity:1;stroke-width:0.264999;stroke-linejoin:round"
         id="path9"
         cx="135.46606"
         cy="269.24014"
         rx="2.4322555"
         ry="1.9035044"
         transform="translate(56.047461,-3.4680332)" /><ellipse
         style="fill:#d9b616;fill-opacity:1;stroke-width:0.264999;stroke-linejoin:round"
         id="path10"
         cx="126.16004"
         cy="280.23816"
         rx="1.7977542"
         ry="1.4805034"
         transform="translate(56.047461,-3.4680332)" /><ellipse
         style="fill:#f8eb30;fill-opacity:1;stroke-width:0.264999;stroke-linejoin:round"
         id="path11"
         cx="151.43434"
         cy="266.80786"
         rx="2.1150048"
         ry="1.5862536"
         transform="translate(56.047461,-3.4680332)" /><ellipse
         style="fill:#f8a930;fill-opacity:1;stroke-width:0.264999;stroke-linejoin:round"
         id="path13"
         cx="148.15608"
         cy="276.00812"
         rx="1.3747532"
         ry="2.3265052"
         transform="translate(56.047461,-3.4680332)" /><ellipse
         style="fill:#f8ab30;fill-opacity:1;stroke-width:0.264999;stroke-linejoin:round"
         id="path25"
         cx="156.82761"
         cy="273.89313"
         rx="1.3747532"
         ry="1.4805034"
         transform="translate(56.047461,-3.4680332)" /><ellipse
         style="fill:#c7ad33;fill-opacity:1;stroke-width:0.264999;stroke-linejoin:round"
         id="path26"
         cx="135.25456"
         cy="280.23816"
         rx="1.1632526"
         ry="1.9035044"
         transform="translate(56.047461,-3.4680332)" /><ellipse
         style="fill:#f8d430;fill-opacity:1;stroke-width:0.264999;stroke-linejoin:round"
         id="path27"
         cx="154.60686"
         cy="281.4014"
         rx="1.9035044"
         ry="1.1632526"
         transform="translate(56.047461,-3.4680332)" /><ellipse
         style="fill:#e6c429;fill-opacity:1;stroke-width:0.264999;stroke-linejoin:round"
         id="path28"
         cx="164.12437"
         cy="277.80588"
         rx="1.2690029"
         ry="1.1632526"
         transform="translate(56.047461,-3.4680332)" /><circle
         style="fill:#ddbe32;fill-opacity:1;stroke-width:0.264999;stroke-linejoin:round"
         id="path45"
         cx="142.44559"
         cy="283.09341"
         r="1.3747532"
         transform="translate(56.047461,-3.4680332)" /><circle
         style="fill:#dab612;fill-opacity:1;stroke-width:0.264999;stroke-linejoin:round"
         id="path46"
         cx="133.6683"
         cy="250.20508"
         r="3.1725073"
         transform="translate(56.047461,-3.4680332)" /><circle
         style="fill:#dbbc2b;fill-opacity:1;stroke-width:0.264999;stroke-linejoin:round"
         id="path47"
         cx="160.52887"
         cy="266.70212"
         r="2.7495065"
         transform="translate(56.047461,-3.4680332)" /><circle
         style="fill:#f89630;fill-opacity:1;stroke-width:0.264999;stroke-linejoin:round"
         id="path48"
         cx="168.88313"
         cy="273.78738"
         r="1.5862536"
         transform="translate(56.047461,-3.4680332)" /><circle
         style="fill:#debd23;fill-opacity:1;stroke-width:0.264999;stroke-linejoin:round"
         id="path49"
         cx="123.83353"
         cy="241.6393"
         r="2.6437562"
         transform="translate(56.047461,-3.4680332)" /><circle
         style="fill:#e6c73e;fill-opacity:1;stroke-width:0.264999;stroke-linejoin:round"
         id="path50"
         cx="128.90955"
         cy="260.46286"
         r="2.6437562"
         transform="translate(56.047461,-3.4680332)" /><circle
         style="fill:#f3dc76;fill-opacity:1;stroke-width:0.264999;stroke-linejoin:round"
         id="path51"
         cx="153.86661"
         cy="251.57983"
         r="1.3747532"
         transform="translate(56.047461,-3.4680332)" /><circle
         style="fill:#e3be17;fill-opacity:1;stroke-width:0.264999;stroke-linejoin:round"
         id="path52"
         cx="157.88512"
         cy="259.40536"
         r="1.1632526"
         transform="translate(56.047461,-3.4680332)" /></g><g
       id="g5"
       inkscape:label="TreeShape1"
       transform="matrix(0.72115031,0,0,0.78471015,102.86216,38.019794)"><path
         style="fill:#eeac35;fill-opacity:1;stroke:none;stroke-width:0.246312px;stroke-linecap:butt;stroke-linejoin:miter;stroke-opacity:1"
         d="m 288.22072,152.79069 c -4.52311,-1.14544 -20.57143,-7.94786 -21.71952,-25.13042 -0.82997,-12.42119 12.98908,-16.9279 6.74192,-44.843225 -1.97903,-8.843143 20.96758,-24.645499 31.54555,-15.408868 13.60625,11.88089 9.86953,15.328043 17.24273,19.032724 10.16766,5.108748 0.44655,26.555589 5.30341,34.443579 5.93748,9.64306 -0.53528,27.27791 -21.34748,31.90621 -10.19033,2.26615 -17.76661,0 -17.76661,0 z m -3.77124,0.95729 c -4.52313,-1.14543 -20.57145,-7.94785 -21.71954,-25.13041 -0.82996,-12.42119 12.9891,-16.92789 6.74192,-44.843222 -1.97901,-8.843144 20.96759,-24.645501 31.54556,-15.40887 13.60624,11.88089 9.86952,15.328044 17.24272,19.032723 10.16767,5.108747 0.44655,26.555579 5.30342,34.443579 5.93749,9.64305 -0.53527,27.27793 -21.34749,31.9062 -10.19032,2.26616 -17.76659,0 -17.76659,0 z"
         id="path5-3"
         sodipodi:nodetypes="cssssssc" /><path
         style="fill:#e9c70f;fill-opacity:1;stroke:none;stroke-width:0.22742px;stroke-linecap:butt;stroke-linejoin:miter;stroke-opacity:1"
         d="m 288.76264,152.37347 c -4.17618,-1.05757 -18.99355,-7.33822 -20.05359,-23.20283 -0.7663,-11.46846 11.99279,-15.62949 6.22479,-41.40362 -1.82722,-8.164847 19.35932,-22.755116 29.12594,-14.226963 12.56259,10.969591 9.11248,14.152338 15.92015,17.572858 9.38777,4.716893 0.41229,24.518675 4.89662,31.801655 5.48206,8.9034 -0.49421,25.18562 -19.71007,29.4589 -9.40869,2.09233 -16.40384,0 -16.40384,0 z m -3.48199,0.88387 c -4.17618,-1.05757 -18.99355,-7.33822 -20.05359,-23.20283 -0.7663,-11.46845 11.9928,-15.62948 6.2248,-41.403616 -1.82723,-8.164847 19.35932,-22.755117 29.12593,-14.226963 12.56259,10.969591 9.11249,14.152338 15.92015,17.572858 9.38778,4.716893 0.41229,24.518681 4.89662,31.801661 5.48206,8.9034 -0.4942,25.18562 -19.71007,29.45889 -9.40869,2.09233 -16.40384,0 -16.40384,0 z"
         id="path5"
         sodipodi:nodetypes="cssssssc" /><path
         style="display:inline;fill:#ca821e;fill-opacity:1;stroke:none;stroke-width:0.349111px;stroke-linecap:butt;stroke-linejoin:miter;stroke-opacity:1"
         d="M 294.99924,169.32421 V 90.671539 c 0,-1.805552 3.1973,-2.034391 3.1973,0 v 78.687941 c 0,1.7745 -3.1993,1.82206 -3.1973,-0.0353 z"
         id="path2-2-0-5-14"
         sodipodi:nodetypes="ccsccc" /></g><g
       id="g6"
       transform="translate(179.34387,-1.1124685)"><path
         style="fill:#07c430;fill-opacity:1;stroke:none;stroke-width:0.296273px;stroke-linecap:butt;stroke-linejoin:miter;stroke-opacity:1"
         d="m 5.0270889,275.49672 67.2470901,-0.51955 c 0,0 -9.113041,-38.07224 -21.13198,-14.98747 0,0 -11.445814,-28.48163 -24.641943,-0.98528 0,0 -16.262859,-22.3482 -21.4731671,16.4923 z"
         id="path6-7"
         sodipodi:nodetypes="ccccc" /><path
         style="fill:#2ff14c;fill-opacity:1;stroke:none;stroke-width:0.264583px;stroke-linecap:butt;stroke-linejoin:miter;stroke-opacity:1"
         d="M 7.1910164,274.10463 H 69.795159 c 0,0 -8.015007,-32.21625 -18.74839,-11.60065 0,0 -12.706881,-25.30307 -24.491541,-0.74776 0,0 -14.711201,-22.33767 -19.3642116,12.34841 z"
         id="path6"
         sodipodi:nodetypes="ccccc" /></g><path
       style="fill:#d09d42;fill-opacity:1;stroke:none;stroke-width:0.169572px;stroke-linecap:butt;stroke-linejoin:miter;stroke-opacity:1"
       d="m 308.00054,174.98119 c 0,0 -0.58716,1.78745 0.27457,1.65629 0.9891,-0.15054 1.25332,0.67365 2.34905,-0.22585 1.17467,-0.9643 -0.30508,-1.84451 -0.70168,-2.55973 -0.51395,-0.92682 -1.00675,0.33879 -1.00675,0.33879 z"
       id="path53"
       sodipodi:nodetypes="cssscc" /><path
       style="fill:#d24d08;fill-opacity:1;stroke:none;stroke-width:0.264583px;stroke-linecap:butt;stroke-linejoin:miter;stroke-opacity:1"
       d="m 315.29329,180.89304 c 0,0 1.09328,2.47875 2.00111,1.27854 1.04201,-1.3776 2.19178,-0.90011 2.60744,-3.14293 0.44563,-2.40441 -2.22766,-1.42469 -3.42735,-1.63093 -1.55464,-0.26726 -0.87354,1.58369 -0.87354,1.58369 z"
       id="path53-8"
       sodipodi:nodetypes="cssscc" /><path
       style="fill:#d2c508;fill-opacity:1;stroke:none;stroke-width:0.264583px;stroke-linecap:butt;stroke-linejoin:miter;stroke-opacity:1"
       d="m 325.21605,176.15789 c 0,0 -2.58972,0.79552 -1.50406,1.83765 1.24612,1.19613 0.63728,2.28209 2.816,2.95751 2.33569,0.72409 1.67574,-2.04552 2.02103,-3.21282 0.44745,-1.51264 -1.47052,-1.05296 -1.47052,-1.05296 z"
       id="path53-3"
       sodipodi:nodetypes="cssscc"
       inkscape:transform-center-x="0.44866029"
       inkscape:transform-center-y="0.37388357" /><path
       style="fill:#ca8c1e;fill-opacity:1;stroke:none;stroke-width:0.199237px;stroke-linecap:butt;stroke-linejoin:miter;stroke-opacity:1"
       d="m 304.0802,169.60036 c 0,0 -0.51638,1.73276 0.78557,1.27594 1.49437,-0.52434 2.0823,0.0592 3.57779,-1.13505 1.60325,-1.28029 -0.87376,-1.42121 -1.64229,-1.86021 -0.99593,-0.56888 -1.48054,0.68903 -1.48054,0.68903 z"
       id="path53-1"
       sodipodi:nodetypes="cssscc" /><path
       style="fill:#d24308;fill-opacity:1;stroke:none;stroke-width:0.165394px;stroke-linecap:butt;stroke-linejoin:miter;stroke-opacity:1"
       d="m 307.53814,184.08245 c 0,0 0.13385,-1.44772 -0.8921,-0.75139 -1.17756,0.79926 -1.77986,0.51732 -2.8405,1.82269 -1.13705,1.39942 0.99261,0.83729 1.72295,0.96133 0.9464,0.16075 1.13682,-0.91985 1.13682,-0.91985 z"
       id="path53-17"
       sodipodi:nodetypes="cssscc" /><path
       style="fill:#e8ae47;fill-opacity:1;stroke:none;stroke-width:0.251235px;stroke-linecap:butt;stroke-linejoin:miter;stroke-opacity:1"
       d="m 332.64962,177.44202 c 0,0 -0.96387,1.98658 0.45072,2.40354 1.62365,0.47858 2.05739,1.7623 3.85608,1.31266 1.92829,-0.48201 -0.50079,-2.67618 -1.15184,-3.90519 -0.84367,-1.59263 -1.65263,-0.23899 -1.65263,-0.23899 z"
       id="path53-9"
       sodipodi:nodetypes="cssscc" /><path
       style="fill:#ecc01e;fill-opacity:1;stroke:none;stroke-width:0.240167px;stroke-linecap:butt;stroke-linejoin:miter;stroke-opacity:1"
       d="m 326.96879,165.21161 c 0,0 -0.93642,-2.10676 -1.77675,-0.86271 -0.96451,1.4279 -1.99032,1.16841 -2.40767,3.29355 -0.44745,2.27825 1.97786,0.96168 3.05383,0.96421 1.39431,0.003 0.81683,-1.59098 0.81683,-1.59098 z"
       id="path53-95"
       sodipodi:nodetypes="cssscc" /><path
       style="fill:#d2c008;fill-opacity:1;stroke:none;stroke-width:0.212173px;stroke-linecap:butt;stroke-linejoin:miter;stroke-opacity:1"
       d="m 299.77905,164.79318 c 0,0 -0.65444,2.51074 0.30602,2.32651 1.10241,-0.21146 1.39691,0.94623 2.61816,-0.31725 1.30925,-1.3545 -0.34002,-2.59088 -0.78206,-3.59551 -0.57283,-1.30186 -1.12209,0.47588 -1.12209,0.47588 z"
       id="path53-6"
       sodipodi:nodetypes="cssscc" /><path
       style="fill:#e0b32a;fill-opacity:1;stroke:none;stroke-width:0.174992px;stroke-linecap:butt;stroke-linejoin:miter;stroke-opacity:1"
       d="m 293.06918,173.25613 c 0,0 0.23706,2.01702 0.95535,1.55504 0.82446,-0.53027 1.41453,0.19459 2.01438,-1.12735 0.64309,-1.41719 -1.06329,-1.73201 -1.72569,-2.29686 -0.85838,-0.73197 -0.75979,0.72573 -0.75979,0.72573 z"
       id="path53-2"
       sodipodi:nodetypes="cssscc" /><path
       style="fill:#f0ae38;fill-opacity:1;stroke:none;stroke-width:0.202133px;stroke-linecap:butt;stroke-linejoin:miter;stroke-opacity:1"
       d="m 335.97207,171.181 c 0,0 1.94901,0.92567 1.90395,-0.16256 -0.0518,-1.24905 0.91097,-1.48896 0.0259,-2.95212 -0.94879,-1.5686 -2.12022,0.18015 -2.97565,0.59686 -1.10852,0.54001 0.26226,1.29147 0.26226,1.29147 z"
       id="path53-91"
       sodipodi:nodetypes="cssscc" /><path
       style="fill:#d28a08;fill-opacity:1;stroke:none;stroke-width:0.238847px;stroke-linecap:butt;stroke-linejoin:miter;stroke-opacity:1"
       d="m 327.64643,172.01307 c 0,0 -1.49184,2.18311 -0.27126,2.34296 1.40097,0.18346 1.43918,1.39922 3.27604,0.61345 1.96922,-0.84238 0.30304,-2.60893 0.0428,-3.72936 -0.33721,-1.45191 -1.49811,0.0637 -1.49811,0.0637 z"
       id="path53-25"
       sodipodi:nodetypes="cssscc" /><path
       style="fill:#e0be21;fill-opacity:1;stroke:none;stroke-width:0.202249px;stroke-linecap:butt;stroke-linejoin:miter;stroke-opacity:1"
       d="m 298.17862,180.02566 c 0,0 -1.54323,1.5553 -0.52212,1.87508 1.17201,0.36704 1.0537,1.36772 2.71775,1.00919 1.78394,-0.38435 0.58223,-2.08778 0.49935,-3.04484 -0.1074,-1.24022 -1.28554,-0.17983 -1.28554,-0.17983 z"
       id="path53-4"
       sodipodi:nodetypes="cssscc" /><path
       style="fill:#cf880c;fill-opacity:1;stroke:none;stroke-width:0.166081px;stroke-linecap:butt;stroke-linejoin:miter;stroke-opacity:1"
       d="m 310.36225,160.30579 c 0,0 0.82962,2.01633 1.30966,1.49111 0.551,-0.60284 1.287,0.0803 1.39827,-1.30313 0.11929,-1.48313 -1.45803,-1.66087 -2.20728,-2.17663 -0.97093,-0.66835 -0.43442,0.79483 -0.43442,0.79483 z"
       id="path53-45"
       sodipodi:nodetypes="cssscc" /><path
       style="fill:#ece311;fill-opacity:1;stroke:none;stroke-width:0.194581px;stroke-linecap:butt;stroke-linejoin:miter;stroke-opacity:1"
       d="m 322.43157,154.26788 c 0,0 0.70354,2.05126 1.39478,1.32803 0.79341,-0.83012 1.60326,-0.25854 1.97538,-1.85064 0.39893,-1.70679 -1.55266,-1.47943 -2.40726,-1.8584 -1.10744,-0.49106 -0.67922,1.01525 -0.67922,1.01525 z"
       id="path53-10"
       sodipodi:nodetypes="cssscc" /><g
       id="g138"
       transform="translate(-66.40221,5.9821249)"><path
         style="fill:#0ab236;fill-opacity:1;stroke:none;stroke-width:0.290655px;stroke-linecap:butt;stroke-linejoin:miter;stroke-opacity:1"
         d="m 462.65421,167.98426 h 59.01483 c 0,0 -11.27294,-32.10949 -28.93088,-13.98683 0,0 -12.89066,-30.15812 -30.08395,13.98683 z"
         id="path85-0"
         sodipodi:nodetypes="cccc" /><path
         style="fill:#4af376;fill-opacity:1;stroke:none;stroke-width:0.264583px;stroke-linecap:butt;stroke-linejoin:miter;stroke-opacity:1"
         d="m 465.30106,167.29688 h 53.72113 c 0,0 -10.56221,-27.92466 -26.63622,-11.42762 0,0 -11.43389,-28.75748 -27.08491,11.42762 z"
         id="path85"
         sodipodi:nodetypes="cccc" /></g><g
       id="g1"
       transform="matrix(0.28426921,0,0,0.28426921,239.28737,154.43845)"><path
         d="M 73.99,78.07 62.3,83.14 c 0,0 2.96,6.05 4.5,8.45 1.54,2.4 3.59,4.08 3.87,7.04 0.28,2.96 -1.15,12.06 -2.42,14.45 -1.09,2.06 -2.3,3.78 -1.31,5.19 0.99,1.41 6.57,1.5 7.41,0.07 0.64,-1.08 0.82,-4.5 0.96,-5.77 0.14,-1.27 0.84,-6.26 1.41,-10.21 0.36,-2.51 1.2,-4.15 1.34,-5.84 C 78.2,94.83 75.51,92.59 74.54,90.89 72.3,86.94 73.99,78.07 73.99,78.07 Z"
         fill="#8a5b51"
         id="path1-6" /><path
         d="m 86.1,66.88 3.73,2.46 c 0,0 5.28,0.14 6.48,-4.86 0.93,-3.89 0,-7.93 -1.76,-6.76 -0.42,0.28 -2.04,5.56 -2.04,5.56 z"
         fill="#ffeac3"
         id="path2-1" /><path
         d="m 34.15,40.62 -2.96,0.28 c 0,0 -1.38,0.61 -2.44,0.89 -1.09,0.29 -2.77,0.48 -3.05,1.33 -0.28,0.84 -0.22,5.41 0.77,6.79 0.7,0.99 1.13,2.6 4.93,2.53 3.8,-0.07 9.08,-0.21 9.08,-0.21 L 38.86,42.1 Z"
         fill="#ffeac3"
         id="path3-8" /><path
         d="m 50.69,33.23 c 0,0 -2.32,-3.17 -6.73,-2.7 -3.08,0.33 -6.01,2.63 -6.01,2.63 0,0 -3.03,-5.56 -5.7,-7.67 -2.67,-2.11 -8.45,-4.5 -9.43,-3.17 -0.99,1.34 3.17,6.83 5.21,9.5 2.04,2.67 5.56,6.48 5.56,6.48 0,0 -1.06,1.83 -2.6,2.64 1.62,0.21 3.68,0.75 5.23,2.97 1.64,2.35 2.77,5.96 2.25,8.35 -0.46,2.11 -3.12,5.4 -2.77,12.22 0.35,6.83 1.83,10.98 3.1,13.09 1.27,2.11 4.36,5.98 4.36,5.98 0,0 0.28,7.74 0.21,11.83 -0.07,4.08 -0.84,11.47 -1.55,15.06 -0.7,3.59 -1.55,5.28 -2.39,6.34 -0.84,1.06 -2.37,3.33 0.25,3.94 1.97,0.46 4.87,0.16 5.55,-0.05 1.42,-0.44 1.03,-2.77 0.96,-4.04 -0.07,-1.27 1.62,-11.43 2.04,-15.72 0.41,-4.12 1.22,-9.25 1.5,-11.64 0.33,-2.77 0.71,-4.06 1.22,-3.99 0.7,0.09 0.82,1.06 0.75,3.38 -0.07,2.34 -0.66,9.33 -0.94,13.34 -0.28,4.01 -1.38,13.77 -1.6,14.55 -0.21,0.77 -2.28,2.87 -2.06,4.53 0.19,1.43 1.9,2.04 4.08,2.04 2.18,0 3.7,-0.59 3.85,-1.78 0.19,-1.55 -0.12,-2.65 -0.19,-4.34 -0.07,-1.69 1.41,-13.3 1.6,-15.6 0.16,-1.98 1.78,-10.72 2.06,-11.85 0.28,-1.13 0.41,-2.43 0.66,-3.03 0.19,-0.47 5.33,0.28 9.69,-1.83 4.36,-2.11 7.11,-4.93 7.11,-4.93 0,0 3.1,4.15 4.65,6.05 1.55,1.9 7.04,9.22 7.25,11.83 0.21,2.6 0.49,11.97 0.49,14.57 0,2.6 -0.07,4.58 -0.28,5.14 -0.21,0.56 -2.67,3.87 -1.97,5.07 0.7,1.2 2.65,1.5 4.88,1.27 2.31,-0.24 3.34,-1.22 3.71,-2.67 0.66,-2.58 -0.38,-13.21 -0.23,-18.63 0.14,-5.42 0.94,-7.27 0.38,-8.68 -0.56,-1.41 -3.31,-4.72 -4.15,-8.94 -0.84,-4.22 -0.07,-7.39 -0.07,-11.12 0,-3.73 -0.21,-5.98 -0.21,-5.98 0,0 2.82,-1.07 3.98,-3.17 1.16,-2.11 1.58,-6.83 0.53,-6.97 -1.06,-0.14 -2.56,2.71 -3.17,3.38 -1.03,1.13 -3.1,1.62 -3.1,1.62 0,0 -2.32,-6.26 -9.15,-7.53 -6.83,-1.27 -15.1,2.19 -19.43,3.03 -4.36,0.84 -7.04,1.41 -7.74,0.14 -0.7,-1.27 0.21,-3.8 1.69,-6.26 1.48,-2.46 2.23,-4.08 2.44,-5.77 0.21,-1.69 0.23,-3.45 0.23,-3.45 0,0 5.07,-0.92 8.17,-4.36 3.1,-3.45 5.84,-10.7 6.76,-12.53 0.92,-1.83 1.69,-2.18 1.27,-3.17 -0.42,-0.99 -6.12,-1.27 -9.64,-0.28 -3.2,0.9 -7.74,3.8 -9.57,6.12 -1.86,2.3 -2.99,4.76 -2.99,4.76 z"
         fill="#d17856"
         id="path4-6" /><path
         d="m 54.75,37.9 c -1.42,-1.36 -1.22,-3.71 1.08,-6.52 2.3,-2.81 5.1,-4.55 7.65,-5.54 2.06,-0.8 4.91,-1.58 5.54,-0.99 0.29,0.28 -1.47,3.84 -3.58,7.25 -1.94,3.14 -4.35,5.51 -6.23,6.22 -1.66,0.62 -3.38,0.61 -4.46,-0.42 z"
         fill="#ffeac3"
         id="path5-4" /><path
         d="m 25.88,25.07 c -0.33,0.61 1.59,2.88 4.26,6.34 2.03,2.63 3.39,4.57 4.41,4.74 0.63,0.11 1.28,-0.5 1.06,-1.48 -0.39,-1.69 -1.85,-3.73 -3.8,-5.73 -2.26,-2.3 -5.6,-4.48 -5.93,-3.87 z"
         fill="#ffeac3"
         id="path6-1" /><path
         d="m 46.62,40.55 c -0.11,1.65 -0.75,2.7 -2.29,2.82 -1.24,0.1 -2.29,-1.39 -2.29,-2.89 0,-1.5 1.05,-2.56 2.29,-2.56 1.24,0 2.4,1.13 2.29,2.63 z"
         fill="#0a070b"
         id="path7-3" /><path
         d="m 26.86,48.93 c 0,0 2.78,-1.76 2.78,-3.2 0,-1.13 -1.08,-2.05 -2.18,-2.71 -0.61,-0.36 -1.51,-0.6 -1.94,-0.04 -0.42,0.56 -1.02,2.04 -0.63,4.47 0.39,2.43 1.65,2.89 1.65,2.89 0,0 -0.7,1.27 3.66,1.16 4.36,-0.11 4.43,-1.2 4.33,-1.83 -0.11,-0.63 -2.75,-0.6 -4.15,-0.39 -2.07,0.32 -3.52,-0.35 -3.52,-0.35 z"
         fill="#2c2a32"
         id="path8-6" /><path
         d="m 47.8,32.25 c 0,0 2.25,-5.42 2.75,-7.5 0.38,-1.61 0.42,-4.5 0.46,-6.23 0.01,-0.65 -0.42,-1.2 -0.39,-2.25 0.04,-1.19 0.69,-2.38 2.25,-2.43 1.45,-0.04 2.29,0.99 2.36,2.15 0.07,1.2 -0.49,1.83 -0.53,2.53 -0.11,1.87 -0.32,5.56 -0.32,5.56 0,0 2.85,-2.67 3.17,-3.48 0.32,-0.81 0.35,-4.89 0.35,-5.7 v -1.94 c 0,0 -0.83,-1.18 -0.81,-2.22 0.01,-0.83 0.63,-2.08 2.01,-2.11 1.49,-0.04 2.12,0.94 2.22,1.97 0.09,1.03 -0.42,1.97 -0.42,1.97 l -0.14,4.33 c 0,0 1.58,-2.08 2.22,-2.96 0.63,-0.88 1.34,-2.29 1.34,-2.29 0,0 -0.36,-1.17 -0.21,-2.32 0.14,-1.04 0.84,-2.18 2.29,-2.22 1.41,-0.03 2.18,1.06 2.18,2.22 0,1.76 -1.06,2.96 -1.06,2.96 0,0 -2.6,5.1 -4.61,7.74 -1.46,1.92 -2.46,3.34 -3.1,3.73 -0.63,0.39 -4.65,2.64 -6.48,5.35 -1.17,1.73 -2.64,4.12 -2.64,4.12 0,0 -0.69,1.01 -1.97,0.53 C 47.7,33.37 47.8,32.25 47.8,32.25 Z"
         fill="#bd9178"
         id="path9-0" /><path
         d="m 23.52,10.78 c 0,0 2.01,5.1 3.41,7.88 1.4,2.78 3.48,5.63 3.48,5.63 0,0 2.87,2.15 3.8,3.27 1.69,2.04 3.63,5.81 3.63,5.81 l 2.31,-1.62 -2.06,-3.55 c 0,0 -0.04,-3.63 -0.04,-5.03 0,-1.16 0.04,-3.2 0.04,-3.2 0,0 0.69,-1.07 0.74,-2.15 0.06,-1.22 -0.59,-2.46 -2.04,-2.53 -1.37,-0.07 -2.15,1.12 -2.25,2.18 -0.11,1.06 0.46,2.01 0.46,2.01 l -0.14,5.74 c 0,0 -0.77,-1.44 -1.06,-1.83 -0.29,-0.39 -0.97,-2 -1.13,-2.29 -0.32,-0.6 0.32,-5.63 0.32,-6.44 0,-0.81 0.21,-3.17 0.21,-3.17 0,0 0.68,-1.03 0.67,-2.18 C 33.86,8.28 33.25,7.14 32,7.05 c -1.41,-0.11 -2.15,0.9 -2.32,1.83 -0.21,1.14 0.28,2.11 0.28,2.11 0,0 -0.22,5.13 -0.56,5.03 -0.39,-0.11 -2.75,-6.26 -2.75,-6.26 0,0 0.54,-1.28 0.14,-2.89 -0.37,-1.49 -1.58,-2.43 -3.31,-1.94 -1.74,0.5 -2.08,2.32 -1.51,3.73 0.51,1.28 1.55,2.12 1.55,2.12 z"
         fill="#bd9178"
         id="path10-7" /></g></g></svg>
