<?xml version="1.0" encoding="UTF-8" standalone="no"?>
<!-- Created with Inkscape (http://www.inkscape.org/) -->

<svg
   width="1920"
   height="1080"
   viewBox="0 0 508 285.74999"
   version="1.1"
   id="svg1"
   inkscape:version="1.3 (0e150ed6c4, 2023-07-21)"
   sodipodi:docname="hills4.svg"
   xml:space="preserve"
   inkscape:export-filename="seasons\res\spring\mountains3.svg"
   inkscape:export-xdpi="96"
   inkscape:export-ydpi="96"
   xmlns:inkscape="http://www.inkscape.org/namespaces/inkscape"
   xmlns:sodipodi="http://sodipodi.sourceforge.net/DTD/sodipodi-0.dtd"
   xmlns:xlink="http://www.w3.org/1999/xlink"
   xmlns="http://www.w3.org/2000/svg"
   xmlns:svg="http://www.w3.org/2000/svg"><sodipodi:namedview
     id="namedview1"
     pagecolor="#ffffff"
     bordercolor="#666666"
     borderopacity="1.0"
     inkscape:showpageshadow="2"
     inkscape:pageopacity="0.0"
     inkscape:pagecheckerboard="0"
     inkscape:deskcolor="#d1d1d1"
     inkscape:document-units="mm"
     inkscape:zoom="0.31274554"
     inkscape:cx="553.16536"
     inkscape:cy="516.39425"
     inkscape:window-width="1920"
     inkscape:window-height="1017"
     inkscape:window-x="1912"
     inkscape:window-y="-8"
     inkscape:window-maximized="1"
     inkscape:current-layer="svg1" /><defs
     id="defs1"><linearGradient
       id="linearGradient69"
       inkscape:collect="always"><stop
         style="stop-color:#f6c105;stop-opacity:1;"
         offset="0"
         id="stop69" /><stop
         style="stop-color:#f3d872;stop-opacity:1;"
         offset="1"
         id="stop70" /></linearGradient><linearGradient
       inkscape:collect="always"
       xlink:href="#linearGradient69"
       id="linearGradient70"
       x1="-21.236588"
       y1="169.07014"
       x2="38.853203"
       y2="169.07014"
       gradientUnits="userSpaceOnUse" /></defs><g
     inkscape:groupmode="layer"
     id="layer10"
     inkscape:label="BackgroundTrees"
     style="display:inline"><path
       style="fill:#09c529;fill-opacity:1;stroke:none;stroke-width:0.264583px;stroke-linecap:butt;stroke-linejoin:miter;stroke-opacity:1"
       d="m 82.841321,133.16864 22.115449,-43.440252 3.87501,43.440252 19.48506,-32.96785 12.26338,40.97764 z"
       id="path96" /><path
       style="fill:#09a023;fill-opacity:1;stroke:none;stroke-width:0.264583px;stroke-linecap:butt;stroke-linejoin:miter;stroke-opacity:1"
       d="m 174.3793,157.57353 19.14283,-37.78673 8.29247,51.9871 9.65394,-45.55081 18.69231,58.3387 -48.29121,-1.2963 z"
       id="path97" /><path
       style="fill:#0cc92d;fill-opacity:1;stroke:none;stroke-width:0.264583px;stroke-linecap:butt;stroke-linejoin:miter;stroke-opacity:1"
       d="m 267.39572,168.09805 20.64417,-45.76335 5.68303,12.31438 13.23071,-29.54649 9.66517,25.00889 8.80946,-10.32468 17.9464,44.82335 z"
       id="path98" /><path
       style="fill:#09a023;fill-opacity:1;stroke:none;stroke-width:0.264583px;stroke-linecap:butt;stroke-linejoin:miter;stroke-opacity:1"
       d="m 201.8146,171.7739 21.31911,-43.45706 9.27231,16.15177 5.68303,-13.75892 11.05892,43.66961 z"
       id="path99" /><path
       style="fill:#09c529;fill-opacity:1;stroke:none;stroke-width:0.264583px;stroke-linecap:butt;stroke-linejoin:miter;stroke-opacity:1"
       d="m 242.47626,176.3668 15.95206,-43.19816 9.57652,44.20172 z"
       id="path100" /><path
       style="fill:#0cc92d;fill-opacity:1;stroke:none;stroke-width:0.264583px;stroke-linecap:butt;stroke-linejoin:miter;stroke-opacity:1"
       d="m 136.69183,151.04896 23.8601,-44.44429 0.96577,45.42637 19.54728,-26.42739 -3.80705,39.64815 z"
       id="path101" /><path
       style="fill:#09a023;fill-opacity:1;stroke:none;stroke-width:0.264583px;stroke-linecap:butt;stroke-linejoin:miter;stroke-opacity:1"
       d="m 42.016587,128.03516 18.18904,-39.281621 7.296767,44.415101 z"
       id="path102" /><path
       style="fill:#20e211;fill-opacity:1;stroke:none;stroke-width:0.264583px;stroke-linecap:butt;stroke-linejoin:miter;stroke-opacity:1"
       d="m 128.16929,124.15078 16.07404,-21.99605 1.0575,13.29868 9.45736,-8.84874 0.63674,19.96317 13.59396,-6.78104 2.30245,19.03054 z"
       id="path105" /><path
       style="fill:#3be211;fill-opacity:1;stroke:none;stroke-width:0.264583px;stroke-linecap:butt;stroke-linejoin:miter;stroke-opacity:1"
       d="m 59.008634,116.90115 8.834638,-13.70924 4.537192,6.47293 8.518471,-13.64362 3.595508,23.76558 z"
       id="path106" /><path
       style="fill:#11e225;fill-opacity:1;stroke:none;stroke-width:0.264583px;stroke-linecap:butt;stroke-linejoin:miter;stroke-opacity:1"
       d="m 101.41448,119.93767 10.29629,-22.435948 3.66274,11.344358 6.34502,-5.21084 1.37475,20.72704 z"
       id="path107" /><path
       style="fill:#11e225;fill-opacity:1;stroke:none;stroke-width:0.264583px;stroke-linecap:butt;stroke-linejoin:miter;stroke-opacity:1"
       d="m 189.49851,143.74366 11.98006,-14.72969 0.7915,30.66889 z"
       id="path108" /><path
       style="fill:#11e225;fill-opacity:1;stroke:none;stroke-width:0.264583px;stroke-linecap:butt;stroke-linejoin:miter;stroke-opacity:1"
       d="m 230.61299,160.05847 18.53498,-31.74163 14.06861,26.95266 4.78826,-18.66918 7.71599,18.66918 z"
       id="path109" /><path
       style="fill:#e26011;fill-opacity:1;stroke:none;stroke-width:0.264583px;stroke-linecap:butt;stroke-linejoin:miter;stroke-opacity:1"
       d="m 202.27007,159.68286 18.54462,-4.29042 4.66659,17.68416 z"
       id="path110" /><path
       style="fill:#3be211;fill-opacity:1;stroke:none;stroke-width:0.264583px;stroke-linecap:butt;stroke-linejoin:miter;stroke-opacity:1"
       d="m 320.04434,151.54731 14.95533,-28.61439 8.65568,14.05765 8.85632,-6.48576 8.36076,16.80531 z"
       id="path111" /><path
       style="fill:#08b516;fill-opacity:1;stroke:none;stroke-width:0.264583px;stroke-linecap:butt;stroke-linejoin:miter;stroke-opacity:1"
       d="m 347.26305,145.66504 11.96428,-17.3482 13.25877,20.65804 z"
       id="path112" /><path
       style="fill:#32bb10;fill-opacity:1;stroke:none;stroke-width:0.264583px;stroke-linecap:butt;stroke-linejoin:miter;stroke-opacity:1"
       d="m 403.49513,141.9262 c 0,-0.89732 -6.87945,-26.91962 -6.87945,-26.91962 l -4.03794,12.11383 -3.8884,-1.34598 -0.89731,5.38392 -6.72991,-7.26076 -4.63614,18.97741 z"
       id="path113" /><path
       style="fill:#e25611;fill-opacity:1;stroke:none;stroke-width:0.264583px;stroke-linecap:butt;stroke-linejoin:miter;stroke-opacity:1"
       d="m 363.67937,140.83143 5.71759,-16.93384 10.02009,22.81432 z"
       id="path114" /><path
       style="fill:#16cf0d;fill-opacity:1;stroke:none;stroke-width:0.264583px;stroke-linecap:butt;stroke-linejoin:miter;stroke-opacity:1"
       d="m 412.76746,146.94545 c 3.04249,-3.93212 20.80852,-30.62019 20.80852,-30.62019 l 1.2513,22.28533 7.98965,-9.83176 3.25186,5.91483 6.33074,-14.13838 4.4415,18.05531 -40.81957,4.40274 z"
       id="path115" /><path
       style="fill:#11e222;fill-opacity:1;stroke:none;stroke-width:0.264583px;stroke-linecap:butt;stroke-linejoin:miter;stroke-opacity:1"
       d="m 474.13277,134.73421 8.92479,-14.94741 9.87052,24.40085 z"
       id="path116" /><path
       style="fill:#48ec1f;fill-opacity:1;stroke:none;stroke-width:0.264583px;stroke-linecap:butt;stroke-linejoin:miter;stroke-opacity:1"
       d="m 456.84103,138.61059 v 0 l 5.20428,-9.83176 1.6451,3.7255 5.3839,-7.25334 4.87196,15.62834 z"
       id="path117" /></g><g
     inkscape:groupmode="layer"
     id="layer3"
     inkscape:label="Grass"
     style="display:inline"><path
       style="display:inline;fill:#14e030;fill-opacity:1;stroke:none;stroke-width:0.264583px;stroke-linecap:butt;stroke-linejoin:miter;stroke-opacity:1"
       d="m -34.343423,153.9904 c 0,0 159.095203,-21.44043 223.596693,26.84251 64.50149,48.28294 126.95654,59.05078 126.95654,59.05078 l 3.58928,124.42846 -363.713931,-5.38392 z"
       id="path88"
       transform="translate(0.24524095,-37.089249)" /><path
       style="fill:#18f029;fill-opacity:1;stroke:none;stroke-width:0.264583px;stroke-linecap:butt;stroke-linejoin:miter;stroke-opacity:1"
       d="m -43.6696,128.61595 c 0,0 156.49638,-38.939791 261.9326,46.73455 86.53918,70.31918 182.61993,73.03156 182.61993,73.03156 l 11.88453,132.08186 c 0,0 -451.651351,-20.93748 -449.258497,-24.52677 2.392855,-3.58928 -10.169633,-226.72299 -10.169633,-226.72299 z"
       id="path90"
       sodipodi:nodetypes="csccscc" /><path
       id="path90-5"
       style="fill:#e8d710;fill-opacity:1;stroke:none;stroke-width:0.264583px;stroke-linecap:butt;stroke-linejoin:miter;stroke-opacity:1"
       d="m 47.7585,119.85515 c -6.564541,-0.12229 -12.91838,-0.0744 -19.01641,0.10025 32.49753,11.57647 70.434086,31.72245 80.08969,64.60639 17.68779,60.23905 92.98294,76.61031 92.98294,76.61031 l 12.06129,-4.41058 c 0,0 -87.10242,-31.25591 -93.77205,-72.19973 -4.84535,-29.74478 -36.946621,-50.68122 -64.575424,-64.48406 -4.766474,-0.26344 -3.188383,-0.13723 -7.770036,-0.22258 z"
       sodipodi:nodetypes="scsccscs" /><path
       style="display:inline;fill:#31fa69;fill-opacity:1;stroke:none;stroke-width:0.264583px;stroke-linecap:butt;stroke-linejoin:miter;stroke-opacity:1"
       d="m 529.77211,173.48197 c 0,0 -232.20098,-13.64027 -328.20275,35.38118 -89.45483,45.67838 -230.528859,37.6009 -230.528859,37.6009 l -5.383924,95.7142 567.106593,-7.17857 z"
       id="path87"
       sodipodi:nodetypes="cscccc"
       transform="translate(0.24524095,-37.089249)" /><path
       style="fill:#3eff26;fill-opacity:1;stroke:none;stroke-width:0.264583px;stroke-linecap:butt;stroke-linejoin:miter;stroke-opacity:1"
       d="m 538.91123,151.49443 c 0,0 -268.2058,-13.0168 -322.52218,23.80319 -54.31639,36.81999 -257.146895,44.01956 -257.146895,44.01956 l -7.776779,124.0046 586.249434,-23.92855 z"
       id="path91" /><g
       id="Flower"
       inkscape:label="Flower"
       transform="matrix(0.45631068,0,0,0.45631068,10.605226,148.23503)"><rect
         style="fill:#1ed43d;fill-opacity:1;stroke-width:0.264999;stroke-linejoin:round"
         id="rect67"
         width="1.1964273"
         height="9.3844776"
         x="29.835909"
         y="272.97238" /><ellipse
         style="fill:#def605;fill-opacity:1;stroke-width:0.264999;stroke-linejoin:round"
         id="path68"
         cx="30.5089"
         cy="272.18723"
         rx="3.8510008"
         ry="2.8415151" /></g><g
       id="Flower-9"
       inkscape:label="Flower"
       transform="matrix(0.76699028,0,0,0.76699028,22.680734,46.885299)"><rect
         style="fill:#1ed43d;fill-opacity:1;stroke-width:0.264999;stroke-linejoin:round"
         id="rect67-5"
         width="1.1964273"
         height="9.3844776"
         x="29.835909"
         y="272.97238" /><ellipse
         style="fill:#f6d605;fill-opacity:1;stroke-width:0.264999;stroke-linejoin:round"
         id="path68-5"
         cx="30.5089"
         cy="272.18723"
         rx="3.8510008"
         ry="2.8415151" /></g><g
       id="Flower-3"
       inkscape:label="Flower"
       transform="matrix(0.78031634,0,0,0.78031634,42.383234,59.858569)"><rect
         style="fill:#1ed43d;fill-opacity:1;stroke-width:0.264999;stroke-linejoin:round"
         id="rect67-1"
         width="1.1964273"
         height="9.3844776"
         x="29.835909"
         y="272.97238" /><ellipse
         style="fill:#f6ea05;fill-opacity:1;stroke-width:0.264999;stroke-linejoin:round"
         id="path68-2"
         cx="30.5089"
         cy="272.18723"
         rx="3.8510008"
         ry="2.8415151" /></g><g
       id="Flower-0"
       inkscape:label="Flower"
       transform="matrix(0.78031634,0,0,0.78031634,-5.8223542,32.291311)"><rect
         style="fill:#1ed43d;fill-opacity:1;stroke-width:0.264999;stroke-linejoin:round"
         id="rect67-7"
         width="1.1964273"
         height="9.3844776"
         x="29.835909"
         y="272.97238" /><ellipse
         style="fill:#def605;fill-opacity:1;stroke-width:0.264999;stroke-linejoin:round"
         id="path68-0"
         cx="30.5089"
         cy="272.18723"
         rx="3.8510008"
         ry="2.8415151" /></g><g
       id="Flower-2"
       inkscape:label="Flower"
       transform="matrix(0.80582524,0,0,0.80582524,17.14756,16.846105)"><rect
         style="fill:#1ed43d;fill-opacity:1;stroke-width:0.264999;stroke-linejoin:round"
         id="rect67-76"
         width="1.1964273"
         height="9.3844776"
         x="29.835909"
         y="272.97238" /><ellipse
         style="fill:#def605;fill-opacity:1;stroke-width:0.264999;stroke-linejoin:round"
         id="path68-00"
         cx="30.5089"
         cy="272.18723"
         rx="3.8510008"
         ry="2.8415151" /></g><g
       id="Flower-4"
       inkscape:label="Flower"
       transform="matrix(0.89015816,0,0,0.89015816,-3.0922455,-17.774857)"><rect
         style="fill:#1ed43d;fill-opacity:1;stroke-width:0.264999;stroke-linejoin:round"
         id="rect67-58"
         width="1.1964273"
         height="9.3844776"
         x="29.835909"
         y="272.97238" /><ellipse
         style="fill:#def605;fill-opacity:1;stroke-width:0.264999;stroke-linejoin:round"
         id="path68-3"
         cx="30.5089"
         cy="272.18723"
         rx="3.8510008"
         ry="2.8415151" /></g><g
       id="Flower-92"
       inkscape:label="Flower"
       transform="matrix(0.83523725,0,0,0.83523725,38.059331,12.628272)"><rect
         style="fill:#1ed43d;fill-opacity:1;stroke-width:0.264999;stroke-linejoin:round"
         id="rect67-4"
         width="1.1964273"
         height="9.3844776"
         x="29.835909"
         y="272.97238" /><ellipse
         style="fill:#def605;fill-opacity:1;stroke-width:0.264999;stroke-linejoin:round"
         id="path68-20"
         cx="30.5089"
         cy="272.18723"
         rx="3.8510008"
         ry="2.8415151" /></g><g
       id="Flower-26"
       inkscape:label="Flower"
       transform="matrix(0.47825131,0,0,0.47825131,74.298744,136.03299)"><rect
         style="fill:#1ed43d;fill-opacity:1;stroke-width:0.264999;stroke-linejoin:round"
         id="rect67-0"
         width="1.1964273"
         height="9.3844776"
         x="29.835909"
         y="272.97238" /><ellipse
         style="fill:#f6d905;fill-opacity:1;stroke-width:0.264999;stroke-linejoin:round"
         id="path68-32"
         cx="30.5089"
         cy="272.18723"
         rx="3.8510008"
         ry="2.8415151" /></g><g
       id="Flower-94"
       inkscape:label="Flower"
       transform="matrix(0.83523725,0,0,0.83523725,75.894748,23.476189)"><rect
         style="fill:#1ed43d;fill-opacity:1;stroke-width:0.264999;stroke-linejoin:round"
         id="rect67-43"
         width="1.1964273"
         height="9.3844776"
         x="29.835909"
         y="272.97238" /><ellipse
         style="fill:#f6cb05;fill-opacity:1;stroke-width:0.264999;stroke-linejoin:round"
         id="path68-06"
         cx="30.5089"
         cy="272.18723"
         rx="3.8510008"
         ry="2.8415151" /></g><g
       id="Flower-29"
       inkscape:label="Flower"
       transform="matrix(0.83523725,0,0,0.83523725,45.467664,30.884521)"><rect
         style="fill:#1ed43d;fill-opacity:1;stroke-width:0.264999;stroke-linejoin:round"
         id="rect67-59"
         width="1.1964273"
         height="9.3844776"
         x="29.835909"
         y="272.97238" /><ellipse
         style="fill:#a5f605;fill-opacity:1;stroke-width:0.264999;stroke-linejoin:round"
         id="path68-38"
         cx="30.5089"
         cy="272.18723"
         rx="3.8510008"
         ry="2.8415151" /></g><g
       id="Flower-8"
       inkscape:label="Flower"
       transform="matrix(0.80582524,0,0,0.80582524,26.672561,49.654439)"><rect
         style="fill:#1ed43d;fill-opacity:1;stroke-width:0.264999;stroke-linejoin:round"
         id="rect67-6"
         width="1.1964273"
         height="9.3844776"
         x="29.835909"
         y="272.97238" /><ellipse
         style="fill:#f6c205;fill-opacity:1;stroke-width:0.264999;stroke-linejoin:round"
         id="path68-33"
         cx="30.5089"
         cy="272.18723"
         rx="3.8510008"
         ry="2.8415151" /></g><g
       id="Flower-09"
       inkscape:label="Flower"
       transform="matrix(0.57281553,0,0,0.57281553,13.834109,99.45002)"><rect
         style="fill:#1ed43d;fill-opacity:1;stroke-width:0.264999;stroke-linejoin:round"
         id="rect67-61"
         width="1.1964273"
         height="9.3844776"
         x="29.835909"
         y="272.97238" /><ellipse
         style="fill:#def605;fill-opacity:1;stroke-width:0.264999;stroke-linejoin:round"
         id="path68-7"
         cx="30.5089"
         cy="272.18723"
         rx="3.8510008"
         ry="2.8415151" /></g><g
       id="Flower-6"
       inkscape:label="Flower"
       transform="matrix(0.80582524,0,0,0.80582524,-14.337857,46.214855)"><rect
         style="fill:#1ed43d;fill-opacity:1;stroke-width:0.264999;stroke-linejoin:round"
         id="rect67-16"
         width="1.1964273"
         height="9.3844776"
         x="29.835909"
         y="272.97238" /><ellipse
         style="fill:#def605;fill-opacity:1;stroke-width:0.264999;stroke-linejoin:round"
         id="path68-50"
         cx="30.5089"
         cy="272.18723"
         rx="3.8510008"
         ry="2.8415151" /></g><g
       id="Flower-97"
       inkscape:label="Flower"
       transform="matrix(0.78031634,0,0,0.78031634,-14.716176,28.743902)"><rect
         style="fill:#1ed43d;fill-opacity:1;stroke-width:0.264999;stroke-linejoin:round"
         id="rect67-3"
         width="1.1964273"
         height="9.3844776"
         x="29.835909"
         y="272.97238" /><ellipse
         style="fill:#def605;fill-opacity:1;stroke-width:0.264999;stroke-linejoin:round"
         id="path68-9"
         cx="30.5089"
         cy="272.18723"
         rx="3.8510008"
         ry="2.8415151" /></g><g
       id="Flower-67"
       inkscape:label="Flower"
       transform="matrix(0.78031634,0,0,0.78031634,75.563148,60.91441)"><rect
         style="fill:#1ed43d;fill-opacity:1;stroke-width:0.264999;stroke-linejoin:round"
         id="rect67-05"
         width="1.1964273"
         height="9.3844776"
         x="29.835909"
         y="272.97238" /><ellipse
         style="fill:#f6e005;fill-opacity:1;stroke-width:0.264999;stroke-linejoin:round"
         id="path68-4"
         cx="30.5089"
         cy="272.18723"
         rx="3.8510008"
         ry="2.8415151" /></g><g
       id="Flower-35"
       inkscape:label="Flower"
       transform="matrix(0.80777681,0,0,0.80777681,89.330109,35.705082)"><rect
         style="fill:#1ed43d;fill-opacity:1;stroke-width:0.264999;stroke-linejoin:round"
         id="rect67-2"
         width="1.1964273"
         height="9.3844776"
         x="29.835909"
         y="272.97238" /><ellipse
         style="fill:#bff605;fill-opacity:1;stroke-width:0.264999;stroke-linejoin:round"
         id="path68-98"
         cx="30.5089"
         cy="272.18723"
         rx="3.8510008"
         ry="2.8415151" /></g><g
       id="Flower-5"
       inkscape:label="Flower"
       transform="matrix(0.87642795,0,0,0.87642795,7.5946008,-12.810169)"><rect
         style="fill:#1ed43d;fill-opacity:1;stroke-width:0.264999;stroke-linejoin:round"
         id="rect67-9"
         width="1.1964273"
         height="9.3844776"
         x="29.835909"
         y="272.97238" /><ellipse
         style="fill:#def605;fill-opacity:1;stroke-width:0.264999;stroke-linejoin:round"
         id="path68-1"
         cx="30.5089"
         cy="272.18723"
         rx="3.8510008"
         ry="2.8415151" /></g><g
       id="Flower-7"
       inkscape:label="Flower"
       transform="matrix(0.89015816,0,0,0.89015816,24.953587,-5.3394414)"><rect
         style="fill:#1ed43d;fill-opacity:1;stroke-width:0.264999;stroke-linejoin:round"
         id="rect67-78"
         width="1.1964273"
         height="9.3844776"
         x="29.835909"
         y="272.97238" /><ellipse
         style="fill:#f6d805;fill-opacity:1;stroke-width:0.264999;stroke-linejoin:round"
         id="path68-28"
         cx="30.5089"
         cy="272.18723"
         rx="3.8510008"
         ry="2.8415151" /></g><g
       id="Flower-60"
       inkscape:label="Flower"
       transform="matrix(0.80777681,0,0,0.80777681,7.305952,18.966295)"><rect
         style="fill:#1ed43d;fill-opacity:1;stroke-width:0.264999;stroke-linejoin:round"
         id="rect67-49"
         width="1.1964273"
         height="9.3844776"
         x="29.835909"
         y="272.97238" /><ellipse
         style="fill:#f6e405;fill-opacity:1;stroke-width:0.264999;stroke-linejoin:round"
         id="path68-8"
         cx="30.5089"
         cy="272.18723"
         rx="3.8510008"
         ry="2.8415151" /></g><g
       id="Flower-73"
       inkscape:label="Flower"
       transform="matrix(0.97253954,0,0,0.85370204,48.316724,3.9473672)"><rect
         style="fill:#1ed43d;fill-opacity:1;stroke-width:0.264999;stroke-linejoin:round"
         id="rect67-19"
         width="1.1964273"
         height="9.3844776"
         x="29.835909"
         y="272.97238" /><ellipse
         style="fill:#def605;fill-opacity:1;stroke-width:0.264999;stroke-linejoin:round"
         id="path68-6"
         cx="30.5089"
         cy="272.18723"
         rx="3.8510008"
         ry="2.8415151" /></g><g
       id="Flower-93"
       inkscape:label="Flower"
       transform="matrix(0.78031634,0,0,0.78031634,71.802575,23.452234)"><rect
         style="fill:#1ed43d;fill-opacity:1;stroke-width:0.264999;stroke-linejoin:round"
         id="rect67-40"
         width="1.1964273"
         height="9.3844776"
         x="29.835909"
         y="272.97238" /><ellipse
         style="fill:#def605;fill-opacity:1;stroke-width:0.264999;stroke-linejoin:round"
         id="path68-320"
         cx="30.5089"
         cy="272.18723"
         rx="3.8510008"
         ry="2.8415151" /></g><g
       id="Flower-37"
       inkscape:label="Flower"
       transform="matrix(0.89015816,0,0,0.98374467,79.98692,-34.250731)"><rect
         style="fill:#1ed43d;fill-opacity:1;stroke-width:0.264999;stroke-linejoin:round"
         id="rect67-161"
         width="1.1964273"
         height="9.3844776"
         x="29.835909"
         y="272.97238" /><ellipse
         style="fill:#def605;fill-opacity:1;stroke-width:0.264999;stroke-linejoin:round"
         id="path68-987"
         cx="30.5089"
         cy="272.18723"
         rx="3.8510008"
         ry="2.8415151" /></g><g
       id="Flower-930"
       inkscape:label="Flower"
       transform="matrix(0.78868074,0,0,0.78868074,107.07384,43.26341)"><rect
         style="fill:#1ed43d;fill-opacity:1;stroke-width:0.264999;stroke-linejoin:round"
         id="rect67-22"
         width="1.1964273"
         height="9.3844776"
         x="29.835909"
         y="272.97238" /><ellipse
         style="fill:#def605;fill-opacity:1;stroke-width:0.264999;stroke-linejoin:round"
         id="path68-005"
         cx="30.5089"
         cy="272.18723"
         rx="3.8510008"
         ry="2.8415151" /></g><g
       id="Flower-02"
       inkscape:label="Flower"
       transform="translate(88.965019,7.4084667)"><rect
         style="fill:#1ed43d;fill-opacity:1;stroke-width:0.264999;stroke-linejoin:round"
         id="rect67-13"
         width="1.1964273"
         height="9.3844776"
         x="29.835909"
         y="272.97238" /><ellipse
         style="fill:#def605;fill-opacity:1;stroke-width:0.264999;stroke-linejoin:round"
         id="path68-72"
         cx="30.5089"
         cy="272.18723"
         rx="3.8510008"
         ry="2.8415151" /></g><g
       id="Flower-86"
       inkscape:label="Flower"
       transform="matrix(0.86269772,0,0,0.86269772,51.509459,47.40683)"><rect
         style="fill:#1ed43d;fill-opacity:1;stroke-width:0.264999;stroke-linejoin:round"
         id="rect67-62"
         width="1.1964273"
         height="9.3844776"
         x="29.835909"
         y="272.97238" /><ellipse
         style="fill:#f6db05;fill-opacity:1;stroke-width:0.264999;stroke-linejoin:round"
         id="path68-68"
         cx="30.5089"
         cy="272.18723"
         rx="3.8510008"
         ry="2.8415151" /></g><g
       id="Flower-1"
       inkscape:label="Flower"
       transform="matrix(0.89015816,0,0,0.98374467,119.14525,13.374269)"><rect
         style="fill:#1ed43d;fill-opacity:1;stroke-width:0.264999;stroke-linejoin:round"
         id="rect67-35"
         width="1.1964273"
         height="9.3844776"
         x="29.835909"
         y="272.97238" /><ellipse
         style="fill:#def605;fill-opacity:1;stroke-width:0.264999;stroke-linejoin:round"
         id="path68-24"
         cx="30.5089"
         cy="272.18723"
         rx="3.8510008"
         ry="2.8415151" /></g><g
       id="Flower-64"
       inkscape:label="Flower"
       transform="matrix(0.83523725,0,0,0.91872337,127.4885,13.42498)"><rect
         style="fill:#1ed43d;fill-opacity:1;stroke-width:0.264999;stroke-linejoin:round"
         id="rect67-433"
         width="1.1964273"
         height="9.3844776"
         x="29.835909"
         y="272.97238" /><ellipse
         style="fill:#def605;fill-opacity:1;stroke-width:0.264999;stroke-linejoin:round"
         id="path68-46"
         cx="30.5089"
         cy="272.18723"
         rx="3.8510008"
         ry="2.8415151" /></g><g
       id="Flower-46"
       inkscape:label="Flower"
       transform="matrix(0.7665861,0,0,0.7665861,-13.348646,17.568591)"><rect
         style="fill:#1ed43d;fill-opacity:1;stroke-width:0.264999;stroke-linejoin:round"
         id="rect67-620"
         width="1.1964273"
         height="9.3844776"
         x="29.835909"
         y="272.97238" /><ellipse
         style="fill:#def605;fill-opacity:1;stroke-width:0.264999;stroke-linejoin:round"
         id="path68-29"
         cx="30.5089"
         cy="272.18723"
         rx="3.8510008"
         ry="2.8415151" /></g><g
       id="Flower-76"
       inkscape:label="Flower"
       transform="matrix(0.66990291,0,0,0.66990291,224.9601,-15.58874)"><rect
         style="fill:#1ed43d;fill-opacity:1;stroke-width:0.264999;stroke-linejoin:round"
         id="rect67-10"
         width="1.1964273"
         height="9.3844776"
         x="29.835909"
         y="272.97238" /><ellipse
         style="fill:#05f6f1;fill-opacity:1;stroke-width:0.264999;stroke-linejoin:round"
         id="path68-87"
         cx="30.5089"
         cy="272.18723"
         rx="3.8510008"
         ry="2.8415151" /></g><g
       id="Flower-62"
       inkscape:label="Flower"
       transform="translate(226.52529,-103.47545)"><rect
         style="fill:#1ed43d;fill-opacity:1;stroke-width:0.264999;stroke-linejoin:round"
         id="rect67-01"
         width="1.1964273"
         height="9.3844776"
         x="29.835909"
         y="272.97238" /><ellipse
         style="fill:#05b1f6;fill-opacity:1;stroke-width:0.264999;stroke-linejoin:round"
         id="path68-82"
         cx="30.5089"
         cy="272.18723"
         rx="3.8510008"
         ry="2.8415151" /></g><g
       id="Flower-675"
       inkscape:label="Flower"
       transform="matrix(0.90291261,0,0,0.90291261,231.66687,-62.947444)"><rect
         style="fill:#1ed43d;fill-opacity:1;stroke-width:0.264999;stroke-linejoin:round"
         id="rect67-52"
         width="1.1964273"
         height="9.3844776"
         x="29.835909"
         y="272.97238" /><ellipse
         style="fill:#05dcf6;fill-opacity:1;stroke-width:0.264999;stroke-linejoin:round"
         id="path68-89"
         cx="30.5089"
         cy="272.18723"
         rx="3.8510008"
         ry="2.8415151" /></g><g
       id="Flower-74"
       inkscape:label="Flower"
       transform="matrix(0.8446602,0,0,0.8446602,244.24058,-64.928483)"><rect
         style="fill:#1ed43d;fill-opacity:1;stroke-width:0.264999;stroke-linejoin:round"
         id="rect67-75"
         width="1.1964273"
         height="9.3844776"
         x="29.835909"
         y="272.97238" /><ellipse
         style="fill:#23e3de;fill-opacity:1;stroke-width:0.264999;stroke-linejoin:round"
         id="path68-336"
         cx="30.5089"
         cy="272.18723"
         rx="3.8510008"
         ry="2.8415151" /></g><g
       id="Flower-50"
       inkscape:label="Flower"
       transform="matrix(0.66666668,0,0,0.66666668,266.12599,-6.6182666)"><rect
         style="fill:#1ed43d;fill-opacity:1;stroke-width:0.264999;stroke-linejoin:round"
         id="rect67-31"
         width="1.1964273"
         height="9.3844776"
         x="29.835909"
         y="272.97238" /><ellipse
         style="fill:#05e5f6;fill-opacity:1;stroke-width:0.264999;stroke-linejoin:round"
         id="path68-08"
         cx="30.5089"
         cy="272.18723"
         rx="3.8510008"
         ry="2.8415151" /></g><g
       id="Flower-38"
       inkscape:label="Flower"
       transform="matrix(0.74757283,0,0,0.74757283,241.50268,-28.875913)"><rect
         style="fill:#1ed43d;fill-opacity:1;stroke-width:0.264999;stroke-linejoin:round"
         id="rect67-310"
         width="1.1964273"
         height="9.3844776"
         x="29.835909"
         y="272.97238" /><ellipse
         style="fill:#059ef6;fill-opacity:1;stroke-width:0.264999;stroke-linejoin:round"
         id="path68-17"
         cx="30.5089"
         cy="272.18723"
         rx="3.8510008"
         ry="2.8415151" /></g><g
       id="Flower-61"
       inkscape:label="Flower"
       transform="matrix(0.8446602,0,0,0.8446602,228.29652,-52.132537)"><rect
         style="fill:#1ed43d;fill-opacity:1;stroke-width:0.264999;stroke-linejoin:round"
         id="rect67-12"
         width="1.1964273"
         height="9.3844776"
         x="29.835909"
         y="272.97238" /><ellipse
         style="fill:#059ef6;fill-opacity:1;stroke-width:0.264999;stroke-linejoin:round"
         id="path68-45"
         cx="30.5089"
         cy="272.18723"
         rx="3.8510008"
         ry="2.8415151" /></g><g
       id="Flower-63"
       inkscape:label="Flower"
       transform="matrix(0.90291261,0,0,0.90291261,208.90139,-70.399651)"><rect
         style="fill:#1ed43d;fill-opacity:1;stroke-width:0.264999;stroke-linejoin:round"
         id="rect67-92"
         width="1.1964273"
         height="9.3844776"
         x="29.835909"
         y="272.97238" /><ellipse
         style="fill:#059ff6;fill-opacity:1;stroke-width:0.264999;stroke-linejoin:round"
         id="path68-42"
         cx="30.5089"
         cy="272.18723"
         rx="3.8510008"
         ry="2.8415151" /></g><g
       id="Flower-59"
       inkscape:label="Flower"
       transform="matrix(0.66990291,0,0,0.66990291,226.58227,1.2987606)"><rect
         style="fill:#1ed43d;fill-opacity:1;stroke-width:0.264999;stroke-linejoin:round"
         id="rect67-70"
         width="1.1964273"
         height="9.3844776"
         x="29.835909"
         y="272.97238" /><ellipse
         style="fill:#22cff4;fill-opacity:1;stroke-width:0.264999;stroke-linejoin:round"
         id="path68-84"
         cx="30.5089"
         cy="272.18723"
         rx="3.8510008"
         ry="2.8415151" /></g><g
       id="Flower-600"
       inkscape:label="Flower"
       transform="translate(244.58585,-96.204775)"><rect
         style="fill:#1ed43d;fill-opacity:1;stroke-width:0.264999;stroke-linejoin:round"
         id="rect67-33"
         width="1.1964273"
         height="9.3844776"
         x="29.835909"
         y="272.97238" /><ellipse
         style="fill:#05f6cf;fill-opacity:1;stroke-width:0.264999;stroke-linejoin:round"
         id="path68-99"
         cx="30.5089"
         cy="272.18723"
         rx="3.8510008"
         ry="2.8415151" /></g><g
       id="Flower-17"
       inkscape:label="Flower"
       transform="matrix(0.88349516,0,0,0.88349516,254.54787,-80.158918)"><rect
         style="fill:#1ed43d;fill-opacity:1;stroke-width:0.264999;stroke-linejoin:round"
         id="rect67-91"
         width="1.1964273"
         height="9.3844776"
         x="29.835909"
         y="272.97238" /><ellipse
         style="fill:#05ebf6;fill-opacity:1;stroke-width:0.264999;stroke-linejoin:round"
         id="path68-986"
         cx="30.5089"
         cy="272.18723"
         rx="3.8510008"
         ry="2.8415151" /></g><g
       id="Flower-80"
       inkscape:label="Flower"
       transform="matrix(0.80582524,0,0,0.80582524,198.12256,-41.626811)"><rect
         style="fill:#1ed43d;fill-opacity:1;stroke-width:0.264999;stroke-linejoin:round"
         id="rect67-916"
         width="1.1964273"
         height="9.3844776"
         x="29.835909"
         y="272.97238" /><ellipse
         style="fill:#05bcf6;fill-opacity:1;stroke-width:0.264999;stroke-linejoin:round"
         id="path68-081"
         cx="30.5089"
         cy="272.18723"
         rx="3.8510008"
         ry="2.8415151" /></g><g
       id="Flower-949"
       inkscape:label="Flower"
       transform="translate(203.78287,-87.289595)"><rect
         style="fill:#1ed43d;fill-opacity:1;stroke-width:0.264999;stroke-linejoin:round"
         id="rect67-02"
         width="1.1964273"
         height="9.3844776"
         x="29.835909"
         y="272.97238" /><ellipse
         style="fill:#05e4f6;fill-opacity:1;stroke-width:0.264999;stroke-linejoin:round"
         id="path68-14"
         cx="30.5089"
         cy="272.18723"
         rx="3.8510008"
         ry="2.8415151" /></g><path
       style="fill:url(#linearGradient70);fill-opacity:1;stroke:none;stroke-width:0.264583px;stroke-linecap:butt;stroke-linejoin:miter;stroke-opacity:1"
       d="m -12.562488,135.04674 c 0,0 46.212008,5.23437 51.147273,27.96649 4.935262,22.73213 -59.821372,40.08032 -59.821372,40.08032 z"
       id="path69" /><path
       style="fill:#acf605;fill-opacity:1;stroke:none;stroke-width:0.264583px;stroke-linecap:butt;stroke-linejoin:miter;stroke-opacity:1"
       d="m 145.30083,141.91683 c 0,0 -39.97359,-10.15203 -32.99407,5.49901 6.97951,15.65103 22.63055,21.99605 26.86056,28.12956 4.23001,6.13352 26.43756,13.32453 29.18707,2.74951 2.7495,-10.57503 6.97951,-20.51555 -1.05751,-27.49506 -8.03701,-6.97952 -21.99605,-8.88302 -21.99605,-8.88302 z"
       id="path70" /></g></svg>
